<svg width="62" height="123" viewBox="0 0 62 123" fill="none" xmlns="http://www.w3.org/2000/svg">
<path d="M103.129 31.0637L51.5125 14.4649C42.166 11.4593 32.1566 16.5871 29.1559 25.9182L12.5845 77.4493C9.58384 86.7804 14.7281 96.7813 24.0747 99.7869L75.691 116.386C85.0375 119.391 95.0469 114.264 98.0476 104.932L114.619 53.4014C117.62 44.0703 112.475 34.0694 103.129 31.0637Z" fill="black"/>
<path d="M75.4193 117.23L23.803 100.632C14.0044 97.4806 8.5925 86.9596 11.7383 77.1771L28.3097 25.646C31.4556 15.8635 41.9856 10.469 51.7842 13.6201L103.4 30.2189C113.199 33.3699 118.611 43.891 115.465 53.6734L98.8937 105.205C95.7479 114.987 85.2179 120.381 75.4193 117.23ZM51.2409 15.3096C42.3758 12.4588 32.8482 17.3398 30.0021 26.1902L13.4307 77.7213C10.5846 86.5717 15.4813 96.0913 24.3463 98.9421L75.9626 115.541C84.8276 118.392 94.3553 113.511 97.2014 104.66L113.773 53.1292C116.619 44.2788 111.722 34.7592 102.857 31.9084L51.2409 15.3096Z" fill="#020202"/>
<path d="M99.2031 23.4316L47.5868 6.83285C38.2402 3.82719 28.2308 8.95497 25.2301 18.2861L8.65875 69.8172C5.65805 79.1483 10.8024 89.1492 20.1489 92.1548L71.7652 108.754C81.1117 111.759 91.1211 106.632 94.1218 97.3004L110.693 45.7693C113.694 36.4382 108.55 26.4373 99.2031 23.4316Z" fill="#91A8ED"/>
<path d="M71.4935 109.598L19.8772 92.9996C10.0786 89.8485 4.66672 79.3275 7.81257 69.545L24.384 18.0139C27.5298 8.23144 38.0598 2.83697 47.8584 5.98802L99.4747 22.5868C109.273 25.7379 114.685 36.2589 111.539 46.0414L94.9679 97.5725C91.8221 107.355 81.2921 112.749 71.4935 109.598ZM47.3151 7.67756C38.4501 4.82674 28.9224 9.70772 26.0763 18.5581L9.5049 70.0892C6.65879 78.9396 11.5555 88.4592 20.4205 91.31L72.0368 107.909C80.9018 110.76 90.4295 105.879 93.2756 97.0282L109.847 45.4971C112.693 36.6467 107.796 27.1272 98.9314 24.2763L47.3151 7.67756Z" fill="#020202"/>
<path fill-rule="evenodd" clip-rule="evenodd" d="M67.764 37.3456C73.9527 45.3543 76.0385 48.8463 84.7092 53.5983L83.4613 57.4786C79.2696 70.5134 67.2597 78.971 54.2506 79.3674C43.9111 71.4626 39.0822 57.59 43.2739 44.5551L44.5218 40.6748C54.3371 41.8675 58.0682 40.243 67.764 37.3456ZM63.6022 50.2876C66.0081 51.0613 67.3342 53.6347 66.5609 56.0395C66.0927 57.4953 64.9616 58.5546 63.608 58.9893C63.2705 61.9164 62.9348 64.8473 62.5973 67.7744L54.2287 65.0832C55.6606 62.508 57.0953 59.9338 58.5281 57.3558C57.6817 56.2136 57.38 54.6935 57.8482 53.2377C58.6206 50.8357 61.1962 49.5139 63.605 50.2885L63.6022 50.2876Z" fill="black"/>
</svg>
