<svg width="78" height="144" viewBox="0 0 78 144" fill="none" xmlns="http://www.w3.org/2000/svg">
<path d="M6.83553 19.4416L-39.6652 47.3209C-48.0854 52.3692 -50.8285 63.2786 -45.7921 71.6878L-17.9781 118.127C-12.9417 126.537 -2.03286 129.261 6.38736 124.213L52.8881 96.3335C61.3083 91.2852 64.0514 80.3758 59.0149 71.9666L31.201 25.527C26.1645 17.1178 15.2557 14.3933 6.83553 19.4416Z" fill="black"/>
<path d="M53.3353 97.0597L6.8362 124.944C-1.99089 130.236 -13.4669 127.371 -18.7485 118.557L-46.5676 72.1194C-51.8469 63.3039 -48.9625 51.8273 -40.1373 46.5333L6.36177 18.6489C15.1889 13.3571 26.6649 16.222 31.9465 25.0356L59.7656 71.4736C65.0449 80.2891 62.1605 91.7657 53.3353 97.0597ZM-39.2206 48.0552C-47.2061 52.8422 -49.8176 63.2279 -45.04 71.2052L-17.2209 117.643C-12.4451 125.618 -2.06002 128.212 5.92783 123.423L52.4269 95.5387C60.4124 90.7517 63.0239 80.366 58.2463 72.3887L30.4272 25.9507C25.6514 17.9757 15.2663 15.3819 7.27848 20.1708L-39.2206 48.0552Z" fill="#020202"/>
<path d="M0.455399 18.8331L-46.0454 46.7124C-54.4656 51.7607 -57.2086 62.6701 -52.1722 71.0793L-24.3582 117.519C-19.3218 125.928 -8.41298 128.653 0.00723191 123.604L46.508 95.7249C54.9282 90.6767 57.6713 79.7672 52.6348 71.3581L24.8209 24.9185C19.7844 16.5093 8.87562 13.7848 0.455399 18.8331Z" fill="#FF7051"/>
<path d="M49.3788 95.3007C48.6942 95.8535 47.9613 96.3655 47.1871 96.831L0.688063 124.715C-3.68856 127.341 -8.82548 128.105 -13.7711 126.871C-18.7185 125.635 -22.8864 122.549 -25.5035 118.176L-53.3225 71.7381C-58.7289 62.7135 -55.7706 50.9605 -46.7387 45.5451L-0.239599 17.6607C8.79695 12.2417 20.5456 15.1753 25.9538 24.2023L53.7729 70.6403C58.7129 78.8895 56.6694 89.4172 49.3807 95.303L49.3788 95.3007ZM45.8195 94.5478C53.5937 89.8858 56.136 79.7728 51.4849 72.0088L23.6658 25.5709C19.0128 17.8046 8.90227 15.2818 1.12804 19.9439L-45.371 47.8283C-53.1453 52.4903 -55.6893 62.601 -51.0364 70.3673L-23.2173 116.805C-20.9641 120.567 -17.3778 123.226 -13.1209 124.286C-8.86451 125.35 -4.44627 124.691 -0.679577 122.432L45.8195 94.5478Z" fill="black"/>
<path d="M20.2064 57.7648L7.266 49.6344C6.80665 49.3438 6.27894 49.3175 5.79475 49.5526L-2.20858 54.4072C-3.26121 53.5045 -4.6304 53.021 -6.06734 53.0902L-6.99199 51.5443C-7.79191 50.2094 -9.55552 49.7326 -10.935 50.5615C-12.3146 51.3903 -12.7515 53.127 -11.9246 54.5047L-10.9999 56.0506C-11.6941 57.2613 -11.9157 58.6987 -11.6147 60.0524L-19.6659 64.8241C-20.0593 65.1151 -20.3279 65.6172 -20.2852 66.1606L-19.1782 81.3869C-19.1447 81.8198 -18.9377 82.2648 -18.6294 82.5899C-15.4514 85.62 -11.2483 86.2788 -7.90236 84.2727C-4.55644 82.2665 -3.15701 78.2508 -4.32991 74.0159C-4.47163 73.5905 -4.7393 73.2401 -5.13062 72.963L-15.1825 66.6176L-9.63792 63.3492C-8.5447 64.2267 -7.24309 64.6926 -5.84489 64.6509L3.53594 80.3093C5.28749 83.2329 4.54801 87.0237 1.79553 89.0715L-2.37783 92.2552C-2.85468 92.5985 -2.95756 93.2823 -2.65557 93.7836L-1.30376 96.0377C-0.978941 96.5814 -0.244855 96.7642 0.299574 96.4386L24.3826 81.9982C24.9271 81.6726 25.1111 80.9385 24.7863 80.3948L23.4345 78.1407C23.1325 77.6394 22.5089 77.4472 21.9571 77.6647L17.0173 79.9466C13.8921 81.3677 10.2242 80.2729 8.47455 77.3516L-0.906289 61.6932C-0.212128 60.4825 -0.00824918 59.1127 -0.26453 57.7342L5.22794 54.3825L6.08136 66.2435C6.11489 66.6765 6.32189 67.1214 6.63016 67.4466C9.8082 70.4767 14.0113 71.1355 17.3572 69.1293C20.7031 67.1232 22.1026 63.1075 20.9296 58.8726C20.8714 58.3949 20.6056 58.0469 20.212 57.7717L20.2064 57.7648ZM-9.257 73.2764L-16.9076 77.8652L-17.5879 68.0011L-9.257 73.2764ZM8.38611 62.6981L7.70577 52.834L16.0791 58.0865L8.38611 62.6981Z" fill="black"/>
</svg>
