<svg version="1.2" xmlns="http://www.w3.org/2000/svg" viewBox="0 0 1440 845" width="1440" height="845">
	<title>Future People - Desktop - Notre vision-svg</title>
	<defs>
		<clipPath clipPathUnits="userSpaceOnUse" id="cp1">
			<path d="m0 0h1440v1181h-1440z"/>
		</clipPath>
		<clipPath clipPathUnits="userSpaceOnUse" id="cp2">
			<path d="m1344 1073v31h-37v-31z"/>
		</clipPath>
		<clipPath clipPathUnits="userSpaceOnUse" id="cp3">
			<path d="m1344 1096v31h-37v-31z"/>
		</clipPath>
		<clipPath clipPathUnits="userSpaceOnUse" id="cp4">
			<path d="m149 1102h28v27h-28z"/>
		</clipPath>
		<clipPath clipPathUnits="userSpaceOnUse" id="cp5">
			<path d="m81 1102h28v27h-28z"/>
		</clipPath>
		<clipPath clipPathUnits="userSpaceOnUse" id="cp6">
			<path d="m231 1102h28v27h-28z"/>
		</clipPath>
		<clipPath clipPathUnits="userSpaceOnUse" id="cp7">
			<path d="m105 745h378v102h-378z"/>
		</clipPath>
	</defs>
	<style>
		.s0 { fill: #000000 } 
		.s1 { fill: #fe91e8;stroke: #000000;stroke-width: 2 } 
		.s2 { fill: #fe91e8;stroke: #000000;stroke-width: 4 } 
		.s3 { fill: #ffffff } 
		.s4 { fill: #000000;stroke: #020202;stroke-width: 3 } 
		.s5 { fill: #ffc903;stroke: #020202;stroke-width: 3 } 
		.s6 { fill: #fffaf5 } 
		.s7 { fill: none;stroke: #000000;stroke-width: 3 } 
		.s8 { fill: #fe91e8;stroke: #000000;stroke-width: 3 } 
		.s9 { fill: #ffffff;stroke: #000000;stroke-width: 2 } 
		.s10 { fill: #020202 } 
		.s11 { fill: #23a093 } 
		.s12 { fill: #91a8ed } 
		.s13 { fill: #efefef } 
		.s14 { fill: #ffc903 } 
		.s15 { fill: #fe91e8 } 
		.s16 { opacity: .3;fill: #000000 } 
		.s17 { fill: #ffc903;stroke: #000000;stroke-width: 3 } 
	</style>
	<g id="Clip-Path" clip-path="url(#cp1)">
		<g id="Layer">
			<path id="Layer" class="s0" d="m-3 839h1440v342h-1440z"/>
			<g id="Clip-Path" clip-path="url(#cp2)">
				<g id="Layer">
					<path id="Layer" class="s1" d="m1328.3 1075.7h0.1l13.6 18.7c1.1 1.5 1.3 3.5 0.7 5.3-0.7 1.7-2 2.9-3.6 3.3h-27.2c-1.6-0.3-2.9-1.5-3.5-3.2-0.7-1.8-0.4-3.7 0.6-5.2l13.6-19.3c0.8-0.9 1.9-1.4 2.9-1.3 1.1 0.1 2.2 0.7 2.8 1.7z"/>
				</g>
			</g>
			<g id="Clip-Path" clip-path="url(#cp3)">
				<g id="Layer">
					<path id="Layer" class="s2" d="m1327.5 1099.2l0.1 0.1 13.6 18.7c0.8 1.2 1 2.9 0.5 4.3-0.5 1.4-1.6 2.4-2.7 2.7h-27c-1.2-0.3-2.2-1.2-2.7-2.6-0.5-1.4-0.3-3 0.5-4.2l13.6-19.3c0.6-0.6 1.3-0.9 2.1-0.9 0.7 0 1.5 0.5 2 1.2z"/>
				</g>
			</g>
			<g id="Clip-Path" clip-path="url(#cp4)">
				<g id="Layer">
					<path id="Layer" fill-rule="evenodd" class="s3" d="m168.8 1102.1c1.5 0.1 2.5 0.3 3.4 0.6 0.9 0.4 1.7 0.8 2.4 1.6 0.8 0.7 1.3 1.5 1.7 2.4 0.3 0.8 0.5 1.8 0.6 3.2 0.1 1.5 0.1 1.9 0.1 5.6 0 3.7 0 4.1-0.1 5.6-0.1 1.4-0.3 2.4-0.6 3.2-0.4 0.9-0.9 1.7-1.7 2.4-0.7 0.8-1.5 1.3-2.4 1.6-0.9 0.3-1.9 0.6-3.4 0.6-1.5 0.1-2 0.1-5.8 0.1-3.8 0-4.3 0-5.8-0.1-1.5 0-2.5-0.3-3.4-0.6-0.9-0.3-1.7-0.8-2.4-1.6-0.8-0.7-1.3-1.5-1.7-2.4-0.3-0.8-0.6-1.8-0.6-3.2-0.1-1.5-0.1-1.9-0.1-5.6 0-3.7 0-4.1 0.1-5.6 0-1.4 0.3-2.4 0.6-3.2 0.4-0.9 0.9-1.7 1.7-2.4 0.7-0.8 1.5-1.2 2.4-1.6 0.9-0.3 1.9-0.6 3.4-0.6 1.5-0.1 2-0.1 5.8-0.1 3.8 0 4.3 0 5.8 0.1zm-11.5 2.4c-1.3 0.1-2.1 0.3-2.6 0.5-0.6 0.2-1.1 0.5-1.6 1-0.4 0.5-0.8 0.9-1 1.5-0.2 0.5-0.4 1.2-0.5 2.5-0.1 1.5-0.1 1.9-0.1 5.5 0 3.6 0 4 0.1 5.4 0.1 1.4 0.3 2.1 0.5 2.6 0.2 0.6 0.5 1 1 1.5 0.5 0.5 1 0.8 1.6 1 0.5 0.2 1.3 0.4 2.6 0.5 1.5 0 2 0.1 5.7 0.1 3.7 0 4.2-0.1 5.7-0.1 1.3-0.1 2.1-0.3 2.6-0.5 0.6-0.2 1.1-0.5 1.6-1 0.4-0.5 0.8-0.9 1-1.5 0.2-0.5 0.4-1.2 0.5-2.6 0.1-1.4 0.1-1.8 0.1-5.4 0-3.6 0-4-0.1-5.5-0.1-1.3-0.3-2-0.5-2.5-0.2-0.6-0.5-1-1-1.5-0.5-0.5-1-0.8-1.6-1-0.5-0.2-1.3-0.4-2.6-0.5-1.5 0-2-0.1-5.7-0.1-3.7 0-4.2 0.1-5.7 0.1z"/>
					<path id="Layer" fill-rule="evenodd" class="s3" d="m170.2 1115.5c0 3.8-3.2 6.9-7.2 6.9-4 0-7.2-3.1-7.2-6.9 0-3.8 3.2-6.9 7.2-6.9 4 0 7.2 3.1 7.2 6.9zm-2.5 0c0-2.5-2.1-4.5-4.7-4.5-2.6 0-4.7 2-4.7 4.5 0 2.5 2.1 4.5 4.7 4.5 2.6 0 4.7-2 4.7-4.5z"/>
					<path id="Layer" class="s3" d="m172.2 1108.3c0 0.9-0.8 1.6-1.7 1.6-1 0-1.7-0.7-1.7-1.6 0-0.9 0.8-1.6 1.7-1.6 0.9 0 1.7 0.7 1.7 1.6z"/>
				</g>
			</g>
			<g id="Clip-Path" clip-path="url(#cp5)">
				<g id="Layer">
					<path id="Layer" fill-rule="evenodd" class="s3" d="m109 1104v23c0 1.1-0.9 2-2.1 2h-23.8c-1.2 0-2.1-0.9-2.1-2v-23c0-1.1 0.9-2 2.1-2h23.8c1.2 0 2.1 0.9 2.1 2zm-19.7 8.1h-4.1v12.9h4.1zm0.3-4.1c0-1.2-1-2.3-2.4-2.3-1.3 0-2.4 1.1-2.4 2.3 0 1.3 1.1 2.3 2.4 2.3 1.4 0 2.4-1 2.4-2.3zm15.3 9.9c0-3.4-0.8-6.1-5-6.1-2 0-3.4 1.1-3.9 2.1h-0.1v-1.8h-4v12.9h4.2v-6.4c0-1.6 0.3-3.3 2.4-3.3 2.2 0 2.2 1.9 2.2 3.4v6.3h4.2z"/>
				</g>
			</g>
			<g id="Clip-Path" clip-path="url(#cp6)">
				<g id="Layer">
					<path id="Layer" fill-rule="evenodd" class="s3" d="m259 1104v23c0 1.1-0.9 2-2.1 2h-23.8c-1.2 0-2.1-0.9-2.1-2v-23c0-1.1 0.9-2 2.1-2h23.8c1.2 0 2.1 0.9 2.1 2zm-19.7 8.1h-4.1v12.9h4.1zm0.3-4.1c0-1.2-1-2.3-2.4-2.3-1.3 0-2.4 1.1-2.4 2.3 0 1.3 1.1 2.3 2.4 2.3 1.4 0 2.4-1 2.4-2.3zm15.3 9.9c0-3.4-0.8-6.1-5-6.1-2 0-3.4 1.1-3.9 2.1h-0.1v-1.8h-4v12.9h4.2v-6.4c0-1.6 0.3-3.3 2.4-3.3 2.2 0 2.2 1.9 2.2 3.4v6.3h4.2z"/>
				</g>
			</g>
			<path id="Layer" class="s4" d="m1353 931.3v56.7c0 5.8-4.7 10.5-10.4 10.5h-250.8c-5.8 0-10.5-4.7-10.5-10.5v-56.7c0-5.7 4.7-10.4 10.5-10.4h250.8c5.7 0 10.4 4.7 10.4 10.4z"/>
			<path id="Layer" class="s5" d="m1348.2 925.9v56.7c0 5.8-4.7 10.5-10.5 10.5h-250.3c-5.7 0-10.4-4.7-10.4-10.5v-56.7c0-5.7 4.7-10.4 10.4-10.4h250.3c5.8 0 10.5 4.7 10.5 10.4z"/>
			<path id="Layer" class="s0" d="m1115.9 963.3v-11.8h-3v-3.3h3v-2.1q0-1.8 1-2.9 1-1 2.8-1h4.6v3.4h-2.8q-0.7 0-1 0.3-0.3 0.3-0.3 1v1.3h3.5v3.3h-3.5v11.8h-4.3z"/>
			<path id="Layer" class="s0" d="m1126 958.4v-10.2h4.3v9.2q0 2.9 2.3 2.9 1.5 0 2.3-1.3 0.7-1.2 0.7-3.3v-7.5h4.3v15.1h-4q0-1.4 1.5-3.4h-1.9q-0.6 1.8-1.8 2.9-1.3 1-3 1-2.1 0-3.4-1.4-1.3-1.5-1.3-4z"/>
			<path id="Layer" class="s0" d="m1145.6 959.4v-7.9h-3.2v-3.3h3.2v-4.7h4.3v4.7h4v3.3h-4v7.1q0 0.7 0.3 1 0.3 0.3 1 0.3h3.3v3.4h-5q-1.8 0-2.8-1-1.1-1.1-1.1-2.9z"/>
			<path id="Layer" class="s0" d="m1157.1 958.4v-10.2h4.3v9.2q0 2.9 2.2 2.9 1.6 0 2.3-1.3 0.8-1.2 0.8-3.3v-7.5h4.3v15.1h-4q0-1.4 1.4-3.4h-1.8q-0.7 1.8-1.9 2.9-1.2 1-2.9 1-2.2 0-3.4-1.4-1.3-1.5-1.3-4z"/>
			<path id="Layer" class="s0" d="m1175.1 963.3v-15.1h3.9q0 2.4-1.3 4.6h1.8q0.6-2.6 1.7-3.7 1.1-1.2 3.4-1.2 0.8 0 0.9 0v4.5q-0.8-0.1-1.6-0.1-2.4 0-3.4 1.1-1.1 1.2-1.1 4.1v5.8z"/>
			<path id="Layer" fill-rule="evenodd" class="s0" d="m1186.5 955.8q0-3.5 2.2-5.8 2.2-2.2 5.5-2.2c2.2 0 4 0.7 5.4 2.2q1.9 2.2 1.9 5.8 0 0.7 0 1h-10.7q0.1 1.9 1 2.8 0.9 1 2.4 1 2.4 0 3.5-2.7l3.8 1.5q-0.7 1.8-2.5 3.2-1.7 1.2-4.8 1.2-3.5 0-5.6-2.2-2.1-2.2-2.1-5.8zm4.5-2h6.3q-0.4-3-3.1-3-1.3 0-2.2 0.8-0.8 0.8-1 2.2z"/>
			<path id="Layer" fill-rule="evenodd" class="s0" d="m1211.9 969.2v-21h3.9q0 1.2-1.3 3.1h1.8q0.9-1.7 2-2.6 1-0.9 3.1-1 2.8 0 4.5 2.3 1.7 2.2 1.7 5.8 0 3.6-1.7 5.8-1.7 2.2-4.5 2.2-3.5 0-5-3.6h-1.8q0.5 1 0.8 1.6 0.3 0.5 0.5 1.8 0.3 1.2 0.3 2.8v2.8zm11.2-13.4q0-4.8-3.5-4.8-1.7 0-2.7 1.2-0.9 1.3-0.9 3.6c0 1.5 0.3 2.7 0.9 3.5q1 1.3 2.7 1.3 3.5 0 3.5-4.8z"/>
			<path id="Layer" fill-rule="evenodd" class="s0" d="m1229.8 955.8q0-3.5 2.2-5.8 2.2-2.2 5.5-2.2c2.2 0 4.1 0.7 5.4 2.2q1.9 2.2 1.9 5.8 0 0.7 0 1h-10.7q0.1 1.9 1 2.8 0.9 1 2.4 1 2.4 0 3.5-2.7l3.9 1.5q-0.8 1.8-2.6 3.2-1.7 1.2-4.8 1.2-3.5 0-5.6-2.2-2.1-2.2-2.1-5.8zm4.5-2h6.3q-0.4-3-3.1-3-1.3 0-2.2 0.8-0.8 0.8-1 2.2z"/>
			<path id="Layer" fill-rule="evenodd" class="s0" d="m1247 955.8q0-3.6 2.3-5.8 2.2-2.2 5.7-2.2c2.3 0 4.3 0.7 5.7 2.2q2.3 2.2 2.3 5.8c0 2.4-0.8 4.3-2.3 5.8q-2.2 2.2-5.7 2.2c-2.4 0-4.2-0.7-5.7-2.3q-2.3-2.2-2.3-5.7zm10.5 3.4q1-1.1 1-3.4 0-2.2-1-3.4-0.9-1.3-2.5-1.2-1.6 0-2.5 1.2-1 1.2-1 3.4 0 2.3 1 3.4 0.9 1.2 2.5 1.2 1.6 0 2.5-1.2z"/>
			<path id="Layer" fill-rule="evenodd" class="s0" d="m1266.1 969.2v-21h3.9q0 1.2-1.3 3.1h1.8q0.9-1.7 2-2.6 1-0.9 3.1-1 2.8 0 4.5 2.3 1.8 2.2 1.8 5.8-0.1 3.6-1.8 5.8-1.7 2.2-4.5 2.2-3.5 0-5-3.6h-1.8q0.6 1 0.8 1.6 0.3 0.5 0.5 1.8 0.3 1.2 0.3 2.8v2.8zm11.2-13.4q0-4.8-3.5-4.8-1.7 0-2.6 1.2-1 1.3-1 3.6c0 1.5 0.3 2.7 0.9 3.5q1 1.3 2.7 1.3 3.5 0 3.5-4.8z"/>
			<path id="Layer" class="s0" d="m1285 963.3v-21.1h4.3v21.1h-4.3z"/>
			<path id="Layer" fill-rule="evenodd" class="s0" d="m1292.5 955.8q0-3.5 2.2-5.8 2.2-2.2 5.5-2.2c2.2 0 4 0.7 5.3 2.2q2 2.2 2 5.8 0 0.7 0 1h-10.7q0.1 1.9 1 2.8 0.9 1 2.4 1 2.4 0 3.5-2.7l3.8 1.5q-0.7 1.8-2.5 3.2-1.7 1.2-4.8 1.2-3.5 0-5.6-2.2-2.1-2.2-2.1-5.8zm4.5-2h6.2q-0.3-3-3-3-1.3 0-2.2 0.8-0.8 0.8-1 2.2z"/>
			<path id="Layer" class="s0" d="m1310.5 963.3v-4.7h4.9v4.7z"/>
			<path id="Layer" class="s6" d="m-7-21h1448v868h-1448z"/>
			<path id="Layer" fill-rule="evenodd" class="s0" d="m369.4 273q-0.1-6.2 4.1-10.4 4.2-4.3 10.5-4.2 4.8 0 8.2 2.4 3.5 2.3 4.7 6.2l-5.5 2.1q-2-5.7-7.5-5.7-3.8 0-6 2.5-2.1 2.5-2.1 7.1 0 4.5 2.1 7 2.1 2.6 6 2.6 5.6 0 7.7-5.8l5.3 2.2q-1.5 4.2-4.9 6.4-3.2 2.2-8.1 2.2-6.5 0-10.5-4.1-4-4.1-4-10.5zm29.2 4q0-4.7 2.9-7.6 3-3 7.6-3 4.6 0 7.5 3 3 2.9 3 7.6 0 4.8-2.9 7.7-2.9 2.9-7.6 2.9-4.5 0-7.5-3-3-3-3-7.6zm13.8 4.6q1.3-1.6 1.3-4.5 0-3-1.3-4.6-1.2-1.6-3.3-1.6-2.2 0-3.4 1.6-1.2 1.6-1.2 4.6 0 2.9 1.2 4.5 1.2 1.5 3.4 1.5 2.1 0 3.3-1.5zm10.5 5.4v-20h5.2q-0.1 1.8-2 4.6h2.5q0.8-2.4 2.3-3.8 1.6-1.4 3.8-1.4 3.2 0 5 2 1.8 2 1.8 5.4v13.2h-5.7v-12.2q0-3.7-3.2-3.7-1.8 0-2.7 1.1-1.3 1.6-1.3 5.3v9.5zm25.1-5.2v-10.5h-4.2v-4.3h4.2v-6.3h5.7v6.3h5.2v4.3h-5.2v9.4q0 0.9 0.4 1.4 0.5 0.4 1.4 0.4h4.3v4.5h-6.7q-2.3 0-3.7-1.4-1.4-1.5-1.4-3.8zm13.5 0.1q0-2 0.9-3.4 0.9-1.5 2.7-2.3 1.7-0.9 3.8-1.4 2.2-0.5 5.1-0.8v-0.8q0-2.7-3.3-2.7-3.6 0-4.4 3.1l-5.1-1.1q0.3-2.5 2.8-4.3 2.6-1.8 6.7-1.8 4.3 0 6.6 2 2.3 1.9 2.3 5.8v7.3q0 0.8 0.2 1 0.2 0.2 1 0.2h1.8v4.3h-2.4q-2.5 0-3.4-0.9-0.9-0.9-0.9-3.3h-1.9q-1.5 4.8-6.1 4.8-2.8 0-4.6-1.6-1.8-1.6-1.8-4.1zm12.5-3.1v-1.3q-3.4 0.5-5.1 1.3-1.7 0.8-1.7 2.5 0 2.2 2.6 2.2 1.8 0 3-1.2 1.2-1.2 1.2-3.5zm9.4-1.8q0-4.7 3.1-7.6 3.1-3 7.7-3 3.4 0 5.9 1.6 2.6 1.7 3.6 4.4l-5.2 2q-1.3-3.5-4.5-3.5-2.1 0-3.5 1.6-1.4 1.6-1.4 4.5 0 2.8 1.4 4.5 1.4 1.6 3.5 1.6 3.3 0 4.7-3.8l5.3 1.9q-1.1 3-3.8 4.7-2.6 1.7-6.1 1.7-4.6 0-7.7-2.9-3-3-3-7.7zm25.4 4.8v-10.5h-4.2v-4.3h4.2v-6.3h5.7v6.3h5.2v4.3h-5.2v9.4q0 0.9 0.4 1.4 0.5 0.4 1.4 0.4h4.3v4.5h-6.7q-2.3 0-3.7-1.4-1.4-1.5-1.4-3.8zm12.8-4.8q-0.1-4.6 2.8-7.6 2.9-3 7.3-3 4.5 0 7.1 3 2.6 2.9 2.6 7.6 0 0.9 0 1.4h-14.2q0.2 2.4 1.4 3.7 1.2 1.2 3.1 1.2 3.1 0 4.7-3.5l5 2q-1 2.4-3.3 4.2-2.3 1.6-6.4 1.6-4.6 0-7.4-2.8-2.8-3-2.7-7.8zm5.8-2.6h8.4q-0.5-3.9-4.1-3.9-1.7 0-2.9 1-1.1 1-1.4 2.9zm16.3 12.6v-5.6l11.2-10.8-1.4-1.6q-1.3 1.3-2.4 1.9-1.2 0.6-3.1 0.6h-3.8v-4.5h16v4.9l-11.9 11.5 1.4 1.5q2.8-2.4 5.8-2.4h5.3v4.5zm28.9 0v-20h5.2q-0.1 1.8-2 4.6h2.5q0.8-2.4 2.3-3.8 1.6-1.4 3.8-1.4 3.2 0 5 2 1.8 2 1.8 5.4v13.2h-5.7v-12.2q0-3.7-3.2-3.7-1.8 0-2.7 1.1-1.3 1.6-1.3 5.3v9.5zm21.7-10q0-4.7 3-7.6 2.9-3 7.5-3 4.7 0 7.6 3 3 2.9 3 7.6 0 4.8-3 7.7-2.9 2.9-7.6 2.9-4.5 0-7.5-3-3-3-3-7.6zm13.9 4.6q1.2-1.6 1.2-4.5 0-3-1.2-4.6-1.2-1.6-3.4-1.6-2.1 0-3.4 1.6-1.2 1.6-1.2 4.6 0 2.9 1.2 4.5 1.3 1.5 3.4 1.5 2.2 0 3.4-1.5zm10.3-1.1v-13.5h5.7v12.2q0 3.7 3 3.7 2 0 3-1.6 1-1.6 1-4.4v-9.9h5.6v20h-5.2q0-1.9 1.9-4.6h-2.5q-0.8 2.4-2.4 3.8-1.6 1.4-3.9 1.4-2.8 0-4.5-1.9-1.7-1.9-1.7-5.2zm21.4 1.3l5.1-1.6q0.3 1.1 1.2 2.2 0.9 1.2 3.4 1.2 1.4 0 2.2-0.6 0.8-0.6 0.8-1.4 0-0.9-0.5-1.4-0.6-0.5-2-0.8l-2.8-0.5q-3.5-0.7-5.1-2.1-1.5-1.3-1.5-4.1 0-2.9 2.3-4.6 2.3-1.7 6.3-1.7 3.2 0 5.4 1.4 2.2 1.3 3 3.2l-4.7 2.1q-1-2.8-4-2.8-1.4 0-2.1 0.5-0.8 0.6-0.8 1.4 0 0.9 0.6 1.3 0.6 0.4 2.2 0.7l2.8 0.5q6.8 1.3 6.8 6.3 0 3-2.4 4.8-2.5 1.8-6.8 1.8-3.6 0-6.2-1.6-2.6-1.6-3.2-4.2zm34.3 5.2l-7.7-20h6l2.7 8.2q0.9 2.5 1 4 0.3 1.8 0.4 4.4h2.1q0-3 0.2-4.6 0.3-1.6 0.9-3.8l2.7-8.2h5.8l-7.3 20zm16.3-22.7v-5.4h6.1v5.4zm0.2 22.7v-20h5.7v20zm9.1-5.1q0.1-2 1-3.4 0.9-1.5 2.6-2.3 1.8-0.9 3.9-1.4 2.2-0.5 5.1-0.8v-0.8q0-2.7-3.3-2.7-3.6 0-4.4 3.1l-5.1-1.1q0.2-2.5 2.8-4.3 2.6-1.8 6.7-1.8 4.3 0 6.6 2 2.3 1.9 2.3 5.8v7.3q0 0.8 0.2 1 0.2 0.2 1 0.2h1.8v4.3h-2.4q-2.6 0-3.4-0.9-0.9-0.9-1-3.3h-1.8q-1.6 4.8-6.2 4.8-2.7 0-4.6-1.6-1.8-1.6-1.8-4.1zm12.6-3.1v-1.3q-3.4 0.5-5.1 1.3-1.7 0.8-1.7 2.5 0 2.2 2.6 2.2 1.8 0 3-1.2 1.2-1.2 1.2-3.5zm18-1.8q0-4.7 3.1-7.6 3.1-3 7.7-3 3.4 0 5.9 1.6 2.6 1.7 3.6 4.4l-5.2 2q-1.3-3.5-4.5-3.5-2.1 0-3.5 1.6-1.4 1.6-1.4 4.5 0 2.8 1.4 4.5 1.4 1.6 3.5 1.6 3.3 0 4.7-3.8l5.3 1.9q-1.1 3-3.8 4.7-2.6 1.7-6.1 1.7-4.6 0-7.7-2.9-3-3-3-7.7zm22.1 0q0-4.6 2.9-7.6 2.8-3 7.2-3 4.5 0 7.1 3 2.6 2.9 2.6 7.6 0 0.9 0 1.4h-14.1q0.1 2.4 1.3 3.7 1.2 1.2 3.1 1.2 3.2 0 4.7-3.5l5.1 2q-1.1 2.4-3.4 4.2-2.3 1.6-6.4 1.6-4.6 0-7.4-2.8-2.7-3-2.7-7.8zm5.9-2.6h8.3q-0.5-3.9-4.1-3.9-1.7 0-2.8 1-1.2 1-1.4 2.9zm27.8 12.6v-15.7h-3.9v-4.3h3.9v-2.8q0-2.4 1.3-3.8 1.4-1.4 3.7-1.4h6.2v4.5h-3.7q-1 0-1.4 0.5-0.4 0.4-0.4 1.3v1.7h4.6v4.3h-4.6v15.7zm11-10q0-4.7 2.9-7.6 3-3 7.6-3 4.6 0 7.5 3 3 2.9 3 7.6 0 4.8-2.9 7.7-2.9 2.9-7.6 2.9-4.5 0-7.5-3-3-3-3-7.6zm13.8 4.6q1.3-1.6 1.3-4.5 0-3-1.3-4.6-1.2-1.6-3.3-1.6-2.2 0-3.4 1.6-1.2 1.6-1.2 4.6 0 2.9 1.2 4.5 1.2 1.5 3.4 1.5 2.1 0 3.3-1.5zm10.6 5.4v-20h5.1q0 3.2-1.7 6.1h2.4q0.7-3.4 2.2-4.9 1.5-1.6 4.5-1.6 1 0 1.2 0v5.9q-1.1-0.1-2.2-0.1-3.2 0-4.5 1.5-1.4 1.5-1.4 5.4v7.7zm16.4 0v-20h4.9q0 2-1.6 4.2h2.5q0.5-2.3 1.9-3.5 1.4-1.3 3.5-1.3 1.9 0 3.4 1.2 1.5 1.3 1.9 3.6h1.8q0.8-2.3 2.3-3.6 1.5-1.2 3.5-1.2 2.8 0 4.6 2 1.9 2 1.9 5.6v13h-5.7v-12.2q0-3.7-3.1-3.7-1.2 0-2 0.5-0.8 0.5-1.2 1.4-0.3 0.9-0.4 1.7-0.1 0.9-0.1 2.1v10.2h-5.6v-12.2q0-3.7-3.1-3.7-1.2 0-2 0.5-0.8 0.5-1.2 1.4-0.3 0.9-0.4 1.7-0.1 0.9-0.1 2.1v10.2zm34.9-6.5v-13.5h5.6v12.2q0 3.7 3 3.7 2 0 3-1.6 1-1.6 1-4.4v-9.9h5.7v20h-5.3q0.1-1.9 2-4.6h-2.5q-0.8 2.4-2.5 3.8-1.6 1.4-3.8 1.4-2.8 0-4.6-1.9-1.6-1.9-1.6-5.2zm23 6.5v-28h5.7v28zm9.3-5.1q0-2 0.9-3.4 0.9-1.5 2.7-2.3 1.7-0.9 3.8-1.4 2.2-0.5 5.1-0.8v-0.8q0-2.7-3.3-2.7-3.6 0-4.4 3.1l-5.1-1.1q0.3-2.5 2.8-4.3 2.6-1.8 6.7-1.8 4.3 0 6.6 2 2.3 1.9 2.3 5.8v7.3q0 0.8 0.2 1 0.2 0.2 1 0.2h1.8v4.3h-2.4q-2.5 0-3.4-0.9-0.9-0.9-0.9-3.3h-1.9q-1.5 4.8-6.1 4.8-2.8 0-4.6-1.6-1.8-1.6-1.8-4.1zm12.5-3.1v-1.3q-3.4 0.5-5.1 1.3-1.7 0.8-1.7 2.5 0 2.2 2.6 2.2 1.8 0 3-1.2 1.2-1.2 1.2-3.5zm10.6-14.5v-5.4h6v5.4zm0.2 22.7v-20h5.7v20zm10.3 0v-20h5.1q0 3.2-1.7 6.1h2.4q0.8-3.4 2.2-4.9 1.5-1.6 4.6-1.6 1 0 1.2 0v5.9q-1.2-0.1-2.2-0.1-3.2 0-4.6 1.5-1.3 1.5-1.3 5.4v7.7zm14.3-10q0-4.6 2.9-7.6 2.8-3 7.2-3 4.5 0 7.1 3 2.6 2.9 2.6 7.6 0 0.9 0 1.4h-14.1q0.1 2.4 1.3 3.7 1.2 1.2 3.1 1.2 3.2 0 4.7-3.5l5.1 2q-1.1 2.4-3.4 4.2-2.3 1.6-6.4 1.6-4.6 0-7.4-2.8-2.7-3-2.7-7.8zm5.9-2.6h8.3q-0.5-3.9-4.1-3.9-1.7 0-2.8 1-1.2 1-1.4 2.9zm24.7 2.6q0-4.7 2.9-7.6 3-3 7.6-3 4.6 0 7.5 3 3 2.9 3 7.6 0 4.8-2.9 7.7-2.9 2.9-7.6 2.9-4.5 0-7.5-3-3-3-3-7.6zm13.8 4.6q1.3-1.6 1.3-4.5 0-3-1.3-4.6-1.2-1.6-3.3-1.6-2.2 0-3.4 1.6-1.2 1.6-1.2 4.6 0 2.9 1.2 4.5 1.2 1.5 3.4 1.5 2.1 0 3.3-1.5zm10.3-1.1v-13.5h5.7v12.2q0 3.7 3 3.7 2 0 3-1.6 1-1.6 1-4.4v-9.9h5.7v20h-5.3q0-1.9 1.9-4.6h-2.4q-0.9 2.4-2.5 3.8-1.6 1.4-3.8 1.4-2.9 0-4.6-1.9-1.7-1.9-1.7-5.2zm-673.3 66.5q0-4.6 2.8-7.6 2.9-3 7.3-3 4.5 0 7.1 3 2.6 2.9 2.6 7.6 0 0.9 0 1.4h-14.2q0.2 2.4 1.4 3.7 1.2 1.2 3.1 1.2 3.1 0 4.7-3.5l5 2q-1 2.4-3.3 4.2-2.3 1.6-6.4 1.6-4.6 0-7.4-2.8-2.7-3-2.7-7.8zm5.8-2.6h8.4q-0.5-3.9-4.1-3.9-1.7 0-2.9 1-1.1 1-1.4 2.9zm17.5 12.6v-20h5.1q0 1.8-1.9 4.6h2.4q0.8-2.4 2.4-3.8 1.6-1.4 3.8-1.4 3.2 0 5 2 1.8 2 1.8 5.4v13.2h-5.7v-12.2q0-3.7-3.2-3.7-1.8 0-2.7 1.1-1.3 1.6-1.3 5.3v9.5zm27.8 0l-7.7-20h6l2.8 8.2q0.8 2.5 1 4 0.2 1.8 0.3 4.4h2.1q0-3 0.2-4.6 0.3-1.6 1-3.8l2.6-8.2h5.8l-7.3 20zm14.5-10q0-4.7 2.9-7.6 3-3 7.6-3 4.6 0 7.5 3 3 2.9 3 7.6 0 4.8-2.9 7.7-2.9 2.9-7.6 2.9-4.5 0-7.5-3-3-3-3-7.6zm13.8 4.6q1.3-1.6 1.3-4.5 0-3-1.3-4.6-1.2-1.6-3.3-1.6-2.2 0-3.4 1.6-1.2 1.6-1.2 4.6 0 2.9 1.2 4.5 1.2 1.5 3.4 1.5 2.1 0 3.3-1.5zm23.1-14.6h5.9l-8.4 23.2q-0.9 2.4-2.3 3.5-1.4 1.1-3.9 1.1h-6v-4.5h5.2q1.1 0 1.6-0.5 0.5-0.4 1-1.8l0.4-1-9.7-20h6.1l3.4 7.7q1.2 2.8 1.3 7.4h2.1q0.1-3.3 0.2-4.5 0.2-1.5 0.7-3.3zm6.3 10q0-4.6 2.8-7.6 2.9-3 7.3-3 4.5 0 7.1 3 2.6 2.9 2.6 7.6 0 0.9 0 1.4h-14.2q0.2 2.4 1.4 3.7 1.2 1.2 3.1 1.2 3.1 0 4.7-3.4l5 1.9q-1 2.4-3.3 4.2-2.3 1.7-6.4 1.7-4.6 0-7.4-2.9-2.7-2.9-2.7-7.8zm5.8-2.6h8.4q-0.5-3.9-4.1-3.9-1.7 0-2.9 1-1.1 1-1.4 2.9zm17.5 12.6v-20h5.1q0 3.2-1.7 6.1h2.4q0.8-3.4 2.2-4.9 1.5-1.6 4.6-1.6 1 0 1.2 0.1v5.8q-1.2-0.1-2.2-0.1-3.2 0-4.6 1.5-1.3 1.5-1.3 5.4v7.7zm23 0v-20h5.1q0 1.8-1.9 4.6h2.5q0.8-2.4 2.3-3.8 1.6-1.4 3.8-1.4 3.2 0 5 2 1.8 2 1.8 5.4v13.2h-5.7v-12.1q0-3.8-3.2-3.8-1.8 0-2.7 1.1-1.3 1.6-1.3 5.3v9.5zm21.7-10q0-4.7 3-7.6 2.9-3 7.5-3 4.7 0 7.6 3 2.9 2.9 2.9 7.6 0 4.8-2.9 7.7-2.9 3-7.6 3-4.5 0-7.5-3-3-3.1-3-7.7zm13.9 4.6q1.2-1.5 1.2-4.5 0-3-1.2-4.6-1.2-1.6-3.4-1.6-2.1 0-3.4 1.6-1.2 1.6-1.2 4.6 0 3 1.2 4.5 1.3 1.5 3.4 1.5 2.2 0 3.4-1.5zm10.3-1.1v-13.5h5.6v12.2q0 3.7 3 3.7 2 0 3-1.6 1-1.6 1-4.4v-9.9h5.7v20h-5.3q0.1-1.9 2-4.6h-2.5q-0.8 2.4-2.5 3.9-1.6 1.4-3.8 1.4-2.8 0-4.6-2-1.6-1.9-1.6-5.2zm21.4 1.4l5.1-1.7q0.3 1.1 1.2 2.3 0.9 1.1 3.4 1.1 1.4 0 2.2-0.6 0.8-0.5 0.8-1.4 0-0.9-0.5-1.3-0.6-0.6-2-0.8l-2.8-0.6q-3.5-0.7-5.1-2-1.5-1.4-1.5-4.2-0.1-2.8 2.3-4.6 2.3-1.7 6.3-1.7 3.2 0 5.4 1.4 2.2 1.3 3 3.2l-4.7 2.1q-1-2.8-4-2.8-1.4 0-2.1 0.6-0.8 0.5-0.8 1.4 0 0.8 0.6 1.2 0.6 0.4 2.2 0.7l2.8 0.5q6.8 1.4 6.8 6.3 0 3-2.4 4.8-2.5 1.8-6.8 1.8-3.6 0-6.2-1.6-2.6-1.5-3.2-4.1zm31.5 2.8q-2.3-3-2.3-7.7 0-4.7 2.3-7.6 2.3-3 5.9-3 4.7 0 6.7 4.7h2.4q-0.8-1.2-1.2-2-0.3-0.8-0.6-2.4-0.4-1.6-0.4-3.8v-3.9h5.7v28h-5.1q0-1.6 1.7-4.1h-2.4q-1.1 2.3-2.6 3.5-1.4 1.2-4.2 1.3-3.6 0-5.9-3zm13.1-7.7q0-3.1-1.3-4.7-1.2-1.6-3.5-1.6-4.7 0-4.7 6.3 0 6.3 4.7 6.3 2.2 0 3.5-1.6 1.3-1.6 1.3-4.7zm9.9-12.7v-5.4h6v5.4zm0.2 22.7v-20h5.7v20zm10.4 0v-20h5.1q0 3.2-1.7 6.1h2.4q0.7-3.4 2.2-4.9 1.5-1.6 4.5-1.6 1 0 1.2 0.1v5.8q-1.1-0.1-2.2-0.1-3.2 0-4.5 1.5-1.4 1.5-1.4 5.4v7.7zm14.3-10q0-4.6 2.9-7.6 2.9-3 7.2-3 4.6 0 7.2 3 2.6 2.9 2.6 7.6 0 0.9-0.1 1.4h-14.1q0.1 2.4 1.3 3.7 1.2 1.2 3.2 1.2 3.1 0 4.6-3.4l5.1 1.9q-1 2.4-3.4 4.2-2.2 1.7-6.3 1.7-4.6 0-7.4-2.9-2.8-2.9-2.8-7.8zm5.9-2.6h8.3q-0.4-3.9-4.1-3.9-1.7 0-2.8 1-1.1 1-1.4 2.9zm16.1 2.6q0-4.7 3.1-7.6 3.1-3 7.7-3 3.4 0 5.9 1.7 2.5 1.6 3.6 4.3l-5.3 2q-1.2-3.5-4.4-3.5-2.2 0-3.5 1.6-1.4 1.6-1.4 4.5 0 2.9 1.4 4.5 1.4 1.6 3.5 1.6 3.3 0 4.6-3.8l5.4 2q-1.2 2.9-3.8 4.6-2.6 1.8-6.1 1.8-4.7 0-7.7-3-3-3-3-7.7zm25.4 4.8v-10.5h-4.2v-4.3h4.2v-6.3h5.7v6.3h5.2v4.3h-5.2v9.4q0 1 0.4 1.4 0.4 0.4 1.3 0.4h4.4v4.5h-6.7q-2.4 0-3.7-1.4-1.4-1.5-1.4-3.8zm12.7-4.8q0-4.6 2.9-7.6 2.9-3 7.2-3 4.6 0 7.2 3 2.6 2.9 2.6 7.6 0 0.9-0.1 1.4h-14.1q0.1 2.4 1.3 3.7 1.2 1.2 3.2 1.2 3.1 0 4.6-3.4l5.1 1.9q-1 2.4-3.4 4.2-2.2 1.7-6.3 1.7-4.6 0-7.4-2.9-2.8-2.9-2.8-7.8zm5.9-2.6h8.3q-0.4-3.9-4.1-3.9-1.7 0-2.8 1-1.1 1-1.4 2.9zm17.5 12.6v-20h4.8q0 2-1.6 4.2h2.6q0.5-2.3 1.8-3.5 1.4-1.3 3.5-1.3 2 0 3.4 1.3 1.5 1.2 1.9 3.5h1.9q0.7-2.3 2.2-3.5 1.5-1.3 3.5-1.3 2.9 0 4.7 2 1.8 2 1.8 5.6v13h-5.7v-12.1q0-3.8-3.1-3.8-1.2 0-2 0.5-0.8 0.5-1.1 1.4-0.4 0.9-0.5 1.7-0.1 0.9-0.1 2.1v10.2h-5.6v-12.1q0-3.8-3.1-3.8-1.2 0-2 0.5-0.8 0.5-1.1 1.4-0.4 0.9-0.5 1.7-0.1 0.9-0.1 2.1v10.2zm33.8-10q0-4.6 2.9-7.6 2.9-3 7.2-3 4.5 0 7.1 3 2.6 2.9 2.6 7.6 0 0.9 0 1.4h-14.1q0.1 2.4 1.3 3.7 1.2 1.2 3.2 1.2 3.1 0 4.6-3.4l5.1 1.9q-1.1 2.4-3.4 4.2-2.3 1.7-6.3 1.7-4.6 0-7.4-2.9-2.8-2.9-2.8-7.8zm5.9-2.6h8.3q-0.4-3.9-4.1-3.9-1.7 0-2.8 1-1.1 1-1.4 2.9zm17.4 12.6v-20h5.2q-0.1 1.8-2 4.6h2.5q0.8-2.4 2.3-3.8 1.6-1.4 3.8-1.4 3.2 0 5 2 1.8 2 1.8 5.4v13.2h-5.7v-12.1q0-3.8-3.2-3.8-1.8 0-2.7 1.1-1.3 1.6-1.3 5.3v9.5zm25.1-5.2v-10.5h-4.2v-4.3h4.2v-6.3h5.7v6.3h5.2v4.3h-5.2v9.4q0 1 0.4 1.4 0.4 0.4 1.4 0.4h4.3v4.5h-6.7q-2.4 0-3.7-1.4-1.4-1.5-1.4-3.8zm23-1.3v-13.5h5.7v12.2q0 3.7 3 3.7 2 0 3-1.6 1-1.6 1-4.4v-9.9h5.6v20h-5.2q0-1.9 1.9-4.6h-2.5q-0.8 2.4-2.4 3.9-1.6 1.4-3.9 1.4-2.8 0-4.5-2-1.7-1.9-1.7-5.2zm23.1 6.5v-20h5.1q-0.1 1.8-2 4.6h2.5q0.8-2.4 2.4-3.8 1.5-1.4 3.7-1.4 3.3 0 5 2 1.8 2 1.8 5.4v13.2h-5.7v-12.1q0-3.8-3.2-3.8-1.8 0-2.6 1.1-1.4 1.6-1.4 5.3v9.5zm192.8 0l7.7-10.4-7.3-9.6h6.8l1.2 1.7q1.4 2 1.4 6.2h2.1q0-3.2 2.1-6.2l1.2-1.7h6.2l-7.3 9.7 7.9 10.3h-7l-1.5-2.2q-1.5-2.1-1.4-6.3h-2.1q-0.1 3-2.2 6.2l-1.6 2.3z"/>
			<path id="Layer" class="s7" d="m1467 870.5h-1538"/>
			<path id="Layer" class="s4" d="m104.4 34.4v42.2c0 4.3-3.4 7.8-7.7 7.8h-43.8c-4.3 0-7.7-3.5-7.7-7.8v-42.2c0-4.3 3.4-7.8 7.7-7.8h43.8c4.3 0 7.7 3.5 7.7 7.8z"/>
			<path id="Layer" class="s5" d="m100.8 30.4v42.2c0 4.3-3.4 7.8-7.7 7.8h-45.8c-4.3 0-7.7-3.5-7.7-7.8v-42.2c0-4.3 3.4-7.8 7.7-7.8h45.8c4.3 0 7.7 3.5 7.7 7.8z"/>
			<path id="Layer" fill-rule="evenodd" class="s0" d="m69.1 66.1v-21.6h4q0 1.2-1.3 3.2h1.9q0.9-1.8 2-2.8 1-0.9 3.1-0.9 2.9 0 4.6 2.3 1.8 2.3 1.8 6 0 3.7-1.8 5.9-1.7 2.3-4.6 2.3-3.5 0-5.1-3.6h-1.8q0.6 0.9 0.8 1.5 0.3 0.6 0.6 1.9 0.2 1.2 0.2 2.9v2.9zm11.5-13.8q0-5-3.6-5-1.7 0-2.7 1.3-1 1.3-1 3.7 0 2.4 1 3.6 0.9 1.3 2.7 1.3 3.6 0 3.6-4.9z"/>
			<path id="Layer" class="s0" d="m85.7 60.1v-3.7h3.8v3.7z"/>
			<path id="Layer" class="s0" d="m63.3 42.7v1.6h4.2v4h-6.4v1.5c0 0 2.2 0 2.2 2.5v10.4h-5.2v-14.4h-3.6v-4h3.6v-2.6q0-2.2 1.2-3.5 1.2-1.3 3.3-1.3h5.7v4.2h-3.4q-0.9 0-1.3 0.4-0.3 0.4-0.3 1.2z"/>
			<path id="Layer" class="s8" d="m857.5 750.6c0-10.5 8.6-19.1 19.1-19.1h127.9c10.6 0 19.2 8.6 19.2 19.1 0 10.6-8.6 19.2-19.2 19.2h-127.9c-10.5 0-19.1-8.6-19.1-19.2z"/>
			<path id="Layer" fill-rule="evenodd" class="s0" d="m919.2 755v-9.1h6.9v1.6h-4.9v2h3.7v1.6h-3.7v2.3h4.9v1.6zm7.9 0v-6.5h1.7q-0.1 0.6-0.7 1.5h0.8q0.3-0.8 0.8-1.2 0.5-0.5 1.2-0.5 1.1 0 1.6 0.7 0.6 0.6 0.6 1.7v4.3h-1.8v-4q0-1.2-1.1-1.2-0.5 0-0.8 0.4-0.5 0.5-0.5 1.7v3.1zm9.1 0l-2.5-6.5h1.9l0.9 2.7q0.3 0.8 0.4 1.3 0 0.5 0.1 1.4h0.6q0.1-1 0.1-1.5 0.1-0.5 0.3-1.2l0.9-2.7h1.9l-2.4 6.5zm4.7-3.2q0-1.6 1-2.5 0.9-1 2.4-1 1.5 0 2.5 1 0.9 0.9 0.9 2.5 0 1.5-0.9 2.5-1 0.9-2.5 0.9-1.5 0-2.4-1-1-1-1-2.4zm4.5 1.4q0.4-0.5 0.4-1.4 0-1-0.4-1.5-0.4-0.5-1.1-0.5-0.7 0-1.1 0.5-0.4 0.5-0.4 1.5 0 0.9 0.4 1.4 0.4 0.5 1.1 0.5 0.7 0 1.1-0.5zm7.5-4.7h1.9l-2.7 7.5q-0.3 0.8-0.8 1.2-0.4 0.3-1.2 0.3h-2v-1.4h1.7q0.4 0 0.5-0.2 0.2-0.1 0.4-0.6l0.1-0.3-3.2-6.5h2l1.1 2.5q0.4 0.9 0.4 2.4h0.7q0.1-1.1 0.1-1.4 0-0.5 0.2-1.1zm2.1 3.2q0-1.5 0.9-2.4 0.9-1 2.3-1 1.5 0 2.4 0.9 0.8 1 0.8 2.5 0 0.3 0 0.5h-4.6q0 0.8 0.4 1.2 0.4 0.4 1.1 0.4 1 0 1.5-1.1l1.6 0.6q-0.3 0.8-1.1 1.3-0.7 0.6-2 0.6-1.5 0-2.4-0.9-0.9-1-0.9-2.6zm1.9-0.8h2.7q-0.2-1.3-1.4-1.3-0.5 0-0.9 0.3-0.3 0.4-0.4 1zm5.6 4.1v-6.5h1.7q0 1-0.6 2h0.8q0.3-1.1 0.8-1.6 0.4-0.5 1.4-0.5 0.3 0 0.4 0v1.9q-0.4-0.1-0.7-0.1-1 0-1.5 0.5-0.4 0.5-0.4 1.8v2.5z"/>
			<path id="Layer" class="s0" d="m1356 53.5c0-1.4 1.1-2.5 2.5-2.5h30c1.4 0 2.5 1.1 2.5 2.5 0 1.4-1.1 2.5-2.5 2.5h-30c-1.4 0-2.5-1.1-2.5-2.5z"/>
			<path id="Layer" class="s0" d="m1356 40.5c0-1.4 1.1-2.5 2.5-2.5h30c1.4 0 2.5 1.1 2.5 2.5 0 1.4-1.1 2.5-2.5 2.5h-30c-1.4 0-2.5-1.1-2.5-2.5z"/>
			<path id="Layer" fill-rule="evenodd" class="s3" d="m103.6 937l-2.4-6.9h-11.8l-2.4 6.9h-5.6l10.6-28h6.9l10.4 28zm-12.5-11.4h8.6l-2.3-6.7q-1-2.7-1-6.8h-2q0 4.1-1 6.8zm19.1 1.4q0-4.7 2.9-7.6 2.9-2.9 7.3-2.9 3.4 0 5.7 1.6 2.4 1.6 3.3 4.3l-4.4 1.6q-1.3-3.6-4.7-3.6-2.3 0-3.7 1.7-1.5 1.8-1.5 4.9 0 3.1 1.5 4.9 1.4 1.7 3.7 1.7 3.6 0 4.9-4l4.6 1.6q-1.1 2.9-3.6 4.7-2.4 1.7-5.8 1.7-4.5 0-7.4-2.9-2.8-3-2.8-7.7zm21.3 0q0-4.7 2.9-7.6 2.9-2.9 7.3-2.9 3.4 0 5.8 1.6 2.4 1.6 3.3 4.3l-4.5 1.6q-1.3-3.6-4.7-3.6-2.2 0-3.7 1.7-1.4 1.8-1.4 4.9 0 3.1 1.4 4.9 1.5 1.7 3.8 1.7 3.6 0 4.9-4l4.6 1.6q-1.1 2.9-3.6 4.7-2.5 1.7-5.9 1.7-4.5 0-7.4-2.9-2.8-3-2.8-7.7zm21.4 0q0-4.6 2.8-7.6 2.8-2.9 7.2-2.9 4.4 0 7.2 2.9 2.8 3 2.8 7.6 0 4.7-2.8 7.7-2.8 2.9-7.2 2.9-4.3 0-7.2-3-2.8-3-2.8-7.6zm15 0.1q0-3.2-1.4-4.9-1.4-1.8-3.6-1.8-2.3 0-3.7 1.8-1.3 1.7-1.3 4.9 0 3.2 1.3 4.8 1.4 1.7 3.7 1.7 2.3 0 3.6-1.7 1.4-1.6 1.4-4.8zm8.8 9.9v-19.9h4.3q0 1.9-1.6 4h2.3q1.3-4.6 5.4-4.6 2 0 3.5 1.2 1.5 1.2 2 3.4h1.7q0.6-2.1 2.2-3.4 1.6-1.2 3.6-1.2 2.9 0 4.8 2 1.8 1.9 1.8 5.5v13h-4.8v-12.2q0-4.3-3.6-4.3-2 0-2.8 1.1-0.9 1-1.2 2.3-0.2 1.2-0.2 3.2v9.9h-4.8v-12.2q0-4.3-3.6-4.3-1.8 0-2.8 1.1-1.4 1.7-1.4 5.5v9.9zm35 7.8v-27.7h4.4q0 1.6-1.7 4.1h2.3q1.1-2.3 2.4-3.5 1.4-1.2 4.2-1.3 3.6 0 5.9 3 2.2 2.9 2.2 7.6 0 4.7-2.2 7.7-2.3 2.9-5.9 2.9-4.7 0-6.6-4.8h-2.3q1.1 1.7 1.6 3.4 0.6 1.6 0.6 4.7v3.9zm9.7-11.1q4.9 0 4.9-6.7 0-6.7-4.9-6.7-2.3 0-3.7 1.8-1.4 1.7-1.4 4.9 0 3.2 1.4 5 1.3 1.7 3.7 1.7zm12.6-1.8q0-3.9 3.4-5.6 3.4-1.8 9.1-2.3v-0.7q0-3.1-3.6-3.1-3.9 0-4.7 3.3l-4.5-1.2q0.3-2.4 2.8-4.1 2.5-1.7 6.4-1.7 4.1 0 6.3 1.9 2.2 1.9 2.2 5.5v8q0 0.8 0.2 1 0.2 0.2 1 0.2h1.8v3.9h-2q-2.4 0-3.3-0.9-0.8-0.9-0.9-3.3h-1.7q-0.6 2.2-2.2 3.5-1.5 1.3-3.9 1.3-2.9 0-4.6-1.5-1.8-1.6-1.8-4.2zm12.5-3.1v-1.6q-3.7 0.4-5.7 1.4-1.8 0.9-1.8 2.8 0 1.2 0.7 1.9 0.8 0.6 2.3 0.6 1.9 0 3.2-1.3 1.3-1.4 1.3-3.8zm8.5 12.3q0-2.4 2.8-3.5v-1.7q-2.1-0.7-2.1-2.6 0-2.5 3.1-3.6v-1.6q-2.3-1.8-2.3-4.5 0-3 2.4-5.1 2.3-2 5.7-2 2.6 0 4.5 1 1.8 1.1 2.5 3h1.6q0.2-1.8 0.9-2.6 0.8-0.8 2.2-0.8h1.2v3.8h-2q-1.1 0-1.5 0.4-0.4 0.5-0.5 2l-0.1 0.6q-0.3 3.3-2.6 5.2-2.3 2-5.7 2-2.6 0-4-0.8-1.6 0.6-1.6 1.7 0 1 1.9 1h8.6q2.9 0 4.8 1.7 1.9 1.6 1.9 4.2 0 2.7-1.9 4.3-1.9 1.6-4.8 1.6h-10.1q-2.4 0-3.7-1.1-1.2-1-1.2-2.6zm12.8-14.4q1.1-1.1 1.1-2.8 0-1.8-1.1-2.8-1-1.2-2.7-1.2-1.8 0-2.8 1.2-1.1 1-1.1 2.8 0 1.7 1.1 2.8 1 1 2.8 1 1.7 0 2.7-1zm-6.4 14.4h7.7q2.8 0 2.8-2.1 0-2-2.8-2h-8.9q-1.3 0.7-1.3 2.1 0 2 2.5 2zm18.8-4.1v-19.9h4.6q-0.1 1.8-2 4.6h2.3q0.7-2.3 2.3-3.8 1.6-1.4 3.9-1.4 3.3 0 5.1 1.9 1.8 2 1.8 5.5v13.1h-4.9v-12.2q0-4.3-3.6-4.3-2.1 0-3.1 1.3-1.5 1.8-1.5 6.1v9.1zm21.5-10q0-4.7 2.7-7.6 2.8-2.9 6.9-2.9 4.3 0 6.8 2.8 2.6 2.9 2.6 7.4 0 0.6-0.1 1.5h-14.1q0.2 2.8 1.5 4.2 1.3 1.3 3.5 1.3 3.2 0 4.8-3.6l4.4 1.7q-2.3 5.8-9.3 5.8-4.4 0-7.1-2.8-2.6-2.9-2.6-7.8zm5-2.4h9.1q-0.1-2.1-1.3-3.3-1.2-1.2-3.2-1.2-1.8 0-3.1 1.2-1.2 1.2-1.5 3.3zm17.8 12.4v-19.9h4.5q0 2.8-1.8 5.8h2.2q0.7-3.1 2.2-4.6 1.6-1.6 4.5-1.6 0.8 0 1.5 0.1v5q-0.9-0.1-2.2-0.1-3.2 0-4.6 1.6-1.4 1.7-1.4 5.5v8.2zm21.5-10q0-4.7 2.7-7.6 2.8-2.9 6.9-2.9 4.3 0 6.8 2.8 2.6 2.9 2.6 7.4 0 0.6-0.1 1.5h-14.1q0.2 2.8 1.5 4.2 1.3 1.3 3.5 1.3 3.2 0 4.8-3.6l4.4 1.7q-2.3 5.8-9.3 5.8-4.4 0-7.1-2.8-2.6-2.9-2.6-7.8zm5-2.4h9.1q-0.1-2.1-1.3-3.3-1.2-1.2-3.2-1.2-1.8 0-3.1 1.2-1.2 1.2-1.5 3.3zm19.3 7.3v-11h-4.3v-3.8h4.3v-6.3h4.9v6.3h5.3v3.8h-5.3v10.2q0 1.9 1.9 1.9h4.2v4h-5.9q-2.4 0-3.7-1.3-1.4-1.4-1.4-3.8zm-284.4 60.1v-16.1h-4v-3.8h4v-2.9q0-2.5 1.3-3.8 1.3-1.4 3.7-1.4h5.5v3.9h-3.8q-1.8 0-1.8 1.9v2.3h4.8v3.8h-4.8v16.1zm10.5-10q0-4.6 2.8-7.6 2.9-2.9 7.3-2.9 4.4 0 7.2 2.9 2.8 3 2.8 7.6 0 4.7-2.8 7.7-2.9 2.9-7.2 2.9-4.4 0-7.2-3-2.9-3-2.9-7.6zm15.1 0.1q0-3.2-1.4-4.9-1.4-1.8-3.6-1.8-2.4 0-3.7 1.8-1.3 1.7-1.3 4.9 0 3.2 1.3 4.8 1.3 1.7 3.7 1.7 2.3 0 3.6-1.7 1.4-1.6 1.4-4.8zm8.7 9.9v-19.9h4.5q0 2.8-1.8 5.8h2.2q0.7-3.1 2.2-4.6 1.6-1.6 4.5-1.6 0.8 0 1.5 0.1v5q-0.9-0.1-2.2-0.1-3.2 0-4.6 1.6-1.4 1.7-1.4 5.5v8.2zm15.9 0v-19.9h4.3q0 1.9-1.5 4h2.3q1.3-4.6 5.4-4.6 2 0 3.4 1.2 1.5 1.2 2 3.4h1.8q0.6-2.1 2.2-3.4 1.5-1.2 3.5-1.2 3 0 4.8 2 1.9 1.9 1.9 5.5v13h-4.9v-12.2q0-4.3-3.6-4.3-1.9 0-2.8 1.1-0.8 1-1.1 2.3-0.2 1.2-0.2 3.2v9.9h-4.8v-12.2q0-4.3-3.6-4.3-1.9 0-2.8 1.1-1.4 1.7-1.4 5.5v9.9zm33.6-10q0-4.7 2.7-7.6 2.8-2.9 6.9-2.9 4.3 0 6.8 2.8 2.6 2.9 2.6 7.4 0 0.6-0.1 1.5h-14.1q0.1 2.8 1.5 4.2 1.3 1.3 3.4 1.3 3.3 0 4.9-3.6l4.4 1.7q-2.3 5.8-9.3 5.8-4.4 0-7.1-2.8-2.6-2.9-2.6-7.8zm5-2.4h9.1q-0.2-2.1-1.4-3.3-1.1-1.2-3.1-1.2-1.8 0-3.1 1.2-1.2 1.2-1.5 3.3zm17.8 12.4v-19.9h4.5q0 2.8-1.9 5.8h2.3q0.7-3.1 2.2-4.6 1.6-1.6 4.5-1.6 0.8 0 1.5 0.1v5q-0.9-0.1-2.2-0.1-3.2 0-4.6 1.6-1.4 1.7-1.4 5.5v8.2zm22.8 0v-28h4.9v28zm8.7-10q0-4.7 2.7-7.6 2.8-2.9 7-2.9 4.2 0 6.8 2.8 2.5 2.9 2.5 7.4 0 0.6-0.1 1.5h-14q0.1 2.8 1.4 4.2 1.3 1.3 3.5 1.3 3.3 0 4.9-3.6l4.4 1.7q-2.4 5.8-9.4 5.8-4.4 0-7-2.8-2.7-2.9-2.7-7.8zm5-2.4h9.1q-0.1-2.1-1.3-3.3-1.2-1.2-3.1-1.2-1.9 0-3.2 1.2-1.2 1.2-1.5 3.3zm16.1 7.3l4.5-1.5q0.7 3.5 4.8 3.5 1.7 0 2.6-0.6 1-0.6 1-1.7 0-0.9-0.7-1.5-0.7-0.6-2.3-1l-2.6-0.4q-3.3-0.7-4.9-2-1.6-1.4-1.6-4 0-2.8 2.3-4.5 2.2-1.7 5.8-1.7 3.3 0 5.4 1.4 2.2 1.3 2.9 3.4l-4.1 1.7q-1.1-3-4.4-3-1.5 0-2.4 0.6-0.8 0.6-0.8 1.6 0 0.9 0.6 1.4 0.6 0.5 2.4 0.9l2.6 0.4q2.8 0.6 4.8 2 2 1.5 2 4.2 0 3-2.4 4.7-2.3 1.7-6.4 1.7-3.4 0-6-1.5-2.5-1.5-3.1-4.1zm31.1 5.1v-28h13q4.4 0 6.8 2.1 2.6 2 2.6 5.3 0 3.7-2.4 5-2.2 1.3-5.6 1.5v1.9q3.4 0.1 5 1.2 1.7 1.1 2.2 4.1l1.3 6.9h-5.6l-1-6.4q-0.3-2.6-1.7-3.6-1.3-1-4-1h-5.4v11zm5.2-15.4h6.9q2.3 0 3.5-1.1 1.4-1 1.4-3 0-2-1.4-3-1.2-1-3.5-1h-6.9zm22.4 15.4v-28h5.2v11.3h13.1v-11.3h5.2v28h-5.2v-12.2h-13.1v12.2zm37-10q0-4.7 2.3-7.6 2.2-3 5.8-3 4.7 0 6.6 4.8h2.3q-1.1-1.6-1.7-3.3-0.5-1.7-0.5-4.7v-4.2h4.9v28h-4.4q0-1.6 1.7-4.2h-2.3q-1 2.2-2.4 3.5-1.4 1.3-4.2 1.3-3.6 0-5.8-3-2.3-2.9-2.3-7.6zm15.1 0q0-3.3-1.4-5-1.4-1.7-3.7-1.7-5 0-5 6.7 0 6.7 5 6.7 2.3 0 3.7-1.7 1.4-1.8 1.4-5zm8.4 0q0-4.7 2.7-7.6 2.8-3 6.9-3 4.3 0 6.8 2.9 2.6 2.9 2.6 7.4 0 0.6-0.1 1.5h-14.1q0.1 2.8 1.5 4.2 1.3 1.3 3.4 1.3 3.3 0 4.9-3.6l4.4 1.7q-2.3 5.8-9.3 5.8-4.4 0-7.1-2.8-2.6-2.9-2.6-7.8zm5-2.4h9.1q-0.2-2.1-1.4-3.3-1.1-1.2-3.1-1.2-1.8 0-3.1 1.2-1.2 1.2-1.5 3.3zm25.4 2.4q0-4.7 2.3-7.6 2.3-3 5.9-3 4.6 0 6.5 4.8h2.3q-1-1.6-1.6-3.3-0.5-1.7-0.5-4.7v-4.2h4.9v28h-4.5q0-1.6 1.8-4.2h-2.3q-1 2.2-2.5 3.5-1.4 1.3-4.1 1.3-3.6 0-5.9-3-2.3-2.9-2.3-7.6zm15.1 0q0-3.3-1.4-5-1.3-1.7-3.6-1.7-5 0-5 6.7 0 6.7 5 6.7 2.3 0 3.6-1.7 1.4-1.8 1.4-5zm8.4 0q0-4.7 2.8-7.6 2.7-3 6.9-3 4.2 0 6.8 2.9 2.5 2.9 2.5 7.4 0 0.6 0 1.5h-14.1q0.1 2.8 1.4 4.2 1.3 1.3 3.5 1.3 3.3 0 4.9-3.6l4.4 1.7q-2.3 5.8-9.3 5.8-4.5 0-7.1-2.8-2.7-2.9-2.7-7.8zm5-2.4h9.1q-0.1-2.1-1.3-3.3-1.2-1.2-3.1-1.2-1.9 0-3.1 1.2-1.3 1.2-1.6 3.3zm17.9 12.4v-20h4.3q0 2-1.6 4.1h2.3q1.3-4.7 5.4-4.7 2 0 3.5 1.3 1.5 1.2 2 3.4h1.7q0.6-2.1 2.2-3.4 1.6-1.3 3.6-1.3 2.9 0 4.8 2 1.8 2 1.8 5.6v13h-4.8v-12.2q0-4.3-3.6-4.3-2 0-2.8 1.1-0.9 1-1.2 2.3-0.2 1.2-0.2 3.2v9.9h-4.8v-12.2q0-4.3-3.6-4.3-1.8 0-2.8 1.1-1.4 1.6-1.4 5.5v9.9zm33.8-5.2q0-3.8 3.4-5.5 3.3-1.8 9.1-2.3v-0.7q0-3.1-3.6-3.1-3.9 0-4.8 3.3l-4.4-1.2q0.3-2.4 2.8-4.1 2.5-1.8 6.4-1.8 4.1 0 6.2 2 2.2 1.8 2.2 5.5v8q0 0.8 0.2 1 0.3 0.2 1 0.2h1.9v3.9h-2.1q-2.4 0-3.2-0.9-0.8-0.9-0.9-3.3h-1.7q-0.6 2.2-2.2 3.5-1.6 1.3-3.9 1.3-2.9 0-4.7-1.6-1.7-1.5-1.7-4.2zm12.5-3v-1.6q-3.8 0.4-5.7 1.4-1.9 0.9-1.9 2.8 0 1.2 0.8 1.8 0.8 0.7 2.2 0.7 2 0 3.3-1.3 1.3-1.4 1.3-3.8zm10.1-14.9v-5h5.2v5zm0.2 23.1v-20h4.8v20zm10 0v-20h4.5q-0.1 1.9-1.9 4.6h2.2q0.8-2.2 2.4-3.7 1.6-1.5 3.9-1.5 3.3 0 5.1 2 1.7 2 1.7 5.4v13.2h-4.9v-12.2q0-4.3-3.6-4.3-2 0-3 1.3-1.5 1.8-1.5 6v9.2zm22.4 0v-5.9h5.9v5.9z"/>
			<path id="Layer" fill-rule="evenodd" class="s3" d="m86.5 1044v-12.6h8.6v1.4h-7.1v4.1h6.6v1.4h-6.6v5.7zm9.8-4.9c0-3.1 2-4.9 4.6-4.9 3.1 0 4.7 2.2 4.7 4.9 0 3.3-2 5.1-4.7 5.1-3 0-4.6-2.2-4.6-5.1zm7.8 0c0-2.1-1.3-3.6-3.2-3.6-1.9 0-3.1 1.5-3.1 3.6 0 2.5 1.4 3.8 3.1 3.8 2.1 0 3.2-1.7 3.2-3.8zm3.1 4.9v-9.5h1.2l0.2 1.8q0.9-1.9 3.3-1.9h0.3v1.5h-0.3c-2 0-3.2 1.1-3.2 3.1v5zm6.4 0v-9.5h1.1l0.2 1.4c0.6-1 1.9-1.7 3.2-1.7 1.5 0 2.6 0.8 3.1 1.9 0.6-1.1 1.9-1.9 3.3-1.9 2.1 0 3.3 1.5 3.3 3.4v6.4h-1.4v-6.3c0-1.3-0.8-2.1-2.1-2.1-1.8 0-2.8 1.1-2.9 2.6v5.8h-1.4v-6.3c0-1.3-0.8-2.1-2.1-2.1-1.8 0-2.8 1.1-2.9 2.6v5.8zm15.9-2.7c0-2.2 2.1-2.6 4-2.8 1.4-0.2 2.7-0.2 2.7-0.9 0-1.2-1-2.1-2.4-2.1-1.4 0-2.5 0.8-2.7 1.9h-1.4c0.1-1.8 1.8-3.2 4.1-3.2 2.4 0 3.9 1.5 3.9 3.5v4.6q0 0.5 0.5 0.5h0.5v1.2h-0.8c-1.1 0-1.6-0.5-1.6-1.3v-0.3c-0.6 1.1-1.6 1.7-3.3 1.7-2.2 0-3.5-1.1-3.5-2.8zm6.7-1.1v-1.3c-0.4 0.6-1.5 0.7-2.6 0.8-1.3 0.1-2.7 0.3-2.7 1.6 0 0.9 0.9 1.6 2.3 1.6 1.8 0 3-1.2 3-2.7zm7.5 3.8c-1.9 0-2.9-1-2.9-2.7v-5.6h-1.7v-1.2h1.7v-3.3h1.5v3.3h2.6v1.2h-2.6v5.6c0 0.9 0.5 1.4 1.4 1.4h1v1.3zm2.3-12.3c0-0.6 0.5-1.1 1.1-1.1 0.7 0 1.1 0.5 1.1 1.1 0 0.7-0.4 1.2-1.1 1.2-0.6 0-1.1-0.5-1.1-1.2zm0.4 12.3v-9.5h1.5v9.5zm3-4.9c0-3.1 2.1-4.9 4.7-4.9 3.1 0 4.7 2.2 4.7 4.9 0 3.3-2 5.1-4.7 5.1-3 0-4.7-2.2-4.7-5.1zm7.9 0c0-2.1-1.3-3.6-3.2-3.6-1.9 0-3.1 1.5-3.1 3.6 0 2.5 1.4 3.8 3.1 3.8 2.1 0 3.2-1.7 3.2-3.8zm3.1 4.9v-9.5h1.2l0.1 1.4c0.7-1 1.9-1.7 3.3-1.7 2.1 0 3.5 1.4 3.5 3.5v6.3h-1.5v-6.3c0-1.3-0.9-2.1-2.3-2.1-1.7 0-2.8 1.2-2.8 2.6v5.8z"/>
			<path id="Layer" fill-rule="evenodd" class="s3" d="m229 1037.7c0-3.8 2.2-6.5 6.1-6.5 3.2 0 5.4 1.9 6 5h-1.6c-0.5-2.3-2.1-3.6-4.4-3.6-2.8 0-4.6 1.9-4.6 5.1 0 3.2 1.8 5.1 4.6 5.1 2.4 0 3.9-1.3 4.4-3.6h1.6c-0.6 3.2-2.7 5-6 5-3.9 0-6.1-2.7-6.1-6.5zm13.4 1.4c0-3.1 2.1-4.9 4.7-4.9 3 0 4.6 2.2 4.6 4.9 0 3.3-2 5.1-4.6 5.1-3.1 0-4.7-2.2-4.7-5.1zm7.8 0c0-2.1-1.2-3.6-3.1-3.6-1.9 0-3.2 1.5-3.2 3.6 0 2.5 1.4 3.8 3.2 3.8 2 0 3.1-1.7 3.1-3.8zm3.1 4.9v-9.5h1.2l0.2 1.4c0.6-1 1.9-1.7 3.3-1.7 2 0 3.4 1.4 3.4 3.5v6.3h-1.5v-6.3c0-1.3-0.9-2.1-2.3-2.1-1.7 0-2.7 1.1-2.8 2.6v5.8zm9.6-3h1.4c0.1 1.2 1.3 1.9 2.7 1.9 1.4 0 2-0.5 2-1.5 0-0.9-0.7-1.1-1.7-1.4l-1.4-0.5c-1.4-0.4-2.8-0.9-2.8-2.6 0-1.6 1.3-2.7 3.4-2.7 2.1 0 3.5 1.2 3.8 3.3h-1.5c-0.1-1.3-1.1-2-2.4-2-1.1 0-1.8 0.5-1.8 1.4 0 1 1 1.2 1.8 1.4l1.3 0.5c1.7 0.5 2.8 1.1 2.8 2.7 0 1.7-1.2 2.7-3.6 2.7-2.2 0-3.9-1.2-4-3.2zm8.9-0.2v-6.3h1.5v6.3c0 1.4 0.9 2.1 2.3 2.1 1.8 0 2.7-1.2 2.8-2.6v-5.8h1.5v9.5h-1.2l-0.2-1.4c-0.6 1-1.7 1.6-3.1 1.6-2.3 0-3.6-1.4-3.6-3.4zm10.2 3.2v-13.5h1.5v13.5zm7.5 0c-1.8 0-2.8-1-2.8-2.7v-5.6h-1.8v-1.2h1.8v-3.3h1.5v3.3h2.6v1.2h-2.6v5.6c0 0.9 0.4 1.4 1.3 1.4h1.1v1.3zm2.3-12.3c0-0.6 0.4-1.1 1.1-1.1 0.6 0 1.1 0.5 1.1 1.1 0 0.7-0.5 1.2-1.1 1.2-0.7 0-1.1-0.5-1.1-1.2zm0.3 12.3v-9.5h1.5v9.5zm3.6 0v-9.5h1.2l0.1 1.4c0.7-1 1.9-1.7 3.3-1.7 2.1 0 3.4 1.4 3.4 3.5v6.3h-1.4v-6.3c0-1.3-0.9-2.1-2.3-2.1-1.8 0-2.8 1.1-2.8 2.6v5.8zm9.9 0.6h1.5c0 1.1 1.1 2 2.8 2 1.9 0 3-1.2 3-2.9v-1.5c-0.7 1-1.8 1.6-3.3 1.6-2.5 0-4.4-1.9-4.4-4.7 0-2.9 1.9-4.9 4.4-4.9 1.5 0 2.8 0.8 3.4 1.9l0.2-1.6h1.1v9.2c0 2.5-1.6 4.1-4.4 4.1-2.6 0-4.3-1.2-4.3-3.2zm7.3-5.6c0-2-1.3-3.5-3.1-3.5-1.8 0-3 1.5-3 3.6 0 2 1.2 3.4 3 3.4 1.8 0 3.1-1.4 3.1-3.5z"/>
			<path id="Layer" fill-rule="evenodd" class="s3" d="m372.5 1044v-12.6h1.8l7.1 10.4v-10.4h1.5v12.6h-1.7l-7.2-10.4v10.4zm12.3-4.9c0-3.1 2.1-4.9 4.7-4.9 3 0 4.7 2.2 4.7 4.9 0 3.3-2 5.1-4.7 5.1-3.1 0-4.7-2.2-4.7-5.1zm7.8 0c0-2.1-1.2-3.6-3.1-3.6-1.9 0-3.1 1.5-3.1 3.6 0 2.5 1.4 3.8 3.1 3.8 2 0 3.1-1.7 3.1-3.8zm6.8 4.9c-1.8 0-2.8-1-2.8-2.7v-5.6h-1.8v-1.2h1.8v-3.3h1.5v3.3h2.6v1.2h-2.6v5.6c0 0.9 0.5 1.4 1.3 1.4h1.1v1.3zm2.6 0v-9.5h1.2l0.2 1.8q0.9-1.9 3.3-1.9h0.3v1.5h-0.3c-2 0-3.2 1.1-3.2 3.1v5zm5.4-4.7c0-3.3 2.1-5.1 4.6-5.1 2.6 0 4.3 1.8 4.3 4.9v0.4h-7.4c0.1 2 1.3 3.4 3.2 3.4 1.4 0 2.3-0.7 2.7-1.9h1.5c-0.4 2-2 3.2-4.2 3.2-2.8 0-4.7-2.1-4.7-4.9zm7.4-1.1c-0.3-1.6-1.3-2.7-2.8-2.7-1.5 0-2.7 1-3 2.7zm10 5.8l-4-9.5h1.6l3.2 7.8 3.1-7.8h1.6l-3.9 9.5zm6.4-12.3c0-0.6 0.5-1.1 1.1-1.1 0.6 0 1.1 0.5 1.1 1.1 0 0.7-0.5 1.2-1.1 1.2-0.6 0-1.1-0.5-1.1-1.2zm0.3 12.3v-9.5h1.5v9.5zm3.1-3h1.5c0.1 1.2 1.2 1.9 2.6 1.9 1.4 0 2-0.5 2-1.5 0-0.9-0.7-1.1-1.7-1.4l-1.3-0.5c-1.4-0.4-2.8-0.9-2.8-2.6 0-1.6 1.2-2.7 3.3-2.7 2.1 0 3.6 1.2 3.8 3.3h-1.5c-0.1-1.3-1.1-2-2.4-2-1.1 0-1.8 0.5-1.8 1.4 0 1 1 1.2 1.8 1.4l1.3 0.5c1.8 0.5 2.8 1.1 2.8 2.7 0 1.7-1.2 2.7-3.5 2.7-2.3 0-4-1.2-4.1-3.2zm8.7-9.3c0-0.6 0.5-1.1 1.2-1.1 0.6 0 1 0.5 1 1.1 0 0.7-0.4 1.2-1 1.2-0.7 0-1.2-0.5-1.2-1.2zm0.4 12.3v-9.5h1.5v9.5zm3.1-4.9c0-3.1 2.1-4.9 4.7-4.9 3 0 4.6 2.2 4.6 4.9 0 3.3-2 5.1-4.6 5.1-3.1 0-4.7-2.2-4.7-5.1zm7.8 0c0-2.1-1.2-3.6-3.1-3.6-1.9 0-3.2 1.5-3.2 3.6 0 2.5 1.4 3.8 3.2 3.8 2 0 3.1-1.7 3.1-3.8zm3.1 4.9v-9.5h1.2l0.2 1.4c0.6-1 1.9-1.7 3.3-1.7 2 0 3.4 1.4 3.4 3.5v6.3h-1.5v-6.3c0-1.3-0.9-2.1-2.3-2.1-1.7 0-2.8 1.2-2.8 2.6v5.8z"/>
			<path id="Layer" fill-rule="evenodd" class="s3" d="m524 1037.7c0-3.8 2.2-6.5 6.1-6.5 3.2 0 5.4 1.9 5.9 5h-1.5c-0.5-2.3-2.1-3.6-4.4-3.6-2.8 0-4.6 1.9-4.6 5.1 0 3.2 1.8 5.1 4.6 5.1 2.4 0 3.9-1.3 4.4-3.6h1.5c-0.5 3.2-2.6 5-5.9 5-3.9 0-6.1-2.7-6.1-6.5zm13.4 1.4c0-3.1 2.1-4.9 4.7-4.9 3 0 4.6 2.2 4.6 4.9 0 3.3-2 5.1-4.6 5.1-3.1 0-4.7-2.2-4.7-5.1zm7.8 0c0-2.1-1.2-3.6-3.1-3.6-1.9 0-3.2 1.5-3.2 3.6 0 2.5 1.4 3.8 3.2 3.8 2 0 3.1-1.7 3.1-3.8zm3.1 4.9v-9.5h1.2l0.2 1.4c0.6-1 1.9-1.7 3.3-1.7 2 0 3.4 1.4 3.4 3.5v6.3h-1.5v-6.3c0-1.3-0.9-2.1-2.3-2.1-1.7 0-2.7 1.1-2.8 2.6v5.8zm13.8 0c-1.8 0-2.8-1-2.8-2.7v-5.6h-1.8v-1.2h1.8v-3.3h1.5v3.3h2.5v1.2h-2.5v5.6c0 0.9 0.4 1.4 1.3 1.4h1.1v1.3zm2.1-2.7c0-2.2 2.2-2.6 4.1-2.8 1.4-0.2 2.7-0.2 2.7-0.9 0-1.2-1-2.1-2.4-2.1-1.4 0-2.5 0.8-2.7 1.9h-1.5c0.2-1.8 1.9-3.2 4.2-3.2 2.3 0 3.9 1.5 3.9 3.5v4.6q0 0.5 0.4 0.5h0.6v1.2h-0.9c-1 0-1.5-0.5-1.5-1.3v-0.3c-0.6 1.1-1.7 1.7-3.3 1.7-2.2 0-3.6-1.1-3.6-2.8zm6.8-1.1v-1.3c-0.4 0.6-1.5 0.7-2.6 0.8-1.4 0.1-2.7 0.3-2.7 1.5 0 1 0.9 1.7 2.3 1.7 1.8 0 3-1.2 3-2.7zm3.3-1c0-3.2 2.1-5 4.7-5 2.4 0 4.1 1.5 4.4 3.9h-1.5c-0.2-1.6-1.3-2.6-2.9-2.6-1.9 0-3.2 1.4-3.2 3.7 0 2.4 1.5 3.7 3.3 3.7 1.5 0 2.6-1 2.8-2.6h1.5c-0.3 2.4-1.9 3.9-4.3 3.9-3.1 0-4.8-2.3-4.8-5zm14.3 4.8c-1.8 0-2.8-1-2.8-2.7v-5.6h-1.8v-1.2h1.8v-3.3h1.5v3.3h2.6v1.2h-2.6v5.6c0 0.9 0.5 1.4 1.3 1.4h1.1v1.3z"/>
			<path id="Layer" class="s9" d="m739 432c0-5.5 4.5-10 10-10h265c5.5 0 10 4.5 10 10v26c0 5.5-4.5 10-10 10h-265c-5.5 0-10-4.5-10-10z"/>
			<path id="Layer" class="s9" d="m430 432c0-5.5 4.5-10 10-10h265c5.5 0 10 4.5 10 10v26c0 5.5-4.5 10-10 10h-265c-5.5 0-10-4.5-10-10z"/>
			<path id="Layer" class="s9" d="m430 490c0-5.5 4.5-10 10-10h574c5.5 0 10 4.5 10 10v26c0 5.5-4.5 10-10 10h-574c-5.5 0-10-4.5-10-10z"/>
			<path id="Layer" class="s9" d="m430 548c0-5.5 4.5-10 10-10h574c5.5 0 10 4.5 10 10v146c0 5.5-4.5 10-10 10h-574c-5.5 0-10-4.5-10-10z"/>
			<path id="Layer" class="s0" d="m931.8 2.6l13.9 46c2.6 8.3-2.1 17.1-10.5 19.6l-46 14c-8.3 2.6-17.1-2.1-19.6-10.4l-14-46c-2.5-8.3 2.2-17.1 10.5-19.6l46-14c8.3-2.6 17.1 2.1 19.7 10.4z"/>
			<path id="Layer" fill-rule="evenodd" class="s10" d="m935.5 69l-46 14c-8.8 2.6-18-2.3-20.7-11l-14-45.9c-2.6-8.8 2.3-18 11.1-20.7l46-14c8.7-2.6 18 2.3 20.6 11l14 45.9c2.6 8.7-2.3 18-11 20.7zm-69.2-62.1c-7.9 2.4-12.4 10.8-9.9 18.7l13.9 45.9c2.4 7.9 10.8 12.4 18.7 10l46-14c7.9-2.5 12.4-10.8 10-18.7l-14-45.9c-2.4-7.9-10.8-12.4-18.7-10z"/>
			<path id="Layer" class="s11" d="m925-0.9l14 45.9c2.6 8.3-2.1 17.1-10.5 19.6l-46 14.1c-8.3 2.5-17.1-2.2-19.6-10.5l-14-45.9c-2.6-8.3 2.1-17.1 10.5-19.7l46-14c8.3-2.5 17.1 2.2 19.6 10.5z"/>
			<path id="Layer" fill-rule="evenodd" class="s10" d="m928.8 65.4l-46 14c-8.8 2.7-18-2.3-20.7-11l-14-45.9c-2.6-8.7 2.3-18 11-20.6l46-14.1c8.8-2.6 18 2.3 20.7 11l14 45.9c2.6 8.8-2.3 18-11 20.7zm-69.2-62c-7.9 2.4-12.4 10.7-10 18.6l14 45.9c2.4 7.9 10.8 12.4 18.7 10l46-14c7.9-2.4 12.4-10.8 10-18.7l-14-45.9c-2.4-7.9-10.8-12.4-18.7-10z"/>
			<path id="Layer" class="s0" d="m884.7 17.7l10.1 33.3c0.4 1.2-0.3 2.6-1.5 3l-12.5 3.8c-1.3 0.3-2.6-0.4-3-1.6l-10.1-33.3c-0.4-1.3 0.3-2.6 1.6-3l12.4-3.8c1.3-0.4 2.6 0.3 3 1.6z"/>
			<path id="Layer" class="s0" d="m909.5 10.1l4.4 14.4c0.3 1.3-0.4 2.6-1.6 3l-12.5 3.8c-1.2 0.4-2.6-0.3-2.9-1.6l-4.4-14.4c-0.4-1.2 0.3-2.6 1.5-3l12.5-3.8c1.3-0.3 2.6 0.4 3 1.6z"/>
			<path id="Layer" class="s0" d="m76.1 364.5l-17.6 48.4c-3.1 8.7-12.8 13.2-21.6 10l-48.5-17.6c-8.8-3.2-13.3-12.9-10.1-21.6l17.6-48.4c3.2-8.7 12.9-13.2 21.6-10l48.5 17.6c8.8 3.2 13.3 12.9 10.1 21.6z"/>
			<path id="Layer" fill-rule="evenodd" class="s10" d="m36.6 423.7l-48.5-17.6c-9.2-3.4-14-13.5-10.6-22.7l17.6-48.4c3.3-9.1 13.5-13.9 22.7-10.5l48.5 17.6c9.2 3.4 14 13.5 10.6 22.7l-17.6 48.4c-3.3 9.1-13.5 13.9-22.7 10.5zm-19.4-97.7c-8.3-3-17.5 1.3-20.5 9.6l-17.6 48.4c-3 8.3 1.3 17.5 9.6 20.5l48.5 17.6c8.3 3.1 17.5-1.2 20.6-9.5l17.5-48.4c3.1-8.3-1.3-17.5-9.6-20.5z"/>
			<path id="Layer" class="s12" d="m72.7 357.1l-17.6 48.4c-3.2 8.7-12.9 13.2-21.7 10l-48.5-17.6c-8.7-3.2-13.3-12.9-10.1-21.6l17.6-48.4c3.2-8.7 12.9-13.2 21.7-10l48.5 17.6c8.7 3.2 13.3 12.9 10.1 21.6z"/>
			<path id="Layer" fill-rule="evenodd" class="s10" d="m33.1 416.3l-48.4-17.6c-9.2-3.3-14-13.5-10.7-22.7l17.6-48.4c3.4-9.1 13.6-13.9 22.8-10.5l48.4 17.6c9.2 3.4 14 13.6 10.7 22.7l-17.6 48.4c-3.4 9.1-13.6 13.9-22.8 10.5zm-19.3-97.6c-8.3-3.1-17.6 1.2-20.6 9.5l-17.6 48.4c-3 8.3 1.3 17.5 9.6 20.5l48.5 17.7c8.3 3 17.6-1.3 20.6-9.6l17.6-48.3c3-8.4-1.3-17.6-9.6-20.6z"/>
			<path id="Layer" fill-rule="evenodd" class="s0" d="m32.2 347.6c5.6 7.8 7.4 11.2 15.5 16l-1.3 3.7c-4.5 12.2-16.2 19.8-28.6 19.7-9.5-7.9-13.6-21.2-9.2-33.5l1.4-3.6c9.2 1.5 12.8 0.1 22.2-2.3zm-4.4 12.1c-2.3-0.8-4.8 0.4-5.6 2.6-0.5 1.4-0.3 2.8 0.5 3.9q-2.2 3.6-4.4 7.2l7.9 2.9q0.6-4.2 1.2-8.3c1.3-0.4 2.5-1.3 3-2.7 0.8-2.3-0.4-4.8-2.7-5.6z"/>
			<path id="Layer" class="s0" d="m1442.5 617.7l12 46.4c2.2 8.4-2.9 17-11.3 19.2l-46.6 12.1c-8.4 2.2-17-2.9-19.2-11.3l-12-46.5c-2.2-8.4 2.9-17 11.3-19.2l46.6-12c8.4-2.2 17 2.8 19.2 11.3z"/>
			<path id="Layer" fill-rule="evenodd" class="s10" d="m1443.3 684.1l-46.5 12.1c-8.8 2.2-17.9-3.1-20.2-11.9l-12-46.5c-2.3-8.8 3.1-17.8 11.9-20.1l46.5-12.1c8.9-2.3 17.9 3 20.2 11.9l12 46.4c2.3 8.9-3 17.9-11.9 20.2zm-66.4-64.9c-8 2.1-12.8 10.3-10.7 18.2l12 46.5c2 8 10.2 12.8 18.2 10.7l46.6-12c8-2.1 12.8-10.3 10.7-18.3l-12-46.4c-2.1-8-10.3-12.8-18.2-10.8z"/>
			<path id="Layer" class="s13" d="m1435.9 613.8l12 46.5c2.2 8.4-2.9 17-11.3 19.2l-46.5 12c-8.5 2.2-17.1-2.8-19.2-11.3l-12.1-46.4c-2.1-8.4 2.9-17 11.3-19.2l46.6-12.1c8.4-2.2 17 2.9 19.2 11.3z"/>
			<path id="Layer" fill-rule="evenodd" class="s10" d="m1436.8 680.2l-46.5 12.1c-8.9 2.3-17.9-3-20.2-11.9l-12-46.4c-2.3-8.8 3-17.9 11.9-20.2l46.5-12c8.8-2.3 17.9 3 20.2 11.8l12 46.5c2.3 8.8-3.1 17.9-11.9 20.1zm-66.5-64.9c-8 2.1-12.8 10.3-10.7 18.3l12 46.5c2.1 7.9 10.3 12.7 18.2 10.7l46.6-12.1c8-2.1 12.8-10.2 10.8-18.2l-12.1-46.5c-2-8-10.2-12.8-18.2-10.7l-46.6 12z"/>
			<path id="Layer" fill-rule="evenodd" class="s0" d="m1421.7 644.3q1.5 6.1 3.1 12.3 0.1 0.2 0.1 0.4c0.4 1.5-0.1 2.5-1.6 3-1.7 0.6-3.3 1.1-5 1.6q-5 1.7-10.1 3.3c-3 1-6 1.9-8.9 2.9-1.4 0.4-2.5 0.3-3.6-0.7-0.3-0.3-0.6-0.5-1-0.8q-2.4-1.9-4.9-3.8c-1.2-0.9-2-2-2.4-3.5-1.8-7.2-3.7-14.3-5.5-21.5q-0.1-0.4-0.2-0.8c0-1.1 0.5-2 1.5-2.3 1.7-0.7 3.5-1.2 5.2-1.8q4.1-1.4 8.2-2.8 4-1.4 8-2.7c1.4-0.5 2.7-0.4 4 0.1 2.9 1.1 5.7 2.2 8.6 3.2 0.7 0.3 1.1 0.7 1.2 1.5q1.6 6.2 3.3 12.4zm-2.5 0.9q-1.3-5.4-2.7-10.8c-0.3-1-0.8-1.3-1.8-1q-3.6 1.2-7.2 2.4-5.3 1.7-10.6 3.4-2.5 0.8-5.1 1.6c-0.7 0.2-0.9 0.6-0.8 1.3q0 0.3 0.1 0.6 2.7 10.4 5.4 20.8c0.4 1.6 0.9 1.9 2.5 1.4q2.4-0.8 4.8-1.6 8.6-2.7 17.2-5.5c0.9-0.3 1.2-0.8 1.1-1.8q-0.1-0.2-0.2-0.4-1.3-5.2-2.7-10.4zm-6.4-13.9q0.1-0.1 0.1-0.2c-0.2-0.1-0.4-0.2-0.5-0.3q-2.1-0.8-4.2-1.6c-0.7-0.3-1.5-0.4-2.2-0.2q-1.7 0.4-3.3 1-7.5 2.5-14.9 5-1.2 0.4-2.4 0.9c-0.2 0-0.4 0.3-0.4 0.4 0 0.1 0.2 0.3 0.4 0.4 1.1 0.5 2.1 0.9 3.1 1.4q1.4 0.6 2.8 0.2 3.6-1.2 7.3-2.4 5.8-1.9 11.7-3.8 1.3-0.4 2.5-0.8z"/>
			<path id="Layer" class="s0" d="m1401.5 659.1c-1.2-4.7-2.4-9.4-3.7-14.1q-0.9 0.1-1.8 0.3c-0.3-0.7-0.1-1.6 0.7-1.9q2.6-0.9 5.2-1.7c0.1-0.1 0.3 0 0.4 0.1q3.2 2.9 6.5 5.8 1.5 1.5 3.1 2.9c0.1 0.1 0.2 0.1 0.4 0.3-0.9-3.3-1.7-6.5-2.6-9.8-0.5 0.1-1 0.1-1.5 0.2-0.4 0.1-0.5-0.1-0.5-0.4 0-0.5 0.3-1.1 0.8-1.2q2.5-0.9 5-1.7c0.4 0.8 0.3 1.3-0.5 1.7q-0.8 0.4-0.6 1.3 1.9 7.2 3.8 14.4c0.1 0.3 0 0.5-0.3 0.7-0.7 0.6-1.5 1.2-2.4 1.3-0.6 0.1-1.2-0.1-1.6-0.5q-1.7-1.4-3.2-2.9-3.6-3.2-7.1-6.5c0 0-0.1-0.1-0.2-0.2 0 0.2 0 0.3 0.1 0.4q1.2 4.9 2.5 9.9c0.1 0.3 0.2 0.3 0.5 0.3q1 0 2-0.1c0 0.7-0.2 1.3-0.9 1.5-0.4 0.3-1 0.4-1.5 0.6q-1.9 0.6-3.7 1.2c-0.4 0.1-0.5-0.1-0.5-0.4 0-0.4 0.1-0.7 0.5-0.9q0.5-0.3 1.1-0.6z"/>
			<g id="Clip-Path" clip-path="url(#cp7)">
				<g id="Layer">
					<path id="Layer" class="s14" d="m358.7 863.6c-4.4 13.1-18.5 20.2-31.6 15.8l-170.4-56.2c-13.1-4.4-20.2-18.5-15.8-31.5 4.3-13.1 18.4-20.2 31.5-15.9l170.4 56.3c13.1 4.3 20.2 18.4 15.9 31.5z"/>
					<path id="Layer" fill-rule="evenodd" class="s0" d="m334.9 882c-2.7 0-5.5-0.5-8.2-1.4l-170.4-56.2c-6.6-2.2-12-6.9-15.2-13.1-3.1-6.3-3.6-13.4-1.4-20 4.5-13.7 19.4-21.2 33.2-16.7l170.3 56.3c13.7 4.5 21.2 19.4 16.7 33.1-3.7 11-14 18-25 18zm-7.4-3.8c12.4 4.1 25.9-2.6 30-15 4.1-12.4-2.7-25.8-15.1-29.9l-170.3-56.3c-12.5-4.1-25.9 2.7-30 15.1-2 6-1.5 12.4 1.3 18 2.8 5.7 7.7 9.9 13.7 11.9l170.4 56.2z"/>
					<path id="Layer" class="s0" d="m178 808.7l3.6-10.8 8 2.6-0.6 1.7-5.9-1.9-0.9 2.6 4.4 1.5-0.5 1.7-4.5-1.5-1 3 6 2-0.6 1.7z"/>
					<path id="Layer" class="s0" d="m186.9 811.6l4.1-3.1-1.4-4.6 2.2 0.8 0.3 1.1q0.3 0.9-0.2 2.3l0.8 0.3q0.3-1.1 1.5-2l0.9-0.6 2 0.6-3.9 2.9 1.6 4.9-2.3-0.8-0.4-1.3q-0.2-1 0.2-2.3l-0.7-0.3q-0.4 1-1.6 1.9l-1.1 0.8-2-0.6z"/>
					<path id="Layer" fill-rule="evenodd" class="s0" d="m195.1 817.6l3.5-10.7 1.7 0.6q-0.2 0.6-1.2 1.4l0.9 0.3q0.7-0.8 1.4-1.1 0.7-0.3 1.8 0.1 1.4 0.4 1.9 1.8 0.5 1.5-0.1 3.3-0.6 1.8-1.9 2.6-1.2 0.9-2.6 0.4-1.8-0.6-1.9-2.7l-0.9-0.3q0.2 0.8 0.2 1.5-0.1 0.8-0.4 1.9l-0.5 1.5-1.9-0.6zm7.9-5q0.9-2.6-1-3.2-0.9-0.3-1.7 0.2-0.7 0.5-1.2 1.8-0.4 1.2-0.1 2 0.3 0.9 1.2 1.2 1.9 0.6 2.8-2z"/>
					<path id="Layer" fill-rule="evenodd" class="s0" d="m206.2 813.7q0.6-1.8 2-2.6 1.5-0.8 3.1-0.2 1.6 0.5 2.3 1.9 0.6 1.5 0 3.2-0.1 0.2-0.2 0.6l-5.5-1.8q-0.3 1.1 0.1 1.8 0.3 0.7 1.1 0.9 1.3 0.5 2.4-0.7l1.5 1.2q-1.7 1.9-4.4 1-1.7-0.6-2.4-2-0.6-1.4 0-3.3zm2.2-0.3l3.6 1.2q0.2-0.9-0.1-1.5-0.3-0.6-1.1-0.8-0.7-0.3-1.3 0-0.7 0.3-1 1.1zm2.5-3.5l1.5-2.1 2.2 0.7-2.5 1.8-1.2-0.4z"/>
					<path id="Layer" class="s0" d="m214.1 820.6l2.5-7.7 1.8 0.6q-0.4 1-1.5 2l0.9 0.3q0.6-1.1 1.4-1.5 0.8-0.5 2-0.1 0.2 0.1 0.5 0.3l-0.6 1.9q-0.4-0.2-0.8-0.4-1.3-0.4-2 0.1-0.8 0.5-1.3 1.9l-1 3.2-1.9-0.6z"/>
					<path id="Layer" class="s0" d="m220.5 822.7l2.6-7.7 1.9 0.6-2.6 7.7-1.9-0.6zm2.9-8.9l0.6-1.9 2.1 0.6-0.7 1.9z"/>
					<path id="Layer" fill-rule="evenodd" class="s0" d="m225.4 820q0.6-1.8 2.1-2.5 1.4-0.8 3-0.3 1.7 0.5 2.3 2 0.6 1.4 0 3.2-0.1 0.2-0.2 0.5l-5.4-1.8q-0.4 1.1 0 1.8 0.3 0.7 1.1 1 1.3 0.4 2.4-0.8l1.5 1.2q-1.7 2-4.4 1.1-1.7-0.6-2.3-2-0.7-1.5-0.1-3.4zm2.3-0.2l3.5 1.1q0.2-0.8-0.1-1.4-0.3-0.6-1.1-0.9-0.7-0.2-1.3 0.1-0.6 0.3-1 1.1z"/>
					<path id="Layer" class="s0" d="m233.3 826.9l2.5-7.7 1.8 0.6q-0.3 0.7-1.4 1.5l0.9 0.3q0.6-0.8 1.4-1.1 0.8-0.4 1.7-0.1 1.3 0.4 1.7 1.4 0.4 1 0 2.3l-1.7 5.1-1.9-0.6 1.6-4.7q0.5-1.7-0.9-2.1-0.8-0.3-1.3 0.1-0.8 0.5-1.4 2.1l-1.1 3.5-1.9-0.6z"/>
					<path id="Layer" class="s0" d="m243.2 825.9q0.6-1.8 2.1-2.6 1.5-0.7 3.2-0.2 1.3 0.5 2 1.4 0.7 0.9 0.7 2.1h-1.9q-0.1-1.5-1.4-1.9-0.9-0.3-1.6 0.1-0.8 0.5-1.2 1.7-0.4 1.2-0.1 2.1 0.4 0.9 1.2 1.1 1.4 0.5 2.5-0.9l1.5 1.2q-0.8 1-1.9 1.4-1.2 0.3-2.5-0.1-1.8-0.6-2.5-2.1-0.7-1.5-0.1-3.3z"/>
					<path id="Layer" fill-rule="evenodd" class="s0" d="m251.7 828.7q0.6-1.8 2.1-2.6 1.4-0.7 3-0.2 1.7 0.5 2.3 2 0.6 1.4 0 3.1-0.1 0.3-0.2 0.6l-5.4-1.8q-0.3 1.1 0 1.8 0.3 0.7 1.2 1 1.2 0.4 2.3-0.8l1.5 1.2q-1.6 1.9-4.4 1-1.7-0.5-2.3-1.9-0.7-1.5-0.1-3.4zm2.3-0.2l3.5 1.1q0.2-0.8-0.1-1.4-0.3-0.6-1-0.9-0.8-0.2-1.4 0.1-0.6 0.3-1 1.1z"/>
					<path id="Layer" class="s0" d="m263.4 834.6h1.9q-0.2 1.5 1.4 2 0.6 0.2 1.1 0.1 0.4-0.1 0.6-0.5 0.1-0.4-0.1-0.7-0.2-0.3-0.8-0.6l-0.9-0.6q-1.2-0.6-1.6-1.4-0.5-0.7-0.1-1.7 0.3-1.1 1.4-1.4 1.1-0.4 2.5 0 1.2 0.5 1.9 1.3 0.6 0.8 0.7 1.7l-1.9 0.1q0-1.3-1.2-1.7-0.7-0.2-1.1-0.1-0.4 0.1-0.5 0.5-0.1 0.4 0.1 0.6 0.2 0.3 0.8 0.7l0.9 0.5q1 0.5 1.6 1.4 0.6 0.8 0.3 1.8-0.4 1.2-1.5 1.5-1.2 0.4-2.8-0.1-1.3-0.4-2.1-1.4-0.7-0.9-0.6-2z"/>
					<path id="Layer" fill-rule="evenodd" class="s0" d="m271.5 837.3q0.5-1.4 2-1.7 1.5-0.2 3.8 0.3l0.1-0.3q0.4-1.2-1-1.6-1.5-0.5-2.2 0.6l-1.6-1q0.4-0.9 1.6-1.2 1.2-0.4 2.7 0.1 1.6 0.6 2.2 1.6 0.6 1 0.1 2.4l-1 3.1q-0.1 0.3 0 0.4 0 0.1 0.3 0.2l0.7 0.2-0.5 1.5-0.8-0.3q-0.9-0.3-1.1-0.7-0.2-0.4 0.1-1.4l-0.7-0.2q-0.5 0.8-1.3 1.1-0.7 0.3-1.7-0.1-1.1-0.3-1.6-1.1-0.4-0.9-0.1-1.9zm5.2 0.4l0.2-0.6q-1.5-0.3-2.3-0.2-0.9 0.2-1.1 0.9-0.2 0.4 0 0.8 0.3 0.3 0.8 0.5 0.8 0.3 1.4-0.1 0.7-0.3 1-1.3z"/>
					<path id="Layer" class="s0" d="m280 842.3l3.6-10.8 1.8 0.7-3.5 10.7z"/>
					<path id="Layer" fill-rule="evenodd" class="s0" d="m284.4 841.6q0.4-1.5 2-1.7 1.5-0.3 3.8 0.2l0.1-0.2q0.4-1.2-1-1.7-1.5-0.5-2.3 0.7l-1.5-1q0.4-0.9 1.6-1.3 1.2-0.3 2.7 0.2 1.6 0.5 2.1 1.5 0.6 1 0.2 2.4l-1 3.1q-0.1 0.3-0.1 0.4 0.1 0.1 0.4 0.2l0.7 0.3-0.5 1.5-0.8-0.3q-0.9-0.3-1.1-0.8-0.2-0.4 0-1.3l-0.6-0.3q-0.6 0.8-1.3 1.1-0.8 0.3-1.7 0-1.1-0.4-1.6-1.2-0.5-0.8-0.1-1.8zm5.2 0.4l0.2-0.6q-1.5-0.4-2.4-0.2-0.8 0.1-1.1 0.8-0.1 0.5 0.1 0.8 0.2 0.4 0.8 0.6 0.7 0.2 1.4-0.1 0.7-0.4 1-1.3z"/>
					<path id="Layer" class="s0" d="m292.8 846.6l2.6-7.7 1.7 0.6q-0.3 1-1.5 2l0.9 0.3q0.7-1.1 1.5-1.5 0.8-0.4 1.9-0.1 0.3 0.1 0.6 0.3l-0.7 1.9q-0.3-0.2-0.8-0.3-1.2-0.4-2 0-0.7 0.5-1.2 1.9l-1.1 3.2-1.9-0.6z"/>
					<path id="Layer" class="s0" d="m299.3 848.7l2.5-7.7 1.9 0.6-2.5 7.7-1.9-0.6zm2.9-8.9l0.6-1.9 2 0.6-0.6 1.9z"/>
					<path id="Layer" fill-rule="evenodd" class="s0" d="m304.2 846.1q0.6-1.8 2-2.6 1.5-0.8 3.1-0.3 1.6 0.6 2.2 2 0.7 1.4 0.1 3.2-0.1 0.2-0.2 0.5l-5.5-1.8q-0.3 1.1 0 1.8 0.4 0.7 1.2 1 1.3 0.4 2.4-0.8l1.4 1.2q-1.6 2-4.3 1.1-1.7-0.6-2.4-2-0.6-1.4 0-3.3zm2.2-0.3l3.5 1.1q0.3-0.8 0-1.4-0.3-0.6-1.1-0.9-0.7-0.2-1.3 0.1-0.7 0.3-1.1 1.1zm2.6-3.6l1.5-2 2.2 0.7-2.5 1.7-1.2-0.4z"/>
				</g>
			</g>
			<path id="Layer" class="s15" d="m1555.3 147.5c3.3 12.5-4.2 25.1-16.7 28.4l-226.4 58.3c-12.5 3.2-25.2-4.3-28.4-16.7-3.2-12.5 4.3-25.1 16.8-28.4l226.4-58.3c12.4-3.2 25.1 4.3 28.3 16.7z"/>
			<path id="Layer" fill-rule="evenodd" class="s0" d="m1306.3 236.1c-4.3 0-8.5-1.1-12.3-3.4-5.7-3.3-9.7-8.6-11.3-14.9-1.7-6.3-0.7-12.9 2.6-18.5 3.3-5.7 8.6-9.7 15-11.3l226.4-58.3c13.1-3.4 26.4 4.5 29.8 17.5 1.6 6.3 0.7 12.9-2.6 18.5-3.3 5.7-8.7 9.7-15 11.3l-226.4 58.3q-3.1 0.8-6.2 0.8zm226.5-104.9q-2.8 0-5.5 0.7l-226.5 58.4c-5.7 1.5-10.5 5.1-13.5 10.1-3 5.1-3.8 11.1-2.3 16.8 1.4 5.7 5.1 10.5 10.2 13.5 5 3 11 3.8 16.7 2.3l226.4-58.3c5.7-1.5 10.5-5.1 13.5-10.2 3-5 3.9-11 2.4-16.7-2.6-9.9-11.6-16.6-21.4-16.6z"/>
			<path id="Layer" fill-rule="evenodd" class="s0" d="m1311.1 210.6q-0.6-2.3 0.5-4.2 1.1-2 3.5-2.5 2.3-0.7 4.2 0.5 1.9 1.1 2.5 3.4 0.6 2.4-0.5 4.3-1 1.8-3.5 2.5-2.4 0.6-4.2-0.5-1.9-1.1-2.5-3.5zm8.7-2.2q-0.4-1.7-1.6-2.5-1.2-0.8-2.7-0.4-1.5 0.4-2.2 1.7-0.6 1.2-0.2 2.9 0.4 1.6 1.6 2.4 1.2 0.8 2.7 0.4 1.6-0.4 2.2-1.6 0.6-1.3 0.2-2.9z"/>
			<path id="Layer" class="s0" d="m1324.2 210.1l-1.3-4.9 1.8-0.4 1.2 4.4q0.4 1.6 1.6 1.3 1-0.3 1.1-1.1 0.2-0.8-0.1-2l-0.9-3.4 1.8-0.5 1.9 7.4-1.7 0.4q-0.1-0.7 0.3-1.9l-0.9 0.2q-0.1 2.1-1.8 2.5-1.1 0.3-1.9-0.2-0.8-0.6-1.1-1.8z"/>
			<path id="Layer" class="s0" d="m1333.7 208.2l-1-4-1.6 0.4-0.4-1.4 1.6-0.4-0.6-2.3 1.8-0.4 0.6 2.2 2-0.5 0.3 1.4-1.9 0.5 1 3.8q0.1 0.7 0.8 0.5l1.6-0.4 0.3 1.5-2.1 0.5q-0.9 0.3-1.5-0.1-0.6-0.4-0.9-1.3z"/>
			<path id="Layer" class="s0" d="m1337.4 200.3l-0.5-1.9 1.9-0.5 0.5 1.9-1.9 0.5zm2.3 8.4l-1.9-7.3 1.8-0.5 1.8 7.3z"/>
			<path id="Layer" class="s0" d="m1343.6 207.7l-2.6-10.3 1.8-0.4 2.6 10.2z"/>
			<path id="Layer" class="s0" d="m1346.5 204.9l1.5-0.9q0.6 1.2 2.1 0.8 0.6-0.1 0.9-0.5 0.3-0.3 0.2-0.7-0.1-0.3-0.4-0.5-0.3-0.1-0.9-0.1l-1.1 0.1q-1.2 0-1.9-0.3-0.7-0.3-1-1.3-0.2-1 0.4-1.9 0.7-0.8 2-1.2 1.2-0.3 2.1 0 0.9 0.3 1.4 1l-1.3 1.1q-0.7-1-1.9-0.7-0.6 0.1-0.9 0.4-0.2 0.3-0.1 0.7 0.1 0.3 0.3 0.4 0.3 0.2 1 0.1h1q1.1-0.1 1.9 0.2 0.9 0.4 1.2 1.4 0.3 1.1-0.4 1.9-0.7 0.9-2.2 1.3-1.3 0.3-2.4 0-1.1-0.4-1.5-1.3z"/>
			<path id="Layer" fill-rule="evenodd" class="s0" d="m1357.3 200.2q-0.5-1.7 0.1-3 0.6-1.2 1.9-1.6 1.7-0.4 2.9 1.1l0.8-0.2q-0.5-0.5-0.9-1-0.4-0.6-0.7-1.7l-0.3-1.6 1.7-0.4 2.7 10.2-1.6 0.5q-0.2-0.6 0.2-1.7l-0.8 0.2q-0.2 0.9-0.6 1.5-0.4 0.6-1.4 0.9-1.3 0.3-2.4-0.6-1.1-0.8-1.6-2.6zm5.5-1.4q-0.3-1.2-0.9-1.7-0.7-0.5-1.6-0.3-1.8 0.5-1.1 3 0.6 2.4 2.4 2 0.9-0.2 1.2-1 0.4-0.8 0-2z"/>
			<path id="Layer" class="s0" d="m1365.4 193l-0.5-1.8 1.9-0.5 0.5 1.9zm2.3 8.4l-1.9-7.3 1.8-0.5 1.9 7.3z"/>
			<path id="Layer" fill-rule="evenodd" class="s0" d="m1371.3 202.2q-0.2-0.9 0.7-1.6l-0.1-0.6q-0.9-0.1-1.1-0.8-0.2-0.9 0.9-1.6l-0.2-0.6q-1-0.4-1.3-1.4-0.2-1.1 0.4-2.1 0.7-1 1.9-1.3 1-0.2 1.8 0 0.8 0.2 1.2 0.8l0.6-0.1q-0.1-0.7 0.1-1.1 0.2-0.3 0.7-0.5l0.4-0.1 0.4 1.4-0.7 0.2q-0.4 0.1-0.6 0.3-0.1 0.2 0 0.8l0.1 0.2q0.2 1.3-0.5 2.2-0.6 0.9-1.9 1.2-1 0.3-1.5 0.1-0.6 0.4-0.5 0.8 0.1 0.4 0.8 0.2l3.2-0.8q1.1-0.3 1.9 0.1 0.9 0.5 1.1 1.4 0.3 1-0.3 1.7-0.5 0.8-1.6 1.1l-3.7 0.9q-0.9 0.3-1.5 0-0.5-0.3-0.7-0.8zm3.4-6.6q0.3-0.5 0.1-1.1-0.1-0.6-0.6-0.9-0.5-0.3-1.2-0.2-0.6 0.2-0.9 0.7-0.3 0.5-0.1 1.1 0.1 0.7 0.6 1 0.5 0.3 1.2 0.1 0.6-0.2 0.9-0.7zm-1 5.9l2.8-0.7q1-0.3 0.8-1-0.2-0.8-1.2-0.5l-3.3 0.8q-0.3 0.4-0.2 0.9 0.2 0.8 1.1 0.5z"/>
			<path id="Layer" class="s0" d="m1378.3 189.7l-0.5-1.8 1.9-0.5 0.5 1.8-1.9 0.5zm2.2 8.5l-1.9-7.3 1.8-0.5 1.9 7.3z"/>
			<path id="Layer" class="s0" d="m1384.7 195.1l-1-4-1.6 0.4-0.4-1.4 1.6-0.4-0.6-2.3 1.8-0.5 0.6 2.3 1.9-0.5 0.4 1.4-1.9 0.5 0.9 3.8q0.2 0.6 0.9 0.5l1.5-0.4 0.4 1.4-2.2 0.6q-0.8 0.2-1.5-0.1-0.5-0.4-0.8-1.3z"/>
			<path id="Layer" fill-rule="evenodd" class="s0" d="m1389.7 193.8q-0.3-1.4 0.7-2.4 1.1-0.9 3.2-1.7l-0.1-0.2q-0.3-1.2-1.6-0.8-1.4 0.3-1.4 1.6h-1.8q-0.1-0.9 0.6-1.7 0.8-0.9 2.2-1.3 1.5-0.4 2.5 0.1 1 0.5 1.3 1.8l0.8 3q0.1 0.3 0.2 0.3 0.1 0.1 0.4 0l0.6-0.2 0.4 1.4-0.8 0.2q-0.8 0.3-1.2 0-0.4-0.2-0.7-1.1l-0.6 0.2q0 0.8-0.5 1.5-0.4 0.6-1.3 0.8-1 0.3-1.8-0.1-0.8-0.4-1.1-1.4zm4.3-2.3l-0.1-0.6q-1.4 0.5-2 1-0.6 0.6-0.4 1.3 0.1 0.4 0.5 0.6 0.3 0.1 0.8 0 0.8-0.2 1.1-0.8 0.4-0.6 0.1-1.5z"/>
			<path id="Layer" class="s0" d="m1398.2 191l-1.3-4.8 1.8-0.5 1.2 4.4q0.4 1.6 1.6 1.3 1-0.2 1.1-1.1 0.2-0.8-0.1-1.9l-0.9-3.5 1.8-0.4 1.9 7.3-1.7 0.4q-0.1-0.7 0.3-1.8l-0.9 0.2q-0.1 2.1-1.8 2.5-1.1 0.3-1.9-0.3-0.8-0.5-1.1-1.8z"/>
			<path id="Layer" class="s0" d="m1406.5 191.5l1.8-4.5-3.5-2.9 2.1-0.5 0.8 0.7q0.7 0.6 1.1 1.9l0.7-0.1q-0.3-1 0.2-2.3l0.3-1 2-0.5-1.7 4.2 3.8 3-2.2 0.6-1-0.8q-0.7-0.7-1-2l-0.7 0.2q0.2 0.9-0.3 2.2l-0.4 1.3z"/>
			<path id="Layer" fill-rule="evenodd" class="s0" d="m1417.4 184.8q-0.4-1.7 0.3-3.1 0.8-1.3 2.4-1.7 1.6-0.5 2.9 0.4 1.3 0.8 1.8 2.5 0.4 1.7-0.3 3-0.8 1.4-2.4 1.8-1.6 0.4-2.9-0.4-1.4-0.8-1.8-2.5zm5.5-1.4q-0.3-1.2-0.9-1.7-0.7-0.5-1.5-0.3-0.9 0.2-1.2 1-0.3 0.8 0 1.9 0.3 1.2 0.9 1.7 0.7 0.5 1.5 0.2 0.9-0.2 1.2-0.9 0.3-0.8 0-1.9z"/>
			<path id="Layer" class="s0" d="m1427.4 186.1l-1.9-7.3 1.7-0.4q0.2 1-0.2 2.3l0.9-0.2q-0.1-1.2 0.3-1.9 0.5-0.8 1.5-1 0.3-0.1 0.6-0.1l0.4 1.8q-0.3 0-0.8 0.2-1.1 0.3-1.5 1-0.4 0.7 0 2.1l0.8 3-1.8 0.5z"/>
			<path id="Layer" fill-rule="evenodd" class="s0" d="m1433.1 186.2q-0.3-0.8 0.7-1.5l-0.2-0.6q-0.8-0.1-1-0.8-0.3-0.9 0.8-1.6l-0.2-0.6q-1-0.4-1.2-1.4-0.3-1.1 0.3-2.1 0.7-1 2-1.3 0.9-0.2 1.7 0 0.8 0.2 1.2 0.8l0.6-0.1q-0.1-0.7 0.1-1.1 0.2-0.3 0.7-0.5l0.5-0.1 0.3 1.4-0.7 0.2q-0.4 0.1-0.5 0.3-0.1 0.2 0 0.8v0.2q0.2 1.2-0.4 2.2-0.7 0.9-2 1.2-0.9 0.3-1.5 0.1-0.6 0.4-0.4 0.8 0 0.4 0.8 0.2l3.1-0.8q1.1-0.3 2 0.1 0.8 0.4 1 1.4 0.3 1-0.2 1.7-0.6 0.8-1.7 1.1l-3.7 0.9q-0.9 0.3-1.4 0-0.6-0.3-0.7-0.9zm3.3-6.5q0.3-0.5 0.1-1.1-0.1-0.6-0.6-0.9-0.5-0.3-1.1-0.2-0.7 0.2-1 0.7-0.2 0.5-0.1 1.1 0.2 0.7 0.7 1 0.5 0.2 1.1 0.1 0.6-0.2 0.9-0.7zm-1 5.9l2.9-0.7q1-0.3 0.8-1-0.2-0.8-1.2-0.5l-3.3 0.8q-0.4 0.4-0.3 0.9 0.2 0.8 1.1 0.5z"/>
			<path id="Layer" fill-rule="evenodd" class="s0" d="m1440.9 180.6q-0.3-1.4 0.8-2.4 1-0.9 3.1-1.7l-0.1-0.2q-0.3-1.2-1.6-0.8-1.4 0.3-1.4 1.6h-1.8q-0.1-0.9 0.7-1.7 0.7-0.9 2.1-1.3 1.6-0.4 2.5 0.1 1 0.5 1.4 1.8l0.7 3q0.1 0.3 0.2 0.3 0.1 0.1 0.4 0l0.7-0.2 0.3 1.4-0.7 0.2q-0.9 0.3-1.3 0-0.4-0.2-0.6-1.1l-0.7 0.2q0 0.8-0.5 1.4-0.4 0.7-1.3 0.9-1 0.3-1.8-0.1-0.8-0.4-1.1-1.4zm4.3-2.3l-0.1-0.6q-1.4 0.5-1.9 1-0.7 0.6-0.5 1.2 0.1 0.5 0.5 0.7 0.3 0.1 0.9 0 0.7-0.2 1-0.8 0.4-0.6 0.1-1.5z"/>
			<path id="Layer" fill-rule="evenodd" class="s16" d="m451.3 450v-10.5h1.4l6 8.7v-8.7h1.2v10.5h-1.4l-6-8.7v8.7zm10.3-2.3c0-1.8 1.8-2.1 3.3-2.3 1.3-0.1 2.3-0.1 2.3-0.8 0-1-0.8-1.7-2-1.7-1.2 0-2.1 0.7-2.2 1.6h-1.2c0.1-1.5 1.5-2.6 3.4-2.6 2 0 3.2 1.1 3.2 2.8v3.9q0 0.4 0.4 0.4h0.5v1h-0.7c-0.9 0-1.3-0.4-1.3-1.1v-0.3c-0.5 1-1.4 1.5-2.8 1.5-1.8 0-2.9-0.9-2.9-2.4zm5.6-0.9v-1c-0.3 0.4-1.2 0.5-2.2 0.6-1.1 0.1-2.2 0.3-2.2 1.3 0 0.8 0.8 1.4 1.9 1.4 1.5 0 2.5-1 2.5-2.3zm3.2 3.2v-7.9h1l0.1 1.2c0.5-0.9 1.6-1.4 2.7-1.4 1.2 0 2.1 0.6 2.5 1.5 0.5-0.9 1.6-1.5 2.8-1.5 1.7 0 2.8 1.2 2.8 2.8v5.3h-1.2v-5.3c0-1-0.7-1.7-1.8-1.7-1.5 0-2.3 1-2.3 2.2v4.8h-1.3v-5.3c0-1-0.6-1.7-1.7-1.7-1.5 0-2.4 1-2.4 2.2v4.8zm13.2-3.9c0-2.8 1.7-4.2 3.8-4.2 2.1 0 3.6 1.4 3.6 4v0.3h-6.2c0.1 1.7 1.1 2.9 2.7 2.9 1.1 0 1.9-0.6 2.3-1.6h1.2c-0.4 1.6-1.7 2.7-3.5 2.7-2.4 0-3.9-1.8-3.9-4.1zm6.1-0.9c-0.2-1.4-1.1-2.3-2.3-2.3-1.3 0-2.2 0.9-2.5 2.3z"/>
			<path id="Layer" fill-rule="evenodd" class="s16" d="m451.3 508v-10.5h1.4l6 8.7v-8.7h1.2v10.5h-1.4l-6-8.7v8.7zm10.3-4.1c0-2.6 1.7-4 3.9-4 2.5 0 3.9 1.8 3.9 4 0 2.8-1.7 4.3-3.9 4.3-2.6 0-3.9-1.8-3.9-4.3zm6.5 0c0-1.7-1-3-2.6-3-1.6 0-2.7 1.3-2.7 3 0 2.1 1.2 3.2 2.7 3.2 1.7 0 2.6-1.4 2.6-3.2zm2.6 4.1v-7.9h1l0.1 1.2c0.5-0.9 1.6-1.4 2.7-1.4 1.2 0 2.1 0.6 2.5 1.5 0.5-0.9 1.6-1.5 2.8-1.5 1.7 0 2.8 1.2 2.8 2.8v5.3h-1.2v-5.3c0-1-0.7-1.7-1.8-1.7-1.4 0-2.3 1-2.3 2.2v4.8h-1.3v-5.3c0-1-0.6-1.7-1.7-1.7-1.5 0-2.3 1-2.4 2.2v4.8zm16.3-4c0-2.4 1.4-4.1 3.6-4.1 1.2 0 2.2 0.5 2.7 1.3v-4.5h1.3v11.3h-1l-0.1-1.5c-0.6 1-1.6 1.7-2.9 1.7-2.2 0-3.6-1.7-3.6-4.2zm6.3-0.1c0-1.7-1-3-2.5-3-1.5 0-2.5 1.3-2.5 3.1 0 1.8 1 3.1 2.5 3.1 1.5 0 2.5-1.3 2.5-3.2zm2.7 0.2c0-2.8 1.7-4.2 3.7-4.2 2.2 0 3.6 1.4 3.7 4v0.3h-6.2c0.1 1.7 1.1 2.9 2.7 2.9 1.1 0 1.9-0.6 2.2-1.6h1.2c-0.3 1.6-1.6 2.7-3.4 2.7-2.4 0-3.9-1.8-3.9-4.1zm6.1-0.9c-0.3-1.4-1.1-2.3-2.4-2.3-1.2 0-2.2 0.9-2.4 2.3zm5.7 4.8v-7.9h1l0.1 1.2c0.5-0.9 1.6-1.4 2.7-1.4 1.2 0 2.1 0.6 2.5 1.5 0.5-0.9 1.6-1.5 2.8-1.5 1.7 0 2.8 1.2 2.8 2.8v5.3h-1.2v-5.3c0-1-0.7-1.7-1.8-1.7-1.4 0-2.3 1-2.3 2.2v4.8h-1.3v-5.3c0-1-0.6-1.7-1.7-1.7-1.5 0-2.3 1-2.4 2.2v4.8zm13.2-4.1c0-2.6 1.7-4 3.9-4 2.5 0 3.9 1.8 3.9 4 0 2.8-1.7 4.3-3.9 4.3-2.6 0-3.9-1.8-3.9-4.3zm6.5 0c0-1.7-1-3-2.6-3-1.6 0-2.6 1.3-2.6 3 0 2.1 1.2 3.2 2.6 3.2 1.7 0 2.6-1.4 2.6-3.2zm2.6 4.1v-7.9h1l0.1 1.2c0.6-0.9 1.6-1.4 2.8-1.4 1.7 0 2.8 1.1 2.8 2.8v5.3h-1.2v-5.2c0-1.1-0.7-1.8-1.9-1.8-1.4 0-2.3 1-2.3 2.2v4.8zm11-3.9c0-2.8 1.8-4.2 3.8-4.2 2.2 0 3.6 1.4 3.6 4v0.3h-6.2c0.1 1.7 1.1 2.9 2.7 2.9 1.1 0 1.9-0.6 2.3-1.6h1.2c-0.4 1.6-1.7 2.7-3.5 2.7-2.3 0-3.9-1.8-3.9-4.1zm6.1-0.9c-0.2-1.4-1.1-2.3-2.3-2.3-1.3 0-2.2 0.9-2.5 2.3zm2.7 4.8v-7.9h1l0.1 1.2c0.5-0.9 1.5-1.4 2.7-1.4 1.7 0 2.9 1.1 2.9 2.8v5.3h-1.3v-5.2c0-1.1-0.7-1.8-1.9-1.8-1.4 0-2.3 1-2.3 2.2v4.8zm11.5 0c-1.6 0-2.4-0.8-2.4-2.3v-4.6h-1.4v-1h1.4v-2.8h1.3v2.8h2.1v1h-2.1v4.6c0 0.8 0.4 1.2 1.1 1.2h0.9v1.1zm2.2 0v-7.9h1l0.1 1.5c0.5-1.1 1.4-1.6 2.8-1.6h0.2v1.2h-0.2c-1.7 0-2.7 1-2.7 2.6v4.2zm4.5-3.9c0-2.8 1.8-4.2 3.8-4.2 2.2 0 3.6 1.4 3.6 4v0.3h-6.1c0.1 1.7 1 2.9 2.6 2.9 1.2 0 2-0.6 2.3-1.6h1.2c-0.3 1.6-1.6 2.7-3.5 2.7-2.3 0-3.9-1.8-3.9-4.1zm6.1-0.9c-0.2-1.4-1-2.3-2.3-2.3-1.3 0-2.2 0.9-2.4 2.3zm2.6 7.8v-10.9h1l0.1 1.4c0.6-1 1.7-1.6 3-1.6 2.1 0 3.5 1.7 3.5 4.1 0 2.5-1.4 4.2-3.5 4.2-1.3 0-2.3-0.6-2.8-1.5v4.3zm6.3-7c0-1.8-1-3.1-2.5-3.1-1.5 0-2.6 1.3-2.6 3 0 1.9 1.1 3.2 2.6 3.2 1.5 0 2.5-1.3 2.5-3.1zm2.6 4v-7.9h1l0.2 1.5c0.5-1.1 1.4-1.6 2.7-1.6h0.3v1.2h-0.3c-1.7 0-2.6 1-2.6 2.6v4.2zm5-10.2c0-0.5 0.4-0.9 0.9-0.9 0.5 0 0.9 0.4 0.9 0.9 0 0.5-0.4 0.9-0.9 0.9-0.5 0-0.9-0.4-0.9-0.9zm0.3 10.2v-7.9h1.2v7.9zm2.6-2.5h1.2c0.1 1 1 1.6 2.2 1.6 1.1 0 1.7-0.4 1.7-1.2 0-0.8-0.6-0.9-1.4-1.2l-1.2-0.4c-1.2-0.4-2.3-0.8-2.3-2.2 0-1.4 1-2.2 2.8-2.2 1.7 0 2.9 0.9 3.1 2.7h-1.2c-0.1-1.1-0.9-1.7-2-1.7-1 0-1.5 0.5-1.5 1.2 0 0.8 0.8 1 1.5 1.2l1.1 0.3c1.4 0.5 2.3 1 2.3 2.3 0 1.4-1 2.3-3 2.3-1.8 0-3.2-1-3.3-2.7zm7.1-1.4c0-2.8 1.8-4.2 3.8-4.2 2.2 0 3.6 1.4 3.6 4v0.3h-6.1c0 1.7 1 2.9 2.6 2.9 1.2 0 2-0.6 2.3-1.6h1.2c-0.4 1.6-1.6 2.7-3.5 2.7-2.3 0-3.9-1.8-3.9-4.1zm6.1-0.9c-0.2-1.4-1-2.3-2.3-2.3-1.3 0-2.2 0.9-2.5 2.3z"/>
			<path id="Layer" fill-rule="evenodd" class="s16" d="m451.3 566v-10.5h1.6l3.7 9 3.6-9h1.6v10.5h-1.2v-8.3l-3.4 8.3h-1.3l-3.4-8.3v8.3zm12.2-3.9c0-2.8 1.7-4.2 3.8-4.2 2.1 0 3.6 1.4 3.6 4v0.3h-6.2c0.1 1.7 1.1 2.9 2.7 2.9 1.1 0 1.9-0.6 2.3-1.6h1.2c-0.4 1.6-1.7 2.7-3.5 2.7-2.4 0-3.9-1.8-3.9-4.1zm6.1-0.9c-0.2-1.4-1.1-2.2-2.3-2.2-1.3 0-2.2 0.8-2.5 2.2zm2.2 2.3h1.2c0.1 1 1.1 1.6 2.3 1.6 1.1 0 1.6-0.4 1.6-1.2 0-0.8-0.5-0.9-1.4-1.2l-1.1-0.4c-1.2-0.4-2.4-0.8-2.4-2.2 0-1.4 1.1-2.2 2.8-2.2 1.8 0 3 0.9 3.2 2.7h-1.2c-0.2-1.1-0.9-1.7-2-1.7-1 0-1.6 0.5-1.6 1.2 0 0.8 0.9 0.9 1.6 1.2l1 0.3c1.5 0.5 2.4 1 2.4 2.3 0 1.4-1 2.3-3 2.3-1.9 0-3.3-1-3.4-2.7zm7.2 0h1.2c0.1 1 1 1.6 2.2 1.6 1.2 0 1.7-0.4 1.7-1.2 0-0.8-0.6-0.9-1.4-1.2l-1.2-0.4c-1.1-0.4-2.3-0.8-2.3-2.2 0-1.4 1-2.2 2.8-2.2 1.7 0 3 0.9 3.1 2.7h-1.2c-0.1-1.1-0.9-1.7-2-1.7-0.9 0-1.5 0.5-1.5 1.2 0 0.8 0.9 0.9 1.5 1.2l1.1 0.3c1.5 0.5 2.3 1 2.3 2.3 0 1.4-1 2.3-2.9 2.3-1.9 0-3.3-1-3.4-2.7zm7.3 0.2c0-1.8 1.7-2.1 3.3-2.3 1.2-0.1 2.3-0.1 2.3-0.8 0-1-0.8-1.7-2-1.7-1.2 0-2.1 0.7-2.2 1.6h-1.2c0.1-1.5 1.5-2.6 3.4-2.6 2 0 3.2 1.1 3.2 2.8v3.9q0 0.4 0.4 0.4h0.5v1h-0.7c-0.9 0-1.3-0.4-1.3-1.1v-0.3c-0.5 0.9-1.4 1.5-2.8 1.5-1.8 0-2.9-0.9-2.9-2.4zm5.6-0.9v-1c-0.3 0.4-1.2 0.5-2.2 0.6-1.1 0.1-2.2 0.3-2.2 1.3 0 0.8 0.8 1.4 1.9 1.4 1.5 0 2.5-1 2.5-2.3zm3 3.7h1.3c0 0.9 0.9 1.6 2.3 1.6 1.7 0 2.5-0.9 2.5-2.3v-1.3c-0.5 0.8-1.5 1.4-2.7 1.4-2.1 0-3.6-1.7-3.6-4 0-2.4 1.5-4 3.6-4 1.3 0 2.3 0.6 2.9 1.5l0.1-1.4h1v7.8c0 2-1.4 3.4-3.8 3.4-2.1 0-3.6-1.1-3.6-2.7zm6.1-4.6c0-1.8-1-2.9-2.5-2.9-1.5 0-2.5 1.1-2.5 2.9 0 1.7 1 2.9 2.5 2.9 1.5 0 2.5-1.2 2.5-2.9zm2.6 0.2c0-2.8 1.8-4.2 3.8-4.2 2.2 0 3.6 1.4 3.6 4v0.3h-6.2c0.1 1.7 1.1 2.9 2.7 2.9 1.1 0 1.9-0.6 2.3-1.6h1.2c-0.4 1.6-1.7 2.7-3.5 2.7-2.3 0-3.9-1.8-3.9-4.1zm6.1-0.9c-0.2-1.4-1.1-2.2-2.3-2.2-1.3 0-2.2 0.8-2.5 2.2z"/>
			<path id="Layer" fill-rule="evenodd" class="s16" d="m762.3 450v-10.5h7.1v1.2h-5.9v3.3h5.3v1.1h-5.3v3.7h6.1v1.2zm8.7 0v-7.9h1l0.2 1.2c0.5-0.9 1.5-1.4 2.7-1.4 1.2 0 2.1 0.6 2.5 1.5 0.5-0.9 1.6-1.5 2.8-1.5 1.7 0 2.8 1.2 2.8 2.8v5.3h-1.3v-5.3c0-1-0.7-1.7-1.7-1.7-1.5 0-2.4 1-2.4 2.2v4.8h-1.2v-5.3c0-1-0.7-1.7-1.7-1.7-1.5 0-2.4 1-2.4 2.2v4.8zm13.2-2.3c0-1.8 1.7-2.1 3.3-2.3 1.2-0.1 2.3-0.1 2.3-0.8 0-1-0.8-1.7-2-1.7-1.2 0-2.1 0.7-2.2 1.6h-1.3c0.2-1.5 1.6-2.6 3.5-2.6 1.9 0 3.2 1.1 3.2 2.8v3.9q0 0.4 0.4 0.4h0.5v1h-0.7c-0.9 0-1.3-0.4-1.3-1.1v-0.3c-0.5 1-1.4 1.5-2.8 1.5-1.8 0-2.9-0.9-2.9-2.4zm5.6-0.9v-1c-0.4 0.4-1.2 0.5-2.2 0.6-1.1 0.1-2.2 0.3-2.2 1.3 0 0.8 0.7 1.4 1.9 1.4 1.5 0 2.5-1 2.5-2.3zm2.9-7c0-0.5 0.4-0.9 0.9-0.9 0.5 0 0.9 0.4 0.9 0.9 0 0.5-0.4 0.9-0.9 0.9-0.5 0-0.9-0.4-0.9-0.9zm0.3 10.2v-7.9h1.2v7.9zm3 0v-11.3l1.3 0.1v11.2z"/>
			<path id="Layer" class="s17" d="m893.5 348c0-16.8 13.7-30.5 30.5-30.5h140c16.8 0 30.5 13.7 30.5 30.5 0 16.8-13.7 30.5-30.5 30.5h-140c-16.8 0-30.5-13.7-30.5-30.5z"/>
			<path id="Layer" fill-rule="evenodd" class="s0" d="m956.8 349.5q0-3.5 2.1-5.7 2.2-2.2 5.5-2.2 3.4 0 5.3 2.2 2 2.2 2 5.7 0 0.7-0.1 1h-10.6q0.1 1.9 1 2.8 0.9 0.9 2.4 0.9 2.3 0 3.5-2.6l3.8 1.5q-0.8 1.8-2.5 3.1-1.7 1.3-4.8 1.3-3.4 0-5.5-2.2-2.1-2.2-2.1-5.8zm4.4-2h6.2q-0.3-2.9-3-2.9-1.3 0-2.2 0.8-0.8 0.7-1 2.1zm13.1 9.5v-15h3.6q0 1.5-1.2 3.1h1.9q0.4-1.7 1.4-2.6 1.1-0.9 2.7-0.9 1.4 0 2.5 0.9 1.1 0.9 1.4 2.6h1.4q0.6-1.7 1.7-2.6 1.1-0.9 2.6-0.9 2.2 0 3.5 1.5 1.4 1.4 1.4 4.2v9.7h-4.3v-9.1q0-2.8-2.3-2.8-0.9 0-1.5 0.3-0.6 0.4-0.9 1.1-0.2 0.7-0.3 1.3-0.1 0.6-0.1 1.6v7.6h-4.2v-9.1q0-2.8-2.3-2.8-0.9 0-1.5 0.3-0.6 0.4-0.9 1.1-0.2 0.7-0.3 1.3-0.1 0.6-0.1 1.6v7.6zm25.5-3.8q0-1.5 0.7-2.6 0.7-1.1 2-1.7 1.3-0.7 2.9-1 1.6-0.4 3.8-0.7v-0.5q0-2.1-2.4-2.1-2.8 0-3.3 2.4l-3.9-0.9q0.2-1.9 2.1-3.2 2-1.3 5-1.3 3.3 0 5 1.4 1.7 1.5 1.7 4.4v5.5q0 0.6 0.2 0.7 0.1 0.2 0.7 0.2h1.3v3.2h-1.7q-1.9 0-2.6-0.7-0.6-0.7-0.7-2.4h-1.4q-1.1 3.6-4.6 3.6-2.1 0-3.4-1.2-1.4-1.2-1.4-3.1zm9.4-2.3v-1q-2.6 0.3-3.8 0.9-1.3 0.6-1.3 1.9 0 1.7 2 1.7 1.3 0 2.2-0.9 0.9-0.9 0.9-2.6zm7.9-10.9v-4.1h4.6v4.1zm0.1 17v-15h4.3v15zm7.7 0v-21h4.3v21z"/>
		</g>
		<path id="Shape 1" class="s6" d="m326 254h790v528h-790z"/>
		<path id="Shape 2" class="s6" d="m23 12h116v104h-116z"/>
		<path id="Shape 3" class="s6" d="m1323 20h98v64h-98z"/>
	</g>
</svg>