<svg width="132" height="132" viewBox="0 0 132 132" fill="none" xmlns="http://www.w3.org/2000/svg">
<g clip-path="url(#clip0_160_72)">
<path d="M66.0579 129.962C43.853 129.962 23.5641 118.748 11.7889 99.9611C-6.94398 70.0753 2.1337 30.531 32.0302 11.8049C42.229 5.41339 53.9566 2.03766 65.9424 2.03766C88.1474 2.03766 108.436 13.2516 120.211 32.0389C138.944 61.9179 129.867 101.469 99.9701 120.195C89.7645 126.587 78.0369 129.962 66.0579 129.962Z" fill="#FDFCF9"/>
<path d="M65.9421 4.07533C86.5639 4.07533 106.73 14.3655 118.485 33.1189C136.647 62.0945 127.875 100.308 98.8894 118.463C88.6702 124.868 77.296 127.925 66.0576 127.925C45.4358 127.925 25.2692 117.634 13.5144 98.8811C-4.64772 69.9055 4.12419 31.6925 33.1102 13.5369C43.3294 7.13183 54.7037 4.07533 65.9421 4.07533ZM65.9421 0C53.569 0 41.4677 3.48441 30.9427 10.0797C0.101752 29.4035 -9.26809 70.2112 10.0627 101.041C16.11 110.686 24.5693 118.633 34.5235 124.019C44.172 129.242 55.0774 132 66.0576 132C78.4239 132 90.5252 128.516 101.057 121.92C131.905 102.596 141.275 61.7956 121.944 30.9589C115.896 21.314 107.437 13.3671 97.4829 7.98086C87.8277 2.75764 76.9223 0 65.9421 0Z" fill="black"/>
<path d="M79.0557 50.8669C78.8518 49.8073 78.4781 48.7545 77.9142 47.7629C75.4205 43.3887 70.1818 41.5752 65.6022 43.2189C62.6398 38.8583 56.776 37.4319 52.1148 40.0877C47.4944 42.7231 45.721 48.4149 47.8817 53.1627C43.3633 56.0766 41.8549 62.0401 44.5523 66.7675C45.1163 67.7592 45.8297 68.615 46.6383 69.335C45.0552 72.3168 44.9804 76.0185 46.7742 79.1701C49.5668 84.0673 55.7975 85.7721 60.6965 82.9805C62.83 81.7647 64.3588 79.8901 65.1742 77.7641C66.3225 78.0969 67.5319 78.2192 68.7414 78.1377L77.4521 93.4202L84.0905 89.6369L75.6176 74.7755C76.5552 73.7227 77.2551 72.5069 77.6967 71.2028C79.6944 71.3794 81.7735 70.9787 83.6489 69.9055C88.5478 67.1139 90.2533 60.8854 87.4607 55.9883C85.6669 52.8367 82.4394 51.0163 79.0625 50.8601L79.0557 50.8669Z" fill="#11A758"/>
<path d="M77.4523 95.1182C77.3028 95.1182 77.1534 95.0979 77.0039 95.0571C76.569 94.9348 76.2021 94.6496 75.9779 94.2624L67.7699 79.8629C67.2263 79.8493 66.6828 79.8018 66.146 79.7203C65.0928 81.69 63.4961 83.3473 61.5392 84.4612C58.7806 86.037 55.5667 86.4378 52.5023 85.6023C49.4379 84.7601 46.8763 82.7768 45.3068 80.0191C43.4926 76.8404 43.2548 73.0707 44.6069 69.7085C44.0226 69.0633 43.513 68.3637 43.0849 67.6165C40.1972 62.5495 41.4406 56.2056 45.8367 52.5718C44.1245 47.2671 46.3124 41.4529 51.2861 38.6206C56.2733 35.7814 62.606 36.97 66.2479 41.2627C71.3575 40.013 76.7389 42.268 79.3956 46.9274C79.8237 47.6746 80.1634 48.4693 80.4216 49.3047C84.0024 49.8549 87.1211 51.9809 88.9353 55.1596C92.1832 60.8583 90.1923 68.1395 84.4916 71.393C82.7522 72.3847 80.8225 72.9145 78.8384 72.9484C78.5191 73.648 78.125 74.3205 77.6698 74.9453L85.5719 88.8083C86.034 89.6233 85.7554 90.6625 84.94 91.1244L78.3017 94.9077C78.0435 95.0571 77.7513 95.1318 77.4591 95.1318L77.4523 95.1182ZM68.7416 76.4396C69.3463 76.4396 69.9102 76.7657 70.216 77.2955L78.0842 91.104L81.7737 89.0052L74.1433 75.6178C73.7832 74.9861 73.8647 74.1914 74.354 73.648C75.1353 72.7718 75.7197 71.7666 76.0866 70.6662C76.338 69.9191 77.065 69.4369 77.8464 69.5116C79.5858 69.6678 81.2981 69.2942 82.8065 68.4316C86.8833 66.1087 88.3034 60.9058 85.9864 56.8305C84.5392 54.2902 81.9232 52.694 78.9879 52.5582C78.2065 52.5242 77.5475 51.9537 77.398 51.1862C77.2213 50.2624 76.8952 49.393 76.4467 48.5983C74.3947 45.0052 70.0801 43.4091 66.1868 44.8151C65.4597 45.08 64.6376 44.8151 64.2027 44.1698C61.7295 40.5224 56.7897 39.3813 52.9643 41.5616C49.1186 43.7487 47.6033 48.4353 49.4311 52.4563C49.7776 53.2238 49.5127 54.1272 48.806 54.5891C45.0214 57.0343 43.7983 62.013 46.027 65.9253C46.4822 66.72 47.0666 67.4399 47.7664 68.0648C48.3508 68.5878 48.507 69.4369 48.1401 70.1297C46.7608 72.7243 46.8016 75.7944 48.2488 78.3279C49.3768 80.3044 51.1977 81.7172 53.3924 82.3217C55.5871 82.9194 57.8769 82.6341 59.8541 81.5066C61.5596 80.5353 62.8846 78.9935 63.5844 77.1596C63.897 76.331 64.8007 75.8895 65.6432 76.134C66.5944 76.4125 67.5933 76.5144 68.6193 76.4464C68.66 76.4464 68.694 76.4464 68.7348 76.4464L68.7416 76.4396Z" fill="black"/>
<path d="M32.5872 93.3183L24.2638 98.8404L20.0171 92.4421L21.5187 91.4505L24.5627 96.0352L26.7234 94.602L24.2841 90.9274L25.779 89.9358L28.2183 93.6104L31.3846 91.5116L32.5804 93.3183H32.5872Z" fill="black"/>
<path d="M27.9941 85.7925L18.9369 89.9969L18.0264 88.034L27.0837 83.8296L27.9941 85.7993V85.7925Z" fill="black"/>
<path d="M21.4913 83.8975C20.0848 84.305 18.7462 84.1352 17.4756 83.3948C16.205 82.6545 15.3964 81.5677 15.0431 80.1414C14.7238 78.9391 14.7306 77.8728 15.0635 76.9558C15.3964 76.0321 15.9672 75.3189 16.7826 74.8095L18.0396 76.589C16.8573 77.3633 16.4428 78.3958 16.7826 79.6863C17.0136 80.5625 17.5028 81.1874 18.2502 81.5677C18.9976 81.9481 19.8877 82.0024 20.9137 81.7307C21.9057 81.4658 22.626 80.9836 23.0812 80.2772C23.5365 79.5708 23.6452 78.8033 23.4277 77.9814C23.2307 77.2547 22.9113 76.7249 22.4561 76.3785C22.0009 76.0389 21.532 75.8962 21.0428 75.9438L21.8718 79.0614L20.1323 79.5233L18.753 74.3544L23.7199 73.0299L24.2227 74.9181C23.5908 75.088 22.8706 75.0472 22.0756 74.7959L22.2998 75.6517C22.9929 75.7332 23.5976 75.937 24.114 76.2562C24.6712 76.6026 25.0585 77.2003 25.2895 78.0562C25.636 79.2923 25.4661 80.481 24.7799 81.6221C24.0936 82.7632 22.9929 83.5307 21.4913 83.911V83.8975Z" fill="black"/>
<path d="M23.5842 71.59L13.596 71.7191L13.5688 69.5523L17.5233 69.498L17.469 65.2189L13.5145 65.2732L13.4873 63.1065L23.4755 62.9775L23.5026 65.1442L19.2628 65.1985L19.3171 69.4776L23.557 69.4233L23.5842 71.59Z" fill="black"/>
<path d="M24.2502 58.807L16.2393 57.0886L15.5191 60.4371L13.7593 60.0568L15.655 51.2405L17.4148 51.6208L16.6946 54.9694L24.7055 56.6878L24.2502 58.807Z" fill="black"/>
<path d="M25.9555 52.4631L16.6196 48.904L17.3942 46.8799L26.7301 50.4322L25.9555 52.4563V52.4631Z" fill="black"/>
<path d="M27.2807 48.5304L18.7466 43.348L20.4792 40.4952L29.122 40.5564L29.0745 39.7753C28.3135 39.7753 27.7495 39.7209 27.3894 39.6258C27.0293 39.5307 26.5129 39.293 25.8538 38.8991L22.6331 36.9429L23.761 35.0886L32.2951 40.2711L30.9362 42.4989L20.8325 42.4174L20.8461 43.1917C21.5868 43.2325 22.1983 43.314 22.6671 43.4295C23.1427 43.5517 23.6931 43.803 24.325 44.1902L28.395 46.6626L27.2671 48.5168L27.2807 48.5304Z" fill="black"/>
<path d="M29.6111 35.7271C28.5784 34.6946 28.0755 33.4381 28.1095 31.971C28.1435 30.5038 28.7007 29.2677 29.781 28.2624C30.6779 27.3998 31.6156 26.8904 32.5804 26.7409C33.5453 26.5915 34.4489 26.7409 35.2915 27.2028L34.347 29.159C33.0968 28.5001 31.9893 28.636 31.0312 29.5597C30.3789 30.1846 30.0664 30.9182 30.0936 31.7536C30.1207 32.589 30.5012 33.3973 31.2419 34.1581C31.9553 34.8984 32.7299 35.2924 33.5656 35.3467C34.4014 35.401 35.1284 35.1293 35.7467 34.5384C36.2903 34.0154 36.5961 33.4788 36.6776 32.9151C36.7591 32.3513 36.6572 31.8691 36.3718 31.4683L34.0481 33.703L32.8046 32.4057L36.664 28.6971L40.2244 32.3989L38.8179 33.7505C38.3627 33.2751 38.0569 32.6298 37.887 31.8147L37.2484 32.426C37.5133 33.0713 37.6289 33.6962 37.5949 34.3075C37.5609 34.9595 37.228 35.5912 36.5893 36.2025C35.6788 37.1059 34.5509 37.5338 33.2191 37.4794C31.8874 37.4319 30.6847 36.841 29.6247 35.7067L29.6111 35.7271Z" fill="black"/>
<path d="M49.6487 27.1417L47.8821 25.4097L44.2605 27.23L44.5731 29.6888L42.4939 30.7348L41.4136 20.105L43.9276 18.8416L51.789 26.0685L49.6487 27.1417ZM44.0159 25.3418L46.53 24.0784L44.8924 22.4755C44.5255 22.129 44.0771 21.4295 43.5403 20.3902L42.854 20.7366C43.1666 21.4091 43.3704 21.8642 43.4588 22.1087C43.5811 22.4075 43.6694 22.7336 43.7238 23.08L44.0159 25.3418Z" fill="black"/>
<path d="M50.3552 21.3683C49.9815 19.9487 50.1853 18.6175 50.9531 17.3677C51.7209 16.1179 52.8284 15.33 54.2689 15.0176C55.4783 14.7255 56.5451 14.7595 57.4556 15.1195C58.3661 15.4795 59.0727 16.0636 59.5619 16.8854L57.7546 18.0945C57.0071 16.899 55.9811 16.4507 54.6902 16.7632C53.8136 16.9737 53.1749 17.4492 52.7741 18.1828C52.3732 18.9231 52.2984 19.8061 52.5498 20.8385C52.7876 21.837 53.2565 22.5705 53.9563 23.0392C54.6494 23.5079 55.4172 23.6437 56.2461 23.4399C56.98 23.2633 57.5167 22.9509 57.8701 22.5026C58.2234 22.0543 58.3797 21.5857 58.3389 21.0966L55.2066 21.8506L54.7853 20.105L59.99 18.8552L61.1927 23.8475L59.2901 24.3025C59.1339 23.6641 59.195 22.9509 59.4668 22.163L58.6039 22.3668C58.502 23.0528 58.2913 23.6573 57.9516 24.1667C57.5915 24.7101 56.9868 25.0904 56.1238 25.2942C54.8804 25.6134 53.6913 25.4165 52.5702 24.6965C51.4423 23.9833 50.7085 22.8626 50.362 21.3547L50.3552 21.3683Z" fill="black"/>
<path d="M69.5227 23.8271L68.7413 21.4838L64.6917 21.4566L63.8492 23.7863L61.5254 23.7728L65.4051 13.8154L68.2181 13.8357L71.928 23.8475L69.5295 23.8271H69.5227ZM65.3304 19.6635L68.1434 19.6838L67.4164 17.5103C67.2465 17.0349 67.165 16.213 67.165 15.038H66.3972C66.37 15.7715 66.3428 16.2742 66.3156 16.5323C66.2817 16.8583 66.2137 17.1843 66.1118 17.5171L65.3372 19.6635H65.3304Z" fill="black"/>
<path d="M72.771 24.2686L74.5036 14.4335L76.6372 14.807L74.9045 24.6422L72.771 24.2686Z" fill="black"/>
<path d="M76.895 24.8256L80.3807 15.4659L83.513 16.6341L85.0826 25.1312L85.8368 24.941C85.7009 24.1871 85.6466 23.6301 85.6669 23.2566C85.6873 22.883 85.83 22.3328 86.0882 21.6128L87.4064 18.0877L89.438 18.8416L85.9523 28.2013L83.5062 27.2911L81.6785 17.3541L80.9175 17.5103C81.0194 18.2507 81.0534 18.862 81.0262 19.3442C80.999 19.8333 80.8563 20.4242 80.5981 21.117L78.9334 25.5795L76.9018 24.8256H76.895Z" fill="black"/>
<path d="M88.4734 26.3606L90.5458 26.9379C90.3216 27.4881 90.2808 28.0451 90.4099 28.6088C90.5458 29.1726 90.9059 29.648 91.4902 30.0488C92.027 30.4156 92.4891 30.5921 92.89 30.5854C93.2908 30.5854 93.6034 30.4156 93.8276 30.0827C94.1945 29.5394 93.9771 28.8941 93.1685 28.1537L92.2377 27.3115C90.6613 25.8851 90.3555 24.4724 91.3136 23.0664C91.8028 22.3532 92.5027 21.9524 93.4131 21.8709C94.3236 21.7894 95.2885 22.0883 96.2941 22.7743C97.2521 23.4264 97.884 24.1531 98.1966 24.9546C98.5024 25.7561 98.5363 26.5576 98.2917 27.3523L96.2465 26.8089C96.5659 25.7085 96.2601 24.8391 95.3224 24.2007C94.8604 23.8882 94.4459 23.7388 94.079 23.7728C93.7121 23.7999 93.4335 23.9629 93.2297 24.2618C92.8968 24.7508 93.053 25.2874 93.6917 25.8648L94.6226 26.7002C95.4583 27.4541 95.9815 28.2149 96.1922 28.9892C96.4028 29.7635 96.2601 30.5106 95.7777 31.2238C95.2613 31.9846 94.5343 32.4125 93.6102 32.494C92.6793 32.5755 91.6533 32.2359 90.5254 31.4683C89.4722 30.7552 88.7792 29.9401 88.4598 29.0299C88.1337 28.1198 88.1405 27.23 88.4802 26.3538L88.4734 26.3606Z" fill="black"/>
<path d="M96.3686 35.9308L102.219 30.205L99.8203 27.7598L101.104 26.5032L107.417 32.9423L106.133 34.1988L103.734 31.7536L97.8838 37.4795L96.3618 35.9308H96.3686Z" fill="black"/>
<path d="M103.782 45.1411L112.88 41.0182L114.436 44.4483C115.061 45.7795 115.17 47.1108 114.762 48.4285C114.354 49.7462 113.478 50.6971 112.126 51.288C110.753 51.9265 109.428 51.974 108.144 51.4239C106.86 50.8737 105.922 49.9228 105.331 48.5711L103.775 45.1411H103.782ZM106.316 46.3705L106.934 47.7357C107.797 49.6375 109.211 50.1469 111.168 49.2639C112.058 48.8564 112.656 48.2994 112.955 47.5931C113.253 46.8867 113.199 46.0784 112.791 45.175L112.139 43.7351L106.316 46.3705Z" fill="black"/>
<path d="M107.777 54.6366L117.561 52.6125L119.09 60.0025L117.33 60.3693L116.236 55.1053L114.116 55.5468L114.938 59.527L113.206 59.887L112.384 55.9068L109.978 56.4026L111.065 61.6666L109.306 62.0334L107.777 54.6434V54.6366Z" fill="black"/>
<path d="M109.38 63.4257L119.368 63.4597L119.348 71.1349H117.548L117.568 65.6196H114.972L114.959 70.021H113.158L113.172 65.606L109.374 65.5924V63.4257H109.38Z" fill="black"/>
<path d="M114.32 72.1809C115.801 72.5205 116.916 73.2745 117.663 74.4495C118.411 75.6178 118.601 76.9898 118.241 78.5588C117.881 80.121 117.113 81.2757 115.931 82.0025C114.748 82.7292 113.417 82.9262 111.935 82.5866C110.454 82.2674 109.347 81.5202 108.613 80.3452C107.879 79.1701 107.695 77.7981 108.062 76.2223C108.416 74.6465 109.177 73.485 110.352 72.7515C111.528 72.0179 112.846 71.8277 114.32 72.1809ZM112.452 80.3723C113.444 80.5965 114.313 80.515 115.054 80.121C115.795 79.7271 116.277 79.075 116.481 78.1649C116.692 77.2411 116.549 76.4328 116.053 75.7536C115.557 75.0744 114.809 74.6193 113.817 74.3952C112.832 74.171 111.976 74.2525 111.235 74.6533C110.495 75.054 110.019 75.7129 109.809 76.6366C109.598 77.5468 109.741 78.3347 110.237 79.0207C110.726 79.6999 111.466 80.1482 112.452 80.3791V80.3723Z" fill="black"/>
<path d="M106.513 82.5798L115.421 87.0967L113.186 91.498C112.71 92.4421 112.119 93.0738 111.419 93.3998C110.719 93.7259 110.013 93.7123 109.299 93.3523C108.715 93.0534 108.348 92.6867 108.198 92.252C108.049 91.858 108.008 91.4573 108.09 91.0497C108.164 90.649 108.341 90.1464 108.613 89.5486L107.954 89.2158C107.505 90.0377 107.077 90.5675 106.676 90.8256C106.269 91.0769 105.711 91.1041 104.991 90.9003L102.667 90.1871L103.714 88.1291L105.82 88.8626C106.377 89.046 106.826 89.0664 107.166 88.9238C107.505 88.7743 107.818 88.4211 108.103 87.8642L108.925 86.2476L105.542 84.5292L106.52 82.5934L106.513 82.5798ZM110.481 87.0219L109.415 89.1207C109.197 89.5554 109.122 89.9494 109.204 90.3026C109.279 90.6558 109.51 90.9275 109.89 91.1244C110.264 91.3146 110.617 91.335 110.943 91.1856C111.276 91.0361 111.548 90.7509 111.766 90.3162L112.832 88.2174L110.481 87.0219Z" fill="black"/>
<path d="M101.838 91.2399L109.564 97.5702L104.78 103.405L103.387 102.264L106.798 98.1068L105.12 96.7348L102.545 99.8796L101.179 98.7589L103.754 95.6141L101.859 94.0586L98.4476 98.2155L97.0547 97.0744L101.845 91.2399H101.838Z" fill="black"/>
<path d="M98.4479 99.7505L97.2793 101.557C96.824 101.177 96.3008 100.973 95.7233 100.932C95.1457 100.892 94.5818 101.095 94.0314 101.53C93.5218 101.931 93.216 102.325 93.1005 102.705C92.985 103.085 93.053 103.439 93.2976 103.751C93.7053 104.267 94.3847 104.247 95.336 103.697L96.4163 103.058C98.2441 101.985 99.6914 102.107 100.751 103.445C101.288 104.125 101.465 104.913 101.268 105.802C101.071 106.692 100.5 107.521 99.5487 108.282C98.6382 109.002 97.7549 109.389 96.8988 109.443C96.0426 109.497 95.268 109.287 94.5818 108.818L95.7097 107.032C96.6677 107.67 97.585 107.636 98.4751 106.93C98.9168 106.583 99.175 106.23 99.2565 105.87C99.338 105.517 99.2633 105.191 99.0391 104.913C98.6722 104.451 98.115 104.437 97.3676 104.872L96.2872 105.51C95.3224 106.081 94.4391 106.353 93.6373 106.325C92.8355 106.291 92.1629 105.938 91.6261 105.259C91.0485 104.539 90.8651 103.717 91.0621 102.807C91.2592 101.897 91.8911 101.021 92.9578 100.172C93.9567 99.3769 94.9351 98.9626 95.8999 98.9286C96.8648 98.8879 97.7141 99.1664 98.4479 99.7505Z" fill="black"/>
<path d="M86.9443 104.424L90.661 111.718L93.7118 110.163L94.5271 111.766L86.4891 115.862L85.6737 114.259L88.7245 112.703L85.0078 105.408L86.9375 104.424H86.9443Z" fill="black"/>
<path d="M76.6096 108.492L78.0773 110.482L81.9434 109.266L82.0318 106.787L84.2468 106.088L83.6081 116.751L80.9242 117.594L74.3198 109.205L76.6096 108.485V108.492ZM81.8823 111.168L79.1984 112.011L80.5573 113.858C80.8631 114.259 81.196 115.019 81.5561 116.133L82.29 115.902C82.0861 115.189 81.957 114.707 81.9095 114.456C81.8415 114.136 81.8075 113.804 81.8075 113.457L81.8823 111.175V111.168Z" fill="black"/>
<path d="M73.3075 109.083L74.4151 117.193L77.8056 116.731L78.0502 118.511L69.1152 119.733L68.8706 117.954L72.2611 117.492L71.1536 109.382L73.3007 109.09L73.3075 109.083Z" fill="black"/>
<path d="M66.7577 109.64L66.5742 119.625L64.4067 119.584L64.5902 109.599L66.7577 109.64Z" fill="black"/>
<path d="M62.2254 114.7C61.9265 116.195 61.1994 117.322 60.0443 118.103C58.8892 118.877 57.5303 119.108 55.9539 118.789C54.3776 118.47 53.2089 117.73 52.4479 116.568C51.6869 115.407 51.4559 114.075 51.7616 112.588C52.0402 111.1 52.7605 109.98 53.9155 109.212C55.0706 108.445 56.4364 108.227 58.0195 108.56C59.6095 108.873 60.785 109.606 61.546 110.761C62.3138 111.915 62.538 113.233 62.2186 114.707L62.2254 114.7ZM53.9835 113.05C53.7797 114.048 53.8884 114.911 54.3028 115.644C54.7173 116.378 55.3832 116.84 56.2937 117.023C57.2246 117.213 58.0263 117.05 58.6922 116.534C59.3581 116.018 59.7929 115.264 59.9968 114.266C60.1938 113.281 60.0919 112.418 59.6706 111.691C59.2562 110.965 58.5835 110.503 57.6458 110.312C56.7353 110.129 55.9404 110.292 55.2745 110.801C54.6086 111.311 54.1737 112.058 53.9767 113.05H53.9835Z" fill="black"/>
<path d="M51.6054 107.256L47.1481 116.188L44.1585 114.7L43.4994 106.081L42.7248 106.19C42.7792 106.95 42.7792 107.514 42.718 107.881C42.6569 108.248 42.4598 108.777 42.1201 109.47L40.4418 112.839L38.4985 111.875L42.9558 102.936L45.2932 104.098L46.061 114.17L46.8288 114.096C46.8084 113.355 46.8356 112.737 46.9171 112.255C46.9987 111.773 47.2025 111.202 47.5354 110.537L49.6622 106.271L51.6054 107.236V107.256Z" fill="black"/>
</g>
<defs>
<clipPath id="clip0_160_72">
<rect width="132" height="132" fill="white"/>
</clipPath>
</defs>
</svg>
