<svg width="128" height="30" viewBox="0 0 128 30" fill="none" xmlns="http://www.w3.org/2000/svg">
<g clip-path="url(#clip0_342_3032)">
<path fill-rule="evenodd" clip-rule="evenodd" d="M23.743 2.89217C24.1782 0.992107 21.8783 -0.274607 20.5731 1.13989L11.1878 11.358C10.069 12.5825 10.8977 14.5882 12.5552 14.5882H16.0151C16.0773 14.5882 16.1394 14.6515 16.1187 14.7148L14.772 21.7874C14.4198 23.6873 16.7195 24.8907 17.9834 23.4551L27.2859 12.9414C28.3838 11.7169 27.5344 9.73242 25.8977 9.73242H22.3135C22.2513 9.73242 22.1892 9.66908 22.2099 9.60577L23.743 2.89217Z" fill="black"/>
<path d="M0 12.5616C0 11.3793 0.932317 10.4293 2.07182 10.4293H5.69749C6.837 10.4293 7.76931 11.3793 7.76931 12.5616C7.76931 13.7438 6.837 14.6939 5.69749 14.6939H2.07182C0.932317 14.6939 0 13.7227 0 12.5616Z" fill="black"/>
<path d="M3.62549 4.74974C3.62549 3.56746 4.5578 2.61744 5.69731 2.61744H9.32297C10.4625 2.61744 11.3948 3.56746 11.3948 4.74974C11.3948 5.93199 10.4625 6.88202 9.32297 6.88202H5.71802C4.5578 6.88202 3.62549 5.93199 3.62549 4.74974Z" fill="black"/>
<path d="M3.62549 20.373C3.62549 19.1908 4.5578 18.2407 5.69731 18.2407H9.32297C10.4625 18.2407 11.3948 19.1908 11.3948 20.373C11.3948 21.5552 10.4625 22.5053 9.32297 22.5053H5.71802C4.5578 22.5053 3.62549 21.5552 3.62549 20.373Z" fill="black"/>
<path d="M121.636 14.9472C121.636 13.7438 121.326 12.836 120.683 12.1816C120.393 11.8649 120.041 11.5904 119.647 11.4215C119.254 11.2526 118.819 11.1682 118.404 11.1682C117.969 11.1682 117.534 11.2526 117.141 11.4215C116.747 11.5904 116.374 11.8438 116.084 12.1816C115.462 12.8571 115.172 13.7861 115.172 14.9472C115.172 16.1084 115.483 17.0584 116.084 17.7551C116.374 18.0718 116.747 18.3462 117.141 18.5151C117.534 18.684 117.969 18.7685 118.404 18.7685C118.839 18.7685 119.254 18.684 119.647 18.5151C120.041 18.3462 120.393 18.0929 120.683 17.7551C121.326 17.0373 121.657 16.1084 121.636 14.9472ZM115.172 8.3603C115.67 7.51582 116.374 6.79802 117.223 6.33357C118.197 5.80576 119.274 5.55243 120.373 5.59464C121.719 5.57354 123.066 5.97467 124.205 6.7347C125.407 7.53695 126.339 8.65587 126.94 9.98592C127.645 11.5271 128.017 13.216 127.997 14.9261C128.038 16.6362 127.686 18.3462 126.982 19.9085C126.402 21.2385 125.449 22.3785 124.247 23.1598C123.107 23.9197 121.781 24.3209 120.414 24.2998C119.316 24.3209 118.239 24.0676 117.265 23.5608C116.415 23.0753 115.711 22.3785 115.214 21.5552V28.0999C115.214 29.1556 114.385 30 113.349 30H110.842C109.827 30 108.978 29.1556 108.978 28.0999V7.70584C108.978 6.65024 109.806 5.80576 110.842 5.80576H113.328C114.364 5.80576 115.193 6.67137 115.193 7.72694L115.172 8.3603ZM99.2608 5.65798C101.498 5.65798 103.259 6.35468 104.523 7.74807C105.787 9.14144 106.429 11.0415 106.45 13.4483V22.2097C106.45 23.2652 105.621 24.1099 104.585 24.1099H102.099C101.084 24.1099 100.234 23.2652 100.234 22.2097V14.2928C100.234 13.3216 99.9652 12.5616 99.4472 12.0127C98.8464 11.4849 98.0799 11.2104 97.2925 11.2104C96.5053 11.2104 95.7387 11.506 95.1377 12.0127C94.5991 12.5616 94.3506 13.3216 94.3506 14.2928V22.1886C94.3506 23.2443 93.5219 24.0887 92.4859 24.0887H89.9789C88.9638 24.0887 88.1145 23.2443 88.1145 22.1886V14.2928C88.1145 13.3216 87.8451 12.5616 87.3271 12.0127C87.037 11.7382 86.7056 11.5271 86.3534 11.3793C86.0012 11.2315 85.5867 11.1893 85.2138 11.2104C84.8201 11.1893 84.4058 11.2526 84.0329 11.3793C83.6601 11.5271 83.3079 11.7382 83.0178 12.0127C82.4998 12.5616 82.2304 13.3216 82.2304 14.2928V22.1886C82.2304 23.2443 81.4017 24.0887 80.3657 24.0887H77.859C76.8437 24.0887 75.9943 23.2443 75.9943 22.1886V7.72694C75.9943 6.67137 76.823 5.82689 77.859 5.82689H80.3866C81.4017 5.82689 82.2512 6.67137 82.2512 7.72694V8.23365C82.8105 7.45251 83.5356 6.81915 84.3851 6.37578C85.3175 5.89023 86.3741 5.63687 87.4307 5.65798C88.6531 5.63687 89.8547 5.93244 90.9113 6.54469C91.9266 7.11471 92.7759 7.9803 93.3561 9.01479C93.9983 8.02253 94.8477 7.19915 95.863 6.60803C96.8781 5.99577 98.059 5.65798 99.2608 5.65798ZM71.5399 5.82689C72.555 5.82689 73.4046 6.67137 73.4046 7.72694V22.1886C73.4046 23.2443 72.5757 24.0887 71.5399 24.0887H69.0123C67.997 24.0887 67.1477 23.2443 67.1477 22.1886V21.4707C66.5882 22.3154 65.8425 23.0119 64.9723 23.4976C63.9778 24.0042 62.8797 24.2787 61.7609 24.2364C59.6892 24.2364 58.0524 23.5399 56.8507 22.1463C55.6491 20.753 55.0481 18.8529 55.069 16.4251V7.72694C55.069 6.67137 55.8977 5.82689 56.9335 5.82689H59.3991C60.4142 5.82689 61.2636 6.67137 61.2636 7.72694V15.6228C61.2636 16.6573 61.533 17.4806 62.051 18.0929C62.341 18.3885 62.6724 18.6207 63.0455 18.7685C63.4183 18.9162 63.812 18.9796 64.2057 18.9796C64.5992 19.0007 65.0136 18.9374 65.3866 18.7896C65.7595 18.6418 66.091 18.4096 66.3811 18.114C66.9197 17.5018 67.1683 16.6784 67.1683 15.6439V7.72694C67.1683 6.67137 67.997 5.82689 69.033 5.82689H71.5399ZM46.7816 14.9472C46.7816 13.7438 46.4709 12.836 45.8286 12.1816C45.5386 11.8649 45.1864 11.5904 44.7927 11.4215C44.3992 11.2526 43.964 11.1682 43.5496 11.1682C43.1146 11.1682 42.6794 11.2526 42.2859 11.4215C41.8922 11.5904 41.5192 11.8438 41.2293 12.1816C40.6077 12.8571 40.3176 13.7861 40.3176 14.9472C40.3176 16.1084 40.6283 17.0584 41.2293 17.7551C41.5192 18.0718 41.8922 18.3462 42.2859 18.5151C42.6794 18.684 43.1146 18.7685 43.5496 18.7685C43.9848 18.7685 44.3992 18.684 44.7927 18.5151C45.1864 18.3462 45.5386 18.0929 45.8286 17.7551C46.4709 17.0373 46.7816 16.1084 46.7816 14.9472ZM40.3176 8.3603C40.7941 7.49472 41.5192 6.79802 42.3894 6.33357C43.3632 5.80576 44.4405 5.55243 45.5386 5.59464C46.8853 5.57354 48.2319 5.97467 49.3713 6.7347C50.5731 7.53695 51.5261 8.65587 52.1062 9.98592C52.8106 11.5271 53.1628 13.216 53.1213 14.9261C53.1628 16.6362 52.8106 18.3462 52.1062 19.9085C51.5261 21.2385 50.5731 22.3785 49.3713 23.1598C48.2319 23.9197 46.9059 24.3209 45.5386 24.2998C44.4613 24.3209 43.3632 24.0887 42.3894 23.5819C41.5192 23.1175 40.8148 22.3996 40.3176 21.5341V22.1675C40.3176 23.2232 39.4889 24.0676 38.4529 24.0676H35.946C34.9309 24.0676 34.0815 23.2232 34.0815 22.1675V1.90007C34.0815 0.844475 34.9102 0 35.946 0H38.4529C39.4681 0 40.3176 0.844475 40.3176 1.90007V8.3603Z" fill="black"/>
</g>
<defs>
<clipPath id="clip0_342_3032">
<rect width="128" height="30" fill="white"/>
</clipPath>
</defs>
</svg>
