<svg width="115" height="38" viewBox="0 0 115 38" fill="none" xmlns="http://www.w3.org/2000/svg">
<g clip-path="url(#clip0_342_3004)">
<path d="M14.8969 14.7415C15.461 15.3087 16.025 15.876 16.5879 16.4444C17.5488 17.4167 18.5248 18.3735 19.4649 19.3659C21.5632 21.5828 21.5226 25.0669 19.386 27.2506C16.4695 30.2302 13.5495 33.2074 10.6295 36.1834C9.66163 37.1698 8.49991 37.7631 7.13973 37.9432C7.09331 37.9491 7.04108 37.9408 7.02019 38.0012H6.73005C6.47821 37.9514 6.22753 37.9514 5.97569 38.0012H5.68555C4.59114 37.8946 3.61047 37.4908 2.74701 36.8051C1.45298 35.7772 0.670764 34.4307 0.458382 32.7692C0.201898 30.7631 0.799587 29.0305 2.18414 27.5929C3.45611 26.2713 4.74898 24.9698 6.03372 23.66C7.47049 22.214 8.88986 20.7503 10.3185 19.2961C11.7193 17.869 13.1178 16.4397 14.5186 15.0126C14.6137 14.9155 14.6996 14.8066 14.818 14.7355C14.8447 14.7249 14.8714 14.7261 14.8969 14.7426V14.7415Z" fill="#020202"/>
<path d="M14.8797 14.7426C12.0004 17.6808 9.11987 20.6189 6.23936 23.5558C6.19294 23.6032 6.13491 23.6411 6.08268 23.6837C5.94458 23.6979 5.87726 23.5878 5.79835 23.5072C4.31747 21.9997 2.81803 20.5099 1.36616 18.9716C0.580464 18.1391 0.0941894 17.1277 0.029198 15.9423C0.0280375 15.9127 0.0210741 15.8854 -0.000976562 15.8629V14.9748C0.0466064 14.8563 0.0466064 14.7379 -0.000976562 14.6195V14.4419C0.102313 13.3831 0.507349 12.4535 1.15378 11.6257C1.25011 11.5014 1.35688 11.3877 1.46597 11.2764C3.10468 9.60185 4.7492 7.93325 6.38327 6.25399C6.42969 6.20544 6.46915 6.14504 6.54575 6.1403C6.7384 6.30491 6.90204 6.50031 7.07961 6.68032C9.18718 8.82735 11.2901 10.9779 13.4 13.1226C13.8724 13.6034 14.2913 14.1351 14.7834 14.5958C14.8263 14.6361 14.8623 14.6823 14.8797 14.7415V14.7426Z" fill="#020202"/>
<path d="M14.8794 14.7426C14.5707 14.533 14.3328 14.2441 14.0844 13.9729C12.708 12.4665 11.2446 11.049 9.82751 9.58408C8.81086 8.53129 7.78028 7.49271 6.75783 6.44465C6.67891 6.36294 6.5675 6.30136 6.55937 6.16517C6.5025 6.02898 6.61624 5.9674 6.68355 5.89753C8.0182 4.53092 9.34472 3.15601 10.6968 1.80834C11.515 0.992398 12.4573 0.374223 13.5947 0.107768C13.8384 0.0509242 14.0903 0.0675036 14.3305 -0.00118256H15.2589C15.3947 0.0473714 15.5293 0.0473714 15.6651 -0.00118256H15.7812C16.1932 0.153953 16.6319 0.203692 17.0474 0.349353C21.0629 1.7586 22.2966 7.17296 19.2919 10.2366C17.8969 11.6589 16.4938 13.074 15.0953 14.4928C15.021 14.5674 14.9247 14.6266 14.8945 14.7391H14.8771L14.8794 14.7426Z" fill="#020202"/>
<path d="M5.97705 38C6.22889 37.9017 6.47957 37.9064 6.73142 38H5.97705Z" fill="#524BF2"/>
<path d="M15.6665 0C15.5307 0.104213 15.396 0.0840813 15.2603 0H15.6665Z" fill="#4E8EFC"/>
<path d="M115 22.7884C114.897 22.6498 114.92 22.5125 115 22.3739V22.7884Z" fill="#020202"/>
<path d="M0 14.6207C0.0922381 14.7391 0.0841672 14.8575 0 14.9759V14.6207Z" fill="#020202"/>
<path d="M114.999 21.841C114.92 21.7226 114.901 21.6041 114.999 21.4857V21.841Z" fill="#020202"/>
<path d="M51.6936 20.4649C52.282 19.6833 52.8252 18.9621 53.3672 18.2397C54.4059 16.8565 55.4457 15.4745 56.481 14.0889C56.5738 13.9634 56.6608 13.8876 56.8326 13.8876C58.7661 13.8947 60.7008 13.8924 62.6342 13.8924C62.6795 13.8924 62.7259 13.8983 62.8246 13.9066C62.6505 14.1257 62.5019 14.3116 62.3534 14.4987C60.5824 16.7345 58.8137 18.9728 57.0369 21.2027C56.9127 21.3578 56.922 21.4478 57.0299 21.6018C59.0098 24.4309 60.9839 27.2648 62.9592 30.0975C63.0126 30.1745 63.0648 30.2515 63.1426 30.3652H62.6134C60.7669 30.3652 58.9193 30.3616 57.0728 30.3711C56.8628 30.3711 56.7467 30.3072 56.6376 30.126C55.5409 28.307 54.4349 26.4939 53.3312 24.6784C53.3057 24.637 53.2743 24.6003 53.2349 24.5446C52.7428 25.1415 52.2623 25.7312 51.7726 26.3127C51.6832 26.4181 51.6948 26.5282 51.6948 26.6443C51.6948 27.7883 51.689 28.9334 51.6983 30.0774C51.6994 30.2906 51.6704 30.3782 51.4255 30.377C49.8785 30.3628 48.3315 30.3652 46.7845 30.377C46.5605 30.3782 46.5199 30.3143 46.521 30.0999C46.5268 22.7019 46.5268 15.3028 46.521 7.90483C46.521 7.65614 46.586 7.59929 46.8251 7.60166C48.3431 7.6135 49.8611 7.61587 51.3791 7.60048C51.6588 7.59692 51.7018 7.69166 51.7006 7.94627C51.6936 11.9905 51.696 16.0347 51.696 20.08V20.4685L51.6936 20.4649Z" fill="#020202"/>
<path d="M37.0553 30.7655C34.66 30.7098 32.3969 30.2018 30.3473 28.8967C30.1024 28.7404 29.8819 28.5462 29.6428 28.3804C29.5071 28.2857 29.4827 28.2087 29.5779 28.0512C30.2336 26.9735 30.8788 25.8887 31.523 24.804C31.5972 24.6784 31.6483 24.6441 31.7829 24.7483C33.164 25.8153 34.7157 26.4714 36.4286 26.7296C37.1807 26.8432 37.9292 26.88 38.6639 26.6242C39.2233 26.4288 39.5424 25.9965 39.4914 25.5169C39.4484 25.1202 39.1943 24.8904 38.8681 24.7258C38.2809 24.4298 37.6426 24.3208 37.0054 24.2083C35.7219 23.9821 34.4302 23.7926 33.2069 23.3118C32.1775 22.9068 31.2688 22.3301 30.6908 21.3294C29.7299 19.6667 29.7589 16.8032 31.9187 15.0423C32.969 14.1861 34.183 13.7408 35.4932 13.562C37.7598 13.2529 39.9382 13.5833 42.0133 14.5745C42.5645 14.8374 43.0833 15.1583 43.5928 15.4982C43.7553 15.6071 43.7483 15.69 43.6613 15.8428C43.0717 16.8695 42.4868 17.8987 41.9088 18.9313C41.8241 19.0817 41.7765 19.0995 41.6407 18.9858C40.5788 18.0952 39.3625 17.5564 38.0012 17.374C37.3095 17.2817 36.6143 17.2521 35.9319 17.4569C35.7555 17.5102 35.5872 17.5836 35.4329 17.6843C34.8213 18.0822 34.8224 18.7868 35.4491 19.1551C36.0097 19.4844 36.6422 19.5921 37.2677 19.7082C38.6233 19.9604 39.9904 20.1665 41.2751 20.7112C42.3046 21.1482 43.2075 21.7581 43.7785 22.7659C44.8149 24.5956 44.7267 27.6035 42.3289 29.3006C41.0256 30.2231 39.5517 30.5926 38 30.7169C37.682 30.7418 37.3629 30.7489 37.0542 30.7631L37.0553 30.7655Z" fill="#020202"/>
<path d="M95.2193 18.9988C95.2193 22.6866 95.2158 26.3755 95.2262 30.0632C95.2262 30.3356 95.1496 30.377 94.9082 30.3747C93.3716 30.3628 91.8339 30.3652 90.2973 30.3747C90.0989 30.3747 90.042 30.3332 90.042 30.12C90.0478 22.7043 90.0478 15.2886 90.042 7.87404C90.042 7.64666 90.1023 7.59929 90.3147 7.60048C91.8513 7.60995 93.3891 7.61113 94.9256 7.60048C95.1682 7.59811 95.2262 7.65969 95.2262 7.90601C95.2181 11.6044 95.2204 15.3016 95.2204 19L95.2193 18.9988Z" fill="#020202"/>
<path d="M86.8194 19C86.8194 22.6889 86.817 26.3778 86.8252 30.0668C86.8252 30.3036 86.7846 30.3794 86.5339 30.377C85.0066 30.3628 83.4781 30.3652 81.9508 30.3758C81.7233 30.377 81.6409 30.3415 81.6421 30.0798C81.6502 22.6925 81.6502 15.304 81.6421 7.91667C81.6421 7.63955 81.7268 7.59929 81.9671 7.60166C83.4758 7.61232 84.9834 7.6135 86.4921 7.60166C86.7486 7.59929 86.8286 7.65495 86.8286 7.93443C86.8182 11.6233 86.8217 15.3123 86.8217 19.0012L86.8194 19Z" fill="#020202"/>
<path d="M115 21.1316C114.89 21.0061 114.918 20.8427 114.893 20.6958C114.377 17.6784 112.783 15.4994 110.026 14.2559C108.243 13.4518 106.367 13.3097 104.461 13.6212C102.036 14.0179 100.069 15.2057 98.7219 17.3302C97.4383 19.3541 97.0832 21.5899 97.5486 23.9312C98.1231 26.8207 99.7363 28.9097 102.423 30.0573C104.235 30.8318 106.127 30.9348 108.055 30.6103C111.544 30.0229 114.178 27.4069 114.839 23.8732C114.887 23.6103 114.865 23.3296 115 23.0844V22.7884C114.952 22.6498 114.952 22.5125 115 22.3739V21.841C114.952 21.7226 114.952 21.6041 115 21.4857V21.1304V21.1316ZM109.004 24.6323C108.2 25.8793 106.983 26.2961 105.573 26.0901C104.229 25.8935 103.391 25.042 102.936 23.7701C102.746 23.2384 102.675 22.683 102.675 21.9322C102.678 21.2678 102.833 20.4531 103.276 19.72C104.012 18.5026 105.125 18.0313 106.477 18.1319C107.849 18.2338 108.848 18.9503 109.36 20.2553C109.949 21.7581 109.89 23.2597 109.004 24.6334V24.6323Z" fill="#020202"/>
<path d="M79.1419 19.2937C78.4015 16.956 77.01 15.1915 74.7794 14.1837C73.3124 13.5205 71.7689 13.3571 70.187 13.5537C67.8462 13.8438 65.9046 14.8954 64.4666 16.8222C63.0508 18.7193 62.5726 20.8889 62.8372 23.2301C63.2144 26.5685 64.9227 28.9074 68.0017 30.1354C70.2311 31.0248 72.5198 30.9502 74.8096 30.3889C76.0398 30.0869 77.1875 29.5895 78.1845 28.7712C78.3226 28.6575 78.3481 28.5817 78.239 28.4195C77.5938 27.4626 76.9589 26.4986 76.3287 25.5299C76.2231 25.3677 76.157 25.3298 75.9875 25.4612C75.3585 25.9491 74.6552 26.2937 73.8904 26.4892C72.4397 26.8586 71.0145 26.8503 69.6868 26.0439C68.8547 25.5382 68.3197 24.7933 68.1004 23.7891H75.0811C76.5121 23.7891 77.9431 23.7891 79.3729 23.7891C79.4889 23.7891 79.6166 23.8376 79.6201 23.6185C79.641 22.1548 79.5876 20.7018 79.1408 19.2925L79.1419 19.2937ZM74.466 20.3702C73.2579 20.3619 72.0497 20.3666 70.8428 20.3666H68.0319C68.2338 18.5831 69.8424 17.3551 71.6668 17.5422C72.8134 17.6594 73.7418 18.1118 74.3198 19.1729C74.4846 19.4761 74.5751 19.8065 74.6587 20.1416C74.7063 20.3323 74.6494 20.3725 74.466 20.3714V20.3702Z" fill="#020202"/>
</g>
<defs>
<clipPath id="clip0_342_3004">
<rect width="115" height="38" fill="white"/>
</clipPath>
</defs>
</svg>
