<svg width="174" height="39" viewBox="0 0 174 39" fill="none" xmlns="http://www.w3.org/2000/svg">
<g clip-path="url(#clip0_342_2770)">
<path d="M0 19.1071C0.0643967 18.9223 0.133393 18.7374 0.19319 18.5511C0.778894 16.7088 2.5498 15.7395 4.46024 16.2159C7.27223 16.9176 9.244 16.258 10.6132 13.798C12.4853 10.4349 15.489 8.48741 18.8314 6.79986C22.7934 4.79974 26.6771 2.65086 30.5915 0.562082C32.4176 -0.413181 34.2606 -0.0991137 35.3707 1.35401C36.3918 2.68993 36.1603 4.78622 34.7497 6.01093C33.0325 7.50012 32.7151 9.91198 33.8482 11.8971C34.8969 13.7364 35.8828 15.6118 36.0453 17.7426C36.1695 19.3791 36.1235 21.0321 36.0913 22.6776C36.01 26.8686 35.8874 31.0582 35.7939 35.2493C35.7601 36.7941 35.2128 38.0383 33.6964 38.689C31.6096 39.5846 29.4998 38.4741 28.8927 36.1795C28.3622 34.1733 27.0558 32.9456 25.0043 32.5053C24.5505 32.4076 24.0491 32.5173 23.5692 32.5444C20.6576 32.7112 17.9606 32.0635 15.469 30.5653C10.9735 27.8649 6.47341 25.1676 1.95643 22.5017C0.893888 21.8766 0.349582 20.9524 0 19.857C0 19.606 0 19.3566 0 19.1071ZM30.2174 19.5279C30.222 15.5186 26.9424 12.3118 22.8332 12.3103C18.7671 12.3088 15.4552 15.5081 15.4414 19.4512C15.4276 23.4935 18.7364 26.774 22.8271 26.7725C26.8933 26.7695 30.2128 23.5176 30.2189 19.5279H30.2174Z" fill="black"/>
<path d="M84.4825 16.4262H80.3657V12.7085C80.6248 12.6919 80.8702 12.6649 81.1155 12.6634C84.8658 12.6604 88.6162 12.6784 92.365 12.6469C93.0381 12.6409 93.2696 12.8212 93.2251 13.4839C93.1715 14.2788 93.1991 15.0798 93.2175 15.8762C93.2267 16.2955 93.0549 16.4487 92.6302 16.4412C91.7118 16.4232 90.7919 16.4683 89.8765 16.4277C89.2693 16.4006 89.093 16.617 89.0976 17.1986C89.1237 20.0162 89.1099 22.8338 89.1083 25.6529C89.1083 25.8242 89.0869 25.9955 89.07 26.2224H84.4825V16.4262Z" fill="black"/>
<path d="M174 26.257H173.189V12.704C173.448 12.6919 173.692 12.6799 174 12.6649V26.257Z" fill="black"/>
<path d="M55.5516 12.3598C51.2324 12.3538 47.9221 15.4494 47.9282 19.4917C47.9328 23.5416 51.2309 26.5906 55.5914 26.5801C59.8232 26.5695 63.1489 23.4138 63.132 19.4256C63.1151 15.3743 59.8876 12.3659 55.55 12.3598H55.5516ZM55.5546 22.5768C53.8619 22.5753 52.5755 21.2259 52.5633 19.4376C52.5525 17.714 53.8481 16.3375 55.4933 16.3255C57.2121 16.3135 58.5506 17.7215 58.52 19.5098C58.4893 21.2785 57.2305 22.5798 55.5546 22.5783V22.5768Z" fill="black"/>
<path d="M117.576 12.2111C113.208 12.187 109.878 15.2105 109.844 19.2303C109.81 23.3116 113.052 26.4072 117.385 26.4298C121.681 26.4523 125.028 23.3447 125.049 19.3159C125.071 15.3187 121.828 12.2351 117.576 12.2126V12.2111ZM117.481 22.4265C115.788 22.4341 114.49 21.0801 114.485 19.3024C114.481 17.5202 115.767 16.1692 117.466 16.1782C119.113 16.1858 120.396 17.5232 120.427 19.2663C120.459 21.044 119.177 22.419 117.481 22.4265Z" fill="black"/>
<path d="M153.06 24.3335C156.064 20.6143 154.923 16.1377 152.407 14.0158C149.874 11.879 145.759 11.873 143.266 14.0519C140.502 16.4683 140.043 20.6368 142.095 23.6573C143.751 26.0962 148.133 27.9716 152.372 25.0187C153.004 25.5567 153.646 26.1037 154.31 26.6702C154.562 26.4057 154.747 26.2119 154.976 25.9714C154.309 25.4019 153.683 24.867 153.06 24.3335ZM152.228 23.6407C151.375 22.8819 150.518 22.1185 149.605 21.3055C149.37 21.558 149.158 21.7864 148.915 22.0494C149.816 22.8097 150.679 23.5386 151.582 24.2989C149.387 26.2885 145.658 26.0436 143.556 23.8541C141.155 21.3536 141.257 17.1099 143.775 14.7927C146.109 12.6439 149.835 12.74 152.045 15.0046C154.322 17.3383 154.443 21.5309 152.228 23.6407Z" fill="black"/>
<path d="M22.8289 16.4337C24.5814 16.4232 26.0058 17.7862 26.015 19.4812C26.0242 21.2184 24.5799 22.6625 22.8365 22.6565C21.0978 22.6504 19.6581 21.2559 19.6504 19.5684C19.6412 17.7982 21.0166 16.4427 22.8304 16.4322L22.8289 16.4337Z" fill="black"/>
</g>
<defs>
<clipPath id="clip0_342_2770">
<rect width="174" height="39" fill="white"/>
</clipPath>
</defs>
</svg>
