<svg width="453" height="282" viewBox="0 0 453 282" fill="none" xmlns="http://www.w3.org/2000/svg">
<g clip-path="url(#clip0_342_2886)">
<path d="M403.302 85.6617L70.0884 51.2018C63.905 50.5333 58.3527 54.9939 57.6831 61.1671L43.3194 201.68C42.6498 207.851 47.1177 213.397 53.3011 214.065L245.514 234.658L288.264 239.548C288.804 239.607 289.322 239.758 289.802 239.989C290.208 240.329 290.599 240.69 290.955 241.086L313.807 266.515C314.352 267.122 314.939 267.645 315.552 268.098L325.554 279.231C328.295 282.281 333.358 280.651 333.803 276.578L336.736 249.549C336.943 247.626 339.951 245.384 342.558 244.455C343.796 244.153 345.103 244.044 346.445 244.189L386.514 248.522C392.698 249.191 398.25 244.73 398.92 238.557L413.283 98.0436C413.953 91.8704 409.485 86.3272 403.302 85.6587V85.6617Z" fill="black"/>
<path d="M329.054 282C327.409 282 325.827 281.311 324.674 280.024L314.749 268.979C314.082 268.476 313.469 267.914 312.924 267.308L290.072 241.879C289.817 241.595 289.515 241.305 289.159 240.997C288.827 240.852 288.484 240.764 288.137 240.725L245.381 235.833L53.1767 215.24C46.3533 214.5 41.4054 208.359 42.1432 201.55L56.5069 61.0458C56.8654 57.7388 58.489 54.7779 61.0785 52.6955C63.6681 50.6161 66.9153 49.6666 70.2188 50.0245L403.432 84.4873C410.253 85.2239 415.203 91.3645 414.463 98.1766L400.099 238.681C399.358 245.499 393.207 250.439 386.387 249.702L346.318 245.369C345.189 245.248 344.039 245.325 342.902 245.594C340.463 246.478 338.049 248.451 337.915 249.679L334.982 276.708C334.727 279.063 333.166 280.98 330.905 281.704C330.292 281.902 329.667 281.997 329.054 281.997V282ZM68.8589 52.3169C66.5687 52.3169 64.3673 53.0889 62.5629 54.5383C60.4652 56.2214 59.1527 58.6203 58.8624 61.2913L44.4986 201.796C43.9001 207.315 47.9059 212.288 53.4286 212.885L245.641 233.478L288.401 238.371C289.056 238.442 289.701 238.625 290.315 238.921L290.448 238.986L290.564 239.08C291.061 239.498 291.479 239.894 291.838 240.296L314.69 265.725C315.155 266.243 315.682 266.722 316.26 267.148L316.355 267.219L316.435 267.308L326.437 278.442C327.403 279.515 328.802 279.894 330.176 279.45C331.554 279.007 332.467 277.886 332.624 276.451L335.557 249.421C335.862 246.594 339.77 244.192 342.161 243.343L342.277 243.307C343.702 242.958 345.148 242.858 346.573 243.015L386.642 247.348C392.165 247.945 397.145 243.946 397.741 238.433L412.104 97.9282C412.703 92.4087 408.7 87.4393 403.18 86.8389L69.964 52.3761C69.5937 52.3347 69.2233 52.3169 68.8559 52.3169H68.8589Z" fill="black"/>
<path d="M399.746 79.45L66.5328 44.9902C60.3494 44.3217 54.797 48.7822 54.1274 54.9554L39.7637 195.469C39.0941 201.639 43.562 207.185 49.7454 207.854L242.255 228.447L284.709 233.336C285.248 233.395 285.766 233.546 286.246 233.777C286.652 234.117 287.043 234.478 287.399 234.874L310.251 260.304C310.796 260.91 311.383 261.434 311.996 261.886L321.999 273.02C324.739 276.069 329.803 274.44 330.247 270.367L333.18 243.337C333.388 241.414 336.395 239.172 339.002 238.243C340.241 237.942 341.547 237.832 342.89 237.977L382.959 242.311C389.142 242.979 394.694 238.519 395.364 232.345L409.728 91.8319C410.397 85.6587 405.929 80.1155 399.746 79.4471V79.45Z" fill="#F9F9F9"/>
<path d="M325.498 275.788C323.854 275.788 322.271 275.099 321.119 273.812L311.193 262.768C310.527 262.265 309.914 261.703 309.368 261.096L286.516 235.667C286.261 235.383 285.959 235.093 285.604 234.786C285.272 234.641 284.928 234.552 284.581 234.513L242.118 229.621L49.6181 209.028C42.7948 208.288 37.8468 202.148 38.5846 195.339L52.9483 54.8341C53.3068 51.5271 54.9305 48.5662 57.52 46.4838C60.1095 44.4044 63.3567 43.4549 66.6603 43.8128L399.874 78.2757C406.694 79.0122 411.645 85.1528 410.904 91.965L396.54 232.469C395.8 239.288 389.649 244.227 382.828 243.491L342.759 239.157C341.63 239.036 340.481 239.11 339.343 239.382C336.905 240.267 334.49 242.24 334.357 243.467L331.424 270.497C331.169 272.851 329.607 274.768 327.347 275.493C326.733 275.691 326.108 275.785 325.495 275.785L325.498 275.788ZM65.3033 46.1052C63.013 46.1052 60.8117 46.8773 59.0073 48.3266C56.9096 50.0097 55.5971 52.4086 55.3067 55.0796L40.943 195.584C40.3445 201.104 44.3502 206.076 49.8729 206.673L242.382 227.267L284.845 232.159C285.497 232.23 286.146 232.413 286.759 232.709L286.892 232.774L287.008 232.869C287.506 233.286 287.923 233.682 288.282 234.085L311.134 259.514C311.599 260.031 312.127 260.511 312.704 260.937L312.799 261.008L312.879 261.096L322.882 272.23C323.848 273.304 325.246 273.682 326.621 273.239C327.999 272.795 328.911 271.674 329.068 270.239L332.001 243.21C332.307 240.382 336.214 237.98 338.605 237.131L338.721 237.096C340.146 236.747 341.592 236.646 343.017 236.803L383.086 241.136C388.609 241.731 393.589 237.735 394.185 232.221L408.549 91.7165C409.147 86.197 405.144 81.2277 399.625 80.6272L66.4084 46.1644C66.0381 46.123 65.6677 46.1052 65.3003 46.1052H65.3033Z" fill="black"/>
<path d="M89.1185 6.95105H34.899C25.0811 6.95105 17.1221 14.8969 17.1221 24.6986V78.8287C17.1221 88.6304 25.0811 96.5763 34.899 96.5763H89.1185C98.9365 96.5763 106.895 88.6304 106.895 78.8287V24.6986C106.895 14.8969 98.9365 6.95105 89.1185 6.95105Z" fill="black"/>
<path d="M89.1187 97.4637H34.8991C24.6063 97.4637 16.2334 89.1046 16.2334 78.8288V24.6987C16.2334 14.4228 24.6063 6.06372 34.8991 6.06372H89.1187C99.4115 6.06372 107.784 14.4228 107.784 24.6987V78.8288C107.784 89.1046 99.4115 97.4637 89.1187 97.4637ZM34.8991 7.83848C25.587 7.83848 18.0111 15.4019 18.0111 24.6987V78.8288C18.0111 88.1255 25.587 95.6889 34.8991 95.6889H89.1187C98.4308 95.6889 106.007 88.1255 106.007 78.8288V24.6987C106.007 15.4019 98.4308 7.83848 89.1187 7.83848H34.8991Z" fill="#020202"/>
<path d="M83.0448 0.887329H28.8252C19.0073 0.887329 11.0483 8.83319 11.0483 18.6349V72.765C11.0483 82.5667 19.0073 90.5126 28.8252 90.5126H83.0448C92.8627 90.5126 100.822 82.5667 100.822 72.765V18.6349C100.822 8.83319 92.8627 0.887329 83.0448 0.887329Z" fill="#91A8ED"/>
<path d="M83.045 91.4H28.8254C18.5326 91.4 10.1597 83.0409 10.1597 72.765V18.6349C10.1597 8.3591 18.5326 0 28.8254 0H83.045C93.3378 0 101.711 8.3591 101.711 18.6349V72.765C101.711 83.0409 93.3378 91.4 83.045 91.4ZM28.8254 1.77476C19.5133 1.77476 11.9374 9.33818 11.9374 18.6349V72.765C11.9374 82.0618 19.5133 89.6252 28.8254 89.6252H83.045C92.3571 89.6252 99.933 82.0618 99.933 72.765V18.6349C99.933 9.33818 92.3571 1.77476 83.045 1.77476H28.8254Z" fill="#020202"/>
<path fill-rule="evenodd" clip-rule="evenodd" d="M57.3752 23.7581C65.7185 29.4876 68.7731 32.1734 78.4823 34.0428V38.1188C78.4823 51.811 69.6383 63.5392 57.3752 67.8992C45.1121 63.5392 36.2681 51.811 36.2681 38.1188V34.0428C45.9772 32.1734 49.0319 29.4846 57.3752 23.7581ZM57.3752 37.3527C59.9025 37.3527 61.9527 39.3966 61.9527 41.9227C61.9527 43.4519 61.2002 44.8067 60.0447 45.6349C60.6195 48.5248 61.1972 51.4176 61.772 54.3075H52.9813C53.5561 51.4176 54.1339 48.5277 54.7086 45.6349C53.5531 44.8067 52.8006 43.4519 52.8006 41.9227C52.8006 39.3996 54.8479 37.3527 57.3781 37.3527H57.3752Z" fill="black"/>
<path d="M216.975 229.305L37.9375 170.088C24.166 165.533 9.30332 172.986 4.74083 186.735C0.178341 200.483 7.64372 215.321 21.4152 219.876L200.453 279.093C214.224 283.648 229.087 276.195 233.649 262.447C238.212 248.698 230.746 233.86 216.975 229.305Z" fill="black"/>
<path d="M208.76 281.757C205.839 281.757 202.908 281.29 200.055 280.347L21.0121 221.141C6.56536 216.364 -1.29499 200.743 3.48996 186.317C5.80688 179.33 10.7133 173.663 17.2997 170.359C23.889 167.055 31.3701 166.511 38.3682 168.824L217.411 228.03C224.41 230.343 230.086 235.241 233.396 241.817C236.705 248.395 237.25 255.864 234.933 262.85C232.617 269.837 227.71 275.504 221.124 278.808C217.222 280.767 213.003 281.754 208.76 281.754V281.757ZM29.6665 170.075C25.8326 170.075 22.0224 170.968 18.4966 172.737C12.5443 175.722 8.11492 180.842 6.0202 187.154C1.69745 200.184 8.79933 214.296 21.8505 218.612L200.894 277.817C207.216 279.909 213.977 279.415 219.927 276.43C225.879 273.446 230.308 268.326 232.403 262.013C234.498 255.701 234.003 248.954 231.014 243.012C228.024 237.069 222.895 232.647 216.573 230.556L37.5298 171.35C34.9521 170.498 32.3034 170.075 29.6665 170.075Z" fill="black"/>
<path d="M436.794 60.0258L383.101 52.5017C373.378 51.1393 364.39 57.9035 363.026 67.6101L355.489 121.215C354.124 130.921 360.9 139.894 370.622 141.257L424.316 148.781C434.038 150.143 443.026 143.379 444.391 133.673L451.927 80.068C453.292 70.3614 446.517 61.3882 436.794 60.0258Z" fill="black"/>
<path d="M424.207 149.627L370.512 142.108C360.32 140.679 353.192 131.24 354.62 121.065L362.151 67.4585C363.582 57.2832 373.036 50.1665 383.229 51.5922L436.924 59.1112C447.116 60.5399 454.244 69.9787 452.816 80.1539L445.285 133.76C443.854 143.936 434.399 151.053 424.207 149.627ZM382.986 53.3522C373.765 52.0595 365.209 58.4989 363.914 67.707L356.382 121.314C355.088 130.519 361.538 139.061 370.761 140.354L424.456 147.873C433.676 149.165 442.233 142.726 443.528 133.518L451.059 79.9114C452.354 70.7063 445.904 62.1638 436.681 60.8712L382.986 53.3522Z" fill="#020202"/>
<path d="M432.213 55.544L378.519 48.0199C368.797 46.6575 359.809 53.4217 358.444 63.1283L350.908 116.733C349.543 126.439 356.318 135.413 366.041 136.775L419.734 144.299C429.457 145.662 438.445 138.897 439.809 129.191L447.346 75.5862C448.711 65.8796 441.935 56.9064 432.213 55.544Z" fill="#FF7051"/>
<path d="M422.234 145.773C421.354 145.773 420.462 145.711 419.568 145.586L365.873 138.067C360.818 137.36 356.341 134.728 353.269 130.661C350.196 126.59 348.893 121.571 349.604 116.525L357.135 62.9181C358.599 52.5003 368.284 45.2149 378.713 46.6761L432.408 54.1952C442.844 55.6564 450.141 65.3199 448.677 75.7407L441.146 129.347C439.807 138.869 431.603 145.776 422.234 145.776V145.773ZM419.938 142.951C428.915 144.208 437.247 137.937 438.506 128.975L446.037 75.368C447.297 66.4025 441.015 58.0878 432.038 56.8307L378.343 49.3116C369.366 48.0545 361.034 54.3224 359.775 63.2878L352.244 116.894C351.633 121.237 352.753 125.558 355.399 129.057C358.042 132.56 361.893 134.822 366.243 135.432L419.938 142.951Z" fill="black"/>
<path d="M419.627 145.149L365.932 137.629C355.739 136.201 348.611 126.762 350.039 116.587L357.571 62.9802C359.002 52.805 368.456 45.6882 378.648 47.1139L432.343 54.633C442.535 56.0616 449.664 65.5004 448.236 75.6757L440.704 129.282C439.273 139.457 429.819 146.574 419.627 145.149ZM378.405 48.8739C369.185 47.5813 360.628 54.0207 359.333 63.2287L351.802 116.835C350.507 126.04 356.957 134.583 366.18 135.875L419.876 143.394C429.096 144.687 437.653 138.248 438.947 129.04L446.479 75.4331C447.773 66.228 441.323 57.6855 432.1 56.3929L378.405 48.8739Z" fill="#020202"/>
<path d="M214.899 225.554L35.8618 166.337C22.0903 161.782 7.22764 169.235 2.66515 182.984C-1.89734 196.732 5.56804 211.57 19.3395 216.125L198.377 275.343C212.148 279.897 227.011 272.444 231.573 258.696C236.136 244.947 228.671 230.109 214.899 225.554Z" fill="#FFC903"/>
<path d="M206.636 277.998C203.765 277.998 200.849 277.548 197.978 276.599L18.9354 217.393C11.9372 215.08 6.26043 210.182 2.95096 203.606C-0.35851 197.028 -0.903668 189.559 1.41326 182.572C6.19821 168.149 21.8448 160.302 36.2945 165.079L215.338 224.285C229.784 229.062 237.645 244.683 232.86 259.109C229.026 270.665 218.214 278.004 206.636 278.004V277.998ZM198.817 274.07C211.868 278.385 226.004 271.295 230.327 258.266C234.649 245.236 227.547 231.124 214.496 226.808L35.456 167.602C22.4048 163.287 8.26922 170.377 3.94646 183.406C1.85175 189.719 2.34654 196.469 5.33603 202.408C8.32551 208.351 13.4541 212.773 19.7768 214.864L198.82 274.07H198.817Z" fill="black"/>
<path d="M41.7461 200.864L45.5118 189.511L53.8611 192.271L53.2596 194.087L47.0229 192.026L46.0985 194.815L50.7768 196.362L50.1842 198.146L45.5059 196.599L44.4571 199.761L50.6938 201.822L50.0953 203.624L41.7461 200.864Z" fill="black"/>
<path d="M51.0406 203.937L55.3959 200.752L53.8671 195.909L56.2373 196.693L56.5484 197.823C56.744 198.501 56.6788 199.335 56.347 200.332L57.1262 200.589C57.3691 199.855 57.9024 199.172 58.7231 198.545L59.6624 197.829L61.8223 198.545L57.6773 201.529L59.3542 206.691L56.9484 205.895L56.5573 204.523C56.3588 203.822 56.4181 202.988 56.7381 202.026L55.9588 201.769C55.7218 202.446 55.1826 203.109 54.3441 203.754L53.1827 204.647L51.0376 203.937H51.0406Z" fill="black"/>
<path d="M59.6387 210.291L63.3689 199.051L65.1732 199.648C65.0221 200.104 64.6044 200.589 63.914 201.104L64.8414 201.411C65.3391 200.891 65.828 200.53 66.3109 200.323C66.7939 200.116 67.4131 200.125 68.1657 200.352C69.1404 200.675 69.8041 201.334 70.1596 202.334C70.5122 203.334 70.4796 204.47 70.0559 205.745C69.6323 207.019 68.9804 207.951 68.1034 208.537C67.2235 209.123 66.2961 209.253 65.3214 208.93C64.0533 208.51 63.3807 207.57 63.3037 206.102L62.3615 205.792C62.5096 206.357 62.5808 206.886 62.5719 207.383C62.563 207.877 62.4237 208.537 62.1511 209.359L61.6238 210.948L59.6416 210.291H59.6387ZM67.9731 205.055C68.5745 203.239 68.2101 202.109 66.8798 201.669C66.2517 201.461 65.6739 201.53 65.1436 201.879C64.6132 202.225 64.2044 202.837 63.914 203.712C63.6266 204.576 63.5881 205.31 63.7985 205.907C64.0088 206.505 64.4325 206.91 65.0725 207.12C66.4058 207.561 67.3716 206.872 67.976 205.055H67.9731Z" fill="black"/>
<path d="M71.3534 206.173C71.7741 204.907 72.4852 204.002 73.4926 203.452C74.497 202.902 75.5636 202.813 76.6894 203.186C77.8361 203.565 78.6301 204.257 79.0656 205.259C79.5012 206.262 79.5189 207.374 79.113 208.596C79.0567 208.768 78.9767 208.972 78.876 209.202L73.1578 207.312C72.9415 208.069 72.9533 208.694 73.1844 209.185C73.4185 209.676 73.8274 210.019 74.411 210.211C75.2999 210.504 76.1206 210.238 76.8761 209.406L78.4434 210.664C77.2939 212.024 75.7739 212.391 73.8777 211.764C72.6748 211.368 71.8423 210.67 71.383 209.67C70.9208 208.67 70.912 207.507 71.3505 206.176L71.3534 206.173ZM73.7059 205.872L77.3946 207.09C77.5516 206.508 77.525 205.999 77.3146 205.57C77.1013 205.141 76.7309 204.836 76.2006 204.662C75.7028 204.496 75.2288 204.52 74.7814 204.733C74.334 204.946 73.9755 205.325 73.7089 205.872H73.7059ZM76.3724 202.127L77.9694 199.974L80.2774 200.737L77.6731 202.556L76.3754 202.127H76.3724Z" fill="black"/>
<path d="M79.6138 213.388L82.2922 205.31L84.1291 205.916C83.8773 206.673 83.3588 207.383 82.5736 208.049L83.501 208.356C83.9661 207.576 84.4758 207.04 85.0328 206.756C85.5898 206.472 86.2623 206.46 87.0534 206.724C87.2608 206.792 87.4534 206.875 87.64 206.972L86.9675 208.998C86.7334 208.874 86.446 208.756 86.1112 208.643C85.2431 208.356 84.5439 208.374 84.0106 208.697C83.4773 209.019 83.0388 209.693 82.6981 210.72L81.5959 214.045L79.6138 213.391V213.388Z" fill="black"/>
<path d="M86.4048 215.63L89.0832 207.555L91.0505 208.206L88.3721 216.284L86.4048 215.633V215.63ZM89.4298 206.244L90.0965 204.233L92.2089 204.931L91.5423 206.942L89.4298 206.244Z" fill="black"/>
<path d="M91.56 212.855C91.9807 211.589 92.6918 210.684 93.6991 210.134C94.7035 209.584 95.7701 209.495 96.896 209.868C98.0426 210.247 98.8366 210.939 99.2722 211.941C99.7077 212.944 99.7255 214.056 99.3196 215.278C99.2633 215.45 99.1833 215.654 99.0826 215.884L93.3643 213.994C93.148 214.752 93.1599 215.376 93.391 215.867C93.625 216.358 94.0339 216.701 94.6176 216.893C95.5064 217.186 96.3271 216.92 97.0827 216.088L98.65 217.346C97.5004 218.706 95.9805 219.073 94.0843 218.446C92.8814 218.05 92.0488 217.352 91.5896 216.352C91.1274 215.352 91.1185 214.19 91.557 212.858L91.56 212.855ZM93.9124 212.554L97.6011 213.772C97.7582 213.19 97.7315 212.681 97.5211 212.252C97.3108 211.823 96.9375 211.519 96.4071 211.344C95.9094 211.178 95.4353 211.202 94.9879 211.415C94.5376 211.628 94.1821 212.007 93.9154 212.554H93.9124Z" fill="black"/>
<path d="M99.8203 220.07L102.499 211.992L104.336 212.598C104.149 213.089 103.678 213.622 102.919 214.201L103.847 214.509C104.244 213.968 104.724 213.568 105.29 213.311C105.856 213.054 106.451 213.03 107.082 213.237C107.98 213.533 108.581 214.027 108.881 214.713C109.18 215.399 109.177 216.216 108.863 217.156L107.097 222.475L105.115 221.821L106.75 216.89C107.133 215.733 106.839 214.994 105.864 214.672C105.302 214.485 104.828 214.515 104.445 214.76C103.882 215.115 103.411 215.87 103.026 217.026L101.8 220.724L99.8174 220.067L99.8203 220.07Z" fill="black"/>
<path d="M110.199 219.002C110.614 217.748 111.351 216.855 112.403 216.322C113.458 215.79 114.581 215.719 115.772 216.112C116.681 216.414 117.384 216.89 117.881 217.55C118.379 218.206 118.634 218.931 118.646 219.727L116.61 219.774C116.584 218.697 116.11 218.008 115.188 217.703C114.572 217.499 113.991 217.564 113.446 217.902C112.901 218.239 112.489 218.827 112.211 219.671C111.926 220.525 111.905 221.253 112.145 221.853C112.385 222.454 112.812 222.856 113.431 223.06C114.406 223.383 115.253 223.057 115.973 222.084L117.621 223.368C117.055 224.057 116.361 224.524 115.541 224.767C114.72 225.013 113.849 224.983 112.931 224.678C111.707 224.273 110.839 223.548 110.326 222.504C109.814 221.46 109.769 220.292 110.199 219.005V219.002Z" fill="black"/>
<path d="M119.209 221.998C119.63 220.732 120.341 219.827 121.348 219.277C122.352 218.727 123.419 218.638 124.545 219.011C125.691 219.39 126.486 220.082 126.921 221.084C127.357 222.087 127.374 223.199 126.968 224.421C126.912 224.596 126.832 224.797 126.731 225.027L121.013 223.137C120.797 223.894 120.809 224.519 121.043 225.01C121.277 225.501 121.686 225.844 122.269 226.036C123.158 226.329 123.979 226.063 124.735 225.231L126.302 226.489C125.152 227.849 123.632 228.216 121.736 227.589C120.533 227.193 119.701 226.494 119.241 225.495C118.779 224.495 118.77 223.332 119.209 222.001V221.998ZM121.561 221.697L125.25 222.915C125.407 222.333 125.38 221.824 125.17 221.395C124.96 220.966 124.586 220.661 124.056 220.487C123.558 220.321 123.084 220.345 122.637 220.558C122.189 220.768 121.831 221.15 121.564 221.697H121.561Z" fill="black"/>
<path d="M131.407 228.21L133.443 228.216C133.321 229.231 133.813 229.923 134.918 230.287C135.374 230.437 135.754 230.473 136.065 230.396C136.373 230.319 136.574 230.133 136.672 229.84C136.758 229.58 136.737 229.34 136.613 229.118C136.488 228.896 136.216 228.669 135.801 228.435L134.794 227.885C133.967 227.408 133.398 226.92 133.09 226.421C132.782 225.921 132.746 225.311 132.986 224.587C133.235 223.841 133.742 223.335 134.506 223.072C135.274 222.809 136.136 222.838 137.102 223.158C137.999 223.454 138.675 223.886 139.125 224.448C139.576 225.01 139.813 225.601 139.833 226.222L137.922 226.382C137.893 225.459 137.436 224.853 136.559 224.563C136.136 224.424 135.78 224.397 135.493 224.489C135.205 224.581 135.016 224.761 134.927 225.03C134.847 225.267 134.874 225.483 135.001 225.675C135.128 225.867 135.416 226.092 135.86 226.347L136.853 226.891C137.564 227.281 138.124 227.766 138.533 228.346C138.944 228.914 139.027 229.571 138.782 230.319C138.521 231.109 137.99 231.632 137.196 231.893C136.402 232.153 135.451 232.1 134.346 231.733C133.425 231.428 132.69 230.955 132.142 230.31C131.594 229.665 131.348 228.964 131.407 228.204V228.21Z" fill="black"/>
<path d="M139.969 231.041C140.313 230.003 141.024 229.405 142.1 229.242C143.166 229.068 144.505 229.162 146.114 229.526L146.206 229.251C146.487 228.408 146.132 227.823 145.148 227.497C144.099 227.151 143.311 227.388 142.784 228.21L141.137 227.142C141.439 226.521 142.002 226.089 142.831 225.841C143.658 225.592 144.597 225.643 145.649 225.989C146.766 226.358 147.533 226.897 147.951 227.607C148.372 228.317 148.419 229.162 148.09 230.145L147.009 233.404C146.941 233.611 146.926 233.753 146.967 233.83C147.006 233.91 147.13 233.984 147.335 234.052L148.099 234.303L147.584 235.859L146.739 235.581C146.09 235.365 145.693 235.102 145.551 234.791C145.409 234.481 145.433 233.996 145.625 233.342L144.926 233.111C144.556 233.65 144.102 234.019 143.566 234.226C143.03 234.434 142.44 234.431 141.803 234.218C141.024 233.96 140.464 233.543 140.126 232.969C139.789 232.396 139.738 231.751 139.975 231.038L139.969 231.041ZM145.468 231.473L145.685 230.825C144.63 230.597 143.803 230.529 143.202 230.624C142.6 230.718 142.215 231.014 142.049 231.511C141.943 231.836 141.963 232.12 142.117 232.369C142.268 232.617 142.541 232.807 142.929 232.934C143.46 233.108 143.96 233.073 144.434 232.827C144.905 232.582 145.252 232.129 145.471 231.47L145.468 231.473Z" fill="black"/>
<path d="M148.878 236.291L152.644 224.939L154.626 225.592L150.861 236.945L148.878 236.291Z" fill="black"/>
<path d="M153.483 235.51C153.827 234.472 154.538 233.875 155.613 233.712C156.68 233.537 158.019 233.632 159.628 233.996L159.72 233.721C160.001 232.878 159.646 232.292 158.662 231.967C157.613 231.621 156.825 231.857 156.298 232.68L154.65 231.612C154.953 230.991 155.515 230.559 156.345 230.31C157.172 230.062 158.111 230.112 159.163 230.458C160.28 230.828 161.047 231.366 161.465 232.076C161.886 232.786 161.933 233.632 161.604 234.614L160.523 237.874C160.454 238.081 160.44 238.223 160.481 238.3C160.52 238.379 160.644 238.453 160.849 238.521L161.613 238.773L161.097 240.329L160.253 240.051C159.604 239.835 159.207 239.572 159.065 239.261C158.923 238.95 158.946 238.465 159.139 237.809L158.44 237.578C158.069 238.116 157.616 238.486 157.08 238.693C156.544 238.9 155.954 238.897 155.317 238.684C154.538 238.427 153.978 238.01 153.64 237.436C153.302 236.862 153.252 236.217 153.489 235.504L153.483 235.51ZM158.982 235.942L159.198 235.294C158.143 235.067 157.317 234.999 156.715 235.093C156.114 235.188 155.729 235.484 155.563 235.981C155.456 236.306 155.477 236.593 155.631 236.838C155.782 237.087 156.055 237.276 156.443 237.403C156.973 237.578 157.474 237.542 157.948 237.297C158.419 237.051 158.766 236.599 158.985 235.939L158.982 235.942Z" fill="black"/>
<path d="M162.395 240.761L165.073 232.685L166.91 233.292C166.659 234.049 166.14 234.759 165.355 235.424L166.279 235.732C166.744 234.948 167.254 234.416 167.811 234.132C168.368 233.848 169.041 233.836 169.832 234.099C170.039 234.167 170.232 234.25 170.418 234.348L169.746 236.374C169.512 236.25 169.224 236.131 168.89 236.019C168.021 235.732 167.322 235.75 166.789 236.072C166.256 236.395 165.817 237.069 165.476 238.095L164.374 241.42L162.392 240.764L162.395 240.761Z" fill="black"/>
<path d="M169.186 243.006L171.864 234.928L173.831 235.578L171.153 243.653L169.186 243.003V243.006ZM172.211 233.62L172.877 231.609L174.99 232.307L174.323 234.318L172.211 233.62Z" fill="black"/>
<path d="M174.344 240.231C174.765 238.965 175.476 238.06 176.483 237.51C177.488 236.96 178.554 236.871 179.68 237.244C180.827 237.622 181.621 238.314 182.056 239.317C182.492 240.32 182.51 241.432 182.104 242.654C182.047 242.825 181.967 243.029 181.867 243.26L176.148 241.37C175.932 242.127 175.944 242.751 176.175 243.242C176.409 243.733 176.818 244.076 177.405 244.269C178.294 244.561 179.114 244.295 179.87 243.464L181.437 244.721C180.288 246.082 178.768 246.449 176.871 245.822C175.668 245.425 174.836 244.727 174.377 243.727C173.914 242.728 173.906 241.565 174.344 240.234V240.231ZM176.697 239.929L180.385 241.148C180.542 240.565 180.516 240.057 180.302 239.628C180.092 239.199 179.719 238.894 179.188 238.72C178.691 238.554 178.217 238.578 177.769 238.791C177.322 239.001 176.963 239.382 176.697 239.929ZM179.363 236.185L180.96 234.031L183.268 234.794L180.664 236.614L179.366 236.185H179.363Z" fill="black"/>
<path d="M423.12 98.2417L418.16 83.7863C417.985 83.2716 417.591 82.9196 417.067 82.7983L407.79 81.5471C407.539 80.1835 406.777 78.9471 405.616 78.0982L405.868 76.3145C406.084 74.7734 405.011 73.2945 403.417 73.0726C401.823 72.8508 400.392 73.9275 400.17 75.5188L399.918 77.3025C398.618 77.8083 397.542 78.7874 396.926 80.0297L387.664 78.6838C387.175 78.6631 386.651 78.885 386.343 79.3346L377.638 91.8762C377.392 92.2341 377.273 92.7103 377.309 93.157C377.878 97.511 380.734 100.664 384.597 101.205C388.461 101.747 392.073 99.5017 393.821 95.4701C393.978 95.05 393.99 94.6093 393.859 94.1479L390.025 82.8959L396.392 83.8365C396.692 85.2061 397.412 86.3863 398.526 87.2322L395.987 105.308C395.512 108.683 392.556 111.168 389.128 111.032L383.88 110.887C383.294 110.854 382.784 111.322 382.704 111.901L382.34 114.504C382.251 115.131 382.707 115.735 383.335 115.824L411.144 119.719C411.772 119.808 412.377 119.352 412.466 118.725L412.83 116.122C412.91 115.543 412.546 115.001 411.98 114.824L406.703 113.496C403.379 112.638 401.213 109.482 401.687 106.11L404.226 88.0338C405.527 87.528 406.546 86.5904 407.213 85.3569L413.592 86.1999L406.804 95.964C406.558 96.322 406.439 96.7982 406.475 97.2448C407.044 101.599 409.9 104.752 413.763 105.293C417.627 105.835 421.239 103.59 422.987 99.5579C423.242 99.1497 423.253 98.712 423.12 98.2505V98.2417ZM390.452 91.7993L381.617 90.5629L387.285 82.4611L390.452 91.7993ZM410.824 94.6537L416.492 86.5519L419.707 95.899L410.824 94.6537Z" fill="black"/>
<path d="M140.906 124.544C139.923 132.412 132.737 137.996 124.854 137.014C116.973 136.031 111.379 128.857 112.362 120.987C113.346 113.119 120.531 107.535 128.415 108.517C136.296 109.499 141.89 116.673 140.906 124.544Z" fill="black"/>
<path d="M130.737 139.402L118.564 137.885C113.018 137.209 107.419 138.602 102.836 141.789C98.2525 144.978 95.0079 149.739 93.7208 155.167L150.567 162.254C150.654 156.678 148.682 151.263 145.025 147.048C141.367 142.832 136.28 140.111 130.74 139.402L130.737 139.402Z" fill="black"/>
<path d="M171.142 137.934L173.578 118.444L181.973 119.49C184.054 119.748 185.644 120.512 186.741 121.781C187.838 123.05 188.27 124.62 188.036 126.495C187.804 128.352 186.994 129.769 185.606 130.743C184.219 131.721 182.493 132.08 180.43 131.822L175.663 131.228L174.769 138.382L171.145 137.932L171.142 137.934ZM176.045 128.168L180.173 128.682C181.308 128.823 182.238 128.652 182.97 128.169C183.7 127.687 184.124 126.969 184.244 126.023C184.364 125.077 184.129 124.294 183.548 123.674C182.964 123.055 182.096 122.674 180.942 122.53L176.815 122.016L176.045 128.168Z" fill="black"/>
<path d="M189.185 140.184L190.917 126.318L194.069 126.711C193.907 128.012 193.299 129.322 192.248 130.642L193.838 130.84C194.334 129.433 194.986 128.411 195.793 127.776C196.6 127.14 197.68 126.907 199.039 127.078C199.394 127.123 199.732 127.194 200.06 127.29L199.624 130.77C199.204 130.644 198.709 130.542 198.131 130.47C196.644 130.284 195.522 130.536 194.766 131.224C194.009 131.912 193.521 133.137 193.301 134.902L192.589 140.61L189.185 140.187L189.185 140.184Z" fill="black"/>
<path d="M200.231 134.52C200.499 132.366 201.376 130.685 202.858 129.476C204.339 128.266 206.103 127.789 208.148 128.042C210.193 128.297 211.786 129.192 212.924 130.729C214.063 132.266 214.498 134.111 214.231 136.263C213.96 138.435 213.077 140.121 211.588 141.32C210.097 142.519 208.34 142.994 206.313 142.741C204.304 142.492 202.725 141.587 201.568 140.029C200.412 138.471 199.966 136.633 200.231 134.518L200.231 134.52ZM210.71 135.883C210.897 134.399 210.717 133.213 210.177 132.324C209.637 131.438 208.845 130.928 207.805 130.799C206.726 130.663 205.825 130.961 205.101 131.691C204.378 132.42 203.923 133.528 203.736 135.012C203.553 136.479 203.722 137.642 204.25 138.497C204.775 139.354 205.577 139.849 206.656 139.984C207.735 140.12 208.634 139.835 209.354 139.133C210.075 138.432 210.527 137.348 210.71 135.881L210.71 135.883Z" fill="black"/>
<path d="M231.801 131.413L230.069 145.279L226.665 144.855L228.067 133.636L222.239 132.909L220.837 144.129L217.433 143.705L218.835 132.485L216.02 132.134L216.35 129.49L219.166 129.841L219.412 127.864C219.557 126.713 219.971 125.857 220.656 125.291C221.341 124.725 222.24 124.512 223.355 124.65L227.203 125.131L226.857 127.888L224.209 127.557C223.354 127.449 222.873 127.834 222.762 128.706L222.567 130.265L231.799 131.416L231.801 131.413ZM228.994 125.322L232.59 125.77L232.16 129.222L228.564 128.774L228.994 125.322Z" fill="black"/>
<path d="M234.166 145.79L236.602 126.3L240.005 126.724L237.569 146.213L234.166 145.79Z" fill="black"/>
<path d="M247.747 143.863L251.028 143.225C251.158 144.901 252.173 145.857 254.069 146.092C254.85 146.188 255.476 146.125 255.946 145.902C256.416 145.679 256.686 145.316 256.749 144.814C256.806 144.367 256.697 143.988 256.424 143.669C256.152 143.353 255.645 143.072 254.9 142.83L253.1 142.265C251.616 141.76 250.543 141.155 249.886 140.452C249.227 139.749 248.977 138.775 249.133 137.531C249.293 136.252 249.949 135.276 251.099 134.608C252.248 133.94 253.651 133.711 255.305 133.918C256.849 134.11 258.071 134.587 258.979 135.352C259.884 136.116 260.455 136.992 260.69 137.983L257.664 138.849C257.32 137.373 256.395 136.541 254.89 136.355C254.166 136.265 253.585 136.339 253.148 136.575C252.712 136.814 252.466 137.165 252.409 137.629C252.358 138.037 252.465 138.375 252.735 138.645C253.003 138.914 253.537 139.184 254.332 139.452L256.104 140.011C257.376 140.414 258.431 141.017 259.277 141.821C260.122 142.605 260.467 143.637 260.305 144.919C260.136 146.273 259.451 147.286 258.255 147.958C257.056 148.628 255.51 148.847 253.614 148.61C252.034 148.412 250.697 147.884 249.608 147.021C248.517 146.159 247.897 145.107 247.752 143.863L247.747 143.863Z" fill="black"/>
<path d="M262.443 145.695C262.666 143.913 263.617 142.722 265.298 142.12C266.962 141.497 269.148 141.225 271.858 141.297L271.918 140.825C272.098 139.376 271.343 138.548 269.65 138.338C267.847 138.112 266.654 138.746 266.071 140.239L263.078 139.047C263.365 137.952 264.136 137.071 265.391 136.408C266.644 135.744 268.174 135.525 269.978 135.75C271.891 135.988 273.301 136.612 274.205 137.62C275.108 138.629 275.455 139.976 275.242 141.666L274.541 147.262C274.496 147.616 274.52 147.848 274.608 147.962C274.696 148.077 274.919 148.156 275.273 148.201L276.583 148.363L276.249 151.035L274.798 150.855C273.683 150.716 272.96 150.418 272.631 149.962C272.299 149.507 272.187 148.721 272.287 147.602L271.088 147.452C270.663 148.436 270.05 149.178 269.251 149.683C268.451 150.185 267.503 150.369 266.406 150.233C265.068 150.065 264.034 149.574 263.305 148.759C262.575 147.944 262.287 146.921 262.441 145.697L262.443 145.695ZM271.44 144.639L271.578 143.526C269.807 143.494 268.45 143.649 267.512 143.995C266.571 144.34 266.048 144.94 265.943 145.791C265.874 146.348 265.999 146.802 266.325 147.153C266.648 147.503 267.146 147.723 267.814 147.804C268.724 147.918 269.521 147.701 270.205 147.156C270.887 146.61 271.298 145.769 271.44 144.639Z" fill="black"/>
<path d="M278.479 151.312L280.915 131.822L284.319 132.245L281.883 151.735L278.479 151.312Z" fill="black"/>
<path d="M285.644 148.588C285.867 146.805 286.817 145.614 288.499 145.012C290.163 144.389 292.349 144.118 295.058 144.19L295.118 143.715C295.299 142.266 294.544 141.438 292.851 141.228C291.048 141.002 289.855 141.636 289.272 143.129L286.279 141.937C286.566 140.842 287.336 139.961 288.592 139.298C289.844 138.634 291.373 138.415 293.178 138.64C295.092 138.878 296.502 139.502 297.405 140.51C298.309 141.519 298.655 142.867 298.442 144.557L297.742 150.152C297.697 150.506 297.721 150.738 297.809 150.852C297.897 150.967 298.119 151.046 298.474 151.091L299.784 151.253L299.45 153.925L297.999 153.745C296.884 153.607 296.161 153.308 295.832 152.853C295.503 152.397 295.388 151.611 295.488 150.492L294.288 150.342C293.864 151.326 293.251 152.068 292.451 152.573C291.652 153.075 290.704 153.259 289.607 153.123C288.269 152.955 287.235 152.464 286.505 151.649C285.776 150.834 285.488 149.811 285.641 148.588L285.644 148.588ZM294.64 147.531L294.779 146.418C293.008 146.386 291.651 146.542 290.713 146.887C289.772 147.233 289.249 147.833 289.144 148.684C289.074 149.241 289.2 149.695 289.526 150.045C289.849 150.396 290.347 150.615 291.015 150.697C291.924 150.811 292.721 150.594 293.405 150.048C294.087 149.503 294.499 148.662 294.64 147.531Z" fill="black"/>
<path d="M301.68 154.204L303.412 140.338L306.564 140.732C306.401 142.032 305.794 143.342 304.743 144.662L306.333 144.861C306.829 143.453 307.481 142.432 308.288 141.796C309.095 141.16 310.175 140.928 311.534 141.099C311.888 141.144 312.227 141.214 312.555 141.31L312.119 144.79C311.699 144.662 311.204 144.563 310.626 144.491C309.138 144.304 308.017 144.557 307.26 145.245C306.504 145.933 306.016 147.158 305.796 148.922L305.083 154.631L301.68 154.207L301.68 154.204Z" fill="black"/>
<path d="M313.337 155.658L315.069 141.792L318.445 142.213L316.712 156.079L313.337 155.658ZM315.204 139.576L315.635 136.125L319.259 136.575L318.829 140.027L315.204 139.576Z" fill="black"/>
<path d="M320.758 149.541C321.029 147.369 321.888 145.68 323.331 144.475C324.774 143.27 326.464 142.786 328.398 143.029C330.368 143.276 331.866 144.135 332.89 145.611C333.914 147.087 334.296 148.872 334.032 150.97C333.996 151.267 333.933 151.618 333.843 152.02L324.028 150.798C323.925 152.086 324.139 153.087 324.672 153.803C325.205 154.52 325.975 154.942 326.979 155.066C328.502 155.255 329.74 154.563 330.695 152.984L333.621 154.507C332.205 157.064 329.871 158.141 326.619 157.735C324.557 157.477 322.991 156.618 321.929 155.157C320.866 153.696 320.478 151.823 320.763 149.541L320.758 149.541ZM324.454 148.304L330.783 149.094C330.85 148.103 330.646 147.295 330.165 146.67C329.685 146.044 328.991 145.674 328.079 145.56C327.224 145.455 326.469 145.642 325.814 146.126C325.159 146.61 324.703 147.335 324.452 148.302L324.454 148.304Z" fill="black"/>
<path d="M168.533 160.038L169.76 150.234L171.583 150.462L170.356 160.266L168.533 160.038Z" fill="black"/>
<path d="M172.589 160.542L173.461 153.567L175.046 153.765C174.974 154.193 174.676 154.702 174.156 155.289L174.955 155.388C175.188 154.886 175.514 154.486 175.931 154.187C176.349 153.889 176.83 153.772 177.372 153.841C178.147 153.937 178.714 154.24 179.067 154.75C179.421 155.26 179.548 155.92 179.446 156.731L178.872 161.324L177.161 161.11L177.693 156.853C177.819 155.853 177.461 155.302 176.619 155.197C176.133 155.137 175.753 155.235 175.483 155.495C175.085 155.874 174.823 156.56 174.697 157.56L174.297 160.753L172.586 160.54L172.589 160.542Z" fill="black"/>
<path d="M181.51 161.654L182.216 156.01L180.798 155.832L180.964 154.501L182.382 154.679L182.505 153.684C182.578 153.104 182.786 152.673 183.131 152.389C183.476 152.105 183.929 151.997 184.489 152.067L186.425 152.307L186.251 153.694L184.918 153.529C184.489 153.475 184.246 153.669 184.189 154.107L184.09 154.892L185.788 155.102L185.623 156.433L183.925 156.22L183.218 161.865L181.507 161.651L181.51 161.654Z" fill="black"/>
<path d="M185.915 158.662C186.05 157.58 186.49 156.734 187.237 156.123C187.984 155.512 188.869 155.273 189.899 155.403C190.927 155.532 191.73 155.98 192.303 156.754C192.876 157.528 193.093 158.454 192.958 159.539C192.822 160.632 192.377 161.479 191.628 162.083C190.878 162.686 189.993 162.925 188.973 162.798C187.964 162.672 187.169 162.218 186.585 161.434C186.005 160.65 185.78 159.726 185.915 158.662ZM191.185 159.348C191.278 158.602 191.189 158.004 190.916 157.557C190.643 157.11 190.246 156.856 189.722 156.79C189.18 156.724 188.727 156.872 188.363 157.238C187.998 157.604 187.769 158.163 187.676 158.909C187.583 159.648 187.67 160.23 187.933 160.662C188.198 161.093 188.6 161.342 189.142 161.411C189.684 161.48 190.137 161.336 190.499 160.983C190.861 160.63 191.089 160.084 191.18 159.348L191.185 159.348Z" fill="black"/>
<path d="M194.107 163.225L194.979 156.25L196.564 156.448C196.482 157.102 196.177 157.759 195.648 158.423L196.447 158.522C196.696 157.815 197.025 157.299 197.429 156.98C197.834 156.661 198.38 156.545 199.063 156.629C199.24 156.65 199.412 156.687 199.576 156.736L199.356 158.487C199.146 158.425 198.895 158.374 198.605 158.338C197.857 158.245 197.291 158.371 196.912 158.716C196.532 159.061 196.287 159.679 196.175 160.566L195.817 163.438L194.107 163.225Z" fill="black"/>
<path d="M199.971 163.955L200.844 156.98L202.359 157.169C202.302 157.618 202.062 158.071 201.634 158.528L202.433 158.628C202.88 157.574 203.578 157.106 204.531 157.226C205.009 157.286 205.399 157.478 205.705 157.807C206.01 158.134 206.191 158.567 206.248 159.105L206.851 159.18C207.063 158.703 207.369 158.339 207.772 158.086C208.176 157.834 208.61 157.736 209.078 157.794C209.769 157.881 210.301 158.181 210.676 158.696C211.047 159.212 211.182 159.885 211.079 160.716L210.511 165.268L208.813 165.058L209.345 160.801C209.471 159.8 209.111 159.249 208.271 159.144C207.821 159.087 207.48 159.173 207.241 159.4C207.016 159.61 206.855 159.856 206.757 160.145C206.659 160.431 206.583 160.807 206.523 161.274L206.093 164.718L204.41 164.508L204.942 160.251C205.069 159.251 204.71 158.699 203.868 158.594C203.439 158.54 203.1 158.627 202.854 158.851C202.48 159.194 202.234 159.817 202.123 160.722L201.692 164.166L199.982 163.953L199.971 163.955Z" fill="black"/>
<path d="M212.313 163.674C212.425 162.776 212.904 162.178 213.749 161.874C214.586 161.561 215.685 161.424 217.049 161.461L217.079 161.222C217.169 160.494 216.791 160.076 215.938 159.971C215.031 159.857 214.431 160.178 214.137 160.928L212.631 160.328C212.775 159.778 213.164 159.335 213.796 158.999C214.427 158.666 215.194 158.554 216.1 158.668C217.064 158.788 217.774 159.102 218.228 159.608C218.682 160.115 218.856 160.794 218.75 161.643L218.398 164.459C218.377 164.636 218.388 164.754 218.433 164.812C218.478 164.869 218.591 164.91 218.768 164.931L219.428 165.012L219.26 166.356L218.53 166.266C217.97 166.197 217.605 166.046 217.439 165.817C217.273 165.588 217.216 165.191 217.268 164.629L216.664 164.554C216.452 165.049 216.144 165.423 215.74 165.676C215.339 165.928 214.861 166.022 214.309 165.953C213.636 165.869 213.115 165.621 212.749 165.211C212.383 164.801 212.238 164.286 212.313 163.671L212.313 163.674ZM216.839 163.143L216.908 162.584C216.017 162.568 215.336 162.646 214.862 162.82C214.39 162.994 214.125 163.295 214.073 163.723C214.038 164.003 214.103 164.233 214.265 164.408C214.429 164.585 214.676 164.693 215.013 164.735C215.47 164.792 215.871 164.683 216.216 164.409C216.561 164.136 216.767 163.713 216.836 163.143L216.839 163.143Z" fill="black"/>
<path d="M221.08 164.782L221.564 160.918L220.048 160.728L220.214 159.397L221.729 159.587L222.003 157.402L223.714 157.615L223.44 159.8L225.292 160.031L225.127 161.362L223.275 161.131L222.824 164.729C222.77 165.157 222.958 165.4 223.387 165.454L224.875 165.64L224.7 167.04L222.625 166.781C222.062 166.712 221.649 166.502 221.38 166.15C221.111 165.798 221.011 165.344 221.08 164.782Z" fill="black"/>
<path d="M226.062 167.208L226.934 160.233L228.632 160.444L227.76 167.419L226.062 167.206L226.062 167.208ZM227 159.119L227.217 157.383L229.041 157.611L228.824 159.347L227 159.119Z" fill="black"/>
<path d="M229.781 164.129C229.916 163.047 230.356 162.202 231.103 161.591C231.851 160.979 232.735 160.741 233.765 160.87C234.793 160.999 235.596 161.448 236.169 162.221C236.742 162.995 236.959 163.922 236.827 165.007C236.691 166.099 236.246 166.947 235.496 167.55C234.746 168.154 233.862 168.392 232.842 168.266C231.832 168.14 231.035 167.686 230.454 166.902C229.874 166.118 229.648 165.194 229.783 164.129L229.781 164.129ZM235.051 164.815C235.144 164.069 235.055 163.471 234.782 163.024C234.51 162.577 234.113 162.321 233.589 162.257C233.047 162.188 232.593 162.34 232.229 162.706C231.864 163.072 231.635 163.631 231.542 164.377C231.449 165.115 231.536 165.698 231.799 166.129C232.064 166.561 232.466 166.81 233.008 166.878C233.55 166.945 234.004 166.804 234.365 166.45C234.727 166.097 234.955 165.551 235.046 164.815L235.051 164.815Z" fill="black"/>
<path d="M237.973 168.693L238.845 161.717L240.43 161.915C240.358 162.343 240.06 162.852 239.54 163.439L240.339 163.538C240.572 163.036 240.898 162.636 241.316 162.337C241.733 162.039 242.214 161.922 242.756 161.991C243.532 162.087 244.098 162.39 244.452 162.9C244.805 163.41 244.932 164.071 244.83 164.881L244.256 169.474L242.545 169.261L243.078 165.004C243.204 164.003 242.843 163.452 242.003 163.347C241.517 163.287 241.137 163.385 240.87 163.645C240.472 164.024 240.21 164.71 240.084 165.71L239.684 168.903L237.973 168.69L237.973 168.693Z" fill="black"/>
<path d="M245.869 167.858L247.52 167.538C247.584 168.38 248.096 168.862 249.049 168.979C249.442 169.027 249.756 168.997 249.993 168.883C250.229 168.769 250.363 168.589 250.396 168.335C250.424 168.112 250.37 167.918 250.234 167.762C250.098 167.602 249.843 167.462 249.467 167.339L248.563 167.056C247.816 166.801 247.278 166.498 246.947 166.142C246.616 165.789 246.489 165.299 246.567 164.673C246.648 164.029 246.976 163.539 247.556 163.203C248.134 162.866 248.841 162.75 249.674 162.855C250.449 162.951 251.066 163.191 251.522 163.577C251.976 163.961 252.264 164.403 252.381 164.901L250.86 165.336C250.688 164.593 250.221 164.176 249.464 164.08C249.099 164.035 248.807 164.071 248.589 164.193C248.371 164.312 248.246 164.49 248.216 164.723C248.19 164.928 248.246 165.099 248.38 165.235C248.514 165.371 248.782 165.505 249.183 165.64L250.074 165.921C250.714 166.123 251.247 166.428 251.669 166.831C252.095 167.227 252.268 167.744 252.187 168.391C252.103 169.073 251.759 169.581 251.156 169.919C250.552 170.255 249.775 170.365 248.82 170.247C248.026 170.148 247.354 169.882 246.803 169.448C246.255 169.014 245.942 168.484 245.869 167.86L245.869 167.858Z" fill="black"/>
<path d="M256.881 171.05L257.754 164.075L259.452 164.286L258.579 171.261L256.881 171.05ZM257.82 162.961L258.037 161.225L259.86 161.453L259.644 163.189L257.82 162.961Z" fill="black"/>
<path d="M260.655 171.519L261.527 164.544L263.043 164.733C262.986 165.182 262.746 165.635 262.318 166.093L263.117 166.192C263.563 165.138 264.262 164.67 265.215 164.79C265.692 164.85 266.083 165.042 266.388 165.369C266.694 165.696 266.874 166.128 266.931 166.667L267.535 166.742C267.747 166.265 268.052 165.9 268.456 165.648C268.859 165.396 269.294 165.298 269.761 165.355C270.452 165.442 270.985 165.742 271.359 166.258C271.731 166.774 271.866 167.447 271.763 168.278L271.194 172.83L269.497 172.619L270.029 168.362C270.155 167.362 269.794 166.811 268.954 166.706C268.505 166.649 268.163 166.735 267.925 166.962C267.7 167.171 267.538 167.418 267.44 167.706C267.343 167.993 267.266 168.369 267.206 168.836L266.776 172.28L265.094 172.07L265.626 167.813C265.752 166.812 265.394 166.261 264.551 166.156C264.122 166.102 263.784 166.188 263.535 166.413C263.161 166.755 262.915 167.378 262.804 168.284L262.374 171.728L260.663 171.514L260.655 171.519Z" fill="black"/>
<path d="M272.855 175.815L274.067 166.111L275.624 166.307C275.576 166.699 275.313 167.159 274.84 167.688L275.639 167.787C275.959 167.287 276.295 166.915 276.655 166.669C277.015 166.424 277.516 166.333 278.163 166.396C279.006 166.501 279.65 166.929 280.097 167.682C280.544 168.436 280.7 169.364 280.562 170.464C280.423 171.567 280.045 172.424 279.429 173.04C278.81 173.656 278.08 173.91 277.24 173.805C276.145 173.669 275.449 173.012 275.149 171.837L274.334 171.735C274.545 172.168 274.687 172.587 274.762 172.989C274.835 173.391 274.827 173.946 274.74 174.657L274.569 176.029L272.858 175.815L272.855 175.815ZM278.766 170.236C278.962 168.667 278.486 167.813 277.335 167.669C276.793 167.602 276.334 167.751 275.962 168.117C275.59 168.483 275.353 169.044 275.26 169.801C275.167 170.547 275.254 171.147 275.519 171.597C275.786 172.046 276.193 172.308 276.745 172.374C277.896 172.519 278.568 171.806 278.764 170.236L278.766 170.236Z" fill="black"/>
<path d="M281.669 170.597C281.804 169.515 282.244 168.669 282.992 168.058C283.736 167.45 284.624 167.209 285.654 167.338C286.681 167.467 287.484 167.916 288.057 168.689C288.63 169.463 288.848 170.39 288.712 171.474C288.577 172.567 288.132 173.415 287.382 174.018C286.632 174.621 285.747 174.86 284.728 174.734C283.718 174.608 282.923 174.154 282.34 173.37C281.759 172.586 281.534 171.661 281.669 170.597ZM286.939 171.283C287.033 170.537 286.943 169.939 286.67 169.492C286.398 169.045 286.001 168.789 285.477 168.725C284.935 168.656 284.482 168.807 284.117 169.174C283.753 169.54 283.524 170.098 283.431 170.845C283.337 171.583 283.425 172.166 283.687 172.597C283.952 173.029 284.355 173.277 284.897 173.346C285.439 173.413 285.892 173.272 286.253 172.918C286.615 172.565 286.844 172.019 286.934 171.283L286.939 171.283Z" fill="black"/>
<path d="M289.862 175.16L290.734 168.185L292.319 168.383C292.237 169.037 291.932 169.695 291.403 170.358L292.201 170.458C292.451 169.75 292.78 169.234 293.184 168.915C293.589 168.596 294.134 168.48 294.818 168.564C294.995 168.585 295.167 168.622 295.331 168.671L295.111 170.423C294.901 170.36 294.65 170.309 294.36 170.273C293.612 170.18 293.046 170.306 292.666 170.651C292.287 170.996 292.042 171.614 291.93 172.501L291.572 175.373L289.862 175.16Z" fill="black"/>
<path d="M296.647 174.2L297.131 170.336L295.615 170.146L295.781 168.815L297.296 169.005L297.57 166.82L299.281 167.033L299.007 169.218L300.859 169.449L300.694 170.78L298.842 170.549L298.391 174.149C298.337 174.578 298.525 174.82 298.954 174.874L300.442 175.06L300.267 176.46L298.191 176.202C297.629 176.133 297.216 175.922 296.947 175.57C296.677 175.219 296.577 174.764 296.647 174.203L296.647 174.2Z" fill="black"/>
<path d="M301.432 174.783C301.543 173.885 302.023 173.287 302.868 172.983C303.705 172.67 304.804 172.533 306.168 172.57L306.198 172.331C306.288 171.603 305.909 171.185 305.057 171.08C304.15 170.966 303.549 171.287 303.255 172.037L301.75 171.437C301.894 170.887 302.283 170.444 302.914 170.108C303.543 169.775 304.312 169.663 305.219 169.777C306.182 169.897 306.892 170.211 307.347 170.717C307.801 171.224 307.974 171.903 307.869 172.752L307.517 175.568C307.496 175.745 307.506 175.863 307.552 175.921C307.597 175.978 307.71 176.019 307.887 176.04L308.547 176.121L308.379 177.465L307.649 177.375C307.089 177.306 306.724 177.155 306.558 176.926C306.392 176.697 306.335 176.3 306.386 175.738L305.783 175.663C305.57 176.158 305.262 176.532 304.859 176.785C304.458 177.037 303.98 177.131 303.427 177.062C302.754 176.978 302.234 176.73 301.868 176.32C301.502 175.91 301.357 175.395 301.432 174.78L301.432 174.783ZM305.957 174.252L306.027 173.693C305.136 173.677 304.455 173.755 303.981 173.929C303.509 174.103 303.244 174.404 303.192 174.832C303.156 175.112 303.222 175.342 303.383 175.517C303.547 175.694 303.795 175.802 304.132 175.844C304.589 175.901 304.99 175.792 305.335 175.516C305.679 175.239 305.885 174.819 305.955 174.25L305.957 174.252Z" fill="black"/>
<path d="M309.499 177.608L310.371 170.633L311.956 170.831C311.884 171.259 311.587 171.768 311.067 172.355L311.865 172.454C312.098 171.952 312.425 171.552 312.842 171.253C313.259 170.955 313.74 170.838 314.282 170.907C315.058 171.003 315.624 171.306 315.978 171.816C316.332 172.326 316.459 172.987 316.357 173.797L315.782 178.39L314.072 178.177L314.604 173.92C314.73 172.919 314.369 172.368 313.529 172.263C313.044 172.203 312.664 172.301 312.394 172.561C311.996 172.94 311.734 173.626 311.607 174.626L311.208 177.819L309.497 177.606L309.499 177.608Z" fill="black"/>
<path d="M318.712 176.949L319.196 173.085L317.681 172.895L317.846 171.564L319.362 171.754L319.635 169.569L321.346 169.782L321.073 171.967L322.925 172.198L322.759 173.529L320.907 173.298L320.456 176.898C320.402 177.327 320.591 177.569 321.02 177.623L322.507 177.809L322.332 179.209L320.257 178.951C319.697 178.882 319.281 178.671 319.012 178.319C318.743 177.968 318.643 177.513 318.712 176.952L318.712 176.949Z" fill="black"/>
<path d="M323.485 175.809C323.621 174.717 324.053 173.869 324.78 173.262C325.506 172.656 326.355 172.412 327.329 172.534C328.32 172.658 329.074 173.09 329.589 173.835C330.103 174.576 330.295 175.474 330.163 176.531C330.145 176.68 330.114 176.856 330.069 177.059L325.132 176.443C325.079 177.09 325.188 177.595 325.455 177.955C325.724 178.314 326.108 178.527 326.615 178.59C327.383 178.686 328.004 178.337 328.484 177.541L329.956 178.308C329.246 179.593 328.07 180.135 326.433 179.931C325.396 179.802 324.608 179.369 324.073 178.634C323.538 177.9 323.341 176.958 323.485 175.809ZM325.345 175.187L328.53 175.584C328.565 175.086 328.461 174.678 328.22 174.365C327.978 174.05 327.629 173.864 327.172 173.806C326.743 173.752 326.363 173.848 326.031 174.092C325.703 174.335 325.475 174.701 325.347 175.187L325.345 175.187Z" fill="black"/>
<path d="M330.947 178.462L332.598 178.142C332.663 178.984 333.174 179.466 334.127 179.584C334.52 179.632 334.835 179.602 335.074 179.488C335.31 179.374 335.445 179.194 335.477 178.94C335.505 178.717 335.452 178.523 335.315 178.364C335.179 178.204 334.924 178.064 334.548 177.941L333.642 177.658C332.895 177.402 332.357 177.1 332.026 176.744C331.695 176.389 331.567 175.901 331.646 175.275C331.727 174.631 332.057 174.141 332.635 173.805C333.213 173.468 333.918 173.352 334.752 173.457C335.528 173.553 336.144 173.793 336.598 174.179C337.055 174.563 337.34 175.005 337.46 175.503L335.938 175.938C335.764 175.195 335.3 174.778 334.542 174.682C334.178 174.637 333.886 174.673 333.668 174.792C333.449 174.912 333.325 175.089 333.295 175.323C333.268 175.528 333.324 175.698 333.458 175.834C333.592 175.971 333.86 176.104 334.262 176.24L335.153 176.52C335.793 176.725 336.323 177.027 336.748 177.431C337.174 177.824 337.347 178.344 337.266 178.99C337.181 179.672 336.838 180.18 336.234 180.519C335.631 180.857 334.854 180.964 333.901 180.847C333.105 180.748 332.435 180.481 331.884 180.047C331.336 179.613 331.024 179.083 330.95 178.457L330.947 178.462Z" fill="black"/>
</g>
<defs>
<clipPath id="clip0_342_2886">
<rect width="453" height="282" fill="white"/>
</clipPath>
</defs>
</svg>
