<svg width="149" height="31" viewBox="0 0 149 31" fill="none" xmlns="http://www.w3.org/2000/svg">
<g clip-path="url(#clip0_342_3019)">
<path d="M-0.000187416 15.4852C0.0539083 15.4375 0.114766 15.4261 0.182386 15.4557C0.660232 16.0034 0.660232 16.5511 0.182386 17.0988L0.0854642 17.1124L-0.00244141 17.0715V15.4852H-0.000187416Z" fill="black"/>
<path d="M124.368 20.728C122.829 23.1029 120.771 23.9255 118.262 23.571C115.149 23.1324 113.321 20.9803 113.186 17.3737C113.058 13.9831 113.157 10.5833 113.132 7.18811C113.128 6.65861 113.279 6.43362 113.829 6.46544C115.057 6.53816 116.601 5.9882 117.428 6.67224C118.167 7.28129 117.626 8.86981 117.649 10.022C117.69 12.1332 117.602 14.2512 117.703 16.3579C117.798 18.3487 118.776 19.4009 120.399 19.5486C122.281 19.7213 123.629 18.7554 124.145 16.867C124.357 16.0966 124.409 15.3102 124.406 14.5148C124.402 12.1764 124.449 9.83565 124.382 7.49718C124.357 6.61316 124.643 6.39272 125.461 6.45635C126.539 6.54271 127.979 6.10865 128.612 6.65633C129.343 7.29038 128.84 8.77663 128.849 9.89019C128.878 13.9649 128.842 18.0396 128.878 22.1143C128.885 22.8824 128.712 23.2483 127.896 23.1279C127.603 23.0847 127.296 23.121 126.996 23.121C125.449 23.121 124.572 22.3226 124.366 20.7258L124.368 20.728Z" fill="black"/>
<path d="M66.8443 6.71769C67.0495 6.66542 67.1216 6.63133 67.1915 6.63133C68.5777 6.64042 70.196 6.21318 71.2847 6.79041C72.3306 7.34492 72.5312 9.08797 73.1014 10.3083C74.0842 12.4127 75.0376 14.5285 76.0812 16.8079C76.8791 14.9762 77.6162 13.2968 78.3442 11.6151C78.777 10.6151 79.1962 9.60839 79.629 8.60846C80.5711 6.43589 80.7244 6.36772 83.1182 6.60861C83.5802 6.65633 83.6591 6.82677 83.6681 7.23129C83.7019 8.70391 83.587 10.0993 82.9514 11.506C80.1992 17.601 77.5395 23.7369 74.8866 29.8774C74.5733 30.6046 74.2194 30.9205 73.408 30.8636C72.29 30.7841 71.163 30.8432 70.027 30.8432C69.9594 30.2705 70.2952 29.8774 70.4868 29.4433C71.4763 27.2094 72.45 24.9686 73.4981 22.7642C73.825 22.0779 73.7844 21.5484 73.4688 20.8848C71.3907 16.5056 69.353 12.1082 67.3019 7.71762C67.1622 7.41764 67.0247 7.11539 66.8398 6.71542L66.8443 6.71769Z" fill="black"/>
<path d="M105.214 11.5219C105.214 8.01305 105.239 4.50422 105.194 0.995383C105.183 0.197714 105.397 -0.0522675 106.186 0.00909169C107.08 0.0818136 107.987 0.059088 108.886 0.0136368C109.499 -0.018179 109.639 0.231803 109.636 0.799943C109.621 7.96987 109.621 15.1375 109.636 22.3075C109.636 22.9551 109.436 23.171 108.798 23.1347C107.975 23.0869 107.144 23.0688 106.323 23.1369C105.471 23.2097 105.171 22.9801 105.187 22.0461C105.248 18.5373 105.212 15.0284 105.212 11.5196L105.214 11.5219Z" fill="black"/>
<path d="M14.0489 2.31573C16.7853 2.34073 18.9604 4.58148 18.9063 7.32219C18.8544 10.0629 16.6207 12.2014 13.8686 12.1491C11.1841 12.0991 9.04507 9.89472 9.0631 7.19719C9.08113 4.46103 11.2991 2.28846 14.0489 2.31346V2.31573Z" fill="black"/>
<path d="M0.185059 17.101C0.185059 16.5533 0.185059 16.0056 0.185059 15.458C0.775604 12.6945 2.90337 11.1083 5.64422 11.3923C8.02894 11.6401 9.91328 13.7944 9.91553 16.2806C9.91553 18.76 8.0312 20.9167 5.64422 21.1666C2.90112 21.4507 0.77335 19.8667 0.187313 17.101H0.185059Z" fill="black"/>
<path d="M18.6854 17.8669C18.7102 19.5804 17.3533 20.9712 15.6425 20.9871C13.9137 21.0053 12.5591 19.6736 12.5455 17.9396C12.5298 16.2011 13.8551 14.8262 15.5659 14.808C17.2541 14.7898 18.6606 16.1693 18.6832 17.8669H18.6854Z" fill="black"/>
<path d="M3.38996 2.53391C5.09398 2.53391 6.48018 3.91562 6.48018 5.61322C6.48018 7.30174 5.08045 8.69936 3.38771 8.69936C1.69271 8.69936 0.299742 7.30856 0.29298 5.61095C0.288472 3.92244 1.68369 2.53391 3.38771 2.53391H3.38996Z" fill="black"/>
<path d="M148.995 8.69028C148.995 7.21311 148.249 6.47453 146.757 6.47453C145.409 6.47453 144.699 7.13812 144.627 8.46529C144.625 8.50847 144.526 8.54483 144.472 8.58119C143.239 7.16766 142.45 6.59725 141.239 6.245C137.144 5.05191 132.949 7.27902 131.619 11.3514C131.119 12.8854 131.033 14.4626 131.166 16.0534C131.482 19.7554 133.704 22.5302 137.097 23.2892C139.95 23.9278 142.538 23.4187 144.623 20.7894C144.675 24.6527 142.605 26.8662 139.472 26.5435C138.46 26.439 137.414 26.2754 136.592 25.6709C135.719 25.03 135.284 25.3777 134.863 26.1254C134.789 26.2549 134.68 26.364 134.59 26.4844C133.348 28.1434 133.707 29.36 135.67 30.1342C141.298 32.3522 146.581 30.1978 148.421 24.9323C148.874 23.6346 149.002 22.2916 148.998 20.9235C148.984 16.8465 148.993 12.7673 148.993 8.69028H148.995ZM140.124 19.4509C137.5 19.4213 135.692 17.5283 135.688 14.8057C135.683 12.0491 137.574 10.0993 140.218 10.1334C142.84 10.1674 144.643 12.0628 144.648 14.7876C144.652 17.5669 142.795 19.4804 140.124 19.4486V19.4509Z" fill="black"/>
<path d="M38.3248 0.061357C35.5141 -0.0272729 32.6989 0.061357 29.8859 0.00908811C29.0902 -0.00681982 28.8829 0.238617 28.8919 1.02038C28.9325 4.56557 28.9099 8.11077 28.9099 11.656C28.9099 15.2012 28.9234 18.8986 28.8986 22.5188C28.8941 23.2097 29.0046 23.5642 29.8093 23.5005C30.7785 23.4256 31.7612 23.446 32.7327 23.496C33.3818 23.5278 33.5644 23.2983 33.5531 22.6597C33.5171 20.7371 33.5644 18.8123 33.5261 16.8897C33.5148 16.2874 33.6974 16.1193 34.2857 16.1352C35.6358 16.1715 36.9882 16.192 38.3361 16.1147C41.0409 15.9602 43.4031 15.0716 44.9155 12.6309C48.3979 7.01085 44.8772 0.263615 38.3271 0.0590844L38.3248 0.061357ZM38.3406 11.6719C36.9296 11.9718 35.4983 11.7537 34.0783 11.8264C33.5937 11.8514 33.5306 11.5832 33.5351 11.1946C33.5441 10.1379 33.5396 9.08342 33.5374 8.02668C33.5374 7.00857 33.5599 5.99047 33.5283 4.97236C33.5126 4.46785 33.6906 4.32241 34.1752 4.33604C35.4127 4.3724 36.6524 4.31105 37.8853 4.39058C39.8598 4.51558 41.0679 5.76094 41.2054 7.70171C41.3519 9.77655 40.2835 11.2605 38.3406 11.6719Z" fill="black"/>
<path d="M97.0229 0.288617C95.0552 -0.152259 93.0604 0.115903 91.397 0.0250004C89.6186 0.0250004 88.1535 0.0749967 86.6929 0.00454734C85.8612 -0.0363588 85.6223 0.18408 85.629 1.0522C85.6696 7.19947 85.6471 13.3468 85.6538 19.494C85.6538 20.6553 85.2571 22.2529 85.8477 22.8711C86.5915 23.6483 88.1873 23.0097 89.4067 23.1301C90.1257 23.2006 90.2993 22.9029 90.2835 22.2279C90.2452 20.3803 90.2948 18.5327 90.2565 16.6851C90.2429 16.0466 90.43 15.8466 91.0724 15.8579C92.7967 15.8875 94.521 15.9261 96.2408 15.717C100.131 15.2466 102.615 12.4468 102.84 8.25849C103.059 4.19288 100.823 1.1431 97.0184 0.29089L97.0229 0.288617ZM95.1521 11.4628C94.3317 11.6651 93.5112 11.5651 92.844 11.6082C91.1295 11.6082 90.2722 10.7833 90.2722 9.13342C90.2722 7.7767 90.3015 6.41999 90.261 5.06554C90.2407 4.42013 90.4571 4.19969 91.0949 4.23606C92.3639 4.3065 93.642 4.16106 94.911 4.34968C96.8381 4.6383 97.9043 5.83594 97.9561 7.78579C98.0079 9.70838 96.9936 11.0083 95.1521 11.4651V11.4628Z" fill="black"/>
<path d="M64.8291 8.87889C64.8291 7.38203 64.0973 6.6336 62.6337 6.6336C61.2467 6.6336 60.4759 7.36916 60.3211 8.84026C59.0746 7.30401 58.3872 6.80177 57.019 6.38589C53.2932 5.25416 49.3554 7.06766 47.7664 10.656C47.0181 12.3445 46.7588 14.1331 46.9189 15.9579C47.2232 19.4213 48.5801 22.2847 52.0242 23.5392C55.164 24.6823 58.0626 24.2369 60.4135 21.2416C60.4135 21.8189 60.4563 22.187 60.4045 22.5393C60.285 23.3665 60.6547 23.5755 61.4143 23.5187C62.1987 23.4596 62.9943 23.4506 63.7765 23.5187C64.6127 23.5937 64.8584 23.3256 64.8516 22.4597C64.8065 17.9328 64.8313 13.4058 64.8313 8.87662L64.8291 8.87889ZM55.7725 19.8054C53.23 19.7758 51.4539 17.7896 51.4945 15.0171C51.535 12.2105 53.3968 10.2833 56.0205 10.3311C58.6441 10.3788 60.4225 12.3105 60.409 15.1466C60.3932 17.9919 58.5562 19.8395 55.7748 19.8076L55.7725 19.8054Z" fill="black"/>
</g>
<defs>
<clipPath id="clip0_342_3019">
<rect width="149" height="31" fill="white"/>
</clipPath>
</defs>
</svg>
