<svg width="66" height="63" viewBox="0 0 66 63" fill="none" xmlns="http://www.w3.org/2000/svg">
<g clip-path="url(#clip0_208_861)">
<path d="M57.6983 4.61462H13.8679C9.61238 4.61462 6.1626 8.09637 6.1626 12.3913V54.6214C6.1626 58.9163 9.61238 62.3981 13.8679 62.3981H57.6983C61.9538 62.3981 65.4036 58.9163 65.4036 54.6214V12.3913C65.4036 8.09637 61.9538 4.61462 57.6983 4.61462Z" fill="black" stroke="#020202" stroke-width="3" stroke-miterlimit="10"/>
<path d="M54.1198 0.601929H8.30149C4.04597 0.601929 0.596191 4.08367 0.596191 8.37862V50.6087C0.596191 54.9036 4.04597 58.3854 8.30149 58.3854H54.1198C58.3753 58.3854 61.8251 54.9036 61.8251 50.6087V8.37862C61.8251 4.08367 58.3753 0.601929 54.1198 0.601929Z" fill="#FFC903" stroke="#020202" stroke-width="3" stroke-miterlimit="10"/>
<path d="M30.1177 44.1482V22.4794H34.1015C34.1015 23.31 33.6682 24.3694 32.8054 25.6615H34.6582C35.2744 24.4577 35.9384 23.5508 36.6501 22.9489C37.3618 22.347 38.4273 22.026 39.8467 21.9818C41.7194 21.9818 43.2501 22.7523 44.4349 24.2891C45.6197 25.826 46.2121 27.8244 46.2121 30.2761C46.2121 32.7279 45.6197 34.7182 44.4349 36.2471C43.2501 37.776 41.7194 38.5384 39.8467 38.5384C37.4572 38.5384 35.7476 37.3105 34.7178 34.8587H32.865C33.2547 35.5047 33.5449 36.0264 33.7318 36.4317C33.9186 36.837 34.0936 37.4549 34.2566 38.2856C34.4196 39.1162 34.5031 40.1033 34.5031 41.247V44.1482H30.1177ZM41.608 30.2721C41.608 26.9897 40.4033 25.3445 37.9939 25.3445C36.8608 25.3445 35.9662 25.7698 35.3062 26.6246C34.6462 27.4753 34.3162 28.6911 34.3162 30.2721C34.3162 31.8532 34.6423 33.0931 35.2903 33.9358C35.9384 34.7784 36.8409 35.1998 37.9939 35.1998C40.4033 35.1998 41.608 33.5586 41.608 30.2721Z" fill="black"/>
<path d="M46.6694 38.0689V34.3732H50.4943V38.0689H46.6694Z" fill="black"/>
<path d="M24.6468 19.4618C24.9013 19.205 25.3108 19.0766 25.8714 19.0766H29.2668V14.9154H23.6449C22.2096 14.9154 21.0884 15.3528 20.2852 16.2236C19.4821 17.0943 19.0805 18.2701 19.0805 19.7427V22.2828H15.542V26.2594H19.0805V40.7013H24.2651V30.2762C24.2651 27.7562 22.0664 27.8083 22.0664 27.8083V26.2594H28.4995V22.2828H24.2651V20.6978C24.2651 20.132 24.3924 19.7227 24.6468 19.4618Z" fill="black"/>
</g>
<defs>
<clipPath id="clip0_208_861">
<rect width="66" height="63" fill="white"/>
</clipPath>
</defs>
</svg>
