<svg width="28" height="31" viewBox="0 0 28 31" fill="none" xmlns="http://www.w3.org/2000/svg">
<g clip-path="url(#clip0_180_938)">
<path d="M24.8026 18.39L24.7915 18.3977L24.7806 18.4056L9.90836 29.2771C8.75545 30.0375 7.24196 30.2156 5.90092 29.7321C4.5923 29.2603 3.67396 28.2445 3.38675 27.0673L3.38675 5.50989C3.63918 4.34777 4.52559 3.33221 5.80995 2.86003C7.12826 2.37537 8.62277 2.55377 9.74897 3.31386L25.0798 14.1651C25.7368 14.7396 26.0664 15.5241 26.0223 16.308C25.9774 17.1071 25.5478 17.8756 24.8026 18.39Z" fill="black" stroke="black" stroke-width="2"/>
</g>
<g clip-path="url(#clip1_180_938)">
<path d="M22.418 16.8003L22.4069 16.8079L22.3959 16.8159L7.52372 27.6874C6.37081 28.4477 4.85732 28.6258 3.51627 28.1424C2.20766 27.6705 1.28931 26.6548 1.00211 25.4776L1.00211 3.92017C1.25454 2.75805 2.14095 1.74249 3.42531 1.27031C4.74362 0.785644 6.23813 0.964052 7.36433 1.72414L22.6952 12.5754C23.3522 13.1499 23.6817 13.9344 23.6377 14.7183C23.5927 15.5174 23.1632 16.2858 22.418 16.8003Z" fill="#009689" stroke="black" stroke-width="2"/>
</g>
<defs>
<clipPath id="clip0_180_938">
<rect width="24.641" height="29.4103" fill="white" transform="translate(27.0256 31) rotate(180)"/>
</clipPath>
<clipPath id="clip1_180_938">
<rect width="24.641" height="29.4103" fill="white" transform="translate(24.641 29.4103) rotate(180)"/>
</clipPath>
</defs>
</svg>
