<svg width="443" height="395" viewBox="0 0 443 395" fill="none" xmlns="http://www.w3.org/2000/svg">
<g clip-path="url(#clip0_193_412)">
<path d="M359.73 36.8397L65.07 75.7868C61.8786 76.2086 59.6339 79.1341 60.0564 82.3209L93.3879 333.786C93.8103 336.973 96.7399 339.214 99.9312 338.792L394.591 299.845C397.783 299.424 400.027 296.498 399.605 293.311L366.273 41.8463C365.851 38.6594 362.921 36.4179 359.73 36.8397Z" fill="#F9F9F9"/>
<path d="M99.1356 340.355C95.5144 340.355 92.3563 337.67 91.8691 333.991L58.5621 82.5255C58.3065 80.5852 58.8208 78.663 60.0118 77.1103C61.2029 75.5575 62.9293 74.5603 64.8722 74.3051L359.531 35.3835C363.54 34.8579 367.233 37.6811 367.763 41.6847L401.073 293.15C401.602 297.154 398.772 300.842 394.766 301.371L100.104 340.292C99.7793 340.335 99.4575 340.355 99.1386 340.355H99.1356ZM360.496 38.3239C360.307 38.3239 360.117 38.3359 359.925 38.3599L65.2632 77.2845C64.1173 77.4346 63.1007 78.0233 62.3969 78.9394C61.6931 79.8554 61.3894 80.9907 61.5427 82.132L94.8527 333.598C95.1655 335.958 97.3461 337.631 99.7071 337.313L394.369 298.391C396.733 298.079 398.402 295.905 398.089 293.544L364.779 42.0782C364.491 39.9097 362.629 38.3239 360.493 38.3239H360.496Z" fill="black"/>
<path d="M64.063 112.608L370.283 72.1576L366.274 41.8799C366.274 41.8799 369.17 35.5126 352.273 37.7442C342.276 39.0657 246.596 51.6862 168.041 61.5885C113.855 68.4183 66.2857 74.4252 65.0525 75.6836C59.1425 81.7235 59.347 79.2967 60.6072 88.8056L64.063 112.608Z" fill="black"/>
<path d="M82.0131 95.5484C84.6426 95.5484 86.7742 93.4197 86.7742 90.7939C86.7742 88.1681 84.6426 86.0395 82.0131 86.0395C79.3836 86.0395 77.252 88.1681 77.252 90.7939C77.252 93.4197 79.3836 95.5484 82.0131 95.5484Z" fill="#E23C2B"/>
<path d="M98.2426 93.5631C100.872 93.5631 103.004 91.4345 103.004 88.8087C103.004 86.1829 100.872 84.0543 98.2426 84.0543C95.6131 84.0543 93.4814 86.1829 93.4814 88.8087C93.4814 91.4345 95.6131 93.5631 98.2426 93.5631Z" fill="#E8BD0C"/>
<path d="M114.61 91.4036C117.24 91.4036 119.371 89.275 119.371 86.6492C119.371 84.0234 117.24 81.8948 114.61 81.8948C111.981 81.8948 109.849 84.0234 109.849 86.6492C109.849 89.275 111.981 91.4036 114.61 91.4036Z" fill="#6DD31E"/>
<path d="M255.776 96.6315L179.529 106.71C177.036 107.039 175.282 109.325 175.612 111.814L189.454 216.24C189.784 218.73 192.072 220.481 194.566 220.151L270.813 210.073C273.306 209.744 275.059 207.458 274.729 204.968L260.888 100.543C260.558 98.0531 258.269 96.302 255.776 96.6315Z" fill="black"/>
<path d="M271.564 215.728L195.317 225.806C192.824 226.136 191.07 228.421 191.4 230.911L193.323 245.417C193.653 247.907 195.942 249.658 198.435 249.328L274.682 239.25C277.175 238.921 278.929 236.635 278.599 234.146L276.676 219.639C276.346 217.15 274.057 215.399 271.564 215.728Z" fill="black"/>
<path d="M376.658 241.829L300.411 251.908C297.918 252.237 296.164 254.522 296.494 257.012L297.976 268.195C298.306 270.685 300.595 272.436 303.088 272.107L379.335 262.029C381.828 261.699 383.582 259.414 383.252 256.924L381.77 245.741C381.44 243.251 379.151 241.5 376.658 241.829Z" fill="black"/>
<path d="M379.979 266.887L303.732 276.965C301.238 277.295 299.485 279.58 299.815 282.07L301.297 293.253C301.627 295.743 303.916 297.494 306.409 297.164L382.656 287.086C385.149 286.757 386.903 284.471 386.573 281.982L385.09 270.798C384.76 268.309 382.472 266.558 379.979 266.887Z" fill="black"/>
<path d="M355.661 83.4292L279.414 93.5073C276.921 93.8368 275.167 96.1222 275.497 98.6118L294.627 242.936C294.957 245.425 297.246 247.176 299.739 246.847L375.986 236.769C378.48 236.439 380.233 234.154 379.903 231.664L360.773 87.3404C360.443 84.8508 358.154 83.0997 355.661 83.4292Z" fill="black"/>
<path d="M253.653 101.742L182.91 111.092C181.367 111.296 180.281 112.71 180.486 114.251L181.724 123.598C181.929 125.138 183.345 126.222 184.888 126.018L255.631 116.668C257.174 116.464 258.259 115.049 258.055 113.508L256.816 104.162C256.612 102.621 255.196 101.538 253.653 101.742Z" fill="#F9F9F9"/>
<path d="M184.502 127.559C183.558 127.559 182.644 127.253 181.883 126.667C180.965 125.967 180.379 124.949 180.225 123.808L178.989 114.464C178.839 113.32 179.143 112.187 179.843 111.271C180.544 110.355 181.564 109.77 182.707 109.616L253.447 100.273C254.593 100.123 255.727 100.423 256.644 101.126C257.562 101.826 258.148 102.844 258.302 103.985L259.538 113.329C259.688 114.473 259.384 115.605 258.684 116.521C257.983 117.437 256.963 118.023 255.82 118.176L185.08 127.52C184.887 127.544 184.695 127.559 184.502 127.559ZM254.019 103.24C253.962 103.24 253.901 103.243 253.844 103.252L183.104 112.596C182.755 112.641 182.445 112.821 182.232 113.097C182.018 113.377 181.925 113.722 181.973 114.068L183.209 123.411C183.254 123.76 183.435 124.069 183.714 124.282C183.994 124.495 184.337 124.589 184.686 124.541L255.426 115.197C255.775 115.152 256.085 114.972 256.298 114.695C256.512 114.416 256.605 114.071 256.557 113.725L255.318 104.381C255.273 104.033 255.092 103.724 254.813 103.51C254.581 103.333 254.301 103.24 254.016 103.24H254.019Z" fill="black"/>
<path d="M353.539 88.5388L282.796 97.8894C281.253 98.0933 280.168 99.5077 280.372 101.049L281.611 110.395C281.815 111.936 283.231 113.019 284.774 112.815L355.517 103.465C357.06 103.261 358.145 101.847 357.941 100.306L356.702 90.9594C356.498 89.4186 355.082 88.3349 353.539 88.5388Z" fill="#F9F9F9"/>
<path d="M284.396 114.365C282.261 114.365 280.399 112.782 280.113 110.614L278.877 101.27C278.564 98.9092 280.234 96.7377 282.595 96.4254L353.335 87.0817C355.699 86.7693 357.877 88.4362 358.189 90.7969L359.426 100.141C359.738 102.501 358.069 104.673 355.708 104.985L284.968 114.329C284.775 114.353 284.586 114.365 284.396 114.365ZM353.903 90.0461C353.846 90.0461 353.789 90.0491 353.729 90.0581L282.989 99.4018C282.27 99.4979 281.761 100.159 281.858 100.876L283.097 110.22C283.193 110.938 283.855 111.446 284.574 111.349L355.314 102.006C356.033 101.91 356.541 101.249 356.445 100.531L355.209 91.1874C355.122 90.5266 354.556 90.0461 353.906 90.0461H353.903Z" fill="black"/>
<path d="M155.892 109.835L79.6446 119.913C77.1515 120.243 75.3979 122.528 75.7279 125.018L87.9908 217.534C88.3208 220.023 90.6094 221.774 93.1026 221.445L169.35 211.367C171.843 211.037 173.596 208.752 173.266 206.262L161.004 113.746C160.674 111.257 158.385 109.506 155.892 109.835Z" fill="black"/>
<path d="M153.77 114.941L83.0267 124.292C81.4837 124.496 80.3985 125.91 80.6027 127.451L81.8416 136.797C82.0458 138.338 83.4622 139.422 85.0052 139.218L155.748 129.867C157.291 129.664 158.376 128.249 158.172 126.708L156.933 117.362C156.729 115.821 155.313 114.738 153.77 114.941Z" fill="#F9F9F9"/>
<path d="M84.6236 140.753C82.4882 140.753 80.6265 139.17 80.3407 137.002L79.1046 127.658C78.7918 125.297 80.461 123.126 82.8221 122.814L153.562 113.47C155.927 113.158 158.104 114.824 158.414 117.182L159.653 126.526C159.966 128.887 158.297 131.058 155.936 131.37L85.1951 140.714C85.0026 140.738 84.8131 140.75 84.6267 140.75L84.6236 140.753ZM154.131 116.434C154.074 116.434 154.017 116.437 153.957 116.446L83.2161 125.79C82.4972 125.886 81.9889 126.547 82.0852 127.265L83.3213 136.608C83.4176 137.326 84.0793 137.834 84.7981 137.738L155.539 128.394C156.257 128.298 156.766 127.637 156.669 126.919L155.433 117.576C155.346 116.915 154.781 116.434 154.131 116.434Z" fill="black"/>
<path d="M196.548 393.946C196.169 393.997 195.79 394.045 195.414 394.096C195.351 394.096 195.294 394.108 195.24 394.135C195.183 394.153 195.135 394.183 195.096 394.228C195.017 394.306 194.957 394.435 194.963 394.547C194.969 394.658 195.005 394.784 195.096 394.865C195.177 394.94 195.3 395.012 195.414 394.997C195.793 394.946 196.172 394.898 196.548 394.847C196.612 394.847 196.669 394.835 196.723 394.808C196.78 394.79 196.828 394.76 196.867 394.715C196.945 394.637 197.006 394.507 197 394.396C196.993 394.285 196.957 394.159 196.867 394.078C196.786 394.003 196.663 393.931 196.548 393.946Z" fill="black"/>
<path d="M129.883 123.876L90.2265 129.118C89.2385 129.249 88.5435 130.154 88.6743 131.141C88.8051 132.128 89.7121 132.822 90.7001 132.691L130.356 127.449C131.344 127.319 132.039 126.413 131.908 125.426C131.778 124.44 130.871 123.746 129.883 123.876Z" fill="black"/>
<path d="M215.756 112.526L188.623 116.112C187.635 116.243 186.94 117.149 187.071 118.135C187.202 119.122 188.109 119.816 189.097 119.685L216.23 116.099C217.218 115.968 217.913 115.063 217.782 114.076C217.651 113.089 216.744 112.395 215.756 112.526Z" fill="black"/>
<path d="M303.413 100.939L289.698 102.752C288.71 102.882 288.015 103.788 288.145 104.775C288.276 105.761 289.183 106.455 290.171 106.325L303.887 104.512C304.875 104.381 305.57 103.475 305.439 102.489C305.308 101.502 304.401 100.808 303.413 100.939Z" fill="black"/>
<path d="M419.355 21.3827L364.362 19.1099C354.404 18.6983 345.997 26.4259 345.585 36.3699L343.309 91.2858C342.897 101.23 350.635 109.625 360.593 110.036L415.586 112.309C425.544 112.721 433.951 104.993 434.363 95.049L436.639 40.1331C437.051 30.1891 429.313 21.7943 419.355 21.3827Z" fill="black"/>
<path d="M415.555 113.187L360.563 110.917C350.123 110.487 341.981 101.654 342.414 91.2294L344.688 36.3145C345.118 25.8896 353.964 17.7593 364.404 18.1918L419.396 20.4624C429.835 20.8919 437.977 29.725 437.544 40.1499L435.27 95.0647C434.84 105.49 425.995 113.62 415.555 113.187ZM364.325 19.9908C354.881 19.6004 346.878 26.9558 346.487 36.3896L344.213 91.3044C343.822 100.735 351.188 108.727 360.635 109.118L415.627 111.388C425.071 111.779 433.075 104.423 433.466 94.9897L435.74 40.0748C436.131 30.644 428.765 22.6519 419.318 22.2614L364.325 19.9908Z" fill="#020202"/>
<path d="M413.447 14.9753L358.454 12.7024C348.496 12.2909 340.089 20.0184 339.677 29.9624L337.401 84.8783C336.989 94.8223 344.727 103.217 354.685 103.629L409.679 105.902C419.637 106.313 428.043 98.5855 428.456 88.6415L430.732 33.7257C431.144 23.7817 423.405 15.3868 413.447 14.9753Z" fill="#23A093"/>
<path d="M409.648 106.781L354.656 104.511C344.216 104.081 336.074 95.248 336.507 84.823L338.781 29.9082C339.211 19.4833 348.057 11.353 358.496 11.7855L413.489 14.0561C423.928 14.4856 432.07 23.3187 431.637 33.7436L429.363 88.6584C428.933 99.0834 420.087 107.214 409.648 106.781ZM358.418 13.5845C348.974 13.1941 340.971 20.5495 340.58 29.9833L338.306 84.8981C337.915 94.3289 345.281 102.321 354.728 102.712L409.72 104.982C419.164 105.373 427.168 98.0171 427.559 88.5833L429.832 33.6685C430.223 24.2377 422.858 16.2456 413.41 15.8551L358.418 13.5845Z" fill="#020202"/>
<path d="M377.506 35.7286L362.588 35.1121C361.09 35.0502 359.826 36.2127 359.764 37.7086L358.112 77.5598C358.05 79.0557 359.214 80.3186 360.712 80.3805L375.63 80.997C377.128 81.0589 378.392 79.8964 378.454 78.4005L380.106 38.5494C380.168 37.0534 379.004 35.7905 377.506 35.7286Z" fill="black"/>
<path d="M407.144 36.9534L392.227 36.3368C390.729 36.2749 389.464 37.4374 389.402 38.9334L388.689 56.1503C388.627 57.6462 389.791 58.9091 391.289 58.971L406.206 59.5876C407.704 59.6495 408.969 58.487 409.031 56.991L409.745 39.7741C409.807 38.2782 408.642 37.0153 407.144 36.9534Z" fill="black"/>
<path d="M86.917 188.124L32.1862 182.303C22.2757 181.249 13.3859 188.417 12.3303 198.313L6.50061 252.967C5.44498 262.864 12.6233 271.741 22.5337 272.795L77.2645 278.617C87.175 279.671 96.0648 272.503 97.1204 262.606L102.95 207.952C104.006 198.056 96.8275 189.178 86.917 188.124Z" fill="black"/>
<path d="M77.1498 279.515L22.4192 273.691C12.0307 272.586 4.47839 263.245 5.58522 252.871L11.4171 198.218C12.5239 187.844 21.8778 180.302 32.2663 181.408L86.9969 187.231C97.3854 188.337 104.938 197.677 103.831 208.051L97.9989 262.705C96.8921 273.078 87.5383 280.62 77.1498 279.515ZM32.0768 183.201C22.6778 182.2 14.2142 189.024 13.2127 198.41L7.3808 253.064C6.37924 262.449 13.2127 270.901 22.6116 271.901L77.3422 277.725C86.7412 278.725 95.2048 271.901 96.2064 262.515L102.038 207.862C103.04 198.476 96.2064 190.024 86.8074 189.024L32.0768 183.201Z" fill="#020202"/>
<path d="M81.4375 181.351L26.7067 175.53C16.7962 174.475 7.90645 181.644 6.85083 191.54L1.02111 246.194C-0.0345127 256.09 7.14377 264.968 17.0543 266.022L71.785 271.843C81.6955 272.897 90.5853 265.729 91.6409 255.833L97.4707 201.179C98.5263 191.282 91.348 182.405 81.4375 181.351Z" fill="#EFEFEF"/>
<path d="M71.6727 272.742L16.9421 266.918C6.55361 265.813 -0.998656 256.472 0.108167 246.099L5.94004 191.445C7.04687 181.071 16.4007 173.53 26.7892 174.635L81.5198 180.459C91.9083 181.564 99.4606 190.904 98.3538 201.278L92.5219 255.932C91.4151 266.306 82.0612 273.847 71.6727 272.742ZM26.5997 176.425C17.2008 175.425 8.73718 182.249 7.73562 191.634L1.90074 246.288C0.899185 255.674 7.73261 264.125 17.1316 265.125L71.8622 270.949C81.2612 271.949 89.7248 265.125 90.7263 255.74L96.5582 201.086C97.5597 191.7 90.7263 183.249 81.3273 182.249L26.5967 176.425H26.5997Z" fill="#020202"/>
<path d="M69.9163 228.138C69.402 232.947 68.8907 237.755 68.3764 242.567C68.3614 242.711 68.3463 242.855 68.3283 242.999C68.1027 244.777 67.1523 245.642 65.3567 245.597C63.3626 245.549 61.3715 245.438 59.3804 245.348C55.3321 245.165 51.2838 244.978 47.2325 244.789C43.6503 244.621 40.0682 244.429 36.483 244.291C34.8709 244.227 33.6859 243.576 32.958 242.116C32.7445 241.687 32.4558 241.296 32.2001 240.885C30.9429 238.848 29.6977 236.803 28.4225 234.779C27.5202 233.343 27.1352 231.853 27.3337 230.117C28.2901 221.687 29.1594 213.25 30.0617 204.813C30.0947 204.495 30.1489 204.177 30.2391 203.87C30.597 202.654 31.4512 201.963 32.7144 201.981C34.8048 202.008 36.8951 202.092 38.9824 202.158C42.3089 202.263 45.6384 202.375 48.9649 202.483C52.165 202.588 55.3622 202.708 58.5624 202.795C60.2346 202.84 61.6151 203.459 62.8573 204.582C65.4349 206.907 68.0696 209.165 70.6893 211.439C71.3389 212.004 71.5826 212.649 71.4833 213.526C70.9359 218.395 70.4306 223.269 69.9103 228.144L69.9163 228.138ZM67.0019 228.072C67.453 223.852 67.9042 219.635 68.3523 215.415C68.4817 214.196 68.0997 213.734 66.9026 213.673C63.9942 213.526 61.0858 213.391 58.1774 213.253C53.9366 213.049 49.6927 212.845 45.4519 212.643C43.4277 212.547 41.4036 212.451 39.3764 212.367C38.5252 212.331 38.1282 212.64 37.9267 213.46C37.8756 213.661 37.8545 213.872 37.8335 214.079C36.9613 222.227 36.092 230.379 35.2228 238.527C35.0213 240.428 35.4755 240.957 37.4004 241.047C39.3283 241.137 41.2562 241.221 43.1871 241.314C50.0476 241.648 56.9111 241.987 63.7716 242.323C64.8725 242.377 65.4229 241.951 65.6274 240.873C65.6635 240.683 65.6785 240.491 65.6996 240.299C66.1357 236.223 66.5688 232.151 67.0049 228.075L67.0019 228.072ZM65.7146 210.616C65.7507 210.565 65.7838 210.514 65.8199 210.463C65.6815 210.286 65.5642 210.081 65.3988 209.931C64.1356 208.79 62.8663 207.655 61.5941 206.522C60.9354 205.934 60.1985 205.45 59.3052 205.369C58.0119 205.249 56.7096 205.195 55.4073 205.15C49.395 204.933 43.3826 204.729 37.3703 204.525C36.4078 204.492 35.4424 204.462 34.4769 204.474C34.2724 204.474 33.9596 204.63 33.8964 204.792C33.8393 204.936 34.0077 205.237 34.1581 205.387C35.0724 206.312 36.0349 207.192 36.9372 208.129C37.7282 208.949 38.6486 209.379 39.7915 209.427C42.733 209.547 45.6745 209.7 48.613 209.838C53.2899 210.057 57.9668 210.271 62.6438 210.487C63.6664 210.535 64.692 210.574 65.7146 210.619V210.616Z" fill="black"/>
<path d="M42.3632 235.863C42.9557 230.313 43.5422 224.804 44.1347 219.263C43.443 219.128 42.7662 218.993 42.0955 218.863C41.9632 217.929 42.5948 217.079 43.4941 217.097C45.5995 217.139 47.7078 217.233 49.8102 217.332C49.9485 217.338 50.123 217.53 50.1982 217.677C51.7231 220.614 53.2359 223.555 54.7518 226.495C55.5037 227.952 56.2526 229.408 57.0045 230.865C57.0617 230.976 57.1279 231.081 57.2452 231.286C57.6602 227.393 58.0632 223.609 58.4753 219.764C57.9038 219.635 57.3173 219.476 56.7218 219.374C56.3459 219.308 56.2797 219.137 56.3759 218.806C56.5534 218.206 57.0797 217.728 57.7204 217.749C59.7265 217.815 61.7326 217.926 63.7267 218.019C63.8891 219.053 63.5673 219.476 62.5898 219.572C61.888 219.642 61.499 220.032 61.4228 220.741C60.8183 226.399 60.2107 232.055 59.6212 237.713C59.5791 238.115 59.4257 238.302 59.0558 238.413C58.0332 238.725 57.0166 238.995 55.9338 238.737C55.2421 238.572 54.7458 238.145 54.421 237.554C53.6329 236.118 52.872 234.671 52.1321 233.211C50.4809 229.943 48.8538 226.663 47.2146 223.39C47.1785 223.321 47.1364 223.254 47.0491 223.113C47.004 223.293 46.9589 223.402 46.9469 223.513C46.5318 227.381 46.1258 231.247 45.6987 235.112C45.6596 235.46 45.7739 235.596 46.0837 235.692C46.8025 235.914 47.5093 236.166 48.2161 236.407C48.0236 237.19 47.5454 237.638 46.7514 237.689C46.1288 237.728 45.5002 237.674 44.8746 237.647C43.3948 237.581 41.9181 237.491 40.4383 237.437C39.9992 237.422 39.9541 237.22 40.0623 236.884C40.2007 236.455 40.4593 236.166 40.9406 236.106C41.4007 236.046 41.8579 235.953 42.3482 235.869L42.3632 235.863Z" fill="black"/>
<path d="M408.303 270.945L149.123 337.735C134.863 341.41 126.286 355.933 129.966 370.173C133.646 384.413 148.189 392.977 162.449 389.303L421.629 322.513C435.889 318.838 444.466 304.316 440.786 290.076C437.106 275.836 422.563 267.271 408.303 270.945Z" fill="black"/>
<path d="M155.74 391.507C150.795 391.507 145.926 390.191 141.556 387.618C135.11 383.821 130.53 377.745 128.659 370.51C126.788 363.275 127.853 355.742 131.655 349.306C135.456 342.869 141.541 338.295 148.789 336.427L407.966 269.634C422.927 265.78 438.239 274.796 442.098 289.733C443.968 296.968 442.904 304.5 439.102 310.937C435.3 317.373 429.216 321.947 421.967 323.816L421.63 322.506L421.967 323.816L162.79 390.609C160.456 391.21 158.089 391.507 155.74 391.507ZM414.962 271.442C412.875 271.442 410.755 271.703 408.64 272.247L149.463 339.04C142.915 340.728 137.42 344.861 133.986 350.675C130.551 356.49 129.591 363.293 131.279 369.831C132.969 376.37 137.108 381.857 142.93 385.287C148.753 388.717 155.569 389.678 162.113 387.99L421.29 321.197C427.838 319.509 433.333 315.379 436.768 309.561C440.203 303.747 441.162 296.944 439.475 290.405C436.533 279.019 426.226 271.442 414.962 271.442Z" fill="black"/>
<path d="M408.003 267.342L148.823 334.131C134.563 337.806 125.986 352.329 129.666 366.569C133.346 380.809 147.889 389.373 162.149 385.699L421.329 318.909C435.589 315.234 444.166 300.712 440.486 286.472C436.806 272.232 422.263 263.667 408.003 267.342Z" fill="#FE91E8"/>
<path d="M155.439 387.903C150.495 387.903 145.625 386.587 141.255 384.013C134.81 380.217 130.229 374.141 128.358 366.906C126.487 359.671 127.552 352.138 131.354 345.702C135.156 339.265 141.24 334.691 148.489 332.823L407.666 266.029C422.626 262.173 437.938 271.192 441.797 286.128C443.668 293.364 442.603 300.896 438.801 307.333C434.999 313.769 428.915 318.343 421.666 320.211L421.329 318.902L421.666 320.211L162.489 387.005C160.155 387.606 157.788 387.903 155.439 387.903ZM414.662 267.837C412.574 267.837 410.454 268.099 408.339 268.642L149.162 335.436C142.615 337.124 137.12 341.256 133.685 347.071C130.25 352.886 129.291 359.689 130.978 366.227C132.668 372.766 136.807 378.253 142.63 381.683C148.452 385.113 155.268 386.071 161.813 384.386L420.99 317.592C427.537 315.904 433.032 311.775 436.467 305.957C439.902 300.142 440.861 293.34 439.174 286.801C436.233 275.415 425.925 267.837 414.662 267.837Z" fill="black"/>
<path d="M160.901 358.694C160.42 356.931 160.609 355.313 161.467 353.838C162.324 352.363 163.653 351.405 165.452 350.967C167.241 350.483 168.859 350.678 170.315 351.558C171.768 352.438 172.712 353.766 173.148 355.541C173.615 357.343 173.437 358.959 172.613 360.382C171.792 361.806 170.46 362.755 168.622 363.23C166.793 363.701 165.166 363.515 163.74 362.668C162.315 361.824 161.367 360.499 160.901 358.697V358.694ZM170.86 356.129C170.532 354.865 169.921 353.922 169.025 353.306C168.132 352.688 167.1 352.531 165.933 352.832C164.766 353.132 163.939 353.769 163.449 354.745C162.958 355.721 162.877 356.838 163.205 358.106C163.527 359.349 164.137 360.277 165.04 360.893C165.939 361.509 166.974 361.668 168.141 361.364C169.308 361.064 170.132 360.427 170.616 359.454C171.1 358.481 171.181 357.373 170.86 356.129Z" fill="black"/>
<path d="M175.858 358.118L174.417 352.54L176.469 352.012L177.783 357.103C178.096 358.313 178.733 358.794 179.699 358.544C180.415 358.358 180.836 357.947 180.956 357.307C181.092 356.676 181.049 355.934 180.83 355.081L179.813 351.15L181.864 350.621L184.027 358.986L182.108 359.481C181.97 358.944 182.066 358.232 182.4 357.346L181.44 357.592C181.302 359.181 180.604 360.136 179.347 360.46C178.496 360.68 177.759 360.581 177.142 360.16C176.526 359.74 176.096 359.058 175.852 358.118H175.858Z" fill="black"/>
<path d="M186.809 355.994L185.612 351.357L183.795 351.826L183.383 350.231L185.2 349.762L184.523 347.143L186.574 346.615L187.251 349.234L189.471 348.663L189.883 350.258L187.663 350.828L188.779 355.144C188.911 355.661 189.236 355.85 189.754 355.718L191.537 355.259L191.97 356.937L189.48 357.58C188.806 357.754 188.238 357.7 187.772 357.421C187.305 357.142 186.983 356.664 186.809 355.994Z" fill="black"/>
<path d="M191.011 346.849L190.473 344.765L192.659 344.2L193.198 346.281L191.011 346.846V346.849ZM193.601 356.52L191.438 348.155L193.474 347.63L195.637 355.994L193.601 356.52Z" fill="black"/>
<path d="M198.124 355.355L195.086 343.596L197.138 343.068L200.175 354.826L198.124 355.355Z" fill="black"/>
<path d="M201.387 352.219L203.129 351.108C203.586 352.042 204.386 352.36 205.529 352.066C206.001 351.946 206.344 351.766 206.567 351.528C206.786 351.291 206.858 351.024 206.78 350.72C206.711 350.45 206.561 350.258 206.332 350.138C206.103 350.018 205.748 349.972 205.264 349.999L204.1 350.084C203.132 350.129 202.377 350.027 201.838 349.771C201.3 349.516 200.933 349.011 200.741 348.264C200.542 347.492 200.696 346.783 201.204 346.137C201.712 345.491 202.467 345.041 203.466 344.783C204.395 344.542 205.207 344.539 205.902 344.774C206.597 345.008 207.123 345.38 207.484 345.897L205.941 347.083C205.409 346.314 204.687 346.044 203.778 346.278C203.342 346.392 203.023 346.567 202.828 346.801C202.632 347.038 202.569 347.293 202.642 347.576C202.705 347.822 202.846 347.993 203.06 348.086C203.273 348.179 203.643 348.212 204.163 348.188L205.309 348.107C206.13 348.05 206.876 348.158 207.544 348.426C208.209 348.684 208.642 349.201 208.84 349.972C209.051 350.789 208.888 351.528 208.353 352.186C207.818 352.844 206.979 353.321 205.833 353.616C204.879 353.862 203.992 353.859 203.168 353.616C202.344 353.369 201.748 352.904 201.381 352.222L201.387 352.219Z" fill="black"/>
<path d="M213.776 346.843C213.436 345.533 213.482 344.386 213.912 343.404C214.339 342.422 215.058 341.8 216.068 341.542C217.37 341.205 218.456 341.638 219.328 342.833L220.303 342.581C219.885 342.212 219.536 341.806 219.262 341.362C218.986 340.92 218.739 340.277 218.522 339.436L218.065 337.673L220.116 337.145L223.154 348.903L221.286 349.384C221.172 348.936 221.268 348.291 221.575 347.447L220.616 347.693C220.486 348.396 220.267 348.972 219.96 349.429C219.653 349.885 219.118 350.21 218.357 350.408C217.346 350.669 216.417 350.468 215.566 349.81C214.715 349.153 214.116 348.161 213.776 346.84V346.843ZM220.119 345.209C219.885 344.302 219.512 343.656 219.001 343.275C218.489 342.893 217.915 342.785 217.274 342.95C215.873 343.311 215.412 344.428 215.897 346.296C216.384 348.188 217.331 348.954 218.733 348.594C219.371 348.429 219.822 348.053 220.083 347.468C220.345 346.879 220.357 346.128 220.119 345.209Z" fill="black"/>
<path d="M223.055 338.592L222.517 336.508L224.703 335.943L225.242 338.028L223.055 338.592ZM225.645 348.264L223.482 339.899L225.518 339.373L227.681 347.738L225.645 348.264Z" fill="black"/>
<path d="M229.858 349.02C229.681 348.336 229.942 347.75 230.64 347.26L230.457 346.555C229.81 346.506 229.419 346.218 229.284 345.693C229.1 344.987 229.413 344.365 230.216 343.821L230.038 343.134C229.275 342.818 228.793 342.272 228.595 341.5C228.378 340.659 228.52 339.869 229.022 339.124C229.524 338.379 230.249 337.884 231.202 337.64C231.942 337.448 232.61 337.439 233.206 337.607C233.798 337.775 234.264 338.1 234.604 338.571L235.278 338.397C235.2 337.869 235.236 337.466 235.377 337.19C235.521 336.914 235.801 336.721 236.216 336.616L236.703 336.49L237.116 338.085L236.291 338.298C235.979 338.379 235.777 338.499 235.693 338.658C235.609 338.818 235.606 339.121 235.684 339.566L235.714 339.827C235.873 340.764 235.702 341.587 235.203 342.287C234.703 342.986 233.963 343.467 232.989 343.716C232.273 343.903 231.69 343.945 231.248 343.842C230.829 344.119 230.658 344.407 230.736 344.707C230.811 344.999 231.118 345.074 231.657 344.936L235.272 344.005C236.102 343.791 236.839 343.848 237.488 344.176C238.135 344.506 238.55 345.023 238.734 345.729C238.932 346.5 238.827 347.176 238.415 347.756C238.003 348.333 237.38 348.729 236.55 348.945L232.327 350.033C231.633 350.213 231.076 350.198 230.655 349.987C230.237 349.777 229.972 349.456 229.858 349.02ZM233.681 341.56C233.9 341.187 233.948 340.758 233.825 340.277C233.702 339.797 233.452 339.439 233.073 339.208C232.697 338.977 232.267 338.923 231.783 339.046C231.302 339.169 230.95 339.424 230.733 339.809C230.517 340.193 230.469 340.626 230.595 341.109C230.718 341.59 230.965 341.941 231.335 342.164C231.705 342.386 232.135 342.431 232.628 342.305C233.112 342.182 233.461 341.932 233.684 341.557L233.681 341.56ZM232.529 348.315L235.792 347.474C236.553 347.278 236.86 346.888 236.709 346.305C236.565 345.744 236.111 345.563 235.347 345.759L231.578 346.729C231.281 347.008 231.184 347.35 231.287 347.753C231.428 348.303 231.84 348.489 232.526 348.312L232.529 348.315Z" fill="black"/>
<path d="M237.756 334.802L237.218 332.718L239.404 332.153L239.943 334.234L237.756 334.799V334.802ZM240.346 344.473L238.183 336.109L240.219 335.583L242.382 343.948L240.346 344.473Z" fill="black"/>
<path d="M245.158 340.959L243.961 336.322L242.144 336.79L241.732 335.196L243.549 334.727L242.872 332.108L244.924 331.579L245.6 334.198L247.82 333.628L248.232 335.223L246.012 335.796L247.128 340.112C247.261 340.629 247.585 340.818 248.103 340.686L249.886 340.226L250.319 341.905L247.829 342.548C247.155 342.722 246.587 342.668 246.121 342.389C245.654 342.109 245.333 341.635 245.158 340.962V340.959Z" fill="black"/>
<path d="M250.891 339.463C250.614 338.388 250.891 337.487 251.718 336.76C252.533 336.024 253.727 335.373 255.3 334.799L255.225 334.514C254.999 333.64 254.377 333.336 253.357 333.598C252.268 333.877 251.727 334.514 251.733 335.502L249.739 335.496C249.655 334.802 249.898 334.12 250.467 333.454C251.035 332.787 251.865 332.315 252.951 332.033C254.106 331.736 255.056 331.775 255.805 332.147C256.554 332.522 257.06 333.219 257.324 334.237L258.196 337.613C258.251 337.827 258.317 337.956 258.395 338.001C258.473 338.046 258.618 338.043 258.831 337.986L259.622 337.782L260.037 339.394L259.162 339.62C258.488 339.794 258.007 339.785 257.712 339.599C257.417 339.412 257.174 338.986 256.978 338.319L256.253 338.505C256.232 339.169 256.052 339.734 255.706 340.205C255.36 340.677 254.858 340.998 254.196 341.166C253.387 341.374 252.683 341.326 252.079 341.022C251.474 340.719 251.077 340.196 250.885 339.457L250.891 339.463ZM255.82 336.814L255.646 336.142C254.62 336.526 253.877 336.923 253.417 337.334C252.954 337.745 252.792 338.208 252.924 338.725C253.011 339.061 253.189 339.292 253.453 339.421C253.721 339.551 254.055 339.563 254.458 339.457C255.008 339.316 255.417 339.01 255.685 338.541C255.953 338.073 255.998 337.496 255.82 336.814Z" fill="black"/>
<path d="M260.567 336.289L259.126 330.711L261.177 330.183L262.492 335.274C262.804 336.484 263.442 336.965 264.407 336.715C265.123 336.529 265.544 336.118 265.665 335.478C265.8 334.847 265.758 334.105 265.538 333.252L264.522 329.321L266.573 328.792L268.735 337.157L266.817 337.652C266.678 337.115 266.774 336.403 267.108 335.517L266.149 335.763C266.011 337.352 265.31 338.307 264.056 338.631C263.204 338.851 262.467 338.752 261.851 338.331C261.234 337.911 260.804 337.229 260.561 336.289H260.567Z" fill="black"/>
<path d="M270.149 336.793L272.11 331.685L268.137 328.39L270.591 327.756L271.478 328.549C272.02 329.017 272.423 329.768 272.687 330.799L273.496 330.591C273.301 329.828 273.379 328.954 273.734 327.969L274.143 326.843L276.381 326.266L274.489 331.09L278.763 334.574L276.272 335.217L275.184 334.262C274.627 333.772 274.221 333.03 273.963 332.033L273.154 332.24C273.325 332.949 273.229 333.808 272.871 334.82L272.372 336.22L270.152 336.793H270.149Z" fill="black"/>
<path d="M282.577 329.129C282.24 327.831 282.363 326.663 282.937 325.633C283.515 324.599 284.42 323.924 285.653 323.608C286.886 323.293 288.005 323.443 289.01 324.068C290.014 324.693 290.685 325.654 291.019 326.954C291.359 328.264 291.236 329.435 290.652 330.462C290.069 331.489 289.166 332.162 287.942 332.477C286.73 332.79 285.617 332.631 284.598 331.997C283.578 331.363 282.904 330.408 282.573 329.132L282.577 329.129ZM288.911 327.531C288.679 326.636 288.306 325.993 287.795 325.606C287.284 325.218 286.712 325.104 286.083 325.266C285.434 325.434 284.983 325.81 284.733 326.392C284.483 326.978 284.474 327.717 284.706 328.612C284.935 329.498 285.298 330.126 285.795 330.498C286.291 330.871 286.865 330.976 287.515 330.808C288.165 330.639 288.619 330.273 288.872 329.705C289.124 329.138 289.139 328.414 288.911 327.528V327.531Z" fill="black"/>
<path d="M294.003 330.645L291.84 322.281L293.741 321.791C293.943 322.575 293.895 323.467 293.588 324.464L294.547 324.218C294.511 323.296 294.656 322.56 294.974 322.013C295.293 321.467 295.862 321.085 296.68 320.875C296.893 320.821 297.104 320.782 297.317 320.764L297.859 322.863C297.588 322.884 297.281 322.942 296.932 323.032C296.036 323.263 295.447 323.662 295.17 324.23C294.89 324.798 294.89 325.612 295.164 326.678L296.054 330.12L294.003 330.648V330.645Z" fill="black"/>
<path d="M300.52 330.811C300.343 330.126 300.604 329.54 301.302 329.051L301.119 328.345C300.472 328.297 300.081 328.008 299.946 327.483C299.762 326.777 300.075 326.155 300.878 325.612L300.701 324.924C299.937 324.608 299.455 324.062 299.257 323.29C299.04 322.449 299.182 321.659 299.684 320.914C300.183 320.169 300.911 319.674 301.865 319.431C302.604 319.241 303.272 319.229 303.868 319.397C304.46 319.566 304.926 319.89 305.266 320.362L305.94 320.187C305.862 319.659 305.895 319.256 306.039 318.98C306.184 318.704 306.463 318.511 306.878 318.406L307.366 318.28L307.778 319.875L306.954 320.088C306.641 320.169 306.442 320.289 306.358 320.449C306.274 320.608 306.271 320.911 306.349 321.356L306.379 321.617C306.538 322.554 306.367 323.377 305.868 324.077C305.368 324.78 304.629 325.257 303.654 325.506C302.935 325.693 302.355 325.735 301.913 325.633C301.495 325.909 301.323 326.197 301.401 326.498C301.477 326.789 301.783 326.864 302.322 326.726L305.94 325.795C306.77 325.582 307.507 325.639 308.154 325.966C308.8 326.296 309.215 326.813 309.399 327.519C309.597 328.291 309.492 328.966 309.08 329.546C308.668 330.123 308.045 330.519 307.215 330.735L302.992 331.823C302.298 332.003 301.741 331.988 301.323 331.778C300.905 331.567 300.637 331.246 300.526 330.811H300.52ZM304.343 323.35C304.562 322.978 304.611 322.548 304.487 322.068C304.364 321.587 304.111 321.23 303.735 320.998C303.359 320.767 302.929 320.713 302.445 320.836C301.961 320.959 301.612 321.215 301.395 321.599C301.179 321.983 301.131 322.416 301.257 322.899C301.38 323.38 301.627 323.731 301.997 323.954C302.367 324.176 302.797 324.221 303.29 324.095C303.771 323.972 304.123 323.722 304.346 323.347L304.343 323.35ZM303.191 330.105L306.454 329.264C307.218 329.069 307.522 328.678 307.372 328.095C307.227 327.534 306.773 327.354 306.009 327.549L302.24 328.519C301.943 328.798 301.846 329.141 301.949 329.543C302.09 330.093 302.502 330.279 303.188 330.102L303.191 330.105Z" fill="black"/>
<path d="M309.525 324.35C309.248 323.275 309.525 322.374 310.352 321.647C311.167 320.911 312.361 320.256 313.934 319.683L313.859 319.397C313.634 318.523 313.011 318.22 311.991 318.481C310.903 318.761 310.361 319.397 310.367 320.386L308.373 320.38C308.289 319.686 308.533 319.004 309.101 318.337C309.669 317.671 310.5 317.199 311.585 316.917C312.74 316.619 313.691 316.658 314.44 317.031C315.189 317.406 315.694 318.103 315.959 319.121L316.831 322.497C316.885 322.71 316.951 322.839 317.029 322.884C317.107 322.93 317.252 322.927 317.465 322.869L318.256 322.665L318.671 324.278L317.796 324.503C317.122 324.677 316.641 324.672 316.347 324.482C316.052 324.296 315.808 323.87 315.613 323.203L314.891 323.389C314.87 324.05 314.689 324.617 314.343 325.089C313.998 325.561 313.495 325.882 312.834 326.05C312.024 326.257 311.321 326.209 310.716 325.906C310.112 325.603 309.715 325.08 309.522 324.341L309.525 324.35ZM314.455 321.701L314.28 321.028C313.255 321.413 312.512 321.809 312.052 322.221C311.588 322.632 311.426 323.095 311.558 323.611C311.646 323.948 311.823 324.179 312.088 324.308C312.355 324.437 312.689 324.449 313.092 324.344C313.643 324.203 314.052 323.897 314.316 323.428C314.584 322.96 314.629 322.383 314.452 321.701H314.455Z" fill="black"/>
<path d="M320.022 323.939L317.859 315.574L319.76 315.085C319.872 315.607 319.76 316.322 319.435 317.229L320.395 316.983C320.434 316.304 320.626 315.7 320.966 315.169C321.306 314.64 321.802 314.292 322.455 314.123C323.384 313.883 324.169 313.973 324.804 314.397C325.439 314.817 325.884 315.517 326.133 316.49L327.556 321.998L325.505 322.527L324.185 317.421C323.875 316.223 323.216 315.754 322.205 316.016C321.622 316.166 321.234 316.451 321.045 316.869C320.759 317.478 320.774 318.385 321.081 319.584L322.07 323.413L320.019 323.942L320.022 323.939Z" fill="black"/>
<path d="M327.376 311.709L326.837 309.624L329.024 309.06L329.562 311.141L327.376 311.706V311.709ZM329.965 321.38L327.803 313.015L329.839 312.49L332.002 320.854L329.965 321.38Z" fill="black"/>
<path d="M333.193 318.253L334.934 317.142C335.391 318.076 336.192 318.394 337.334 318.1C337.807 317.98 338.15 317.8 338.372 317.565C338.595 317.331 338.664 317.061 338.586 316.757C338.516 316.487 338.369 316.295 338.141 316.175C337.912 316.055 337.554 316.01 337.073 316.037L335.909 316.121C334.94 316.169 334.185 316.064 333.647 315.808C333.109 315.553 332.742 315.051 332.549 314.301C332.351 313.529 332.504 312.82 333.012 312.174C333.521 311.528 334.276 311.078 335.274 310.823C336.204 310.582 337.019 310.579 337.713 310.814C338.408 311.048 338.935 311.42 339.295 311.937L337.756 313.123C337.22 312.354 336.501 312.084 335.593 312.318C335.154 312.432 334.838 312.607 334.643 312.841C334.447 313.078 334.384 313.334 334.456 313.616C334.519 313.862 334.661 314.033 334.874 314.126C335.091 314.22 335.458 314.253 335.978 314.229L337.124 314.147C337.945 314.09 338.691 314.199 339.359 314.466C340.023 314.724 340.456 315.241 340.655 316.013C340.865 316.83 340.703 317.568 340.168 318.226C339.632 318.884 338.793 319.358 337.65 319.656C336.697 319.902 335.81 319.899 334.985 319.656C334.161 319.409 333.566 318.944 333.199 318.262L333.193 318.253Z" fill="black"/>
<path d="M342.056 315.968C341.78 314.892 342.056 313.991 342.883 313.264C343.698 312.529 344.893 311.874 346.466 311.303L346.39 311.018C346.165 310.144 345.542 309.841 344.523 310.102C343.434 310.381 342.892 311.018 342.898 312.006L340.907 312C340.823 311.306 341.067 310.624 341.635 309.958C342.204 309.291 343.034 308.819 344.12 308.537C345.274 308.24 346.225 308.279 346.974 308.651C347.723 309.027 348.228 309.723 348.493 310.742L349.365 314.117C349.419 314.331 349.485 314.46 349.563 314.505C349.642 314.55 349.786 314.547 350 314.49L350.791 314.286L351.206 315.898L350.33 316.124C349.657 316.298 349.175 316.289 348.881 316.103C348.586 315.916 348.342 315.49 348.147 314.823L347.422 315.009C347.401 315.673 347.22 316.238 346.875 316.709C346.529 317.181 346.026 317.502 345.365 317.673C344.556 317.881 343.852 317.833 343.247 317.529C342.643 317.226 342.246 316.703 342.053 315.965L342.056 315.968ZM346.986 313.318L346.811 312.646C345.786 313.03 345.043 313.427 344.583 313.838C344.12 314.25 343.957 314.712 344.089 315.229C344.177 315.565 344.354 315.796 344.619 315.925C344.887 316.055 345.22 316.067 345.623 315.962C346.174 315.82 346.583 315.514 346.851 315.045C347.118 314.577 347.163 314 346.986 313.318Z" fill="black"/>
<path d="M352.577 313.277L351.38 308.639L349.563 309.108L349.151 307.513L350.968 307.044L350.291 304.425L352.343 303.897L353.019 306.516L355.239 305.942L355.651 307.537L353.431 308.111L354.547 312.427C354.679 312.94 355.004 313.132 355.522 313L357.305 312.541L357.738 314.22L355.248 314.862C354.574 315.036 354.006 314.982 353.54 314.703C353.073 314.424 352.752 313.946 352.577 313.277Z" fill="black"/>
<path d="M356.779 304.131L356.24 302.047L358.427 301.482L358.965 303.566L356.779 304.131ZM359.368 313.802L357.206 305.438L359.242 304.912L361.404 313.276L359.368 313.802Z" fill="black"/>
<path d="M362.222 308.603C361.886 307.303 362.009 306.137 362.583 305.107C363.161 304.074 364.063 303.398 365.299 303.083C366.533 302.764 367.651 302.918 368.656 303.542C369.66 304.167 370.331 305.128 370.668 306.429C371.008 307.738 370.885 308.906 370.301 309.937C369.718 310.964 368.815 311.637 367.591 311.952C366.379 312.264 365.263 312.105 364.247 311.471C363.227 310.838 362.553 309.883 362.222 308.606V308.603ZM368.557 307.005C368.325 306.11 367.952 305.468 367.441 305.08C366.927 304.693 366.358 304.579 365.729 304.741C365.08 304.909 364.629 305.284 364.379 305.867C364.129 306.45 364.12 307.192 364.352 308.087C364.581 308.973 364.941 309.6 365.441 309.973C365.94 310.345 366.511 310.45 367.161 310.282C367.811 310.114 368.265 309.747 368.518 309.18C368.77 308.612 368.785 307.888 368.557 307.002V307.005Z" fill="black"/>
<path d="M373.646 310.12L371.483 301.755L373.384 301.266C373.496 301.785 373.384 302.5 373.059 303.41L374.019 303.164C374.058 302.485 374.247 301.881 374.59 301.35C374.93 300.821 375.426 300.47 376.079 300.305C377.009 300.064 377.793 300.154 378.428 300.578C379.063 300.998 379.508 301.698 379.758 302.671L381.18 308.18L379.129 308.708L377.809 303.602C377.499 302.404 376.84 301.936 375.829 302.194C375.246 302.344 374.858 302.629 374.669 303.05C374.383 303.659 374.398 304.564 374.705 305.765L375.694 309.594L373.643 310.123L373.646 310.12Z" fill="black"/>
<path d="M383.589 307.558L381.427 299.193L383.328 298.704C383.439 299.223 383.328 299.938 383.003 300.848L383.962 300.602C384.001 299.923 384.194 299.32 384.534 298.788C384.874 298.259 385.37 297.908 386.022 297.743C386.952 297.502 387.737 297.593 388.371 298.016C389.006 298.436 389.451 299.136 389.701 300.109L391.123 305.618L389.072 306.146L387.752 301.04C387.442 299.842 386.783 299.374 385.773 299.635C385.189 299.785 384.804 300.07 384.612 300.488C384.329 301.098 384.341 302.005 384.648 303.203L385.637 307.032L383.586 307.561L383.589 307.558Z" fill="black"/>
<path d="M391.875 300.962C391.538 299.653 391.647 298.488 392.2 297.466C392.754 296.445 393.617 295.784 394.784 295.484C395.972 295.178 397.03 295.334 397.954 295.947C398.877 296.562 399.503 297.502 399.831 298.767C399.876 298.947 399.921 299.163 399.963 299.413L394.041 300.938C394.275 301.701 394.624 302.23 395.096 302.521C395.566 302.812 396.104 302.879 396.709 302.722C397.629 302.485 398.182 301.806 398.369 300.683L400.396 300.896C400.164 302.686 399.07 303.837 397.106 304.341C395.86 304.663 394.766 304.524 393.821 303.924C392.877 303.326 392.227 302.338 391.872 300.959L391.875 300.962ZM393.716 299.413L397.536 298.427C397.349 297.842 397.045 297.424 396.627 297.175C396.212 296.923 395.728 296.869 395.178 297.013C394.663 297.145 394.269 297.427 394.005 297.854C393.74 298.28 393.641 298.803 393.716 299.416V299.413Z" fill="black"/>
<path d="M402.899 302.581L399.861 290.823L401.912 290.294L404.95 302.053L402.899 302.581Z" fill="black"/>
<path d="M406.162 299.449L407.903 298.337C408.36 299.271 409.16 299.59 410.303 299.295C410.775 299.175 411.118 298.995 411.341 298.758C411.56 298.521 411.633 298.253 411.554 297.95C411.485 297.683 411.335 297.487 411.106 297.367C410.878 297.247 410.52 297.202 410.039 297.229L408.875 297.313C407.906 297.358 407.151 297.256 406.613 297.001C406.075 296.746 405.708 296.244 405.515 295.493C405.317 294.721 405.47 294.012 405.978 293.367C406.487 292.721 407.241 292.27 408.24 292.012C409.172 291.772 409.984 291.769 410.679 292.003C411.374 292.237 411.9 292.61 412.261 293.126L410.721 294.313C410.186 293.544 409.467 293.274 408.559 293.508C408.123 293.622 407.804 293.796 407.608 294.03C407.413 294.268 407.35 294.523 407.422 294.805C407.485 295.052 407.626 295.223 407.84 295.316C408.054 295.409 408.423 295.442 408.944 295.418L410.09 295.337C410.911 295.28 411.657 295.388 412.324 295.655C412.989 295.914 413.422 296.43 413.621 297.202C413.831 298.019 413.669 298.758 413.133 299.416C412.598 300.073 411.759 300.551 410.613 300.845C409.66 301.092 408.772 301.089 407.948 300.845C407.124 300.599 406.529 300.133 406.162 299.452V299.449Z" fill="black"/>
<path d="M245.519 10.0773L109.646 4.46169C94.9315 3.85354 82.5092 15.2723 81.9002 29.9662C81.2912 44.6602 92.7261 57.0649 107.441 57.6731L243.313 63.2886C258.028 63.8968 270.45 52.478 271.059 37.7841C271.668 23.0902 260.233 10.6854 245.519 10.0773Z" fill="black"/>
<path d="M244.431 64.649C244.04 64.649 243.652 64.64 243.258 64.625L107.386 59.0175C99.9089 58.7082 92.9973 55.5125 87.9294 50.0132C82.8614 44.5139 80.2388 37.3748 80.5485 29.9082C80.8583 22.4417 84.0615 15.5398 89.5655 10.479C95.0696 5.41821 102.222 2.79921 109.699 3.10857L245.57 8.71598C261.006 9.35271 273.046 22.4117 272.408 37.8283C271.785 52.8515 259.349 64.652 244.428 64.652L244.431 64.649ZM108.52 5.78463C102.156 5.78463 96.1132 8.13332 91.4002 12.4643C86.4255 17.0385 83.5322 23.2706 83.2524 30.0164C82.9727 36.7621 85.3428 43.2135 89.9204 48.1811C94.4981 53.1488 100.742 56.0381 107.497 56.3175L243.369 61.9249C250.124 62.2012 256.585 59.8375 261.559 55.2663C266.534 50.692 269.427 44.4599 269.707 37.7142C270.285 23.7872 259.406 11.9897 245.462 11.4161L109.591 5.80565C109.233 5.79064 108.875 5.78463 108.52 5.78463Z" fill="black"/>
<path d="M245.64 7.12956L106.573 1.38198C91.8587 0.773826 79.4365 12.1926 78.8275 26.8865C78.2185 41.5804 89.6533 53.9852 104.368 54.5934L243.435 60.3409C258.15 60.9491 270.572 49.5303 271.181 34.8364C271.79 20.1425 260.355 7.73771 245.64 7.12956Z" fill="#FFC903"/>
<path d="M244.566 61.7026C244.172 61.7026 243.778 61.6936 243.381 61.6786L104.312 55.939C88.8765 55.3023 76.8368 42.2433 77.4744 26.8267C77.7842 19.3602 80.9874 12.4583 86.4914 7.39747C91.9984 2.33368 99.1507 -0.288322 106.628 0.0240356L245.697 5.7636C261.132 6.40033 273.172 19.4593 272.534 34.8759C272.224 42.3425 269.021 49.2444 263.517 54.3051C258.302 59.0986 251.613 61.6996 244.569 61.6996L244.566 61.7026ZM105.458 2.7031C91.9774 2.7031 80.7407 13.3653 80.1813 26.9348C79.6038 40.8618 90.4826 52.6593 104.426 53.2329L243.495 58.9725C257.432 59.5552 269.256 48.6857 269.83 34.7618C270.408 20.8348 259.529 9.03735 245.585 8.46369L106.516 2.72713C106.162 2.71211 105.81 2.7061 105.458 2.7061V2.7031Z" fill="black"/>
<path d="M121.053 30.0914L123.221 29.3646C123.387 30.1365 123.73 30.7612 124.247 31.2387C124.764 31.7163 125.453 31.9746 126.31 32.0106C127.119 32.0437 127.739 31.9175 128.169 31.6262C128.599 31.3379 128.825 30.9264 128.846 30.3948C128.882 29.5178 128.211 28.9261 126.834 28.6288L125.3 28.3044C124.13 28.0491 123.258 27.6256 122.683 27.0339C122.112 26.4423 121.844 25.6403 121.886 24.6222C121.928 23.595 122.376 22.757 123.233 22.1083C124.091 21.4596 125.213 21.1652 126.599 21.2223C127.907 21.2763 128.96 21.6127 129.757 22.2284C130.554 22.8471 131.068 23.598 131.297 24.487L129.162 25.2138C128.801 23.8563 127.895 23.1475 126.452 23.0874C125.745 23.0574 125.197 23.1865 124.809 23.4719C124.421 23.7572 124.217 24.1356 124.199 24.6102C124.166 25.4091 124.716 25.9347 125.853 26.19L127.42 26.5324C128.65 26.7907 129.595 27.2412 130.259 27.8809C130.921 28.5206 131.234 29.3346 131.192 30.3167C131.147 31.437 130.689 32.326 129.82 32.9867C128.951 33.6445 127.745 33.9418 126.193 33.8788C124.758 33.8187 123.6 33.4433 122.719 32.7465C121.838 32.0497 121.281 31.1637 121.047 30.0914H121.053Z" fill="black"/>
<path d="M134.007 31.7373L134.205 26.9529L132.332 26.8748L132.401 25.2289L134.274 25.307L134.386 22.6039L136.503 22.691L136.392 25.3941L138.684 25.4872L138.615 27.1331L136.323 27.037L136.139 31.491C136.118 32.0227 136.374 32.299 136.903 32.32L138.744 32.3951L138.672 34.1281L136.103 34.0229C135.408 33.9929 134.879 33.7797 134.512 33.3772C134.145 32.9747 133.977 32.4251 134.007 31.7313V31.7373Z" fill="black"/>
<path d="M139.733 29.8542C139.79 28.5026 140.23 27.4184 141.06 26.6015C141.887 25.7845 142.903 25.4001 144.106 25.4511C145.334 25.5022 146.299 25.9557 147.006 26.8117C147.713 27.6677 148.041 28.7489 147.986 30.0554C147.977 30.2416 147.956 30.4609 147.923 30.7132L141.815 30.4609C141.815 31.2598 142.001 31.8665 142.365 32.281C142.729 32.6954 143.225 32.9147 143.851 32.9417C144.798 32.9808 145.526 32.4912 146.031 31.47L147.911 32.2599C147.171 33.9088 145.788 34.6897 143.764 34.6056C142.479 34.5516 141.472 34.104 140.741 33.2571C140.01 32.4101 139.676 31.2778 139.733 29.8572V29.8542ZM141.947 28.9051L145.887 29.0673C145.878 28.4546 145.71 27.965 145.382 27.6046C145.054 27.2442 144.609 27.052 144.04 27.0279C143.508 27.0069 143.051 27.1601 142.675 27.4905C142.296 27.8209 142.052 28.2924 141.947 28.9021V28.9051Z" fill="black"/>
<path d="M149.674 37.9754L150.17 25.9647L152.098 26.0428C152.077 26.5293 151.806 27.118 151.277 27.8148L152.266 27.8569C152.606 27.2111 152.982 26.7216 153.397 26.3852C153.812 26.0488 154.417 25.8866 155.217 25.8956C156.258 25.9377 157.091 26.3972 157.716 27.2742C158.339 28.1512 158.625 29.2715 158.568 30.635C158.51 31.9986 158.134 33.0889 157.443 33.9058C156.748 34.7227 155.879 35.1072 154.838 35.0651C153.485 35.008 152.564 34.2782 152.077 32.8666L151.069 32.8245C151.373 33.3351 151.59 33.8337 151.722 34.3173C151.851 34.8038 151.9 35.4856 151.863 36.3626L151.794 38.0625L149.677 37.9754H149.674ZM156.345 30.5419C156.426 28.6017 155.752 27.6016 154.33 27.5415C153.659 27.5145 153.115 27.7427 152.694 28.2293C152.275 28.7158 152.044 29.4277 152.005 30.3617C151.966 31.2868 152.134 32.0106 152.504 32.5362C152.877 33.0618 153.403 33.3381 154.086 33.3652C155.509 33.4252 156.261 32.4822 156.342 30.5419H156.345Z" fill="black"/>
<path d="M166.83 33.4913L165.84 33.4493C166.318 34.1761 166.55 34.7858 166.529 35.2844L164.601 35.2063L165.103 23.0724L167.221 23.1595L167.146 24.9796C167.109 25.8446 167.004 26.5203 166.827 27.0069C166.649 27.4934 166.388 27.965 166.048 28.4245L167.055 28.4666C167.657 27.115 168.64 26.4663 170.003 26.5233C171.043 26.5654 171.877 27.0249 172.502 27.8929C173.128 28.7639 173.411 29.8752 173.356 31.2267C173.299 32.5903 172.923 33.6835 172.229 34.5065C171.534 35.3294 170.668 35.7169 169.624 35.6748C168.836 35.6418 168.243 35.4345 167.84 35.0531C167.437 34.6717 167.1 34.1521 166.827 33.4913H166.83ZM171.134 31.1336C171.215 29.2024 170.541 28.2083 169.119 28.1512C168.436 28.1242 167.888 28.3524 167.473 28.839C167.058 29.3255 166.833 30.0314 166.794 30.9564C166.755 31.9055 166.92 32.6383 167.293 33.1549C167.666 33.6745 168.192 33.9478 168.875 33.9749C170.298 34.0349 171.05 33.0858 171.131 31.1336H171.134Z" fill="black"/>
<path d="M180.894 27.2322L183.098 27.3223L179.164 37.1255C178.878 37.8553 178.53 38.3689 178.118 38.6723C177.705 38.9756 177.122 39.1078 176.37 39.0777L174.114 38.9846L174.187 37.2336L176.217 37.3177C176.529 37.3297 176.773 37.2757 176.945 37.1555C177.116 37.0354 177.275 36.8041 177.417 36.4617L177.708 35.6928L174.036 26.9468L176.361 27.0429L177.787 30.8333C178.081 31.5751 178.214 32.5633 178.187 33.8007L179.02 33.8337C179.077 33.0378 179.128 32.4942 179.173 32.2089C179.251 31.7253 179.369 31.2868 179.522 30.8873L180.891 27.2292L180.894 27.2322Z" fill="black"/>
<path d="M187.321 32.8276L189.489 32.1007C189.655 32.8726 189.998 33.4973 190.515 33.9749C191.032 34.4524 191.721 34.7107 192.578 34.7468C193.387 34.7798 194.007 34.6537 194.437 34.3623C194.867 34.074 195.093 33.6625 195.114 33.1309C195.15 32.2539 194.479 31.6622 193.102 31.3649L191.568 31.0405C190.395 30.7852 189.526 30.3618 188.951 29.7701C188.38 29.1784 188.115 28.3765 188.157 27.3583C188.199 26.3311 188.647 25.4932 189.504 24.8444C190.362 24.1957 191.484 23.9014 192.87 23.9584C194.178 24.0125 195.231 24.3489 196.028 24.9646C196.825 25.5833 197.339 26.3341 197.568 27.2262L195.433 27.953C195.072 26.5954 194.166 25.8866 192.72 25.8266C192.013 25.7965 191.465 25.9257 191.077 26.211C190.689 26.4963 190.485 26.8748 190.464 27.3493C190.431 28.1482 190.984 28.6738 192.121 28.9291L193.688 29.2715C194.918 29.5298 195.863 29.9803 196.527 30.62C197.189 31.2598 197.502 32.0737 197.463 33.0558C197.418 34.1761 196.96 35.0651 196.091 35.7259C195.222 36.3836 194.016 36.681 192.464 36.6179C191.029 36.5578 189.871 36.1824 188.99 35.4856C188.109 34.7888 187.552 33.9028 187.318 32.8306L187.321 32.8276Z" fill="black"/>
<path d="M200.275 34.4734L200.473 29.6889L198.6 29.6109L198.669 27.965L200.543 28.0431L200.654 25.34L202.771 25.4271L202.66 28.1302L204.952 28.2233L204.883 29.8691L202.591 29.776L202.407 34.2301C202.386 34.7617 202.639 35.0381 203.171 35.0591L205.012 35.1342L204.94 36.8672L202.371 36.762C201.676 36.732 201.147 36.5188 200.78 36.1163C200.413 35.7138 200.245 35.1642 200.275 34.4734Z" fill="black"/>
<path d="M206.005 32.5903C206.062 31.2387 206.501 30.1545 207.331 29.3375C208.158 28.5206 209.172 28.1362 210.378 28.1872C211.605 28.2383 212.571 28.6918 213.277 29.5478C213.984 30.4038 214.312 31.485 214.258 32.7915C214.249 32.9777 214.228 33.197 214.195 33.4493L208.083 33.197C208.083 33.9959 208.27 34.6026 208.633 35.017C208.997 35.4315 209.494 35.6508 210.119 35.6778C211.067 35.7168 211.795 35.2273 212.3 34.2061L214.18 34.996C213.44 36.6449 212.056 37.4258 210.032 37.3417C208.748 37.2876 207.74 36.8401 207.012 35.9932C206.282 35.1462 205.948 34.0139 206.005 32.5933V32.5903ZM208.215 31.6412L212.155 31.8034C212.146 31.1907 211.978 30.7011 211.65 30.3407C211.322 29.9803 210.877 29.7881 210.309 29.764C209.776 29.743 209.322 29.8962 208.943 30.2266C208.564 30.5599 208.321 31.0285 208.215 31.6382V31.6412Z" fill="black"/>
<path d="M215.942 40.7116L216.438 28.7008L218.366 28.7789C218.345 29.2655 218.071 29.8542 217.545 30.551L218.535 30.593C218.874 29.9473 219.25 29.4577 219.665 29.1213C220.08 28.7849 220.685 28.6228 221.485 28.6318C222.526 28.6738 223.359 29.1333 223.984 30.0103C224.607 30.8873 224.893 32.0076 224.836 33.3712C224.778 34.7347 224.402 35.825 223.711 36.6419C223.016 37.4589 222.147 37.8463 221.106 37.8013C219.753 37.7442 218.832 37.0144 218.345 35.6027L217.337 35.5607C217.641 36.0713 217.858 36.5698 217.99 37.0534C218.119 37.54 218.168 38.2217 218.131 39.0987L218.062 40.7987L215.945 40.7116H215.942ZM222.613 33.2781C222.694 31.3379 222.02 30.3377 220.598 30.2776C219.927 30.2506 219.383 30.4789 218.962 30.9654C218.541 31.452 218.312 32.1638 218.273 33.0979C218.234 34.0229 218.402 34.7468 218.772 35.2724C219.145 35.798 219.671 36.0743 220.354 36.1013C221.777 36.1614 222.529 35.2183 222.61 33.2781H222.613Z" fill="black"/>
</g>
<defs>
<clipPath id="clip0_193_412">
<rect width="443" height="395" fill="white"/>
</clipPath>
</defs>
</svg>
