<svg width="178" height="39" viewBox="0 0 178 39" fill="none" xmlns="http://www.w3.org/2000/svg">
<path d="M129.951 6.26123C128.952 6.25692 127.949 6.25692 126.951 6.26123C126.358 6.26123 126.144 6.45541 126.089 7.02069C125.943 8.54393 125.802 10.0715 125.665 11.599C125.373 14.7965 125.086 17.994 124.785 21.1915C124.758 21.4806 124.785 21.7913 124.653 22.0718C124.489 22.02 124.493 21.9035 124.47 21.8C123.905 19.2368 123.34 16.6736 122.774 14.1104C122.255 11.7544 121.739 9.39832 121.215 7.04658C121.069 6.38637 120.891 6.26555 120.176 6.26123C119.628 6.26123 119.077 6.26123 118.53 6.26123C117.887 6.26555 117.691 6.42089 117.554 7.02501C116.473 11.8752 115.393 16.7254 114.308 21.5756C114.271 21.7395 114.308 21.9467 114.116 22.0718C113.966 21.9467 114.007 21.7913 113.993 21.6532C113.952 21.1872 113.92 20.7255 113.879 20.2595C113.633 17.4719 113.387 14.6843 113.141 11.8968C112.995 10.2527 112.853 8.60434 112.708 6.96028C112.676 6.58918 112.507 6.28712 112.078 6.27849C110.925 6.25692 109.767 6.26123 108.613 6.27849C108.249 6.28281 108.057 6.50288 108.062 6.85672C108.062 7.01638 108.071 7.17604 108.089 7.3357C108.303 9.18688 108.522 11.0424 108.732 12.8936C109.083 15.9918 109.429 19.0901 109.78 22.1883C110.132 25.2866 110.496 28.3805 110.847 31.4788C110.92 32.1001 111.066 32.2469 111.718 32.2469C112.762 32.2512 113.802 32.2469 114.846 32.2469C115.493 32.2469 115.68 32.0958 115.831 31.4874C116.998 26.7106 118.17 21.9337 119.355 17.0749C119.419 17.2432 119.451 17.3122 119.473 17.3899C119.815 18.788 120.153 20.1861 120.495 21.5842C121.306 24.9112 122.113 28.2381 122.929 31.5651C123.066 32.1217 123.244 32.2468 123.837 32.2512C124.881 32.2512 125.92 32.2555 126.964 32.2512C127.553 32.2512 127.717 32.126 127.785 31.5651C127.995 29.9124 128.182 28.2597 128.382 26.6027C128.679 24.1301 128.98 21.6576 129.276 19.1807C129.545 16.9325 129.814 14.6843 130.078 12.4362C130.293 10.6497 130.511 8.86325 130.712 7.07679C130.78 6.45973 130.58 6.26555 129.942 6.26555L129.951 6.26123Z" fill="#FDFCF9"/>
<path d="M162.413 6.26123C161.369 6.25692 160.329 6.26123 159.285 6.26123C158.551 6.26123 158.451 6.35185 158.451 7.03364C158.451 11.1114 158.451 15.1892 158.451 19.267C158.451 19.5993 158.451 19.9315 158.451 20.2681C158.451 20.3415 158.487 20.4407 158.373 20.4709C158.241 20.5011 158.214 20.4019 158.186 20.3112C158.168 20.2465 158.136 20.1861 158.113 20.1257C156.454 15.7329 154.79 11.3401 153.13 6.94734C152.893 6.31733 152.82 6.26555 152.131 6.26555C151.201 6.26555 150.271 6.26555 149.341 6.26555C148.552 6.26555 148.466 6.34322 148.466 7.08542C148.466 11.1373 148.466 15.1892 148.466 19.2411C148.466 23.3189 148.466 27.3967 148.466 31.4744C148.466 32.1562 148.566 32.2512 149.3 32.2512C150.299 32.2512 151.302 32.2512 152.3 32.2512C153.039 32.2512 153.13 32.1692 153.13 31.4744C153.13 27.1421 153.13 22.814 153.13 18.4816C153.13 18.3177 153.048 18.0372 153.194 18.0156C153.435 17.9811 153.404 18.2788 153.463 18.4299C155.127 22.8054 156.786 27.1852 158.446 31.5651C158.692 32.2166 158.747 32.2555 159.481 32.2555C160.425 32.2555 161.369 32.2555 162.312 32.2555C162.996 32.2555 163.106 32.1519 163.106 31.5219C163.106 23.3275 163.106 15.1288 163.106 6.93439C163.106 6.41226 162.964 6.27418 162.404 6.26986L162.413 6.26123Z" fill="#FDFCF9"/>
<path d="M141.604 7.03795C141.604 6.39068 141.467 6.26123 140.797 6.26123C139.785 6.26123 138.768 6.26123 137.756 6.26123C137.031 6.26123 136.917 6.36479 136.917 7.04227C136.917 11.1071 136.917 15.1719 136.917 19.2368C136.917 23.3016 136.917 27.3665 136.917 31.4313C136.917 32.1476 137.022 32.2468 137.756 32.2468C138.768 32.2468 139.785 32.2468 140.797 32.2468C141.467 32.2468 141.604 32.1131 141.604 31.4658C141.604 24.3372 141.604 17.2044 141.604 10.0758C141.604 9.06174 141.604 8.052 141.604 7.03795Z" fill="#FDFCF9"/>
<path d="M96.1023 16.5269C95.2452 16.5398 94.3835 16.5312 93.5263 16.5312C92.6828 16.5312 91.8348 16.5398 90.9914 16.5269C90.7406 16.5269 90.6494 16.583 90.6494 16.8376C90.6585 18.4514 90.6631 20.061 90.6494 21.6748C90.6494 21.9294 90.7452 21.9855 90.9914 21.9855C92.6965 21.9769 94.3971 21.9769 96.1023 21.9855C96.344 21.9855 96.4123 21.9165 96.4123 21.6921C96.4032 20.0653 96.4032 18.4428 96.4123 16.816C96.4123 16.583 96.3348 16.5269 96.0977 16.5312L96.1023 16.5269Z" fill="#FDFCF9"/>
<path d="M40.1144 9.26023C39.1296 9.26023 38.1448 9.27318 37.16 9.2516C36.8591 9.24729 36.7862 9.32927 36.7907 9.60544C36.8044 10.9388 36.7998 12.2679 36.7998 13.6012C36.7998 14.9476 36.809 16.2896 36.7953 17.6359C36.7953 17.8948 36.8637 17.9768 37.1463 17.9724C38.1448 17.9552 39.1433 17.9724 40.1464 17.9638C41.1312 17.9552 41.5597 17.5539 41.5643 16.6175C41.5734 14.6067 41.5734 12.5958 41.5643 10.585C41.5643 9.66154 41.1175 9.26455 40.1236 9.26023H40.1144Z" fill="#FDFCF9"/>
<path d="M177.454 21.6403C177.399 19.0685 177.445 16.4967 177.445 13.9249C177.445 9.52777 177.445 5.13067 177.445 0.729254C177.445 0.478978 177.5 0.220071 177.308 0H-21.9504C-22.0279 0.155344 -21.9914 0.319318 -21.9914 0.478978C-21.9732 5.98075 -22.0005 11.4868 -21.9641 16.9886C-21.9185 24.0136 -21.955 31.0343 -21.955 38.0593C-21.955 38.9914 -21.9504 38.9957 -20.9747 38.9957C44.8749 38.9957 110.72 38.9957 176.57 38.9957C176.752 38.9957 176.934 38.9957 177.117 38.9784C177.367 38.9525 177.495 38.8231 177.509 38.5858C177.518 38.439 177.513 38.2923 177.513 38.1456C177.477 32.6438 177.573 27.1378 177.449 21.636L177.454 21.6403ZM2.53292 27.9102C2.07699 29.5628 0.932608 30.5208 -0.827272 30.8401C-1.34247 30.9351 -1.86223 30.9566 -2.38198 30.9566C-4.98989 30.9566 -7.59324 30.9566 -10.2011 30.9566C-10.885 30.9566 -10.9945 30.8531 -10.9945 30.2274C-10.9945 26.1496 -10.9945 22.0718 -10.9945 17.994C-10.9945 13.9292 -10.9945 9.86435 -10.9945 5.79951C-10.9945 5.04868 -10.9261 4.98396 -10.1191 4.98396C-7.57044 4.98396 -5.0218 4.98396 -2.46861 4.98396C-1.93062 4.98396 -1.39718 5.00553 -0.868305 5.09615C1.11954 5.44136 2.38246 6.69274 2.6469 8.58708C2.70617 9.00996 2.73352 9.43284 2.73352 9.86004C2.73352 15.2841 2.73352 20.7082 2.73352 26.1323C2.73352 26.7364 2.69249 27.3319 2.53292 27.9145V27.9102ZM25.1834 30.9437C23.9433 30.9523 22.7031 30.9523 21.4676 30.948C21.0937 30.948 20.9706 30.6977 20.9114 30.4C20.6287 29.0019 20.3323 27.6081 20.0724 26.21C20.0086 25.8562 19.8855 25.7397 19.4889 25.744C17.7427 25.7699 15.9965 25.7612 14.2503 25.7526C13.9721 25.7526 13.8399 25.7871 13.7852 26.0935C13.5344 27.4959 13.2427 28.8897 12.9691 30.2878C12.8597 30.8574 12.7457 30.9523 12.1348 30.9523C11.0496 30.9523 9.96453 30.9523 8.87943 30.9523C8.2776 30.9523 8.1773 30.8358 8.3004 30.2835C9.56332 24.7515 10.8262 19.2152 12.0846 13.6832C12.6864 11.0337 13.2928 8.38427 13.8946 5.73479C14.0542 5.04005 14.118 4.97964 14.8749 4.97964C15.5633 4.97964 16.2563 4.97964 16.9448 4.97964C17.6469 4.97964 18.3536 4.97964 19.0557 4.97964C19.7168 4.97964 19.808 5.04437 19.9448 5.63985C20.7472 9.14804 21.5451 12.6519 22.343 16.1601C23.4007 20.7989 24.4585 25.4333 25.5162 30.072C25.5481 30.2015 25.5755 30.3309 25.5937 30.4647C25.6348 30.7581 25.5025 30.9394 25.1834 30.9394V30.9437ZM43.8035 22.1667C44.5558 24.8507 45.2989 27.5347 46.0421 30.2231C46.2017 30.797 46.074 30.9523 45.4403 30.9523C44.3551 30.9523 43.27 30.948 42.1849 30.9566C41.77 30.9566 41.5466 30.8142 41.4372 30.4172C40.7214 27.8066 39.9828 25.2046 39.2624 22.5939C39.1895 22.3221 39.0709 22.2358 38.7792 22.2487C38.2457 22.2703 37.7077 22.2746 37.1743 22.2487C36.8415 22.2315 36.7822 22.3393 36.7868 22.6285C36.8004 25.1355 36.7959 27.6383 36.7913 30.1454C36.7913 30.8444 36.6728 30.9566 35.9387 30.9566C34.9266 30.9566 33.9098 30.9566 32.8977 30.9566C32.2503 30.9566 32.1317 30.8488 32.1317 30.236C32.1317 26.1453 32.1317 22.0546 32.1317 17.9638C32.1317 13.9119 32.1317 9.86435 32.1317 5.81246C32.1317 5.06594 32.2138 4.98827 33.0025 4.98827C35.6925 4.98827 38.3825 4.98827 41.0725 4.98827C42.0071 4.98827 42.9327 5.06163 43.7989 5.43704C45.4038 6.12746 46.115 7.40905 46.1743 8.97975C46.2564 11.3099 46.2244 13.6444 46.2199 15.9746C46.2199 17.062 46.3202 18.1623 46.0284 19.2368C45.7229 20.3501 45.0846 21.2217 43.9858 21.7482C43.7488 21.8604 43.7488 21.9682 43.808 22.1797L43.8035 22.1667ZM57.6591 15.4481C57.6591 15.7286 57.7412 15.8063 58.033 15.8019C60.0208 15.789 62.0041 15.7933 63.9919 15.7976C64.6211 15.7976 64.767 15.9314 64.7716 16.5183C64.7716 17.4762 64.7761 18.4385 64.7716 19.3964C64.7716 19.9617 64.6166 20.1041 64.0193 20.1084C62.0451 20.1127 60.0755 20.1214 58.1014 20.1041C57.7594 20.1041 57.6545 20.1688 57.6591 20.5097C57.6773 22.4429 57.6728 24.3761 57.6591 26.3093C57.6591 26.6113 57.7457 26.6847 58.0603 26.6847C60.6819 26.6717 63.2989 26.676 65.9205 26.676C66.7366 26.676 66.8005 26.7408 66.8005 27.5261C66.8005 28.4323 66.8005 29.3385 66.8005 30.2446C66.8005 30.8531 66.6865 30.9566 66.0299 30.9566C61.9995 30.9566 57.9737 30.9566 53.9433 30.9566C53.1956 30.9566 53.1135 30.879 53.1135 30.1842C53.1135 26.1194 53.1135 22.0545 53.1135 17.9897C53.1135 13.9119 53.1135 9.83415 53.1135 5.75636C53.1135 5.07457 53.2047 4.98827 53.9114 4.98827C57.9418 4.98827 61.9676 4.98827 65.998 4.98827C66.7047 4.98827 66.8005 5.0832 66.8005 5.74773C66.8005 6.69274 66.805 7.64207 66.8005 8.58708C66.8005 9.17393 66.6682 9.29476 66.0573 9.29907C63.4084 9.29907 60.7594 9.3077 58.1105 9.29476C57.7685 9.29476 57.6591 9.35948 57.6591 9.70038C57.6773 11.6206 57.6728 13.5408 57.6591 15.4567V15.4481ZM174.048 35.673C173.829 35.8888 173.378 35.7378 173.032 35.7378C141.486 35.7378 109.94 35.7378 78.3947 35.7378C77.9509 35.7378 77.729 35.5263 77.729 35.1035C77.6971 24.4538 77.6652 13.8041 77.6242 3.15435C77.6242 2.82208 77.7017 2.74441 78.0573 2.74441C93.9783 2.75304 109.899 2.75304 125.82 2.75304C141.728 2.75304 157.635 2.75304 173.538 2.74441C173.925 2.74441 174.016 2.83935 174.016 3.1975C174.039 13.7005 174.076 24.2035 174.108 34.7065C174.108 35.0344 174.267 35.4573 174.048 35.673Z" fill="#FDFCF9"/>
<path d="M17.3502 12.8806C17.218 12.1902 17.0766 11.5041 16.9353 10.818C16.917 10.818 16.8942 10.818 16.876 10.8223C16.1693 14.447 15.4672 18.076 14.756 21.7007C14.7104 21.9424 14.7833 21.9941 15.0295 21.9941C16.2104 21.9855 17.3912 21.9941 18.5766 21.9941C19.1237 21.9941 19.1146 21.9941 19.0098 21.4677C18.4535 18.6068 17.9018 15.7459 17.3502 12.8849V12.8806Z" fill="#FDFCF9"/>
</svg>
