<svg width="208" height="37" viewBox="0 0 208 37" fill="none" xmlns="http://www.w3.org/2000/svg">
<path d="M24.0402 3.98398C24.1861 3.85884 24.332 3.7337 24.4824 3.61288C24.87 3.30219 25.0706 3.41438 25.1025 3.86747C25.1116 4.00124 25.1025 4.13501 25.1025 4.26878C25.1025 10.4825 25.0934 16.6963 25.1162 22.9101C25.1162 23.5444 24.9566 23.9975 24.3229 24.2478C21.1724 26.5218 18.0356 28.8088 14.8715 31.0656C12.7423 32.5889 10.3624 33.1369 7.73167 32.5716C7.33046 32.3472 6.82439 32.4292 6.43229 32.1832C3.94293 31.3073 2.32893 29.6158 1.46267 27.2899C0.26814 24.0795 1.34867 20.4332 4.18454 18.3576C10.5356 13.7102 16.9368 9.12328 23.3153 4.51042C23.6025 4.39392 23.7803 4.13501 24.0402 3.98398Z" fill="#FDFCF9"/>
<path d="M50.4063 10.8277C49.6905 12.7911 48.2179 14.1504 46.5082 15.3759C40.1753 19.9154 33.8744 24.498 27.5598 29.0634C27.3774 29.1929 27.1951 29.4647 26.9808 29.3741C26.7072 29.2576 26.8577 28.934 26.8577 28.7053C26.8486 22.4009 26.8577 16.0965 26.8394 9.79212C26.8394 9.28294 27.0173 8.97657 27.4322 8.67882C30.6419 6.37024 33.838 4.04007 37.0386 1.72286C41.7711 -1.70334 48.5963 0.346338 50.4292 5.74023C50.4702 5.86537 50.5158 5.99482 50.5568 6.11996C50.8395 7.3886 50.8258 8.66156 50.6161 9.93452C50.6297 10.2495 50.6024 10.5559 50.3972 10.8234L50.4063 10.8277Z" fill="#FDFCF9"/>
<path d="M133.923 17.5075C136.016 15.3931 138.109 13.2744 140.201 11.16C140.379 10.9788 140.557 10.8191 140.858 10.8191C142.786 10.8278 144.715 10.8191 146.849 10.8191C146.046 11.626 145.372 12.3208 144.678 12.9983C143.151 14.487 141.628 15.98 140.074 17.4385C139.668 17.8182 139.691 18.0858 139.987 18.5087C142.28 21.7752 144.651 24.9943 146.858 28.3169C147.09 28.6664 147.665 29.0548 147.501 29.3396C147.286 29.6977 146.639 29.4647 146.188 29.469C144.77 29.4906 143.352 29.4604 141.938 29.4863C141.478 29.4949 141.223 29.3525 140.981 28.9814C139.463 26.6297 137.913 24.2995 136.376 21.9607C136.102 21.7579 136.134 21.2531 135.624 21.2833C135.578 21.3264 135.533 21.3653 135.492 21.4084C135.419 21.6112 135.264 21.7364 135.068 21.827C134.639 22.2369 134.21 22.6468 133.782 23.0568C133.554 23.2725 133.59 23.5444 133.59 23.8119C133.59 25.4819 133.568 27.1518 133.604 28.8218C133.618 29.3655 133.422 29.5079 132.875 29.4949C131.58 29.4604 130.285 29.4906 128.99 29.4777C128.799 29.4777 128.561 29.5812 128.411 29.3612C128.292 29.1497 128.352 28.921 128.352 28.701C128.352 20.567 128.352 12.4373 128.352 4.3033C128.352 3.69055 128.682 3.38418 129.341 3.38418C130.476 3.38418 131.607 3.38418 132.742 3.38418C133.508 3.38418 133.526 3.39712 133.526 4.13932C133.526 8.36382 133.526 12.584 133.526 16.8085C133.526 17.0286 133.476 17.2616 133.59 17.4687C133.663 17.6025 133.8 17.6456 133.932 17.5075H133.923Z" fill="#FDFCF9"/>
<path d="M196.335 29.8876C193.696 29.3223 191.58 28.1227 190.55 25.607C189.756 23.6695 189.843 23.5401 191.954 23.5401C192.807 23.5401 193.655 23.5401 194.507 23.5401C194.735 23.5401 194.986 23.5012 195.059 23.8206C195.538 25.8616 197.106 26.5261 199.085 26.6038C200.001 26.6383 200.927 26.552 201.756 26.0989C202.44 25.7278 202.855 25.21 202.832 24.4247C202.81 23.6652 202.299 23.2596 201.661 22.9705C200.516 22.4527 199.258 22.3362 198.036 22.1118C196.787 21.8788 195.533 21.6457 194.338 21.2229C192.228 20.472 190.837 19.1516 190.682 16.9121C190.513 14.4783 191.462 12.5797 193.773 11.4146C195.87 10.3574 198.145 10.2409 200.462 10.4955C202.135 10.6767 203.676 11.1773 204.971 12.2388C206.225 13.2658 206.881 14.5862 207.15 16.1138C207.223 16.5237 207.059 16.6229 206.667 16.6186C205.413 16.6057 204.164 16.6057 202.91 16.6186C202.563 16.6229 202.44 16.5108 202.349 16.1914C201.925 14.6984 200.986 14.0123 199.349 13.9303C198.519 13.8872 197.694 13.8699 196.901 14.1418C196.636 14.2324 196.372 14.3403 196.144 14.4913C194.922 15.2896 195.036 16.6618 196.376 17.2443C197.243 17.6197 198.182 17.7449 199.107 17.9132C200.867 18.2325 202.645 18.4871 204.301 19.1775C205.655 19.7428 206.776 20.554 207.273 21.9564C207.743 23.2423 207.711 24.5455 207.41 25.8573C206.959 27.1432 206.152 28.1616 204.88 28.8218C204.633 28.9469 204.369 29.0462 204.145 29.2101C203.53 29.5553 202.842 29.7064 202.162 29.8876C200.225 30.2803 198.287 30.263 196.345 29.8876H196.335Z" fill="#FDFCF9"/>
<path d="M110.694 27.195C108.027 24.347 107.489 21.0114 108.328 17.4299C108.998 14.5819 110.689 12.4028 113.553 11.1514C115.732 10.1977 118.007 10.1071 120.328 10.5602C120.692 10.6897 121.089 10.6983 121.454 10.8364C124.322 11.8332 126.009 13.7966 126.729 16.5712C126.843 17.007 126.775 17.1882 126.259 17.1796C124.914 17.158 123.569 17.171 122.224 17.1796C121.923 17.1796 121.659 17.1537 121.55 16.8258C121.007 15.2162 119.84 14.3489 118.053 14.3273C116.202 14.3057 114.784 15.0868 114.063 16.7049C113.019 19.048 113.069 21.4386 114.104 23.7947C114.401 24.4678 114.934 24.977 115.531 25.4258C116.89 26.1766 118.303 26.3018 119.772 25.7365C120.838 25.2877 121.504 24.5239 121.796 23.4538C121.846 23.2682 121.873 23.0611 122.056 22.9273C122.913 22.7375 123.779 22.8799 124.641 22.8453C125.179 22.8238 125.721 22.8367 126.264 22.8453C127.03 22.854 127.098 22.9446 126.943 23.6652C126.92 23.7731 126.934 23.8896 126.857 23.9845C126.191 27.0181 123.533 29.4043 120.309 29.8747C119.375 30.0084 118.449 30.1595 117.501 30.0386C116.658 29.8401 115.773 29.866 114.93 29.6373C113.776 29.3655 112.75 28.8563 111.816 28.1659C111.419 27.8681 111.113 27.4841 110.703 27.2036L110.694 27.195Z" fill="#FDFCF9"/>
<path d="M183.765 16.4633C183.765 12.3726 183.784 8.27752 183.747 4.18679C183.743 3.54384 183.952 3.41007 184.577 3.43165C185.876 3.4748 187.176 3.45754 188.475 3.43596C188.904 3.42733 189.1 3.49637 189.095 3.97103C189.081 12.3337 189.081 20.6964 189.095 29.0591C189.095 29.4949 188.963 29.6373 188.489 29.6244C187.144 29.5942 185.794 29.5812 184.449 29.6244C183.847 29.646 183.756 29.4259 183.756 28.9297C183.775 24.7699 183.765 20.6101 183.765 16.4547V16.4633Z" fill="#FDFCF9"/>
<path d="M87.3868 16.3986C87.3868 20.5109 87.3686 24.6232 87.4051 28.7355C87.4096 29.3784 87.1999 29.5165 86.5707 29.4949C85.2713 29.4518 83.9719 29.4647 82.6771 29.4906C82.2303 29.4993 82.0571 29.4043 82.0616 28.9426C82.0753 20.6058 82.0753 12.2733 82.0616 3.93651C82.0616 3.45754 82.2212 3.32377 82.709 3.33671C84.054 3.3626 85.4035 3.37124 86.7485 3.33671C87.3139 3.31945 87.4051 3.53089 87.4005 4.00556C87.3823 8.13944 87.3914 12.2733 87.3914 16.4072L87.3868 16.3986Z" fill="#FDFCF9"/>
<path d="M176.676 16.5237C176.676 12.4114 176.694 8.29909 176.657 4.1911C176.653 3.54815 176.862 3.41438 177.487 3.43596C178.736 3.47911 179.99 3.47048 181.239 3.43596C181.764 3.42301 181.973 3.52657 181.973 4.09185C181.955 12.3596 181.951 20.6274 181.973 28.8951C181.973 29.5036 181.773 29.6546 181.166 29.633C179.917 29.5899 178.663 29.5942 177.414 29.633C176.826 29.6503 176.662 29.4863 176.666 28.9253C176.694 24.7915 176.68 20.6576 176.68 16.5237H176.676Z" fill="#FDFCF9"/>
<path d="M169.545 20.2951C169.545 17.4126 169.568 14.5301 169.531 11.6476C169.522 11.0133 169.736 10.8536 170.374 10.8752C171.647 10.9184 172.923 10.9097 174.2 10.8795C174.733 10.8666 174.879 11.0521 174.879 11.5441C174.865 17.3522 174.861 23.1647 174.879 28.9728C174.879 29.5294 174.66 29.6416 174.131 29.633C172.832 29.6028 171.533 29.5899 170.238 29.6373C169.64 29.6589 169.531 29.4475 169.536 28.9469C169.554 26.0644 169.545 23.1819 169.545 20.2994V20.2951Z" fill="#FDFCF9"/>
<path d="M172.185 2.92246C173.835 2.92246 175.126 4.12638 175.126 5.65393C175.126 7.15127 173.78 8.42855 172.198 8.43718C170.616 8.44581 169.253 7.15559 169.262 5.66687C169.271 4.10912 170.539 2.92246 172.185 2.92246Z" fill="#FDFCF9"/>
<path d="M133.923 17.5075C133.896 17.706 133.768 17.8786 133.563 17.8441C133.331 17.8053 133.372 17.568 133.372 17.3954C133.372 16.7006 133.372 16.0102 133.372 15.3155C133.372 11.6045 133.358 7.89347 133.385 4.18247C133.385 3.63445 133.24 3.44027 132.638 3.46616C131.553 3.50931 130.463 3.47911 129.378 3.47911C128.752 3.47911 128.439 3.76822 128.439 4.34644C128.439 12.4157 128.439 20.485 128.439 28.5585C128.439 28.8261 128.416 29.0936 128.407 29.3612C128.215 29.1713 128.306 28.934 128.306 28.7225C128.302 20.5195 128.306 12.3165 128.288 4.11343C128.288 3.45753 128.493 3.26767 129.168 3.29787C130.349 3.34534 131.53 3.34965 132.711 3.29787C133.417 3.26767 133.645 3.46185 133.641 4.15658C133.609 8.38108 133.622 12.6056 133.636 16.8301C133.636 17.0631 133.408 17.4514 133.928 17.5119L133.923 17.5075Z" fill="#FDFCF9"/>
<path d="M24.3231 24.2478C24.9477 23.8551 24.9933 23.2769 24.9887 22.6253C24.9705 16.4633 24.9796 10.3013 24.9659 4.13932C24.9659 3.88042 25.2167 3.30651 24.4781 3.60425C24.551 3.37123 24.7061 3.15979 24.9705 3.25041C25.276 3.35397 25.1802 3.66466 25.1802 3.90199C25.1802 8.11786 25.1802 12.3337 25.1802 16.5496C25.1802 18.7589 25.162 20.9683 25.1893 23.1733C25.1985 23.7947 24.9614 24.1485 24.314 24.2434L24.3231 24.2478Z" fill="#FDFCF9"/>
<path d="M196.335 29.8876C198.273 30.1379 200.21 30.1379 202.153 29.8876C201.656 30.3666 200.985 30.1551 200.406 30.2328C199.194 30.4054 197.967 30.2199 196.75 30.112C196.586 30.099 196.431 30.0257 196.34 29.8833L196.335 29.8876Z" fill="#FDFCF9"/>
<path d="M126.847 23.9802C126.847 22.9705 126.847 22.9748 125.703 22.9662C124.486 22.9575 123.264 22.9403 122.046 22.9273C122.224 22.7073 122.48 22.8022 122.703 22.7979C123.852 22.7892 125.005 22.7936 126.154 22.7936C127.217 22.7936 127.372 23.0568 126.847 23.9759V23.9802Z" fill="#FDFCF9"/>
<path d="M119.762 25.7365C118.918 26.3579 117.943 26.1723 117.013 26.0774C116.475 26.0213 115.905 25.8789 115.526 25.4301C116.899 26.0429 118.308 26.168 119.766 25.7408L119.762 25.7365Z" fill="#FDFCF9"/>
<path d="M50.5753 10.0381C50.7805 8.7306 50.6985 7.42744 50.5708 6.11996C51.0358 7.40155 50.9173 8.70039 50.6848 10.0036C50.6665 10.0726 50.63 10.0812 50.5753 10.0338V10.0381Z" fill="#FDFCF9"/>
<path d="M207.396 25.8616C207.583 24.5541 207.574 23.251 207.259 21.9607C207.911 23.2423 207.879 24.5455 207.396 25.8616Z" fill="#FDFCF9"/>
<path d="M89.1376 22.5088C88.9141 23.6264 88.9096 24.744 89.1148 25.8659C88.9689 25.8141 88.8777 25.702 88.8686 25.5639C88.8047 24.675 88.7865 23.7817 88.8777 22.8928C88.8959 22.7375 88.9825 22.5994 89.133 22.5088H89.1376Z" fill="#FDFCF9"/>
<path d="M114.92 29.6287C115.787 29.7064 116.671 29.6891 117.492 30.03C116.603 30.0861 115.75 29.9265 114.92 29.6287Z" fill="#FDFCF9"/>
<path d="M110.694 27.195C111.182 27.3935 111.505 27.7646 111.806 28.1572C111.309 27.9674 110.967 27.6135 110.694 27.195Z" fill="#FDFCF9"/>
<path d="M121.454 10.8364C121.043 10.8795 120.67 10.7803 120.328 10.5602C120.747 10.4955 121.107 10.6336 121.454 10.8364Z" fill="#FDFCF9"/>
<path d="M93.9567 18.7546C93.6376 19.061 93.1999 19.0437 92.8032 19.1387C93.1224 18.8409 93.5236 18.7546 93.9567 18.7546Z" fill="#FDFCF9"/>
<path d="M135.619 21.279C135.783 20.9985 135.92 21.1624 136.025 21.3178C136.157 21.5206 136.371 21.6889 136.371 21.9564C136.011 21.8399 135.993 21.3825 135.619 21.279Z" fill="#FDFCF9"/>
<path d="M79.645 25.0633C79.6952 24.675 79.7681 24.2909 80.0462 23.9759C80.0006 24.3686 80.0006 24.7742 79.645 25.0633Z" fill="#FDFCF9"/>
<path d="M153.665 27.6265C153.637 27.51 153.679 27.3546 153.802 27.4496C154.039 27.6308 154.344 27.7948 154.349 28.1486C154.121 27.976 153.893 27.7991 153.66 27.6265H153.665Z" fill="#FDFCF9"/>
<path d="M50.5753 10.0381C50.6117 10.0208 50.6482 10.0122 50.6847 10.0079C50.7029 10.3142 50.7987 10.6465 50.4111 10.8277C50.4658 10.5645 50.5205 10.3013 50.5753 10.0381Z" fill="#FDFCF9"/>
<path d="M24.0404 3.98398C23.8808 4.25583 23.6802 4.48885 23.3154 4.51042C23.4887 4.25583 23.7303 4.0746 24.0404 3.98398Z" fill="#FDFCF9"/>
<path d="M204.136 29.2145C204.282 28.921 204.565 28.852 204.87 28.8261C204.706 29.0893 204.428 29.167 204.136 29.2145Z" fill="#FDFCF9"/>
<path d="M135.059 21.8227C135.127 21.6199 135.287 21.4947 135.483 21.4041C135.505 21.6932 135.346 21.8184 135.059 21.8227Z" fill="#FDFCF9"/>
<path d="M80.32 17.8614C79.6589 14.4093 77.9309 11.7555 74.2425 10.5645C72.7789 10.3143 71.3154 10.3013 69.8473 10.5645C68.5251 11.0004 67.4537 11.7641 66.5965 12.8731C66.3868 12.584 66.4461 12.3337 66.4461 12.1007C66.4461 9.39514 66.4324 6.68956 66.4552 3.9883C66.4552 3.49206 66.3002 3.32377 65.7667 3.3324C64.4902 3.36261 63.2136 3.37555 61.9415 3.32809C61.2622 3.30219 61.1118 3.53521 61.1163 4.13501C61.1437 7.84601 61.13 11.557 61.13 15.268C61.13 19.7816 61.1391 24.2995 61.1163 28.8131C61.1163 29.3482 61.2804 29.5122 61.8367 29.4949C63.0631 29.4604 64.2941 29.4561 65.5206 29.4949C66.095 29.5122 66.2774 29.3223 66.2272 28.8002C66.1862 28.3687 66.2181 27.9286 66.2181 27.3848C66.4142 27.5229 66.4962 27.5575 66.551 27.6222C68.744 30.1293 71.5616 30.5392 74.6802 29.6848C77.1786 28.9987 78.6695 27.264 79.6406 25.0676C79.8777 24.7397 79.823 24.3168 80.0418 23.9802C80.5251 21.9564 80.7029 19.924 80.3108 17.8657L80.32 17.8614ZM74.5388 23.5444C74.2014 24.3945 73.6452 25.1065 72.7014 25.4689C72.2181 25.758 71.6346 25.6717 71.1194 25.8573C69.2136 25.8702 67.8321 25.0806 67.0114 23.4451C66.8291 23.1043 66.7744 22.7159 66.5829 22.375C66.1634 20.4807 66.1817 18.6122 66.9476 16.7912C67.6041 15.2335 68.9491 14.3705 70.7181 14.3532C72.4142 14.3359 73.8595 15.1817 74.4886 16.692C75.4324 18.9574 75.4507 21.266 74.5388 23.5487V23.5444Z" fill="#FDFCF9"/>
<path d="M71.1191 25.8573C71.5887 25.5164 72.1723 25.6027 72.7012 25.4689C72.2361 25.8271 71.6936 25.8961 71.1191 25.8573Z" fill="#FDFCF9"/>
<path d="M66.583 22.3707C66.9022 22.6641 66.9797 23.0438 67.0116 23.4408C66.7152 23.1388 66.624 22.7634 66.583 22.3707Z" fill="#FDFCF9"/>
<path d="M167.438 16.4201C166.691 13.8483 165.163 11.8461 162.441 10.8278C161.849 10.7846 161.256 10.7458 160.745 10.4092C157.905 9.99494 155.521 10.7846 153.601 12.9076C153.524 12.3553 153.505 11.872 153.528 11.3887C153.551 10.9572 153.387 10.7975 152.913 10.8105C151.663 10.8364 150.41 10.8493 149.16 10.8105C148.545 10.7889 148.408 11.009 148.417 11.5441C148.445 13.3305 148.426 15.1213 148.426 16.9077C148.426 23.0309 148.435 29.154 148.413 35.2772C148.413 35.9072 148.613 36.0841 149.256 36.0625C150.505 36.0194 151.759 36.028 153.008 36.0625C153.551 36.0798 153.683 35.8942 153.679 35.4066C153.656 32.8133 153.665 30.2199 153.665 27.6308C154.084 27.5833 154.148 27.9501 154.353 28.1529C154.755 28.6319 155.261 28.9858 155.826 29.2705C159.71 31.2339 164.698 29.6762 166.7 25.8098C168.259 22.7936 168.369 19.622 167.438 16.4245V16.4201ZM162.592 21.3523C162.542 21.827 162.583 22.3362 162.296 22.772C161.844 24.0665 161.156 25.1885 159.706 25.6631C157.162 26.4916 154.672 25.2618 153.92 22.7159C153.323 20.6921 153.41 18.6511 154.303 16.692C155.014 15.1256 156.451 14.3144 158.297 14.3489C159.966 14.3834 161.393 15.3327 162.017 16.8473C162.127 17.1149 162.214 17.3954 162.309 17.6715C162.706 18.8798 162.724 20.1182 162.592 21.3523Z" fill="#FDFCF9"/>
<path d="M162.3 22.772C162.66 21.0718 162.619 19.3717 162.314 17.6715C162.806 17.9736 162.606 18.4914 162.67 18.8927C162.857 20.0578 162.784 21.2315 162.556 22.3966C162.524 22.5476 162.46 22.6943 162.3 22.7763V22.772Z" fill="#FDFCF9"/>
<path d="M107.215 29.0979C106.745 28.455 106.709 27.7171 106.704 26.9792C106.682 23.4236 106.718 19.8722 106.65 16.3209C106.595 13.5161 104.876 11.4923 102.026 10.7673C99.6329 10.1589 97.2119 10.1416 94.8274 10.7846C92.1557 11.5052 90.4277 13.1104 89.9125 15.7642C89.7803 16.4547 89.8441 16.5453 90.5918 16.5496C91.7043 16.5539 92.8122 16.5323 93.9201 16.5582C94.3942 16.5712 94.6085 16.4072 94.6678 15.9671C94.7408 15.4363 95.0234 15.0005 95.4566 14.6596C96.6648 13.6973 99.5599 13.6369 100.814 14.556C101.425 15.0005 101.675 15.6046 101.575 16.3252C101.484 17.0199 100.969 17.3263 100.321 17.5378C99.7833 17.7104 99.2316 17.8269 98.6754 17.9218C97.0979 18.198 95.4885 18.2972 93.9474 18.7503C93.5918 18.9574 93.1405 18.9056 92.794 19.1343C91.025 19.7255 89.7438 20.7914 89.1328 22.5045C88.7818 23.6221 88.8091 24.7397 89.1101 25.8616C89.493 27.1907 90.2955 28.2306 91.5356 28.9555C92.7347 29.6589 94.0751 29.9178 95.452 29.9437C97.6997 29.9825 99.8472 29.7064 101.352 27.8422C101.434 27.743 101.525 27.6265 101.685 27.6481C101.794 28.1055 101.894 28.5629 102.017 29.0116C102.095 29.2878 102.254 29.4777 102.61 29.4777C104.051 29.469 105.492 29.4777 106.932 29.4777C107.224 29.4777 107.434 29.413 107.201 29.0979H107.215ZM101.498 24.0061C101.083 25.1022 100.185 25.7667 99.0356 26.1421C97.914 26.5089 96.7788 26.5779 95.6389 26.2672C94.3259 25.9048 93.7286 24.6318 94.2256 23.3071C94.3441 23.1345 94.3715 22.923 94.5037 22.759C94.9778 22.1808 95.6344 21.8874 96.3547 21.6975C96.7879 21.4343 97.2757 21.3523 97.7772 21.3005C99.0812 21.0157 100.385 20.7525 101.726 20.1959C101.703 21.5249 101.958 22.7892 101.498 24.0018V24.0061Z" fill="#FDFCF9"/>
<path d="M94.5083 22.759C94.5174 22.9877 94.4216 23.169 94.2302 23.3071C94.1891 23.0654 94.2666 22.8755 94.5083 22.759Z" fill="#FDFCF9"/>
</svg>
