<svg width="168" height="32" viewBox="0 0 168 32" fill="none" xmlns="http://www.w3.org/2000/svg">
<g clip-path="url(#clip0_180_2113)">
<path d="M138.921 32C138.383 31.754 137.793 31.7818 137.23 31.6813C130.9 30.5604 125.731 25.2513 124.752 18.8406C123.775 12.4492 126.79 6.03209 132.371 2.8877C137.151 0.194655 142.1 -0.106949 147.168 2.09198C147.98 2.44492 148.332 2.8877 148.242 3.82032C148.143 4.85348 148.219 5.90589 148.219 7.02888C145.333 4.71016 142.129 3.75829 138.561 4.24813C135.565 4.66097 133.097 6.10909 131.162 8.46417C127.393 13.0545 127.464 19.7733 131.25 24.3358C134.895 28.7316 142.282 30.4856 148.219 25.4866C148.219 26.9112 148.217 28.2995 148.221 29.6856C148.221 29.9273 148.043 29.9701 147.89 30.0513C145.883 31.1187 143.753 31.7455 141.491 31.9037C141.279 31.985 141.06 31.9251 140.844 31.9444C140.507 31.9444 140.17 31.9444 139.833 31.9444C139.601 31.9701 139.361 31.8866 139.137 32H138.923H138.921Z" fill="white"/>
<path d="M139.762 31.908L140.852 31.9037C140.88 31.9273 140.886 31.9508 140.873 31.9701C140.863 31.9893 140.85 31.9979 140.84 31.9979H139.773C139.741 31.9807 139.731 31.9615 139.737 31.9401C139.743 31.9166 139.752 31.9059 139.76 31.9059L139.762 31.908Z" fill="white"/>
<path d="M139.762 31.908C139.766 31.938 139.77 31.9679 139.775 32H139.134C139.318 31.7925 139.551 31.9187 139.762 31.908Z" fill="white"/>
<path d="M140.84 32C140.84 31.9679 140.844 31.9358 140.85 31.9059C141.064 31.9059 141.275 31.9059 141.489 31.9059C141.478 31.938 141.474 31.9701 141.478 32.0021H140.838L140.84 32Z" fill="white"/>
<path d="M28.8407 31.3305C27.5286 31.3305 26.3191 31.3134 25.1116 31.3412C24.7475 31.3497 24.6743 31.1315 24.5613 30.8813C22.7135 26.7594 20.8636 22.6396 19.0137 18.5176C17.5552 15.2663 16.0966 12.015 14.6339 8.76577C14.5774 8.64171 14.5606 8.48342 14.3723 8.39358C13.7591 9.75187 13.1481 11.1037 12.5391 12.4578C9.78525 18.5968 7.02717 24.7358 4.28792 30.8834C4.12889 31.2406 3.94264 31.3476 3.57434 31.339C2.41921 31.3155 1.26408 31.3305 -0.00195312 31.3305C4.80271 20.8941 9.58436 10.507 14.4204 0C19.2523 10.4963 24.0297 20.8749 28.8407 31.3283V31.3305Z" fill="white"/>
<path d="M111.717 0C116.551 10.5005 121.33 20.8834 126.137 31.3305C124.8 31.3305 123.542 31.3262 122.287 31.3348C121.958 31.3348 121.946 31.0631 121.858 30.8684C120.115 26.9968 118.376 23.1251 116.637 19.2513C115.067 15.754 113.5 12.2588 111.93 8.7615C111.874 8.63743 111.811 8.51551 111.708 8.31016C110.97 9.95508 110.273 11.5059 109.576 13.0588C106.916 18.9861 104.252 24.9091 101.603 30.8406C101.444 31.1979 101.268 31.354 100.865 31.3433C99.7094 31.3112 98.5543 31.3326 97.3008 31.3326C102.101 20.9005 106.879 10.5198 111.719 0.00213904L111.717 0Z" fill="white"/>
<path d="M65.0535 1.29839C70.1365 1.29839 75.2215 1.30695 80.3045 1.28556C80.8089 1.28556 80.924 1.43315 80.9009 1.9123C80.8633 2.68877 80.8654 3.46952 80.9009 4.24813C80.9198 4.65454 80.8089 4.75294 80.4071 4.7508C73.8655 4.73583 67.324 4.74866 60.7845 4.72727C60.2279 4.72727 60.0919 4.86845 60.094 5.43315C60.1128 13.8717 60.1023 22.3102 60.1191 30.7465C60.1191 31.2192 60.0186 31.3647 59.5394 31.3412C58.6354 31.2963 57.7251 31.3027 56.8211 31.3412C56.4047 31.3583 56.3293 31.2192 56.3293 30.8235C56.3419 25.5187 56.3377 20.2118 56.3377 14.9069C56.3377 11.7027 56.3273 8.49625 56.3482 5.29198C56.3503 4.83422 56.2247 4.72513 55.7874 4.73155C53.7429 4.75508 51.6984 4.73155 49.656 4.7508C49.2919 4.75508 49.1642 4.6738 49.1809 4.28235C49.2123 3.48663 49.2291 2.68663 49.1768 1.89305C49.1412 1.35829 49.3484 1.28984 49.8025 1.28984C54.8854 1.30481 59.9705 1.29839 65.0535 1.29839Z" fill="white"/>
<path d="M85.4588 16.3123C85.4588 11.4952 85.465 6.67807 85.4483 1.86096C85.4483 1.42246 85.5404 1.28556 85.9945 1.2877C90.5103 1.30481 95.0241 1.30695 99.54 1.2877C100 1.2877 100.103 1.43315 100.082 1.86952C100.046 2.62887 100.044 3.39251 100.082 4.14973C100.105 4.60962 100.007 4.75936 99.5128 4.75508C96.2776 4.72727 93.0424 4.7508 89.8072 4.72941C89.3552 4.72727 89.2066 4.81283 89.2129 5.31337C89.2422 7.75829 89.2359 10.2032 89.2171 12.6481C89.2129 13.0695 89.3113 13.1936 89.7403 13.1914C92.8876 13.1722 96.0328 13.1914 99.1801 13.1701C99.63 13.1679 99.7514 13.292 99.7284 13.7412C99.6886 14.5005 99.6907 15.2642 99.7284 16.0214C99.7493 16.4642 99.6405 16.5989 99.1822 16.5968C96.0537 16.5754 92.9252 16.5968 89.7968 16.5733C89.3196 16.569 89.2129 16.693 89.215 17.17C89.2338 21.6963 89.2171 26.2246 89.238 30.7529C89.2401 31.2385 89.1188 31.3626 88.6521 31.3412C87.7837 31.3005 86.9089 31.292 86.0405 31.3433C85.5194 31.3733 85.4462 31.1743 85.4483 30.708C85.4629 25.9102 85.4588 21.1102 85.4588 16.3102V16.3123Z" fill="white"/>
<path d="M157.056 18.0513C157.056 13.7968 157.047 9.54224 157.066 5.28984C157.066 4.83422 156.953 4.72513 156.512 4.73155C154.45 4.75722 152.389 4.73583 150.328 4.7508C149.991 4.75294 149.87 4.67807 149.88 4.31016C149.907 3.46096 149.903 2.60748 149.88 1.75829C149.872 1.41818 149.945 1.29198 150.313 1.29198C156.053 1.30481 161.793 1.30267 167.531 1.29412C167.858 1.29412 168.008 1.34973 167.996 1.73262C167.969 2.60107 167.969 3.47166 167.996 4.33797C168.006 4.69732 167.872 4.7508 167.563 4.74866C165.501 4.73583 163.44 4.75722 161.379 4.73155C160.921 4.72513 160.831 4.87273 160.831 5.30909C160.843 13.7626 160.833 22.216 160.854 30.6717C160.854 31.2278 160.718 31.3754 160.182 31.3454C159.314 31.2963 158.441 31.3112 157.57 31.3412C157.162 31.3561 157.037 31.2556 157.039 30.815C157.058 26.5604 157.049 22.3059 157.049 18.0535L157.056 18.0513Z" fill="white"/>
<path d="M73.6059 31.3305C71.35 31.3305 69.0942 31.3176 66.8383 31.3412C66.4031 31.3455 66.3026 31.2107 66.3173 30.7936C66.3466 29.9615 66.3382 29.1294 66.3194 28.2973C66.3131 27.9829 66.3696 27.861 66.7211 27.861C71.3207 27.8738 75.9203 27.8738 80.5199 27.861C80.8317 27.861 80.9008 27.9615 80.8945 28.2567C80.8756 29.1422 80.8715 30.0299 80.8945 30.9155C80.9029 31.2556 80.8003 31.3369 80.476 31.3348C78.1845 31.3198 75.8931 31.3262 73.6038 31.3262L73.6059 31.3305Z" fill="white"/>
<path d="M71.5531 13.3091C73.1163 13.3091 74.6816 13.3283 76.2448 13.2963C76.6821 13.2877 76.77 13.431 76.7554 13.8374C76.7261 14.6332 76.7282 15.431 76.7554 16.2267C76.7679 16.6267 76.6926 16.7829 76.2448 16.7786C73.0996 16.7551 69.9544 16.7615 66.807 16.7743C66.4534 16.7743 66.3027 16.7102 66.3174 16.308C66.3467 15.4588 66.3404 14.6053 66.3174 13.7562C66.309 13.4118 66.3885 13.2941 66.7526 13.2984C68.3514 13.3198 69.9523 13.3091 71.551 13.3091H71.5531Z" fill="white"/>
<path d="M40.3814 18.3209C40.5216 18.2759 40.5991 18.2374 40.6828 18.2246C46.6405 17.292 49.1453 10.6909 46.5589 5.81176C45.0438 2.95401 42.5096 1.79037 39.4921 1.46738C36.8177 1.18075 34.1308 1.34331 31.4501 1.29412C31.1467 1.2877 31.063 1.37968 31.063 1.6877C31.0714 11.4289 31.0714 21.1679 31.063 30.9091C31.063 31.2321 31.1279 31.3476 31.469 31.339C32.4462 31.3134 33.4235 31.3112 34.4007 31.339C34.792 31.3519 34.8716 31.2086 34.8632 30.8449C34.8423 29.7412 34.8548 28.6353 34.8548 27.5316C34.8548 24.7251 34.8548 21.9187 34.859 19.1123C34.859 18.9604 34.7837 18.7765 34.9343 18.661C35.2001 18.4578 36.4243 18.7059 36.6252 18.9925C39.1489 22.5989 41.7249 26.1711 44.167 29.8374C44.9287 30.9818 45.7134 31.5401 47.0778 31.3519C47.9546 31.2299 48.8607 31.3283 49.8589 31.3283C46.6593 26.939 43.5308 22.6481 40.3752 18.3187L40.3814 18.3209ZM35.175 15.508C34.8423 15.508 34.859 15.3305 34.859 15.0995C34.8632 13.416 34.859 11.7326 34.859 10.0471C34.859 8.41711 34.8695 6.78717 34.8506 5.15936C34.8464 4.79572 34.9239 4.65668 35.3131 4.66096C36.9663 4.67807 38.6195 4.7016 40.2203 5.18075C42.0032 5.71337 43.4597 6.68021 43.8552 8.66738C44.4788 11.8032 43.3362 14.3315 39.7829 15.1529C38.2616 15.5037 36.7173 15.5059 35.1708 15.508H35.175Z" fill="white"/>
</g>
<defs>
<clipPath id="clip0_180_2113">
<rect width="168" height="32" fill="white"/>
</clipPath>
</defs>
</svg>
