<svg width="141" height="31" viewBox="0 0 141 31" fill="none" xmlns="http://www.w3.org/2000/svg">
<g clip-path="url(#clip0_180_2086)">
<path d="M23.4441 0.263499C19.8821 4.2223 16.3806 8.11337 12.843 12.0452C16.791 18.2088 20.7347 24.365 24.7257 30.5947C24.4924 30.6143 24.3439 30.637 24.1955 30.6376C22.2342 30.6402 20.2724 30.6286 18.3111 30.6487C17.9405 30.6524 17.7416 30.5185 17.5518 30.2201C14.7433 25.819 11.9236 21.4247 9.10651 17.0294C9.01319 16.8844 8.91404 16.7431 8.77141 16.532C8.63037 16.7029 8.52326 16.8421 8.40662 16.9717C7.63992 17.8252 6.88118 18.686 6.09698 19.5231C5.85892 19.7776 5.7815 20.0384 5.78203 20.3744C5.79105 23.566 5.78734 26.7581 5.78734 29.9497C5.78734 30.1571 5.78734 30.3651 5.78734 30.6058H0V0.300008C0.373804 0.189424 4.62775 0.146566 5.76719 0.250271C5.81067 1.51749 5.78044 2.79529 5.78628 4.07203C5.79158 5.34189 5.78734 6.61123 5.78734 7.88109V11.8626C5.98564 11.6716 6.11024 11.5653 6.21894 11.4446C8.87692 8.49433 11.5333 5.54243 14.1902 2.59105C14.8159 1.8958 15.4447 1.2032 16.0651 0.503186C16.2236 0.324347 16.379 0.205297 16.6441 0.206884C18.8175 0.218525 20.9908 0.214292 23.1647 0.216408C23.2146 0.216408 23.2649 0.232811 23.4447 0.264028L23.4441 0.263499Z" fill="white"/>
<path d="M76.8037 28.5751V30.6016H71.2544V0.251854H76.8106V10.052C76.95 9.9372 77.002 9.89911 77.0481 9.85519C78.6886 8.28956 80.6615 7.65357 82.9044 7.76415C84.4388 7.83982 85.9149 8.14617 87.2903 8.852C89.5528 10.0123 90.9589 11.888 91.7712 14.2457C92.2866 15.7415 92.504 17.2892 92.5379 18.8675C92.5809 20.875 92.3873 22.8491 91.6774 24.7422C90.2999 28.4148 87.6344 30.4481 83.74 30.9C82.7517 31.0148 81.7644 31.045 80.7867 30.8407C79.2379 30.5169 77.9049 29.8132 76.8037 28.5761V28.5751ZM86.7442 19.3437C86.688 18.7485 86.6631 18.1485 86.5703 17.559C86.3699 16.286 85.9271 15.1082 85.0687 14.1172C83.2819 12.0558 80.1223 11.933 78.1822 13.8494C77.4755 14.5479 77.0179 15.3955 76.7326 16.3357C76.2374 17.968 76.186 19.6278 76.4691 21.3025C76.6568 22.412 77.0348 23.4464 77.7172 24.3539C79.4871 26.7068 82.9367 26.8904 84.9505 24.7427C85.5019 24.1544 85.8911 23.4702 86.1689 22.7189C86.5714 21.6305 86.7235 20.5025 86.7442 19.3437Z" fill="white"/>
<path d="M34.022 7.734C36.1004 7.75939 37.6868 7.97792 39.2001 8.58004C41.8183 9.62239 43.7531 11.4177 44.8612 13.9997C46.3978 17.5797 46.419 21.2168 44.831 24.7798C43.3167 28.1783 40.5871 30.1032 36.9541 30.7698C35.0373 31.1217 33.119 31.0762 31.2256 30.5905C27.5183 29.6397 24.995 27.3534 23.7638 23.7486C22.6509 20.4898 22.7368 17.2135 24.1307 14.0447C25.5756 10.76 28.1498 8.79698 31.6418 8.04564C32.5692 7.84617 33.5283 7.79537 34.022 7.73347V7.734ZM28.8788 19.3331C28.8703 20.6004 29.0819 21.8263 29.6291 22.9755C30.5978 25.01 32.1614 26.2105 34.4737 26.2258C36.7881 26.2412 38.3607 25.0533 39.3575 23.0343C39.7754 22.1882 39.9954 21.2818 40.0861 20.3464C40.2584 18.5702 40.0246 16.8585 39.1412 15.2854C38.0935 13.4198 36.4822 12.4373 34.3258 12.5007C32.2781 12.5611 30.7956 13.5918 29.8226 15.368C29.1471 16.6019 28.881 17.9379 28.8783 19.3337L28.8788 19.3331Z" fill="white"/>
<path d="M123.399 30.6085H117.847V29.9566C117.847 25.4063 117.853 20.8559 117.84 16.3056C117.838 15.7987 117.782 15.2823 117.672 14.7876C117.284 13.0283 115.878 12.3706 114.298 12.515C113.262 12.6097 112.437 13.1415 111.756 13.9045C110.79 14.987 110.263 16.2871 109.925 17.6728C109.619 18.9289 109.489 20.2072 109.489 21.4993C109.489 24.3211 109.489 27.1433 109.489 29.9651V30.5323C109.1 30.6614 104.615 30.6926 103.954 30.5746V8.14459H109.473V11.496C109.51 11.5108 109.548 11.5256 109.586 11.5404C109.724 11.3706 109.861 11.2002 110 11.0309C111.221 9.54778 112.705 8.44724 114.597 7.98162C116.328 7.55516 118.043 7.6668 119.691 8.34723C121.762 9.20228 122.898 10.8161 123.27 12.9859C123.359 13.5045 123.392 14.0378 123.393 14.5643C123.402 19.7321 123.398 24.8994 123.398 30.0672C123.398 30.2381 123.398 30.4095 123.398 30.6085H123.399Z" fill="white"/>
<path d="M67.7605 30.6153H62.2186C62.2096 30.3995 62.1937 30.1963 62.1937 29.9926C62.1921 25.4073 62.1953 20.8221 62.1879 16.2368C62.1873 15.8161 62.1571 15.3886 62.0792 14.9759C61.7139 13.0441 60.278 12.3685 58.6402 12.5177C57.6243 12.6103 56.812 13.1341 56.1381 13.877C55.2134 14.896 54.6943 16.1225 54.3438 17.431C53.9711 18.8204 53.8428 20.2411 53.8375 21.6723C53.8269 24.4412 53.8343 27.21 53.8348 29.9788C53.8348 30.1714 53.8348 30.3635 53.8348 30.545C53.4281 30.6587 49.0697 30.6884 48.3725 30.5921C48.2733 30.2032 48.2325 9.09222 48.3375 8.11548C50.1376 8.11019 51.9467 8.11337 53.8136 8.11337V11.4986C53.8486 11.5145 53.8841 11.5304 53.9191 11.5462C54.0252 11.4229 54.1349 11.3023 54.2362 11.1759C55.3162 9.8261 56.6126 8.75571 58.2669 8.19009C60.33 7.48426 62.3841 7.57844 64.3575 8.48851C66.1905 9.33402 67.2207 10.8441 67.5913 12.8007C67.699 13.369 67.7515 13.9558 67.753 14.5341C67.7652 19.7014 67.7605 24.8687 67.7605 30.036C67.7605 30.209 67.7605 30.382 67.7605 30.6159V30.6153Z" fill="white"/>
<path d="M126.861 8.13083H132.306C132.419 8.52554 132.469 29.4222 132.363 30.5418C132.01 30.6608 127.545 30.6947 126.861 30.5767V8.13083Z" fill="white"/>
<path d="M95.0156 8.13506H100.527C100.527 15.622 100.527 23.0866 100.527 30.5513C100.156 30.6603 95.6784 30.6873 95.0156 30.5783V8.13506Z" fill="white"/>
<path d="M94.7658 2.96831C94.779 1.28627 96.095 -0.00899114 97.7806 0.000532835C99.4662 0.0100568 100.77 1.31696 100.771 2.99741C100.771 4.6932 99.4142 6.02868 97.7249 5.99429C96.0272 5.95936 94.752 4.65617 94.7652 2.96884L94.7658 2.96831Z" fill="white"/>
<path d="M132.605 3.01963C132.595 4.70114 131.282 6.00063 129.598 5.99428C127.909 5.98846 126.615 4.6895 126.614 2.99846C126.614 1.28574 127.942 -0.0285726 129.646 -6.8525e-07C131.342 0.0285712 132.616 1.32754 132.605 3.0191V3.01963Z" fill="white"/>
<path d="M141 3.03338C140.988 4.72495 139.68 6.01333 137.993 5.99481C136.297 5.97576 135.024 4.68315 135.029 2.98523C135.034 1.28679 136.323 -0.00105943 138.014 0.000527894C139.732 0.00211522 141.012 1.30267 141 3.03338ZM138.013 5.30432C139.336 5.30485 140.337 4.32177 140.345 3.01328C140.354 1.68574 139.327 0.667206 137.995 0.681492C136.679 0.695778 135.687 1.69632 135.691 3.00587C135.695 4.31595 136.694 5.30432 138.013 5.30485V5.30432Z" fill="white"/>
<path d="M138.529 3.11328C138.781 3.52863 139.025 3.93181 139.273 4.34029C138.732 4.4969 138.724 4.49585 138.458 4.07838C138.298 3.82652 138.155 3.5625 137.982 3.32016C137.916 3.22704 137.787 3.17889 137.582 3.03815C137.582 3.37784 137.582 3.5826 137.582 3.78737C137.582 3.97785 137.582 4.16833 137.582 4.40537C137.378 4.41542 137.214 4.42336 137.018 4.43288V1.36299C137.433 1.36299 137.817 1.35029 138.199 1.36669C138.58 1.38256 138.879 1.54553 139.005 1.93178C139.132 2.32015 139.05 2.65825 138.739 2.93286C138.675 2.98947 138.609 3.04503 138.529 3.11328ZM137.617 1.90427V2.55983C137.823 2.55983 137.994 2.56777 138.163 2.55772C138.345 2.54661 138.448 2.44025 138.453 2.25665C138.459 2.05189 138.355 1.9249 138.151 1.90744C137.983 1.89315 137.813 1.90427 137.617 1.90427Z" fill="white"/>
</g>
<defs>
<clipPath id="clip0_180_2086">
<rect width="141" height="31" fill="white"/>
</clipPath>
</defs>
</svg>
