<svg width="153" height="49" viewBox="0 0 153 49" fill="none" xmlns="http://www.w3.org/2000/svg">
<g clip-path="url(#clip0_180_2098)">
<path d="M19.8194 19.0087C20.5698 19.7402 21.3202 20.4716 22.0691 21.2046C23.3476 22.4583 24.6461 23.6922 25.8968 24.9719C28.6884 27.8305 28.6344 32.3231 25.7918 35.139C21.9116 38.981 18.0268 42.82 14.1419 46.6575C12.8542 47.9295 11.3086 48.6946 9.49897 48.9267C9.43721 48.9343 9.36773 48.9237 9.33993 49.0015H8.95392C8.61886 48.9374 8.28535 48.9374 7.95029 49.0015H7.56427C6.10823 48.8641 4.80351 48.3434 3.65474 47.4592C1.93312 46.1337 0.892429 44.3975 0.609868 42.255C0.268633 39.6682 1.06382 37.4341 2.90587 35.5803C4.59815 33.8761 6.31822 32.1979 8.02749 30.5089C9.93902 28.6444 11.8274 26.757 13.7281 24.8818C15.5918 23.0417 17.4524 21.1985 19.316 19.3584C19.4427 19.2332 19.5569 19.0927 19.7144 19.0011C19.7499 18.9873 19.7854 18.9889 19.8194 19.0103V19.0087Z" fill="white"/>
<path d="M19.7964 19.0103C15.9656 22.7989 12.1332 26.5875 8.30089 30.3746C8.23913 30.4356 8.16193 30.4845 8.09245 30.5395C7.90871 30.5578 7.81915 30.4158 7.71416 30.312C5.74395 28.368 3.74903 26.447 1.81743 24.4634C0.772105 23.3898 0.125147 22.0857 0.0386805 20.5572C0.0371364 20.519 0.0278721 20.4839 -0.00146484 20.4548V19.3096C0.0618412 19.1568 0.0618412 19.0041 -0.00146484 18.8514V18.6224C0.135956 17.2572 0.674829 16.0585 1.53487 14.9911C1.66302 14.8307 1.80507 14.6841 1.95022 14.5406C4.13041 12.3813 6.31833 10.2297 8.49236 8.06435C8.55412 8.00174 8.60662 7.92386 8.70852 7.91776C8.96484 8.13002 9.18255 8.38198 9.41879 8.61409C12.2228 11.3826 15.0206 14.1558 17.8277 16.9212C18.4561 17.5412 19.0135 18.2269 19.6682 18.8209C19.7253 18.8728 19.7732 18.9324 19.7964 19.0087V19.0103Z" fill="white"/>
<path d="M19.7964 19.0103C19.3856 18.74 19.0691 18.3674 18.7387 18.0177C16.9074 16.0753 14.9604 14.2474 13.0751 12.3584C11.7225 11.0009 10.3514 9.66165 8.9911 8.31021C8.8861 8.20484 8.73788 8.12544 8.72707 7.94983C8.65141 7.77422 8.80273 7.69481 8.89228 7.60471C10.6679 5.8425 12.4328 4.06959 14.2316 2.33181C15.3202 1.27967 16.5739 0.482549 18.0871 0.138963C18.4114 0.0656644 18.7464 0.0870431 19.066 -0.00152588H20.3013C20.4819 0.0610832 20.661 0.0610832 20.8417 -0.00152588H20.9961C21.5442 0.198518 22.1279 0.262654 22.6807 0.450481C28.0231 2.26767 29.6644 9.24935 25.6668 13.1998C23.8109 15.0338 21.9441 16.8586 20.0836 18.688C19.9847 18.7843 19.8566 18.8606 19.8164 19.0057H19.7933L19.7964 19.0103Z" fill="white"/>
<path d="M7.95166 49C8.28672 48.8732 8.62023 48.8794 8.95529 49H7.95166Z" fill="#524BF2"/>
<path d="M20.8432 0C20.6625 0.13438 20.4834 0.108421 20.3027 0H20.8432Z" fill="#4E8EFC"/>
<path d="M152.999 29.385C152.863 29.2064 152.894 29.0292 152.999 28.8506V29.385Z" fill="white"/>
<path d="M0 18.853C0.122717 19.0057 0.111979 19.1584 0 19.3111V18.853Z" fill="white"/>
<path d="M152.999 28.1634C152.894 28.0107 152.869 27.858 152.999 27.7053V28.1634Z" fill="white"/>
<path d="M68.7749 26.389C69.5578 25.3811 70.2804 24.4511 71.0015 23.5196C72.3834 21.736 73.7668 19.954 75.1441 18.1673C75.2677 18.0055 75.3835 17.9077 75.612 17.9077C78.1844 17.9169 80.7583 17.9138 83.3307 17.9138C83.3909 17.9138 83.4527 17.9215 83.5839 17.9322C83.3523 18.2147 83.1547 18.4544 82.957 18.6957C80.6008 21.5787 78.2477 24.4649 75.8837 27.3403C75.7185 27.5404 75.7309 27.6564 75.8745 27.8549C78.5086 31.5031 81.1351 35.1573 83.763 38.81C83.8341 38.9092 83.9035 39.0085 84.007 39.1551H83.3029C80.8463 39.1551 78.3882 39.1505 75.9316 39.1627C75.6521 39.1627 75.4977 39.0803 75.3526 38.8466C73.8935 36.5011 72.422 34.1632 70.9536 31.8222C70.9196 31.7688 70.8779 31.7214 70.8254 31.6496C70.1708 32.4193 69.5315 33.1798 68.8799 33.9295C68.761 34.0654 68.7765 34.2075 68.7765 34.3571C68.7765 35.8322 68.7688 37.3089 68.7811 38.784C68.7827 39.0589 68.744 39.1719 68.4183 39.1704C66.36 39.1521 64.3018 39.1551 62.2436 39.1704C61.9456 39.1719 61.8916 39.0894 61.8931 38.813C61.9008 29.2736 61.9008 19.7325 61.8931 10.1931C61.8931 9.87238 61.9796 9.79908 62.2976 9.80213C64.3173 9.81741 66.3369 9.82046 68.3565 9.80061C68.7286 9.79603 68.7857 9.91819 68.7842 10.2465C68.7749 15.4614 68.778 20.6763 68.778 25.8927V26.3935L68.7749 26.389Z" fill="white"/>
<path d="M49.3 39.6712C46.1131 39.5995 43.1022 38.9444 40.3754 37.2616C40.0496 37.06 39.7562 36.8096 39.4382 36.5958C39.2575 36.4736 39.2251 36.3743 39.3517 36.1712C40.2241 34.7816 41.0826 33.3829 41.9395 31.9841C42.0383 31.8222 42.1063 31.7779 42.2854 31.9123C44.1228 33.2882 46.1872 34.1342 48.4662 34.4671C49.4668 34.6137 50.4627 34.661 51.4401 34.3312C52.1843 34.0792 52.6089 33.5218 52.541 32.9034C52.4838 32.3918 52.1457 32.0955 51.7118 31.8833C50.9305 31.5015 50.0813 31.361 49.2336 31.216C47.5259 30.9243 45.8074 30.68 44.1799 30.06C42.8104 29.5377 41.6014 28.7941 40.8324 27.5037C39.554 25.3597 39.5926 21.6673 42.466 19.3966C43.8634 18.2925 45.4785 17.7184 47.2217 17.4878C50.2372 17.0892 53.1354 17.5153 55.8962 18.7934C56.6296 19.1324 57.3198 19.5462 57.9976 19.9845C58.2138 20.125 58.2045 20.2319 58.0887 20.4289C57.3044 21.7528 56.5262 23.0798 55.7572 24.4114C55.6445 24.6054 55.5812 24.6283 55.4005 24.4817C53.9877 23.3333 52.3696 22.6385 50.5584 22.4034C49.6382 22.2842 48.7133 22.2461 47.8054 22.5103C47.5707 22.579 47.3468 22.6736 47.1414 22.8034C46.3277 23.3165 46.3293 24.2251 47.163 24.7C47.9088 25.1246 48.7503 25.2635 49.5826 25.4132C51.386 25.7384 53.2049 26.0041 54.9142 26.7066C56.2837 27.2701 57.485 28.0565 58.2447 29.356C59.6235 31.7153 59.5062 35.594 56.3162 37.7823C54.5822 38.9719 52.6213 39.4483 50.5569 39.6086C50.1338 39.6407 49.7092 39.6499 49.2985 39.6682L49.3 39.6712Z" fill="white"/>
<path d="M126.683 24.4985C126.683 29.2537 126.679 34.0105 126.693 38.7657C126.693 39.1169 126.591 39.1704 126.27 39.1673C124.225 39.1521 122.179 39.1551 120.135 39.1673C119.871 39.1673 119.795 39.1139 119.795 38.839C119.803 29.2766 119.803 19.7142 119.795 10.1534C119.795 9.86017 119.876 9.79909 120.158 9.80061C122.203 9.81283 124.248 9.81436 126.293 9.80061C126.615 9.79756 126.693 9.87697 126.693 10.1946C126.682 14.9636 126.685 19.731 126.685 24.5L126.683 24.4985Z" fill="white"/>
<path d="M115.507 24.5C115.507 29.2568 115.504 34.0135 115.515 38.7703C115.515 39.0757 115.461 39.1734 115.127 39.1704C113.095 39.1521 111.062 39.1551 109.03 39.1688C108.727 39.1704 108.618 39.1246 108.619 38.7871C108.63 29.2613 108.63 19.7341 108.619 10.2083C108.619 9.851 108.732 9.79909 109.051 9.80214C111.059 9.81588 113.064 9.81741 115.072 9.80214C115.413 9.79909 115.52 9.87086 115.52 10.2312C115.506 14.988 115.51 19.7448 115.51 24.5015L115.507 24.5Z" fill="white"/>
<path d="M153 27.2487C152.853 27.0868 152.89 26.8761 152.858 26.6867C152.171 22.7958 150.051 19.986 146.382 18.3826C144.011 17.3458 141.514 17.1625 138.979 17.5641C135.753 18.0757 133.136 19.6073 131.343 22.3469C129.635 24.9566 129.163 27.8397 129.782 30.8586C130.546 34.5846 132.693 37.2784 136.267 38.7581C138.677 39.7568 141.196 39.8896 143.76 39.4712C148.402 38.7138 151.907 35.3405 152.785 30.7838C152.85 30.4448 152.821 30.0829 153 29.7668V29.385C152.937 29.2064 152.937 29.0292 153 28.8506V28.1634C152.937 28.0107 152.937 27.858 153 27.7053V27.2472V27.2487ZM145.023 31.7627C143.953 33.3706 142.334 33.9082 140.458 33.6425C138.67 33.389 137.555 32.291 136.95 30.651C136.696 29.9653 136.602 29.2491 136.602 28.281C136.607 27.4243 136.812 26.3737 137.402 25.4285C138.381 23.8586 139.862 23.2509 141.661 23.3807C143.486 23.512 144.815 24.4359 145.496 26.1187C146.28 28.0565 146.202 29.9928 145.023 31.7642V31.7627Z" fill="white"/>
<path d="M105.293 24.8787C104.308 21.8643 102.457 19.589 99.4892 18.2895C97.5376 17.4343 95.484 17.2236 93.3794 17.4771C90.2651 17.8512 87.6819 19.2072 85.7688 21.6918C83.885 24.1381 83.2489 26.9356 83.6009 29.9546C84.1028 34.2594 86.3756 37.2753 90.472 38.8589C93.4381 40.0057 96.483 39.9095 99.5294 39.1856C101.166 38.7962 102.693 38.1549 104.019 37.0997C104.203 36.9531 104.237 36.8554 104.092 36.6462C103.234 35.4123 102.389 34.1693 101.551 32.9202C101.41 32.7109 101.322 32.6621 101.097 32.8316C100.26 33.4607 99.324 33.9051 98.3065 34.1571C96.3764 34.6335 94.4803 34.6228 92.7139 33.5829C91.6069 32.9308 90.895 31.9703 90.6032 30.6754H99.8907C101.794 30.6754 103.698 30.6754 105.601 30.6754C105.755 30.6754 105.925 30.738 105.929 30.4555C105.957 28.5681 105.886 26.6944 105.292 24.8772L105.293 24.8787ZM99.0723 26.2668C97.465 26.2561 95.8576 26.2622 94.2518 26.2622H90.5121C90.7808 23.9625 92.9208 22.3789 95.3481 22.6202C96.8736 22.7714 98.1088 23.3547 98.8778 24.7229C99.097 25.1139 99.2175 25.5399 99.3286 25.9721C99.392 26.2179 99.3163 26.2698 99.0723 26.2683V26.2668Z" fill="white"/>
</g>
<defs>
<clipPath id="clip0_180_2098">
<rect width="153" height="49" fill="white"/>
</clipPath>
</defs>
</svg>
