<svg width="290" height="90" viewBox="0 0 290 90" fill="none" xmlns="http://www.w3.org/2000/svg">
<path d="M277.185 7.58252H17.2793C11.3064 7.58252 6.46436 12.4262 6.46436 18.4011V77.1495C6.46436 83.1244 11.3064 87.9681 17.2793 87.9681H277.185C283.158 87.9681 288 83.1244 288 77.1495V18.4011C288 12.4262 283.158 7.58252 277.185 7.58252Z" fill="black" stroke="#020202" stroke-width="3" stroke-miterlimit="10"/>
<path d="M272.162 2H12.815C6.84203 2 2 6.84363 2 12.8186V71.567C2 77.5419 6.84203 82.3855 12.815 82.3855H272.162C278.135 82.3855 282.977 77.5419 282.977 71.567V12.8186C282.977 6.84363 278.135 2 272.162 2Z" fill="#FFC903" stroke="#020202" stroke-width="3" stroke-miterlimit="10"/>
<path d="M43.3124 51.5712V39.2844H40.271V35.9016H43.3124V33.7412C43.3124 32.4852 43.6583 31.4915 44.3447 30.7491C45.0367 30.0066 45.9966 29.6382 47.2299 29.6382H52.057V33.183H49.144C48.664 33.183 48.3125 33.2946 48.0948 33.5123C47.8772 33.73 47.7656 34.0817 47.7656 34.5618V35.9071H51.3985V39.29H47.7656V51.5767H43.3179L43.3124 51.5712Z" fill="black"/>
<path d="M53.843 46.4631V35.9014H58.2906V45.4304C58.2906 47.3954 59.0719 48.3779 60.64 48.3779C61.6836 48.3779 62.4704 47.9592 62.9894 47.1219C63.514 46.2845 63.7707 45.129 63.7707 43.6441V35.9014H68.2183V51.5765H64.0832C64.1055 50.5941 64.6077 49.3939 65.5899 47.9704H63.6758C63.2349 49.2264 62.5932 50.22 61.7505 50.9625C60.9023 51.7049 59.8978 52.0734 58.7259 52.0734C57.2415 52.0734 56.0584 51.5654 55.1711 50.555C54.2838 49.539 53.8374 48.1769 53.8374 46.4631H53.843Z" fill="black"/>
<path d="M74.1445 47.4677V39.284H70.8521V35.9012H74.1445V30.9775H78.5922V35.9012H82.6659V39.284H78.5922V46.6527C78.5922 47.1328 78.7038 47.4845 78.9214 47.7022C79.1391 47.9199 79.4906 48.0316 79.9706 48.0316H83.3523V51.5763H78.1178C76.8845 51.5763 75.9135 51.2023 75.2048 50.4487C74.4961 49.6951 74.139 48.7014 74.139 47.4733L74.1445 47.4677Z" fill="black"/>
<path d="M86.0197 46.4631V35.9014H90.4674V45.4304C90.4674 47.3954 91.2487 48.3779 92.8168 48.3779C93.8603 48.3779 94.6472 47.9592 95.1661 47.1219C95.6907 46.2845 95.9474 45.129 95.9474 43.6441V35.9014H100.395V51.5765H96.2599C96.2822 50.5941 96.7845 49.3939 97.7667 47.9704H95.8525C95.4117 49.2264 94.7699 50.22 93.9273 50.9625C93.079 51.7049 92.0746 52.0734 90.9027 52.0734C89.4183 52.0734 88.2352 51.5654 87.3479 50.555C86.4606 49.539 86.0142 48.1769 86.0142 46.4631H86.0197Z" fill="black"/>
<path d="M104.731 51.5708V35.8956H108.743C108.743 37.5703 108.291 39.1557 107.398 40.6573H109.279C109.675 38.8822 110.261 37.5926 111.031 36.7888C111.801 35.9849 112.984 35.583 114.575 35.583C115.099 35.583 115.412 35.5942 115.512 35.6165V40.194C114.904 40.1326 114.329 40.0991 113.788 40.0991C112.114 40.0991 110.931 40.4955 110.233 41.2881C109.536 42.0808 109.184 43.5043 109.184 45.553V51.5708H104.737H104.731Z" fill="black"/>
<path d="M116.539 43.7056C116.539 41.3052 117.293 39.3235 118.794 37.766C120.301 36.2086 122.187 35.4326 124.464 35.4326C126.741 35.4326 128.683 36.2086 130.039 37.7549C131.395 39.3012 132.076 41.2996 132.076 43.7391C132.076 44.2192 132.064 44.5765 132.042 44.8053H120.982C121.043 46.0781 121.389 47.0439 122.014 47.7026C122.639 48.3613 123.465 48.6906 124.492 48.6906C126.121 48.6906 127.332 47.7807 128.125 45.9609L132.103 47.496C131.562 48.7521 130.68 49.835 129.469 50.7561C128.281 51.6325 126.618 52.0735 124.486 52.0735C122.081 52.0735 120.156 51.3143 118.705 49.8015C117.254 48.2887 116.528 46.2568 116.528 43.7056H116.539ZM121.143 41.6681H127.661C127.433 39.6417 126.367 38.6257 124.464 38.6257C123.565 38.6257 122.823 38.8881 122.237 39.4072C121.651 39.932 121.288 40.68 121.138 41.6625L121.143 41.6681Z" fill="black"/>
<path d="M142.801 57.6836V35.9013H146.842C146.842 36.7387 146.401 37.8049 145.525 39.1H147.405C148.03 37.8886 148.706 36.9787 149.426 36.3702C150.145 35.7618 151.228 35.438 152.668 35.3989C154.571 35.3989 156.122 36.1749 157.322 37.7212C158.522 39.2675 159.124 41.2715 159.124 43.7389C159.124 46.2063 158.522 48.2048 157.322 49.7399C156.122 51.2751 154.571 52.0454 152.668 52.0454C150.246 52.0454 148.51 50.8117 147.467 48.3443H145.586C145.982 48.9919 146.278 49.5222 146.462 49.9297C146.646 50.3372 146.825 50.9569 146.992 51.7942C147.16 52.6316 147.244 53.6252 147.244 54.7696V57.6836H142.796H142.801ZM154.459 43.7333C154.459 40.4342 153.237 38.7818 150.793 38.7818C149.643 38.7818 148.734 39.2117 148.064 40.0658C147.394 40.9254 147.059 42.148 147.059 43.7333C147.059 45.3187 147.389 46.5692 148.047 47.4177C148.706 48.2662 149.621 48.6849 150.787 48.6849C153.231 48.6849 154.454 47.0325 154.454 43.7333H154.459Z" fill="black"/>
<path d="M161.413 43.7056C161.413 41.3052 162.166 39.3235 163.667 37.766C165.174 36.2086 167.06 35.4326 169.337 35.4326C171.614 35.4326 173.556 36.2086 174.912 37.7549C176.268 39.3012 176.949 41.2996 176.949 43.7391C176.949 44.2192 176.937 44.5765 176.915 44.8053H165.855C165.916 46.0781 166.262 47.0439 166.887 47.7026C167.512 48.3613 168.338 48.6906 169.365 48.6906C170.994 48.6906 172.205 47.7807 172.998 45.9609L176.976 47.496C176.435 48.7521 175.553 49.835 174.342 50.7561C173.154 51.6325 171.491 52.0735 169.359 52.0735C166.954 52.0735 165.029 51.3143 163.578 49.8015C162.127 48.2887 161.401 46.2568 161.401 43.7056H161.413ZM166.016 41.6681H172.534C172.306 39.6417 171.24 38.6257 169.337 38.6257C168.438 38.6257 167.696 38.8881 167.11 39.4072C166.524 39.932 166.162 40.68 166.011 41.6625L166.016 41.6681Z" fill="black"/>
<path d="M179.242 43.7333C179.242 41.2659 180.012 39.2674 181.564 37.7323C183.109 36.1971 185.085 35.4268 187.485 35.4268C189.884 35.4268 191.888 36.1971 193.422 37.7323C194.957 39.2674 195.727 41.2715 195.727 43.7333C195.727 46.1951 194.962 48.2605 193.439 49.7845C191.915 51.3085 189.929 52.0733 187.485 52.0733C185.04 52.0733 183.16 51.2862 181.592 49.7064C180.023 48.1266 179.242 46.1392 179.242 43.7333ZM190.13 47.3227C190.766 46.5188 191.084 45.341 191.084 43.7947C191.084 42.2484 190.766 41.0537 190.13 40.2052C189.494 39.3567 188.612 38.938 187.485 38.938C186.357 38.938 185.476 39.3623 184.839 40.2052C184.203 41.0537 183.885 42.2484 183.885 43.7947C183.885 45.341 184.203 46.5188 184.839 47.3227C185.476 48.1266 186.357 48.5285 187.485 48.5285C188.612 48.5285 189.494 48.1266 190.13 47.3227Z" fill="black"/>
<path d="M198.986 57.6836V35.9013H203.026C203.026 36.7387 202.585 37.8049 201.709 39.1H203.59C204.215 37.8886 204.89 36.9787 205.61 36.3702C206.33 35.7618 207.413 35.438 208.852 35.3989C210.755 35.3989 212.307 36.1749 213.506 37.7212C214.706 39.2675 215.309 41.2715 215.309 43.7389C215.309 46.2063 214.706 48.2048 213.506 49.7399C212.307 51.2751 210.755 52.0454 208.852 52.0454C206.43 52.0454 204.695 50.8117 203.651 48.3443H201.771C202.167 48.9919 202.463 49.5222 202.647 49.9297C202.831 50.3372 203.01 50.9569 203.177 51.7942C203.344 52.6316 203.428 53.6252 203.428 54.7696V57.6836H198.98H198.986ZM210.644 43.7333C210.644 40.4342 209.422 38.7818 206.977 38.7818C205.828 38.7818 204.918 39.2117 204.248 40.0658C203.579 40.9254 203.244 42.148 203.244 43.7333C203.244 45.3187 203.573 46.5692 204.232 47.4177C204.89 48.2662 205.805 48.6849 206.972 48.6849C209.416 48.6849 210.638 47.0325 210.638 43.7333H210.644Z" fill="black"/>
<path d="M218.629 51.5709V29.6323H223.077V51.5765H218.629V51.5709Z" fill="black"/>
<path d="M226.369 43.7056C226.369 41.3052 227.122 39.3235 228.624 37.766C230.13 36.2086 232.017 35.4326 234.293 35.4326C236.57 35.4326 238.512 36.2086 239.868 37.7549C241.224 39.3012 241.905 41.2996 241.905 43.7391C241.905 44.2192 241.894 44.5765 241.872 44.8053H230.811C230.873 46.0781 231.219 47.0439 231.844 47.7026C232.469 48.3613 233.294 48.6906 234.321 48.6906C235.951 48.6906 237.162 47.7807 237.954 45.9609L241.933 47.496C241.392 48.7521 240.51 49.835 239.299 50.7561C238.11 51.6325 236.447 52.0735 234.316 52.0735C231.91 52.0735 229.985 51.3143 228.534 49.8015C227.083 48.2887 226.358 46.2568 226.358 43.7056H226.369ZM230.973 41.6681H237.491C237.262 39.6417 236.196 38.6257 234.293 38.6257C233.395 38.6257 232.653 38.8881 232.067 39.4072C231.481 39.932 231.118 40.68 230.967 41.6625L230.973 41.6681Z" fill="black"/>
<path d="M244.952 51.5712V46.6196H250.12V51.5712H244.952Z" fill="black"/>
</svg>
