<svg width="19" height="21" viewBox="0 0 19 21" fill="none" xmlns="http://www.w3.org/2000/svg">
<path d="M15.2423 11.3679L15.2312 11.3757L15.2203 11.3837L4.99481 18.8988C4.28677 19.3654 3.3533 19.4762 2.52519 19.176C1.72916 18.8875 1.18108 18.2777 1.00009 17.5845L1.00009 2.74491C1.15898 2.06294 1.68558 1.45494 2.46447 1.16704C3.27687 0.866754 4.19669 0.978313 4.88565 1.44441L15.4164 8.93845C15.793 9.27522 15.9738 9.72366 15.9492 10.1631C15.9238 10.6168 15.6808 11.0636 15.2423 11.3679Z" fill="black" stroke="black" stroke-width="2"/>
<path d="M16.9376 11.3679L16.9265 11.3757L16.9156 11.3837L6.69013 18.8988C5.98209 19.3654 5.04862 19.4762 4.22051 19.176C3.42447 18.8875 2.8764 18.2777 2.6954 17.5845L2.6954 2.74491C2.85429 2.06294 3.38089 1.45494 4.15979 1.16704C4.97218 0.866754 5.892 0.978313 6.58096 1.44441L17.1118 8.93845C17.4883 9.27522 17.6691 9.72366 17.6445 10.1631C17.6191 10.6168 17.3761 11.0636 16.9376 11.3679Z" fill="#FE91E8" stroke="black" stroke-width="2"/>
</svg>
