<svg width="52" height="105" viewBox="0 0 52 105" fill="none" xmlns="http://www.w3.org/2000/svg">
<g clip-path="url(#clip0_519_311)">
<path d="M16.2895 9.97431L-29.5638 21.6025C-37.8668 23.7081 -42.8667 32.2407 -40.7314 40.6606L-28.9395 87.1597C-26.8043 95.5797 -18.3424 100.698 -10.0394 98.5929L35.8139 86.9647C44.1169 84.8591 49.1168 76.3265 46.9816 67.9066L35.1896 21.4074C33.0544 12.9875 24.5925 7.86872 16.2895 9.97431Z" fill="black"/>
<path d="M36.0074 87.727L-9.84593 99.3551C-18.5505 101.563 -27.4525 96.1776 -29.691 87.3504L-41.483 40.8512C-43.7215 32.024 -38.4615 23.0476 -29.7569 20.8402L16.0964 9.21203C24.801 7.00458 33.703 12.3896 35.9415 21.2168L47.7334 67.7159C49.972 76.5432 44.712 85.5195 36.0074 87.727ZM-29.3703 22.3647C-37.2455 24.3619 -42.0048 32.4838 -39.9796 40.47L-28.1876 86.9691C-26.1624 94.9553 -18.1078 99.8277 -10.2326 97.8306L35.6208 86.2024C43.496 84.2053 48.2553 76.0834 46.2301 68.0972L34.4381 21.598C32.4129 13.6119 24.3583 8.73947 16.483 10.7366L-29.3703 22.3647Z" fill="#020202"/>
<path d="M9.83202 6.068L-36.0213 17.6962C-44.3243 19.8017 -49.3242 28.3344 -47.189 36.7543L-35.397 83.2534C-33.2618 91.6734 -24.7999 96.7921 -16.4969 94.6865L29.3564 83.0584C37.6594 80.9528 42.6593 72.4202 40.524 64.0003L28.7321 17.5011C26.5969 9.08118 18.135 3.96241 9.83202 6.068Z" fill="#FE91E8"/>
<path d="M29.5499 83.8207L-16.3035 95.4488C-25.0081 97.6563 -33.91 92.2713 -36.1485 83.4441L-47.9405 36.9449C-50.179 28.1177 -44.919 19.1413 -36.2144 16.9339L9.6389 5.30571C18.3435 3.09827 27.2455 8.48326 29.484 17.3105L41.2759 63.8096C43.5145 72.6368 38.2545 81.6132 29.5499 83.8207ZM-35.8278 18.4584C-43.7031 20.4556 -48.4623 28.5775 -46.4371 36.5637L-34.6452 83.0628C-32.6199 91.049 -24.5653 95.9214 -16.6901 93.9243L29.1633 82.2961C37.0385 80.299 41.7978 72.177 39.7725 64.1909L27.9806 17.6917C25.9554 9.70557 17.9008 4.83315 10.0255 6.83028L-35.8278 18.4584Z" fill="#020202"/>
<path d="M10.9526 39.4043C9.70506 40.5212 9.66414 42.0108 9.78559 43.4782C9.92888 45.2105 10.2114 46.9346 10.4695 48.6567C10.7773 50.7015 11.1159 52.7413 10.8844 54.8147C10.7215 56.265 10.2786 57.5997 9.22773 58.6613C6.55261 61.3625 2.32562 60.9308 0.0529157 57.7211C-0.940287 56.3179 -1.60704 54.7508 -2.16119 53.1335C-2.91365 50.9445 -3.61042 48.7333 -4.38228 46.5519C-4.61954 45.8792 -5.01581 45.263 -5.35072 44.6259C-5.41236 44.509 -5.51968 44.4118 -5.61568 44.3172C-6.05268 43.898 -6.54715 43.9882 -6.63047 44.5745C-6.74085 45.3381 -6.80075 46.143 -6.68841 46.9014C-6.39584 48.9069 -5.99984 50.8996 -5.64771 52.8981C-5.29093 54.9359 -4.98369 56.9782 -5.23092 59.0529C-5.39505 60.4143 -5.81526 61.6702 -6.77232 62.6809C-9.23111 65.2678 -13.4005 65.0108 -15.6301 62.1498C-16.7888 60.6616 -17.5719 58.9725 -18.2267 57.2212C-19.9464 52.6272 -21.058 47.8547 -22.271 43.1133C-22.2768 43.0904 -22.2733 43.0625 -22.2761 43.0091L-17.3751 41.7662C-17.3385 41.8895 -17.2963 42.014 -17.2609 42.1429C-16.3981 45.3559 -15.5654 48.5766 -14.6656 51.7775C-14.0962 53.802 -13.4585 55.8119 -12.4891 57.6889C-12.2584 58.1361 -11.9712 58.5744 -11.635 58.9435C-11.1027 59.5279 -10.4563 59.3639 -10.3636 58.5832C-10.2626 57.7301 -10.2378 56.8395 -10.3595 55.9914C-10.647 53.9955 -11.0448 52.0167 -11.3912 50.0303C-11.7454 48.0027 -12.0262 45.9699 -11.7186 43.9123C-11.4381 42.032 -10.6352 40.4762 -8.87715 39.6166C-7.17096 38.7837 -5.40691 38.5364 -3.62343 39.4174C-2.37317 40.036 -1.52036 41.0854 -0.814166 42.2612C0.278412 44.0773 0.937371 46.0764 1.57693 48.0831C2.19215 50.0148 2.72289 51.9815 3.64043 53.8014C3.84963 54.2162 4.12025 54.6208 4.43561 54.96C4.87168 55.4282 5.51456 55.2922 5.68299 54.6734C5.82938 54.136 5.90261 53.5414 5.84496 52.9881C5.66939 51.3073 5.43862 49.6296 5.1878 47.957C4.83001 45.5787 4.47351 43.2054 4.8095 40.7972C5.08737 38.8012 5.86516 37.0625 7.35822 35.6941C7.44678 35.6122 7.53977 35.5372 7.65646 35.44C8.76149 36.7688 9.85133 38.0799 10.9519 39.4018L10.9526 39.4043Z" fill="black"/>
</g>
<defs>
<clipPath id="clip0_519_311">
<rect width="85.1744" height="86.3741" fill="white" transform="translate(-52 20.937) rotate(-14.2299)"/>
</clipPath>
</defs>
</svg>
