<svg width="453" height="282" viewBox="0 0 453 282" fill="none" xmlns="http://www.w3.org/2000/svg">
<g clip-path="url(#clip0_180_1188)">
<path d="M403.302 85.6616L70.0884 51.2018C63.905 50.5333 58.3527 54.9938 57.6831 61.167L43.3194 201.68C42.6498 207.851 47.1177 213.397 53.3011 214.065L245.514 234.658L288.264 239.548C288.804 239.607 289.322 239.758 289.802 239.989C290.208 240.329 290.599 240.69 290.955 241.086L313.807 266.515C314.352 267.122 314.939 267.645 315.552 268.098L325.554 279.231C328.295 282.281 333.358 280.651 333.803 276.578L336.736 249.549C336.943 247.626 339.951 245.384 342.558 244.455C343.796 244.153 345.103 244.044 346.445 244.189L386.514 248.522C392.698 249.191 398.25 244.73 398.92 238.557L413.283 98.0435C413.953 91.8703 409.485 86.3272 403.302 85.6587V85.6616Z" fill="black"/>
<path d="M329.054 282C327.409 282 325.827 281.311 324.674 280.024L314.749 268.979C314.082 268.476 313.469 267.914 312.924 267.308L290.072 241.879C289.817 241.595 289.515 241.305 289.159 240.997C288.827 240.852 288.484 240.764 288.137 240.725L245.381 235.833L53.1767 215.24C46.3533 214.5 41.4054 208.359 42.1432 201.55L56.5069 61.0458C56.8654 57.7388 58.489 54.7779 61.0785 52.6955C63.6681 50.6161 66.9153 49.6666 70.2188 50.0245L403.432 84.4873C410.253 85.2239 415.203 91.3645 414.463 98.1766L400.099 238.681C399.358 245.499 393.207 250.439 386.387 249.702L346.318 245.369C345.189 245.248 344.039 245.325 342.902 245.594C340.463 246.478 338.049 248.451 337.915 249.679L334.982 276.708C334.727 279.063 333.166 280.98 330.905 281.704C330.292 281.902 329.667 281.997 329.054 281.997V282ZM68.8589 52.3169C66.5687 52.3169 64.3673 53.0889 62.5629 54.5383C60.4652 56.2214 59.1527 58.6203 58.8624 61.2913L44.4986 201.796C43.9001 207.315 47.9059 212.288 53.4286 212.885L245.641 233.478L288.401 238.371C289.056 238.442 289.701 238.625 290.315 238.921L290.448 238.986L290.564 239.08C291.061 239.498 291.479 239.894 291.838 240.296L314.69 265.725C315.155 266.243 315.682 266.722 316.26 267.148L316.355 267.219L316.435 267.308L326.437 278.442C327.403 279.515 328.802 279.894 330.176 279.45C331.554 279.007 332.467 277.886 332.624 276.451L335.557 249.421C335.862 246.594 339.77 244.192 342.161 243.343L342.277 243.307C343.702 242.958 345.148 242.858 346.573 243.015L386.642 247.348C392.165 247.945 397.145 243.946 397.741 238.433L412.104 97.9282C412.703 92.4087 408.7 87.4393 403.18 86.8389L69.964 52.3761C69.5937 52.3347 69.2233 52.3169 68.8559 52.3169H68.8589Z" fill="black"/>
<path d="M399.746 79.45L66.5331 44.9901C60.3497 44.3216 54.7974 48.7822 54.1278 54.9553L39.7641 195.469C39.0945 201.639 43.5624 207.185 49.7458 207.854L242.255 228.447L284.709 233.336C285.248 233.395 285.767 233.546 286.247 233.777C286.653 234.117 287.044 234.478 287.399 234.874L310.252 260.304C310.797 260.91 311.383 261.434 311.997 261.886L321.999 273.02C324.74 276.069 329.803 274.44 330.248 270.366L333.181 243.337C333.388 241.414 336.395 239.172 339.003 238.243C340.241 237.942 341.548 237.832 342.89 237.977L382.959 242.311C389.142 242.979 394.695 238.518 395.364 232.345L409.728 91.8318C410.398 85.6586 405.93 80.1155 399.746 79.447V79.45Z" fill="#F9F9F9"/>
<path d="M325.498 275.788C323.854 275.788 322.272 275.099 321.119 273.812L311.194 262.768C310.527 262.265 309.914 261.703 309.369 261.096L286.516 235.667C286.262 235.383 285.959 235.093 285.604 234.786C285.272 234.641 284.928 234.552 284.582 234.513L242.119 229.621L49.6184 209.028C42.795 208.288 37.8471 202.148 38.5848 195.339L52.9486 54.8341C53.3071 51.5271 54.9307 48.5662 57.5202 46.4838C60.1097 44.4044 63.357 43.4549 66.6605 43.8128L399.874 78.2757C406.694 79.0122 411.645 85.1528 410.904 91.965L396.541 232.469C395.8 239.288 389.649 244.227 382.829 243.491L342.76 239.157C341.631 239.036 340.481 239.11 339.343 239.382C336.905 240.267 334.49 242.24 334.357 243.467L331.424 270.497C331.169 272.851 329.608 274.768 327.347 275.493C326.734 275.691 326.109 275.785 325.495 275.785L325.498 275.788ZM65.3035 46.1052C63.0133 46.1052 60.8119 46.8773 59.0075 48.3266C56.9099 50.0097 55.5973 52.4086 55.307 55.0796L40.9432 195.584C40.3447 201.104 44.3505 206.076 49.8732 206.673L242.382 227.267L284.845 232.159C285.497 232.23 286.146 232.413 286.759 232.709L286.893 232.774L287.008 232.869C287.506 233.286 287.924 233.682 288.282 234.085L311.134 259.514C311.6 260.031 312.127 260.511 312.705 260.937L312.8 261.008L312.88 261.096L322.882 272.23C323.848 273.304 325.246 273.682 326.621 273.239C327.999 272.795 328.911 271.674 329.068 270.239L332.002 243.21C332.307 240.382 336.215 237.98 338.606 237.131L338.721 237.096C340.146 236.747 341.592 236.646 343.017 236.803L383.086 241.136C388.609 241.731 393.59 237.735 394.185 232.221L408.549 91.7165C409.147 86.197 405.145 81.2277 399.625 80.6272L66.4087 46.1644C66.0383 46.123 65.6679 46.1052 65.3006 46.1052H65.3035Z" fill="black"/>
<path d="M89.1185 6.95117H34.899C25.0811 6.95117 17.1221 14.897 17.1221 24.6987V78.8288C17.1221 88.6305 25.0811 96.5764 34.899 96.5764H89.1185C98.9365 96.5764 106.895 88.6305 106.895 78.8288V24.6987C106.895 14.897 98.9365 6.95117 89.1185 6.95117Z" fill="black"/>
<path d="M89.1185 97.4638H34.8989C24.6061 97.4638 16.2332 89.1047 16.2332 78.8288V24.6987C16.2332 14.4229 24.6061 6.06378 34.8989 6.06378H89.1185C99.4113 6.06378 107.784 14.4229 107.784 24.6987V78.8288C107.784 89.1047 99.4113 97.4638 89.1185 97.4638ZM34.8989 7.83854C25.5868 7.83854 18.0108 15.402 18.0108 24.6987V78.8288C18.0108 88.1256 25.5868 95.689 34.8989 95.689H89.1185C98.4306 95.689 106.007 88.1256 106.007 78.8288V24.6987C106.007 15.402 98.4306 7.83854 89.1185 7.83854H34.8989Z" fill="#020202"/>
<path d="M83.0448 0.88739H28.8252C19.0073 0.88739 11.0483 8.83325 11.0483 18.635V72.765C11.0483 82.5668 19.0073 90.5126 28.8252 90.5126H83.0448C92.8627 90.5126 100.822 82.5668 100.822 72.765V18.635C100.822 8.83325 92.8627 0.88739 83.0448 0.88739Z" fill="#91A8ED"/>
<path d="M83.0447 91.4H28.8252C18.5323 91.4 10.1594 83.0409 10.1594 72.765V18.6349C10.1594 8.3591 18.5323 0 28.8252 0H83.0447C93.3376 0 101.71 8.3591 101.71 18.6349V72.765C101.71 83.0409 93.3376 91.4 83.0447 91.4ZM28.8252 1.77476C19.513 1.77476 11.9371 9.33818 11.9371 18.6349V72.765C11.9371 82.0618 19.513 89.6252 28.8252 89.6252H83.0447C92.3569 89.6252 99.9328 82.0618 99.9328 72.765V18.6349C99.9328 9.33818 92.3569 1.77476 83.0447 1.77476H28.8252Z" fill="#020202"/>
<path fill-rule="evenodd" clip-rule="evenodd" d="M57.3749 23.7581C65.7182 29.4876 68.7729 32.1734 78.4821 34.0428V38.1188C78.4821 51.811 69.638 63.5392 57.3749 67.8992C45.1118 63.5392 36.2678 51.811 36.2678 38.1188V34.0428C45.977 32.1734 49.0316 29.4846 57.3749 23.7581ZM57.3749 37.3527C59.9022 37.3527 61.9525 39.3966 61.9525 41.9227C61.9525 43.4519 61.1999 44.8067 60.0444 45.6349C60.6192 48.5248 61.197 51.4176 61.7718 54.3075H52.9811C53.5559 51.4176 54.1336 48.5277 54.7084 45.6349C53.5529 44.8067 52.8003 43.4519 52.8003 41.9227C52.8003 39.3996 54.8477 37.3527 57.3779 37.3527H57.3749Z" fill="black"/>
<path d="M216.975 229.305L37.9372 170.088C24.1657 165.533 9.30308 172.986 4.74059 186.735C0.178096 200.483 7.64348 215.321 21.415 219.876L200.452 279.093C214.224 283.648 229.086 276.195 233.649 262.447C238.211 248.698 230.746 233.86 216.975 229.305Z" fill="black"/>
<path d="M208.76 281.757C205.839 281.757 202.909 281.29 200.055 280.347L21.0123 221.141C6.56561 216.364 -1.29475 200.743 3.4902 186.317C5.80713 179.33 10.7136 173.663 17.2999 170.359C23.8892 167.055 31.3703 166.511 38.3685 168.824L217.412 228.03C224.41 230.343 230.087 235.241 233.396 241.817C236.705 248.395 237.251 255.864 234.934 262.85C232.617 269.837 227.71 275.504 221.124 278.808C217.222 280.767 213.003 281.754 208.76 281.754V281.757ZM29.6667 170.075C25.8328 170.075 22.0226 170.968 18.4969 172.737C12.5446 175.722 8.11516 180.842 6.02045 187.154C1.6977 200.184 8.79957 214.296 21.8508 218.612L200.894 277.817C207.217 279.909 213.978 279.415 219.927 276.43C225.879 273.446 230.309 268.326 232.403 262.013C234.498 255.701 234.003 248.954 231.014 243.012C228.024 237.069 222.896 232.647 216.573 230.556L37.53 171.35C34.9524 170.498 32.3036 170.075 29.6667 170.075Z" fill="black"/>
<path d="M436.794 60.0258L383.101 52.5017C373.378 51.1393 364.39 57.9035 363.026 67.6101L355.489 121.215C354.124 130.921 360.9 139.894 370.623 141.257L424.316 148.781C434.038 150.143 443.026 143.379 444.391 133.673L451.928 80.068C453.292 70.3614 446.517 61.3882 436.794 60.0258Z" fill="black"/>
<path d="M424.207 149.627L370.512 142.108C360.32 140.679 353.192 131.24 354.62 121.065L362.151 67.4586C363.582 57.2833 373.037 50.1665 383.229 51.5922L436.924 59.1113C447.116 60.54 454.244 69.9787 452.816 80.154L445.285 133.761C443.854 143.936 434.399 151.053 424.207 149.627ZM382.986 53.3522C373.765 52.0596 365.209 58.499 363.914 67.707L356.383 121.314C355.088 130.519 361.538 139.061 370.761 140.354L424.456 147.873C433.677 149.165 442.233 142.726 443.528 133.518L451.059 79.9115C452.354 70.7064 445.904 62.1639 436.681 60.8713L382.986 53.3522Z" fill="#020202"/>
<path d="M432.213 55.544L378.519 48.0199C368.797 46.6575 359.809 53.4217 358.444 63.1283L350.908 116.733C349.543 126.439 356.318 135.413 366.041 136.775L419.734 144.299C429.457 145.662 438.445 138.897 439.809 129.191L447.346 75.5862C448.711 65.8796 441.935 56.9064 432.213 55.544Z" fill="#FF7051"/>
<path d="M422.234 145.773C421.354 145.773 420.462 145.711 419.568 145.586L365.873 138.067C360.818 137.36 356.341 134.728 353.269 130.661C350.196 126.59 348.893 121.571 349.604 116.525L357.135 62.9181C358.599 52.5003 368.284 45.2149 378.713 46.6761L432.408 54.1952C442.844 55.6564 450.141 65.3199 448.677 75.7407L441.146 129.347C439.807 138.869 431.603 145.776 422.234 145.776V145.773ZM419.938 142.951C428.915 144.208 437.247 137.937 438.506 128.975L446.037 75.368C447.297 66.4025 441.015 58.0878 432.038 56.8307L378.343 49.3116C369.366 48.0545 361.034 54.3224 359.775 63.2878L352.244 116.894C351.633 121.237 352.753 125.558 355.399 129.057C358.042 132.56 361.893 134.822 366.243 135.432L419.938 142.951Z" fill="black"/>
<path d="M419.627 145.148L365.932 137.629C355.739 136.201 348.611 126.762 350.039 116.587L357.571 62.9802C359.002 52.8049 368.456 45.6881 378.648 47.1139L432.343 54.6329C442.535 56.0616 449.664 65.5003 448.236 75.6756L440.704 129.282C439.273 139.457 429.819 146.574 419.627 145.148ZM378.405 48.8738C369.185 47.5812 360.628 54.0206 359.333 63.2286L351.802 116.835C350.507 126.04 356.957 134.583 366.18 135.875L419.876 143.394C429.096 144.687 437.653 138.248 438.947 129.04L446.479 75.4331C447.773 66.228 441.323 57.6855 432.1 56.3929L378.405 48.8738Z" fill="#020202"/>
<path d="M214.899 225.554L35.8613 166.337C22.0898 161.782 7.22715 169.235 2.66466 182.984C-1.89783 196.732 5.56755 211.57 19.3391 216.125L198.376 275.342C212.148 279.897 227.01 272.444 231.573 258.696C236.135 244.947 228.67 230.109 214.899 225.554Z" fill="#FFC903"/>
<path d="M206.636 277.998C203.765 277.998 200.849 277.548 197.978 276.599L18.9354 217.393C11.9372 215.08 6.26043 210.182 2.95096 203.606C-0.35851 197.028 -0.903668 189.559 1.41326 182.572C6.19821 168.149 21.8448 160.302 36.2945 165.079L215.338 224.285C229.784 229.062 237.645 244.683 232.86 259.109C229.026 270.665 218.214 278.004 206.636 278.004V277.998ZM198.817 274.07C211.868 278.385 226.004 271.295 230.327 258.266C234.649 245.236 227.547 231.124 214.496 226.808L35.456 167.602C22.4048 163.287 8.26922 170.377 3.94646 183.406C1.85175 189.719 2.34654 196.469 5.33603 202.408C8.32551 208.351 13.4541 212.773 19.7768 214.864L198.82 274.07H198.817Z" fill="black"/>
<path d="M41.7461 200.864L45.5118 189.511L53.8611 192.271L53.2596 194.087L47.0229 192.026L46.0985 194.815L50.7768 196.362L50.1842 198.146L45.5059 196.599L44.4571 199.761L50.6938 201.822L50.0953 203.624L41.7461 200.864Z" fill="black"/>
<path d="M51.0404 203.937L55.3958 200.752L53.867 195.909L56.2372 196.693L56.5483 197.823C56.7439 198.501 56.6787 199.335 56.3468 200.332L57.1261 200.589C57.369 199.855 57.9023 199.172 58.723 198.545L59.6622 197.829L61.8221 198.545L57.6772 201.53L59.3541 206.691L56.9483 205.895L56.5572 204.523C56.3587 203.822 56.418 202.988 56.7379 202.026L55.9587 201.769C55.7217 202.447 55.1825 203.109 54.344 203.754L53.1826 204.647L51.0375 203.937H51.0404Z" fill="black"/>
<path d="M59.6385 210.291L63.3687 199.051L65.1731 199.648C65.022 200.104 64.6042 200.589 63.9139 201.104L64.8413 201.411C65.339 200.891 65.8279 200.53 66.3108 200.323C66.7938 200.116 67.413 200.125 68.1655 200.352C69.1403 200.675 69.804 201.334 70.1595 202.334C70.5121 203.334 70.4795 204.47 70.0558 205.745C69.6321 207.019 68.9803 207.951 68.1033 208.537C67.2234 209.123 66.296 209.253 65.3212 208.93C64.0532 208.51 63.3806 207.57 63.3036 206.102L62.3614 205.792C62.5095 206.357 62.5806 206.886 62.5717 207.383C62.5629 207.877 62.4236 208.537 62.151 209.359L61.6236 210.948L59.6415 210.291H59.6385ZM67.973 205.055C68.5744 203.239 68.21 202.109 66.8797 201.669C66.2516 201.461 65.6738 201.53 65.1435 201.879C64.6131 202.225 64.2043 202.837 63.9139 203.712C63.6265 204.576 63.588 205.31 63.7983 205.907C64.0087 206.505 64.4324 206.91 65.0724 207.12C66.4056 207.561 67.3715 206.872 67.9759 205.055H67.973Z" fill="black"/>
<path d="M71.3535 206.173C71.7743 204.907 72.4853 204.002 73.4927 203.452C74.4971 202.902 75.5637 202.813 76.6896 203.186C77.8362 203.565 78.6302 204.257 79.0657 205.259C79.5013 206.262 79.5191 207.374 79.1132 208.596C79.0569 208.768 78.9769 208.972 78.8761 209.202L73.1579 207.312C72.9416 208.069 72.9535 208.694 73.1846 209.185C73.4186 209.676 73.8275 210.019 74.4112 210.211C75.3 210.504 76.1207 210.238 76.8762 209.406L78.4436 210.664C77.294 212.024 75.7741 212.391 73.8779 211.764C72.675 211.368 71.8424 210.67 71.3832 209.67C70.921 208.67 70.9121 207.507 71.3506 206.176L71.3535 206.173ZM73.706 205.872L77.3947 207.09C77.5518 206.508 77.5251 205.999 77.3147 205.57C77.1014 205.141 76.7311 204.836 76.2007 204.662C75.703 204.496 75.2289 204.52 74.7815 204.733C74.3341 204.946 73.9756 205.325 73.709 205.872H73.706ZM76.3725 202.127L77.9695 199.974L80.2775 200.737L77.6732 202.556L76.3755 202.127H76.3725Z" fill="black"/>
<path d="M79.6139 213.388L82.2923 205.31L84.1292 205.916C83.8774 206.673 83.3589 207.383 82.5738 208.049L83.5011 208.356C83.9663 207.576 84.4759 207.04 85.0329 206.756C85.5899 206.472 86.2625 206.46 87.0535 206.724C87.2609 206.792 87.4535 206.874 87.6402 206.972L86.9676 208.998C86.7335 208.874 86.4462 208.756 86.1114 208.643C85.2433 208.356 84.544 208.374 84.0107 208.697C83.4774 209.019 83.0389 209.693 82.6982 210.72L81.596 214.045L79.6139 213.391V213.388Z" fill="black"/>
<path d="M86.4047 215.63L89.0831 207.555L91.0504 208.206L88.372 216.284L86.4047 215.633V215.63ZM89.4297 206.244L90.0963 204.233L92.2088 204.931L91.5422 206.943L89.4297 206.244Z" fill="black"/>
<path d="M91.56 212.855C91.9807 211.589 92.6918 210.684 93.6991 210.134C94.7035 209.584 95.7701 209.495 96.896 209.868C98.0426 210.247 98.8366 210.939 99.2722 211.941C99.7077 212.944 99.7255 214.056 99.3196 215.278C99.2633 215.45 99.1833 215.654 99.0826 215.884L93.3643 213.994C93.148 214.751 93.1599 215.376 93.391 215.867C93.625 216.358 94.0339 216.701 94.6176 216.893C95.5064 217.186 96.3271 216.92 97.0827 216.088L98.65 217.346C97.5004 218.706 95.9805 219.073 94.0843 218.446C92.8814 218.05 92.0488 217.351 91.5896 216.352C91.1274 215.352 91.1185 214.189 91.557 212.858L91.56 212.855ZM93.9124 212.554L97.6011 213.772C97.7582 213.19 97.7315 212.681 97.5211 212.252C97.3108 211.823 96.9375 211.518 96.4071 211.344C95.9094 211.178 95.4353 211.202 94.9879 211.415C94.5376 211.628 94.1821 212.007 93.9154 212.554H93.9124Z" fill="black"/>
<path d="M99.8203 220.07L102.499 211.992L104.336 212.598C104.149 213.089 103.678 213.622 102.919 214.201L103.847 214.509C104.244 213.968 104.724 213.568 105.29 213.311C105.856 213.054 106.451 213.03 107.082 213.237C107.98 213.533 108.581 214.027 108.881 214.713C109.18 215.399 109.177 216.216 108.863 217.156L107.097 222.475L105.115 221.821L106.75 216.89C107.133 215.733 106.839 214.994 105.864 214.672C105.302 214.485 104.828 214.515 104.445 214.76C103.882 215.115 103.411 215.87 103.026 217.026L101.8 220.724L99.8174 220.067L99.8203 220.07Z" fill="black"/>
<path d="M110.199 219.002C110.614 217.748 111.352 216.855 112.403 216.322C113.458 215.79 114.581 215.719 115.772 216.112C116.682 216.414 117.384 216.89 117.882 217.55C118.379 218.206 118.634 218.931 118.646 219.727L116.611 219.774C116.584 218.697 116.11 218.008 115.188 217.703C114.572 217.499 113.991 217.564 113.446 217.902C112.901 218.239 112.489 218.827 112.211 219.671C111.926 220.525 111.906 221.253 112.146 221.853C112.386 222.454 112.812 222.856 113.431 223.06C114.406 223.383 115.254 223.057 115.974 222.084L117.621 223.368C117.055 224.057 116.362 224.524 115.541 224.767C114.72 225.013 113.849 224.983 112.931 224.678C111.707 224.273 110.839 223.548 110.326 222.504C109.814 221.46 109.769 220.292 110.199 219.005V219.002Z" fill="black"/>
<path d="M119.209 221.998C119.63 220.732 120.341 219.827 121.348 219.277C122.353 218.727 123.419 218.638 124.545 219.011C125.692 219.389 126.486 220.082 126.921 221.084C127.357 222.087 127.375 223.199 126.969 224.421C126.912 224.595 126.832 224.797 126.732 225.027L121.013 223.137C120.797 223.894 120.809 224.519 121.043 225.01C121.277 225.501 121.686 225.844 122.27 226.036C123.158 226.329 123.979 226.063 124.735 225.231L126.302 226.489C125.152 227.849 123.632 228.216 121.736 227.589C120.533 227.192 119.701 226.494 119.242 225.495C118.779 224.495 118.77 223.332 119.209 222.001V221.998ZM121.561 221.697L125.25 222.915C125.407 222.333 125.381 221.824 125.17 221.395C124.96 220.966 124.586 220.661 124.056 220.487C123.558 220.321 123.084 220.345 122.637 220.558C122.19 220.768 121.831 221.149 121.564 221.697H121.561Z" fill="black"/>
<path d="M131.407 228.21L133.442 228.216C133.321 229.231 133.813 229.923 134.918 230.286C135.374 230.437 135.753 230.473 136.064 230.396C136.373 230.319 136.574 230.133 136.672 229.84C136.758 229.58 136.737 229.34 136.612 229.118C136.488 228.896 136.215 228.669 135.801 228.435L134.793 227.885C133.967 227.408 133.398 226.92 133.09 226.42C132.782 225.921 132.746 225.311 132.986 224.587C133.235 223.841 133.742 223.335 134.506 223.072C135.273 222.809 136.135 222.838 137.101 223.158C137.999 223.454 138.675 223.886 139.125 224.448C139.575 225.01 139.812 225.601 139.833 226.222L137.922 226.382C137.892 225.459 137.436 224.853 136.559 224.563C136.135 224.424 135.78 224.397 135.493 224.489C135.205 224.581 135.016 224.761 134.927 225.03C134.847 225.267 134.873 225.483 135.001 225.675C135.128 225.867 135.416 226.092 135.86 226.347L136.852 226.891C137.564 227.281 138.124 227.766 138.532 228.346C138.944 228.914 139.027 229.571 138.781 230.319C138.521 231.109 137.99 231.632 137.196 231.893C136.402 232.153 135.451 232.1 134.346 231.733C133.425 231.428 132.69 230.955 132.142 230.31C131.593 229.665 131.348 228.964 131.407 228.204V228.21Z" fill="black"/>
<path d="M139.969 231.041C140.313 230.003 141.024 229.405 142.1 229.242C143.166 229.068 144.505 229.162 146.114 229.526L146.206 229.251C146.488 228.408 146.132 227.823 145.148 227.497C144.1 227.151 143.311 227.388 142.784 228.21L141.137 227.142C141.439 226.521 142.002 226.089 142.831 225.841C143.658 225.592 144.597 225.643 145.649 225.989C146.766 226.358 147.533 226.897 147.951 227.607C148.372 228.317 148.419 229.162 148.091 230.145L147.009 233.404C146.941 233.611 146.926 233.753 146.968 233.83C147.006 233.91 147.131 233.984 147.335 234.052L148.099 234.303L147.584 235.859L146.739 235.581C146.091 235.365 145.694 235.102 145.551 234.791C145.409 234.481 145.433 233.996 145.625 233.342L144.926 233.111C144.556 233.65 144.103 234.019 143.566 234.226C143.03 234.434 142.44 234.431 141.803 234.218C141.024 233.96 140.464 233.543 140.126 232.969C139.789 232.396 139.738 231.751 139.975 231.038L139.969 231.041ZM145.468 231.473L145.685 230.825C144.63 230.597 143.803 230.529 143.202 230.624C142.6 230.718 142.215 231.014 142.049 231.511C141.943 231.836 141.963 232.12 142.117 232.369C142.269 232.617 142.541 232.807 142.929 232.934C143.46 233.108 143.96 233.073 144.434 232.827C144.905 232.582 145.252 232.129 145.471 231.47L145.468 231.473Z" fill="black"/>
<path d="M148.879 236.291L152.644 224.939L154.627 225.592L150.861 236.945L148.879 236.291Z" fill="black"/>
<path d="M153.483 235.51C153.827 234.472 154.538 233.874 155.613 233.712C156.68 233.537 158.019 233.632 159.628 233.996L159.72 233.721C160.001 232.878 159.646 232.292 158.662 231.967C157.613 231.621 156.825 231.857 156.298 232.679L154.65 231.612C154.952 230.99 155.515 230.559 156.345 230.31C157.172 230.062 158.111 230.112 159.163 230.458C160.28 230.828 161.047 231.366 161.465 232.076C161.885 232.786 161.933 233.632 161.604 234.614L160.523 237.874C160.454 238.081 160.44 238.223 160.481 238.3C160.52 238.379 160.644 238.453 160.848 238.521L161.613 238.773L161.097 240.329L160.253 240.051C159.604 239.835 159.207 239.571 159.065 239.261C158.923 238.95 158.946 238.465 159.139 237.809L158.44 237.578C158.069 238.116 157.616 238.486 157.08 238.693C156.543 238.9 155.954 238.897 155.317 238.684C154.538 238.427 153.978 238.01 153.64 237.436C153.302 236.862 153.252 236.217 153.489 235.504L153.483 235.51ZM158.982 235.942L159.198 235.294C158.143 235.067 157.317 234.998 156.715 235.093C156.114 235.188 155.729 235.484 155.563 235.981C155.456 236.306 155.477 236.593 155.631 236.838C155.782 237.087 156.055 237.276 156.443 237.403C156.973 237.578 157.474 237.542 157.948 237.297C158.419 237.051 158.766 236.599 158.985 235.939L158.982 235.942Z" fill="black"/>
<path d="M162.395 240.761L165.073 232.685L166.91 233.292C166.659 234.049 166.14 234.759 165.355 235.424L166.279 235.732C166.744 234.948 167.254 234.416 167.811 234.132C168.368 233.848 169.041 233.836 169.832 234.099C170.039 234.167 170.232 234.25 170.418 234.348L169.746 236.374C169.512 236.25 169.224 236.131 168.89 236.019C168.021 235.732 167.322 235.75 166.789 236.072C166.256 236.395 165.817 237.069 165.476 238.095L164.374 241.42L162.392 240.763L162.395 240.761Z" fill="black"/>
<path d="M169.186 243.006L171.864 234.927L173.831 235.578L171.153 243.653L169.186 243.003V243.006ZM172.211 233.62L172.877 231.609L174.99 232.307L174.323 234.318L172.211 233.62Z" fill="black"/>
<path d="M174.344 240.231C174.765 238.965 175.476 238.06 176.483 237.51C177.488 236.96 178.554 236.871 179.68 237.244C180.827 237.622 181.621 238.314 182.056 239.317C182.492 240.32 182.51 241.432 182.104 242.654C182.047 242.825 181.967 243.029 181.867 243.26L176.148 241.37C175.932 242.127 175.944 242.751 176.175 243.242C176.409 243.733 176.818 244.076 177.405 244.269C178.293 244.561 179.114 244.295 179.87 243.464L181.437 244.721C180.287 246.082 178.767 246.449 176.871 245.822C175.668 245.425 174.836 244.727 174.377 243.727C173.914 242.728 173.905 241.565 174.344 240.234V240.231ZM176.696 239.929L180.385 241.148C180.542 240.565 180.516 240.057 180.302 239.628C180.092 239.199 179.719 238.894 179.188 238.72C178.69 238.554 178.216 238.578 177.769 238.791C177.322 239.001 176.963 239.382 176.696 239.929ZM179.363 236.185L180.96 234.031L183.268 234.794L180.664 236.614L179.366 236.185H179.363Z" fill="black"/>
<path d="M423.12 98.2417L418.16 83.7863C417.985 83.2716 417.591 82.9196 417.067 82.7983L407.79 81.5471C407.539 80.1835 406.777 78.9471 405.616 78.0982L405.868 76.3145C406.084 74.7734 405.011 73.2945 403.417 73.0726C401.823 72.8508 400.392 73.9275 400.17 75.5188L399.918 77.3025C398.618 77.8083 397.542 78.7874 396.926 80.0297L387.664 78.6838C387.175 78.6631 386.651 78.885 386.343 79.3346L377.638 91.8762C377.392 92.2341 377.273 92.7103 377.309 93.157C377.878 97.511 380.734 100.664 384.597 101.205C388.461 101.747 392.073 99.5017 393.821 95.4701C393.978 95.05 393.99 94.6093 393.859 94.1479L390.025 82.8959L396.392 83.8365C396.692 85.2061 397.412 86.3863 398.526 87.2322L395.987 105.308C395.512 108.683 392.556 111.168 389.128 111.032L383.88 110.887C383.294 110.854 382.784 111.322 382.704 111.901L382.34 114.504C382.251 115.131 382.707 115.735 383.335 115.824L411.144 119.719C411.772 119.808 412.377 119.352 412.466 118.725L412.83 116.122C412.91 115.543 412.546 115.001 411.98 114.824L406.703 113.496C403.379 112.638 401.213 109.482 401.687 106.11L404.226 88.0338C405.527 87.528 406.546 86.5904 407.213 85.3569L413.592 86.1999L406.804 95.964C406.558 96.322 406.439 96.7982 406.475 97.2448C407.044 101.599 409.9 104.752 413.763 105.293C417.627 105.835 421.239 103.59 422.987 99.5579C423.242 99.1497 423.253 98.712 423.12 98.2505V98.2417ZM390.452 91.7993L381.617 90.5629L387.285 82.4611L390.452 91.7993ZM410.824 94.6537L416.492 86.5519L419.707 95.899L410.824 94.6537Z" fill="black"/>
<path d="M140.906 124.544C139.923 132.412 132.737 137.996 124.854 137.014C116.973 136.031 111.379 128.857 112.362 120.987C113.346 113.119 120.531 107.535 128.415 108.517C136.296 109.499 141.89 116.673 140.906 124.544Z" fill="black"/>
<path d="M130.737 139.402L118.564 137.885C113.018 137.209 107.419 138.602 102.835 141.789C98.2521 144.978 95.0075 149.739 93.7204 155.167L150.566 162.254C150.654 156.678 148.681 151.263 145.024 147.048C141.367 142.832 136.28 140.111 130.74 139.402L130.737 139.402Z" fill="black"/>
<path d="M171.142 137.934L173.578 118.444L181.973 119.49C184.053 119.748 185.644 120.512 186.741 121.781C187.838 123.05 188.27 124.62 188.036 126.495C187.804 128.352 186.993 129.769 185.606 130.743C184.219 131.721 182.493 132.08 180.43 131.822L175.662 131.228L174.769 138.382L171.145 137.932L171.142 137.934ZM176.044 128.168L180.172 128.682C181.308 128.823 182.238 128.652 182.97 128.169C183.699 127.686 184.124 126.969 184.244 126.023C184.364 125.077 184.129 124.294 183.548 123.674C182.964 123.055 182.096 122.674 180.942 122.53L176.814 122.016L176.044 128.168Z" fill="black"/>
<path d="M189.185 140.184L190.917 126.318L194.069 126.711C193.907 128.012 193.299 129.322 192.248 130.642L193.838 130.84C194.334 129.433 194.986 128.411 195.793 127.776C196.6 127.14 197.68 126.907 199.039 127.078C199.393 127.123 199.732 127.194 200.06 127.29L199.624 130.77C199.204 130.644 198.709 130.542 198.131 130.47C196.643 130.284 195.522 130.536 194.765 131.224C194.009 131.912 193.521 133.137 193.301 134.902L192.588 140.61L189.185 140.187L189.185 140.184Z" fill="black"/>
<path d="M200.231 134.52C200.499 132.366 201.376 130.685 202.857 129.476C204.339 128.266 206.103 127.789 208.148 128.042C210.193 128.297 211.786 129.192 212.924 130.729C214.063 132.266 214.498 134.111 214.23 136.263C213.96 138.435 213.077 140.121 211.588 141.32C210.096 142.519 208.34 142.994 206.313 142.741C204.304 142.492 202.724 141.587 201.568 140.029C200.412 138.471 199.966 136.633 200.231 134.518L200.231 134.52ZM210.71 135.883C210.897 134.399 210.717 133.213 210.177 132.324C209.637 131.438 208.845 130.928 207.805 130.799C206.726 130.663 205.825 130.961 205.101 131.691C204.377 132.42 203.922 133.528 203.736 135.012C203.553 136.479 203.722 137.642 204.25 138.497C204.775 139.354 205.577 139.849 206.656 139.984C207.735 140.12 208.634 139.835 209.354 139.133C210.075 138.432 210.527 137.348 210.71 135.881L210.71 135.883Z" fill="black"/>
<path d="M231.801 131.413L230.068 145.279L226.665 144.855L228.067 133.636L222.238 132.909L220.836 144.129L217.433 143.705L218.835 132.485L216.019 132.134L216.35 129.49L219.165 129.841L219.412 127.864C219.556 126.713 219.971 125.857 220.656 125.291C221.34 124.725 222.24 124.512 223.355 124.65L227.203 125.131L226.857 127.888L224.209 127.557C223.353 127.449 222.873 127.834 222.762 128.706L222.566 130.265L231.798 131.416L231.801 131.413ZM228.994 125.322L232.59 125.77L232.16 129.222L228.563 128.774L228.994 125.322Z" fill="black"/>
<path d="M234.165 145.79L236.602 126.3L240.005 126.724L237.569 146.213L234.165 145.79Z" fill="black"/>
<path d="M247.747 143.862L251.028 143.225C251.158 144.9 252.173 145.857 254.068 146.091C254.849 146.188 255.476 146.125 255.946 145.902C256.416 145.679 256.685 145.316 256.748 144.813C256.805 144.367 256.696 143.988 256.424 143.669C256.152 143.353 255.644 143.072 254.9 142.829L253.1 142.265C251.616 141.76 250.543 141.155 249.886 140.452C249.227 139.748 248.977 138.775 249.133 137.531C249.292 136.251 249.948 135.276 251.098 134.608C252.248 133.94 253.65 133.711 255.305 133.918C256.848 134.11 258.07 134.587 258.978 135.351C259.884 136.116 260.455 136.992 260.689 137.983L257.664 138.849C257.32 137.373 256.395 136.541 254.89 136.355C254.166 136.265 253.585 136.339 253.148 136.575C252.711 136.814 252.466 137.164 252.408 137.629C252.357 138.036 252.464 138.375 252.735 138.645C253.003 138.914 253.536 139.183 254.332 139.452L256.104 140.011C257.376 140.414 258.431 141.017 259.276 141.821C260.122 142.605 260.467 143.636 260.304 144.919C260.136 146.273 259.451 147.286 258.254 147.958C257.056 148.628 255.51 148.847 253.614 148.61C252.034 148.412 250.697 147.884 249.608 147.021C248.517 146.159 247.897 145.107 247.752 143.862L247.747 143.862Z" fill="black"/>
<path d="M262.443 145.695C262.666 143.912 263.616 142.722 265.298 142.12C266.962 141.497 269.148 141.225 271.857 141.297L271.917 140.825C272.098 139.376 271.343 138.548 269.65 138.337C267.847 138.112 266.654 138.746 266.071 140.239L263.078 139.047C263.365 137.952 264.135 137.071 265.391 136.408C266.643 135.744 268.174 135.525 269.977 135.75C271.891 135.987 273.301 136.612 274.204 137.62C275.108 138.628 275.454 139.976 275.241 141.666L274.541 147.262C274.496 147.616 274.52 147.848 274.608 147.962C274.696 148.077 274.918 148.155 275.273 148.2L276.583 148.363L276.249 151.035L274.798 150.855C273.683 150.716 272.96 150.418 272.631 149.962C272.299 149.507 272.187 148.721 272.287 147.602L271.087 147.452C270.663 148.436 270.05 149.178 269.25 149.683C268.451 150.185 267.503 150.369 266.406 150.233C265.067 150.065 264.034 149.574 263.304 148.759C262.575 147.944 262.287 146.921 262.44 145.697L262.443 145.695ZM271.439 144.638L271.578 143.525C269.807 143.494 268.45 143.649 267.512 143.995C266.571 144.34 266.048 144.94 265.943 145.791C265.873 146.348 265.999 146.802 266.325 147.153C266.648 147.503 267.146 147.723 267.814 147.804C268.723 147.918 269.52 147.701 270.204 147.156C270.886 146.61 271.298 145.769 271.439 144.638Z" fill="black"/>
<path d="M278.479 151.312L280.915 131.822L284.318 132.245L281.882 151.735L278.479 151.312Z" fill="black"/>
<path d="M285.644 148.588C285.866 146.805 286.817 145.614 288.499 145.012C290.163 144.389 292.348 144.118 295.058 144.19L295.118 143.715C295.298 142.266 294.544 141.438 292.851 141.228C291.048 141.002 289.854 141.636 289.271 143.129L286.278 141.937C286.566 140.842 287.336 139.961 288.591 139.298C289.844 138.634 291.372 138.415 293.178 138.64C295.092 138.878 296.502 139.502 297.405 140.51C298.309 141.519 298.655 142.867 298.442 144.556L297.741 150.152C297.696 150.506 297.72 150.738 297.808 150.852C297.897 150.967 298.119 151.046 298.474 151.091L299.784 151.253L299.45 153.925L297.998 153.745C296.884 153.606 296.16 153.308 295.831 152.852C295.502 152.397 295.388 151.611 295.488 150.492L294.288 150.342C293.864 151.326 293.25 152.068 292.451 152.573C291.651 153.075 290.703 153.259 289.606 153.123C288.268 152.955 287.234 152.464 286.505 151.649C285.776 150.834 285.488 149.811 285.641 148.587L285.644 148.588ZM294.64 147.531L294.778 146.418C293.008 146.386 291.651 146.542 290.712 146.887C289.772 147.233 289.249 147.833 289.143 148.684C289.074 149.24 289.2 149.695 289.525 150.045C289.849 150.396 290.347 150.615 291.015 150.697C291.924 150.811 292.721 150.594 293.405 150.048C294.087 149.503 294.498 148.662 294.64 147.531Z" fill="black"/>
<path d="M301.679 154.204L303.412 140.338L306.564 140.732C306.401 142.032 305.793 143.342 304.742 144.662L306.332 144.86C306.829 143.453 307.48 142.432 308.287 141.796C309.094 141.16 310.175 140.928 311.534 141.099C311.888 141.144 312.227 141.214 312.554 141.31L312.118 144.79C311.699 144.662 311.203 144.563 310.625 144.491C309.138 144.304 308.016 144.557 307.26 145.245C306.504 145.933 306.015 147.158 305.796 148.922L305.083 154.631L301.679 154.207L301.679 154.204Z" fill="black"/>
<path d="M313.336 155.658L315.069 141.792L318.444 142.213L316.712 156.079L313.336 155.658ZM315.204 139.576L315.634 136.125L319.259 136.575L318.828 140.027L315.204 139.576Z" fill="black"/>
<path d="M320.758 149.541C321.029 147.369 321.888 145.68 323.331 144.475C324.774 143.27 326.463 142.786 328.398 143.029C330.368 143.275 331.866 144.135 332.89 145.611C333.914 147.087 334.296 148.872 334.032 150.97C333.996 151.267 333.933 151.618 333.843 152.02L324.028 150.797C323.925 152.086 324.139 153.087 324.672 153.803C325.204 154.52 325.974 154.942 326.979 155.066C328.502 155.255 329.74 154.563 330.695 152.984L333.621 154.507C332.205 157.064 329.871 158.14 326.619 157.735C324.557 157.477 322.991 156.618 321.929 155.157C320.866 153.696 320.477 151.823 320.763 149.541L320.758 149.541ZM324.454 148.304L330.783 149.094C330.85 148.103 330.646 147.295 330.165 146.67C329.685 146.044 328.991 145.674 328.079 145.56C327.224 145.455 326.469 145.642 325.814 146.126C325.159 146.61 324.703 147.335 324.451 148.302L324.454 148.304Z" fill="black"/>
<path d="M168.532 160.038L169.759 150.234L171.583 150.462L170.356 160.266L168.532 160.038Z" fill="black"/>
<path d="M172.588 160.542L173.46 153.567L175.045 153.765C174.973 154.193 174.676 154.702 174.156 155.289L174.954 155.388C175.187 154.886 175.514 154.486 175.931 154.187C176.348 153.889 176.829 153.772 177.371 153.841C178.147 153.937 178.713 154.24 179.067 154.75C179.421 155.26 179.548 155.92 179.446 156.731L178.871 161.324L177.161 161.11L177.693 156.853C177.819 155.853 177.461 155.302 176.618 155.197C176.133 155.137 175.753 155.235 175.483 155.495C175.085 155.874 174.823 156.56 174.696 157.56L174.297 160.753L172.586 160.54L172.588 160.542Z" fill="black"/>
<path d="M181.51 161.654L182.216 156.01L180.798 155.832L180.964 154.501L182.382 154.679L182.505 153.684C182.577 153.104 182.786 152.673 183.131 152.389C183.476 152.105 183.928 151.997 184.488 152.067L186.425 152.307L186.251 153.694L184.918 153.529C184.489 153.475 184.246 153.669 184.189 154.107L184.09 154.892L185.788 155.102L185.622 156.433L183.924 156.22L183.218 161.865L181.507 161.651L181.51 161.654Z" fill="black"/>
<path d="M185.914 158.662C186.05 157.58 186.49 156.734 187.237 156.123C187.984 155.512 188.869 155.273 189.899 155.403C190.927 155.532 191.729 155.98 192.302 156.754C192.876 157.528 193.093 158.454 192.958 159.539C192.822 160.632 192.377 161.479 191.627 162.083C190.878 162.686 189.993 162.925 188.973 162.798C187.963 162.672 187.168 162.218 186.585 161.434C186.005 160.65 185.779 159.726 185.914 158.662ZM191.185 159.348C191.278 158.602 191.188 158.004 190.916 157.557C190.643 157.11 190.246 156.856 189.722 156.79C189.18 156.724 188.727 156.872 188.362 157.238C187.998 157.604 187.769 158.163 187.676 158.909C187.583 159.648 187.67 160.23 187.933 160.662C188.198 161.093 188.6 161.342 189.142 161.411C189.684 161.48 190.137 161.336 190.499 160.983C190.86 160.63 191.089 160.084 191.18 159.348L191.185 159.348Z" fill="black"/>
<path d="M194.107 163.225L194.979 156.25L196.564 156.448C196.482 157.102 196.177 157.759 195.648 158.423L196.447 158.522C196.696 157.815 197.025 157.299 197.429 156.98C197.834 156.661 198.38 156.545 199.063 156.629C199.24 156.65 199.412 156.687 199.576 156.736L199.356 158.487C199.146 158.424 198.895 158.374 198.605 158.338C197.857 158.244 197.291 158.371 196.912 158.716C196.532 159.061 196.287 159.679 196.175 160.566L195.817 163.438L194.107 163.225Z" fill="black"/>
<path d="M199.971 163.955L200.843 156.98L202.359 157.169C202.302 157.618 202.062 158.071 201.634 158.528L202.433 158.628C202.879 157.574 203.578 157.106 204.531 157.226C205.008 157.286 205.399 157.478 205.704 157.807C206.01 158.134 206.19 158.567 206.247 159.105L206.851 159.18C207.063 158.703 207.368 158.339 207.772 158.086C208.175 157.834 208.61 157.736 209.077 157.794C209.768 157.881 210.301 158.181 210.675 158.696C211.047 159.212 211.182 159.885 211.079 160.716L210.51 165.268L208.813 165.058L209.345 160.801C209.471 159.8 209.11 159.249 208.27 159.144C207.821 159.087 207.479 159.173 207.241 159.4C207.016 159.61 206.854 159.856 206.756 160.145C206.659 160.431 206.582 160.807 206.522 161.274L206.092 164.718L204.41 164.508L204.942 160.251C205.068 159.251 204.71 158.699 203.867 158.594C203.438 158.54 203.1 158.627 202.854 158.851C202.479 159.194 202.234 159.817 202.122 160.722L201.692 164.166L199.981 163.953L199.971 163.955Z" fill="black"/>
<path d="M212.313 163.674C212.424 162.776 212.904 162.178 213.748 161.874C214.586 161.561 215.685 161.424 217.049 161.461L217.079 161.222C217.169 160.494 216.79 160.076 215.938 159.971C215.031 159.857 214.43 160.178 214.136 160.928L212.631 160.328C212.774 159.778 213.163 159.335 213.795 158.999C214.427 158.666 215.193 158.554 216.1 158.668C217.063 158.788 217.773 159.102 218.228 159.608C218.682 160.115 218.855 160.794 218.75 161.643L218.398 164.459C218.377 164.636 218.387 164.754 218.433 164.812C218.478 164.869 218.59 164.91 218.768 164.931L219.428 165.012L219.26 166.356L218.53 166.266C217.97 166.197 217.605 166.046 217.439 165.817C217.273 165.588 217.216 165.191 217.267 164.629L216.663 164.554C216.451 165.049 216.143 165.423 215.74 165.676C215.339 165.928 214.861 166.022 214.308 165.953C213.635 165.869 213.115 165.621 212.749 165.211C212.383 164.801 212.238 164.286 212.313 163.671L212.313 163.674ZM216.838 163.143L216.907 162.584C216.017 162.568 215.336 162.646 214.862 162.82C214.39 162.994 214.124 163.295 214.073 163.723C214.037 164.003 214.102 164.233 214.264 164.408C214.428 164.585 214.676 164.693 215.012 164.735C215.47 164.792 215.871 164.683 216.215 164.409C216.56 164.136 216.766 163.713 216.836 163.143L216.838 163.143Z" fill="black"/>
<path d="M221.08 164.782L221.564 160.918L220.048 160.728L220.214 159.397L221.729 159.587L222.003 157.402L223.714 157.615L223.44 159.8L225.292 160.031L225.127 161.362L223.275 161.131L222.824 164.729C222.77 165.157 222.958 165.4 223.387 165.454L224.875 165.64L224.7 167.04L222.624 166.781C222.062 166.712 221.649 166.502 221.38 166.15C221.11 165.798 221.01 165.344 221.08 164.782Z" fill="black"/>
<path d="M226.061 167.208L226.934 160.233L228.632 160.443L227.759 167.419L226.062 167.206L226.061 167.208ZM227 159.119L227.217 157.383L229.04 157.611L228.824 159.347L227 159.119Z" fill="black"/>
<path d="M229.78 164.129C229.916 163.047 230.356 162.202 231.103 161.591C231.85 160.98 232.735 160.741 233.765 160.87C234.793 160.999 235.596 161.448 236.169 162.222C236.742 162.995 236.959 163.922 236.827 165.007C236.691 166.099 236.246 166.947 235.496 167.55C234.746 168.154 233.862 168.392 232.842 168.266C231.832 168.14 231.035 167.686 230.454 166.902C229.873 166.118 229.648 165.194 229.783 164.129L229.78 164.129ZM235.051 164.815C235.144 164.069 235.055 163.471 234.782 163.024C234.509 162.577 234.112 162.321 233.588 162.257C233.046 162.188 232.593 162.34 232.229 162.706C231.864 163.072 231.635 163.631 231.542 164.377C231.449 165.116 231.536 165.698 231.799 166.129C232.064 166.561 232.466 166.81 233.008 166.878C233.55 166.945 234.003 166.804 234.365 166.451C234.727 166.097 234.955 165.551 235.046 164.815L235.051 164.815Z" fill="black"/>
<path d="M237.973 168.692L238.845 161.717L240.43 161.915C240.358 162.343 240.06 162.852 239.54 163.439L240.339 163.538C240.572 163.036 240.898 162.636 241.315 162.337C241.733 162.039 242.214 161.922 242.756 161.991C243.531 162.087 244.097 162.39 244.451 162.9C244.805 163.41 244.932 164.07 244.83 164.881L244.256 169.474L242.545 169.261L243.077 165.004C243.203 164.003 242.843 163.452 242.003 163.347C241.517 163.287 241.137 163.385 240.87 163.645C240.472 164.024 240.209 164.71 240.083 165.71L239.683 168.903L237.973 168.69L237.973 168.692Z" fill="black"/>
<path d="M245.868 167.858L247.519 167.538C247.584 168.38 248.095 168.862 249.048 168.979C249.441 169.027 249.756 168.997 249.992 168.883C250.229 168.769 250.363 168.589 250.396 168.335C250.423 168.112 250.37 167.918 250.234 167.762C250.098 167.602 249.843 167.462 249.467 167.339L248.563 167.056C247.816 166.801 247.278 166.498 246.947 166.142C246.616 165.789 246.489 165.299 246.567 164.673C246.648 164.029 246.976 163.539 247.556 163.203C248.134 162.866 248.841 162.75 249.673 162.855C250.449 162.951 251.065 163.191 251.522 163.577C251.976 163.961 252.264 164.403 252.381 164.901L250.859 165.336C250.687 164.593 250.221 164.176 249.463 164.08C249.099 164.035 248.807 164.071 248.589 164.193C248.37 164.312 248.246 164.49 248.216 164.723C248.189 164.928 248.245 165.099 248.379 165.235C248.513 165.371 248.781 165.505 249.183 165.64L250.074 165.921C250.714 166.123 251.246 166.428 251.669 166.831C252.094 167.227 252.268 167.744 252.187 168.391C252.102 169.073 251.759 169.581 251.155 169.919C250.552 170.255 249.775 170.365 248.819 170.247C248.026 170.148 247.353 169.882 246.803 169.448C246.254 169.014 245.942 168.484 245.868 167.86L245.868 167.858Z" fill="black"/>
<path d="M256.881 171.05L257.753 164.075L259.451 164.286L258.579 171.261L256.881 171.05ZM257.82 162.961L258.036 161.225L259.86 161.453L259.643 163.189L257.82 162.961Z" fill="black"/>
<path d="M260.655 171.519L261.527 164.544L263.042 164.733C262.985 165.182 262.745 165.635 262.318 166.093L263.116 166.192C263.563 165.138 264.261 164.67 265.214 164.79C265.692 164.85 266.082 165.042 266.388 165.369C266.694 165.696 266.874 166.128 266.931 166.667L267.535 166.742C267.747 166.265 268.052 165.9 268.455 165.648C268.859 165.396 269.293 165.298 269.761 165.355C270.452 165.442 270.984 165.742 271.359 166.258C271.731 166.774 271.865 167.447 271.763 168.278L271.194 172.83L269.496 172.619L270.028 168.362C270.155 167.362 269.794 166.811 268.954 166.706C268.504 166.649 268.163 166.735 267.925 166.962C267.699 167.171 267.538 167.418 267.44 167.706C267.342 167.993 267.266 168.369 267.206 168.836L266.776 172.28L265.093 172.07L265.626 167.813C265.752 166.812 265.394 166.261 264.551 166.156C264.122 166.102 263.783 166.188 263.535 166.413C263.16 166.755 262.915 167.378 262.803 168.284L262.373 171.728L260.662 171.514L260.655 171.519Z" fill="black"/>
<path d="M272.855 175.815L274.067 166.111L275.624 166.306C275.576 166.699 275.312 167.159 274.839 167.688L275.638 167.787C275.959 167.287 276.295 166.915 276.655 166.669C277.015 166.424 277.516 166.333 278.163 166.396C279.006 166.501 279.649 166.929 280.097 167.682C280.544 168.436 280.7 169.364 280.562 170.464C280.423 171.567 280.045 172.424 279.429 173.04C278.81 173.656 278.079 173.91 277.24 173.805C276.145 173.669 275.449 173.012 275.148 171.837L274.334 171.735C274.545 172.168 274.687 172.587 274.762 172.989C274.835 173.391 274.827 173.946 274.74 174.657L274.568 176.029L272.858 175.815L272.855 175.815ZM278.766 170.236C278.962 168.667 278.485 167.813 277.335 167.669C276.792 167.602 276.334 167.751 275.962 168.117C275.59 168.483 275.353 169.044 275.26 169.801C275.166 170.547 275.254 171.147 275.518 171.597C275.786 172.046 276.193 172.308 276.745 172.374C277.896 172.519 278.568 171.806 278.763 170.236L278.766 170.236Z" fill="black"/>
<path d="M281.669 170.597C281.804 169.515 282.244 168.669 282.991 168.058C283.736 167.45 284.624 167.209 285.654 167.338C286.681 167.467 287.484 167.916 288.057 168.689C288.63 169.463 288.848 170.39 288.712 171.474C288.577 172.567 288.132 173.415 287.382 174.018C286.632 174.621 285.747 174.86 284.727 174.734C283.718 174.608 282.923 174.154 282.34 173.37C281.759 172.585 281.534 171.661 281.669 170.597ZM286.939 171.283C287.033 170.537 286.943 169.939 286.67 169.492C286.398 169.045 286.001 168.788 285.477 168.725C284.935 168.656 284.481 168.807 284.117 169.173C283.753 169.54 283.524 170.098 283.43 170.845C283.337 171.583 283.425 172.166 283.687 172.597C283.952 173.028 284.355 173.277 284.897 173.346C285.439 173.412 285.892 173.272 286.253 172.918C286.615 172.565 286.844 172.019 286.934 171.283L286.939 171.283Z" fill="black"/>
<path d="M289.861 175.16L290.733 168.185L292.318 168.383C292.237 169.037 291.931 169.695 291.402 170.359L292.201 170.458C292.451 169.75 292.779 169.234 293.184 168.915C293.589 168.596 294.134 168.48 294.817 168.564C294.994 168.585 295.166 168.622 295.33 168.671L295.111 170.423C294.901 170.36 294.649 170.309 294.359 170.273C293.612 170.18 293.046 170.306 292.666 170.651C292.286 170.996 292.041 171.614 291.93 172.501L291.572 175.374L289.861 175.16Z" fill="black"/>
<path d="M296.647 174.2L297.131 170.336L295.615 170.146L295.781 168.815L297.296 169.005L297.57 166.82L299.281 167.033L299.007 169.218L300.859 169.449L300.693 170.78L298.841 170.549L298.39 174.149C298.336 174.578 298.525 174.82 298.954 174.874L300.441 175.06L300.267 176.46L298.191 176.202C297.629 176.133 297.215 175.922 296.946 175.57C296.677 175.219 296.577 174.764 296.646 174.203L296.647 174.2Z" fill="black"/>
<path d="M301.432 174.782C301.544 173.885 302.023 173.287 302.868 172.983C303.705 172.67 304.804 172.533 306.168 172.57L306.198 172.331C306.288 171.603 305.91 171.185 305.057 171.08C304.15 170.966 303.55 171.286 303.256 172.037L301.75 171.437C301.894 170.887 302.283 170.444 302.914 170.108C303.543 169.775 304.313 169.663 305.219 169.777C306.183 169.897 306.893 170.211 307.347 170.717C307.801 171.224 307.974 171.903 307.869 172.752L307.517 175.568C307.496 175.745 307.507 175.863 307.552 175.921C307.597 175.978 307.71 176.019 307.887 176.04L308.547 176.121L308.379 177.465L307.649 177.375C307.089 177.305 306.724 177.155 306.558 176.926C306.392 176.697 306.335 176.3 306.386 175.738L305.783 175.663C305.571 176.158 305.263 176.532 304.859 176.785C304.458 177.037 303.98 177.131 303.428 177.062C302.755 176.978 302.234 176.73 301.868 176.32C301.502 175.909 301.357 175.395 301.432 174.78L301.432 174.782ZM305.958 174.252L306.027 173.693C305.136 173.677 304.455 173.755 303.981 173.929C303.509 174.103 303.244 174.404 303.192 174.832C303.156 175.112 303.222 175.342 303.383 175.517C303.548 175.694 303.795 175.802 304.132 175.844C304.589 175.901 304.99 175.792 305.335 175.516C305.68 175.239 305.886 174.819 305.955 174.25L305.958 174.252Z" fill="black"/>
<path d="M309.499 177.608L310.371 170.633L311.956 170.831C311.884 171.259 311.586 171.768 311.066 172.355L311.865 172.454C312.098 171.952 312.424 171.552 312.842 171.253C313.259 170.955 313.74 170.838 314.282 170.907C315.058 171.003 315.624 171.306 315.978 171.816C316.331 172.326 316.458 172.987 316.356 173.797L315.782 178.39L314.071 178.177L314.604 173.92C314.73 172.919 314.369 172.368 313.529 172.263C313.043 172.203 312.663 172.301 312.393 172.561C311.995 172.94 311.733 173.626 311.607 174.626L311.207 177.819L309.496 177.606L309.499 177.608Z" fill="black"/>
<path d="M318.712 176.949L319.196 173.085L317.68 172.895L317.846 171.564L319.362 171.754L319.635 169.569L321.346 169.782L321.072 171.967L322.924 172.198L322.759 173.529L320.907 173.298L320.456 176.898C320.402 177.327 320.59 177.569 321.019 177.623L322.507 177.809L322.332 179.209L320.257 178.951C319.697 178.882 319.281 178.671 319.012 178.319C318.743 177.968 318.643 177.513 318.712 176.952L318.712 176.949Z" fill="black"/>
<path d="M323.485 175.809C323.62 174.717 324.053 173.869 324.779 173.262C325.506 172.656 326.355 172.412 327.328 172.534C328.32 172.658 329.074 173.09 329.588 173.835C330.103 174.576 330.295 175.474 330.163 176.531C330.145 176.68 330.113 176.856 330.069 177.059L325.131 176.443C325.079 177.09 325.188 177.595 325.454 177.955C325.723 178.314 326.108 178.527 326.614 178.59C327.382 178.686 328.004 178.337 328.484 177.541L329.956 178.308C329.245 179.593 328.069 180.135 326.433 179.931C325.395 179.802 324.608 179.369 324.072 178.634C323.537 177.9 323.341 176.958 323.485 175.809ZM325.345 175.187L328.53 175.584C328.564 175.086 328.461 174.678 328.22 174.365C327.978 174.05 327.629 173.864 327.172 173.806C326.743 173.752 326.362 173.848 326.031 174.092C325.702 174.335 325.474 174.701 325.347 175.187L325.345 175.187Z" fill="black"/>
<path d="M330.947 178.462L332.598 178.142C332.662 178.984 333.174 179.466 334.127 179.584C334.52 179.632 334.834 179.601 335.073 179.488C335.31 179.374 335.444 179.194 335.477 178.94C335.504 178.717 335.451 178.523 335.315 178.364C335.179 178.204 334.924 178.064 334.548 177.941L333.641 177.657C332.894 177.402 332.356 177.1 332.026 176.744C331.695 176.389 331.567 175.901 331.645 175.275C331.726 174.631 332.057 174.141 332.635 173.805C333.212 173.468 333.917 173.352 334.752 173.457C335.528 173.553 336.144 173.793 336.598 174.179C337.054 174.563 337.34 175.005 337.46 175.503L335.938 175.938C335.763 175.195 335.3 174.778 334.542 174.682C334.177 174.637 333.886 174.673 333.667 174.792C333.449 174.912 333.325 175.089 333.295 175.323C333.268 175.528 333.324 175.698 333.458 175.834C333.592 175.97 333.86 176.104 334.262 176.24L335.153 176.52C335.792 176.725 336.323 177.027 336.748 177.431C337.173 177.824 337.347 178.344 337.265 178.99C337.181 179.672 336.837 180.18 336.234 180.519C335.631 180.857 334.854 180.964 333.901 180.847C333.104 180.747 332.435 180.481 331.884 180.047C331.336 179.613 331.023 179.083 330.95 178.457L330.947 178.462Z" fill="black"/>
</g>
<defs>
<clipPath id="clip0_180_1188">
<rect width="453" height="282" fill="white"/>
</clipPath>
</defs>
</svg>
