<svg width="71" height="96" viewBox="0 0 71 96" fill="none" xmlns="http://www.w3.org/2000/svg">
<g clip-path="url(#clip0_519_197)">
<path d="M83.6735 22.4245L39.1048 8.00582C31.0344 5.39493 22.3246 9.667 19.6509 17.5478L4.8853 61.0694C2.21159 68.9502 6.58645 77.4553 14.6568 80.0662L59.2255 94.4849C67.2959 97.0958 76.0057 92.8237 78.6794 84.943L93.445 41.4213C96.1187 33.5406 91.7438 25.0354 83.6735 22.4245Z" fill="black"/>
<path d="M58.9914 95.1958L14.4214 80.78C5.95996 78.0441 1.35722 69.095 4.15889 60.8349L18.9215 17.3119C21.7232 9.0493 30.8876 4.5547 39.3464 7.29054L83.9165 21.7063C92.3779 24.4422 96.9807 33.3913 94.179 41.6514L79.4164 85.1744C76.6147 93.437 67.4503 97.9316 58.9914 95.1958ZM38.8641 8.71859C31.2083 6.2433 22.9187 10.3095 20.3839 17.7855L5.62129 61.3084C3.08645 68.7844 7.25046 76.8791 14.9063 79.3544L59.4763 93.7702C67.1322 96.2455 75.4217 92.1793 77.9566 84.7034L92.7192 41.1804C95.254 33.7044 91.09 25.6097 83.4342 23.1344L38.8641 8.71859Z" fill="#020202"/>
<path d="M80.3353 15.9332L35.7666 1.51449C27.6963 -1.09641 18.9865 3.17567 16.3128 11.0564L1.54717 54.5781C-1.12654 62.4588 3.24832 70.964 11.3187 73.5749L55.8874 87.9936C63.9578 90.6045 72.6676 86.3324 75.3413 78.4516L90.1069 34.93C92.7806 27.0492 88.4057 18.5441 80.3353 15.9332Z" fill="#EFEFEF"/>
<path d="M55.6536 88.7069L11.0835 74.2911C2.62206 71.5553 -1.98067 62.6062 0.820996 54.3461L15.5836 10.8231C18.3853 2.56047 27.5497 -1.93413 36.0086 0.80171L80.5786 15.2175C89.04 17.9533 93.6428 26.9025 90.8411 35.1626L76.0785 78.6855C73.2768 86.9482 64.1124 91.4428 55.6536 88.7069ZM35.5262 2.22976C27.8704 -0.245526 19.5809 3.82066 17.046 11.2966L2.2834 54.8171C-0.251436 62.293 3.91257 70.3878 11.5684 72.8631L56.1385 87.2789C63.7943 89.7542 72.0838 85.688 74.6187 78.212L89.3813 34.6891C91.9161 27.2131 87.7521 19.1183 80.0963 16.643L35.5262 2.22976Z" fill="#020202"/>
<path d="M62.2678 52.0361C60.9696 55.8668 59.6688 59.695 58.3706 63.5257C58.3321 63.6409 58.2936 63.7561 58.2526 63.8689C57.7446 65.2794 56.7927 65.8155 55.3046 65.4623C53.6524 65.069 52.0104 64.6305 50.3658 64.2046C47.0228 63.3403 43.6824 62.4734 40.3419 61.604C37.3863 60.8349 34.4333 60.0457 31.4726 59.2991C30.141 58.9634 29.2712 58.2218 28.9275 56.904C28.8274 56.5157 28.6555 56.1449 28.5195 55.7666C27.8396 53.8851 27.1726 51.9985 26.4773 50.122C25.9847 48.7917 25.9334 47.5115 26.4131 46.1285C28.7376 39.4267 30.9902 32.6998 33.2711 25.983C33.3557 25.7299 33.4609 25.4794 33.5918 25.2464C34.11 24.3169 34.9464 23.9061 35.9983 24.1441C37.7352 24.5349 39.4619 24.9733 41.1911 25.3967C43.9466 26.0707 46.6995 26.7496 49.4525 27.4261C52.1002 28.0775 54.7453 28.7389 57.3956 29.3752C58.7811 29.7084 59.8202 30.4575 60.654 31.59C62.3806 33.94 64.1663 36.2474 65.9392 38.5649C66.3779 39.1386 66.4626 39.7098 66.2214 40.4063C64.8821 44.2796 63.5788 48.1628 62.2626 52.0436L62.2678 52.0361ZM59.8509 51.4674C60.9901 48.1077 62.1318 44.7481 63.2684 41.3884C63.5968 40.4163 63.3607 39.9704 62.3755 39.7123C59.9767 39.0784 57.5778 38.4546 55.1789 37.8283C51.6794 36.9138 48.1799 35.9969 44.6804 35.0824C43.0102 34.6465 41.3399 34.2106 39.6672 33.7846C38.9642 33.6043 38.5768 33.7846 38.2612 34.4185C38.1842 34.5738 38.1252 34.7417 38.0713 34.9045C35.87 41.3934 33.6687 47.8848 31.4674 54.3736C30.9543 55.8868 31.2391 56.3979 32.8272 56.8138C34.4179 57.2297 36.0111 57.6381 37.6018 58.054C43.2616 59.5396 48.9188 61.0253 54.5786 62.511C55.4868 62.749 56.023 62.4985 56.3899 61.6567C56.454 61.5089 56.5028 61.3535 56.5541 61.2007C57.6548 57.9563 58.7554 54.7118 59.8561 51.4649L59.8509 51.4674ZM61.9394 37.009C61.9778 36.974 62.0163 36.9389 62.0548 36.9038C61.9701 36.7334 61.9111 36.548 61.7982 36.3977C60.9516 35.2428 60.0998 34.0953 59.2455 32.9454C58.8016 32.3491 58.2756 31.8255 57.547 31.6C56.49 31.2743 55.415 31.0012 54.3374 30.7331C49.3652 29.4955 44.3879 28.2654 39.4132 27.0377C38.6153 26.8398 37.8173 26.6444 37.0117 26.4841C36.8398 26.449 36.5525 26.5191 36.4704 26.6419C36.396 26.7496 36.4832 27.0227 36.5807 27.173C37.1759 28.0875 37.8173 28.9769 38.3997 29.8988C38.9103 30.7081 39.6005 31.2217 40.5446 31.4597C42.9743 32.076 45.3988 32.7224 47.8259 33.3512C51.6846 34.3559 55.5433 35.358 59.4045 36.3576C60.2486 36.5756 61.0953 36.7911 61.9394 37.0065V37.009Z" fill="black"/>
<path d="M37.8994 53.4667C39.3977 49.0473 40.8858 44.6604 42.3841 40.246C41.83 40.013 41.2912 39.785 40.755 39.5595C40.814 38.7728 41.4939 38.1941 42.2405 38.3669C43.9902 38.7728 45.7271 39.2213 47.4641 39.6722C47.577 39.7023 47.6898 39.8877 47.7258 40.023C48.4647 42.6862 49.1933 45.3519 49.9245 48.0176C50.2863 49.3379 50.648 50.6582 51.0098 51.976C51.038 52.0762 51.0739 52.1739 51.1355 52.3618C52.1874 49.2627 53.2085 46.2488 54.2476 43.1872C53.796 42.9793 53.3342 42.7488 52.857 42.5584C52.5543 42.4381 52.5312 42.2853 52.6723 42.0348C52.9314 41.5763 53.4548 41.2807 53.9859 41.4109C55.6459 41.8193 57.2981 42.2628 58.9452 42.6912C58.8939 43.563 58.5501 43.8512 57.7163 43.756C57.1177 43.6891 56.7226 43.9372 56.531 44.5C55.0019 49.0047 53.4702 53.5093 51.9565 58.0164C51.8487 58.3371 51.6871 58.4624 51.3587 58.4874C50.4505 58.5601 49.5525 58.6027 48.6956 58.1993C48.1491 57.9412 47.8104 57.5078 47.6488 56.9667C47.2537 55.6589 46.8791 54.3411 46.5276 53.0207C45.7425 50.0644 44.9805 47.1031 44.2083 44.1468C44.1929 44.0842 44.1672 44.024 44.1211 43.8912C44.0492 44.029 43.9953 44.1117 43.9646 44.1994C42.9178 47.2785 41.8787 50.3601 40.8217 53.4366C40.7267 53.7147 40.7986 53.845 41.0397 53.9778C41.5965 54.2859 42.143 54.6166 42.6894 54.9373C42.3867 55.5411 41.9069 55.8242 41.2373 55.724C40.7113 55.6463 40.1957 55.491 39.68 55.3582C38.4587 55.0426 37.2452 54.7068 36.0214 54.4037C35.6596 54.3135 35.6571 54.1431 35.8084 53.8876C36.0009 53.5619 36.2702 53.374 36.6833 53.4091C37.0784 53.4416 37.4761 53.4466 37.8994 53.4642V53.4667Z" fill="black"/>
</g>
<defs>
<clipPath id="clip0_519_197">
<rect width="95" height="96" fill="white"/>
</clipPath>
</defs>
</svg>
